G04 #@! TF.FileFunction,Copper,L2,Bot,Signal*
%FSLAX46Y46*%
G04 Gerber Fmt 4.6, Leading zero omitted, Abs format (unit mm)*
G04 Created by KiCad (PCBNEW 4.0.4-snap1-stable) date Mon Feb 25 19:09:27 2019*
%MOMM*%
%LPD*%
G01*
G04 APERTURE LIST*
%ADD10C,0.100000*%
%ADD11R,1.198880X1.198880*%
%ADD12C,3.800000*%
%ADD13C,0.600000*%
%ADD14C,0.250000*%
%ADD15C,0.254000*%
G04 APERTURE END LIST*
D10*
D11*
X137193020Y-90678000D03*
X135094980Y-90678000D03*
X145321020Y-86614000D03*
X143222980Y-86614000D03*
X160494980Y-87376000D03*
X162593020Y-87376000D03*
X165320980Y-92964000D03*
X167419020Y-92964000D03*
X133383020Y-96774000D03*
X131284980Y-96774000D03*
X140428980Y-104902000D03*
X142527020Y-104902000D03*
X152366980Y-101092000D03*
X154465020Y-101092000D03*
X165828980Y-101854000D03*
X167927020Y-101854000D03*
X137193020Y-110744000D03*
X135094980Y-110744000D03*
X155160980Y-111760000D03*
X157259020Y-111760000D03*
X167352980Y-110490000D03*
X169451020Y-110490000D03*
X140174980Y-120396000D03*
X142273020Y-120396000D03*
X162593020Y-117856000D03*
X160494980Y-117856000D03*
X148115020Y-113538000D03*
X146016980Y-113538000D03*
X160561020Y-128524000D03*
X158462980Y-128524000D03*
X148115020Y-127762000D03*
X146016980Y-127762000D03*
D12*
X156464000Y-59436000D03*
D13*
X150368000Y-104140000D03*
X149860000Y-101092000D03*
X144780000Y-96774000D03*
X134874000Y-102616000D03*
X164084000Y-109728000D03*
X164338000Y-117602000D03*
X141478000Y-115824000D03*
X157480000Y-130810000D03*
X143510000Y-116332000D03*
X149098000Y-102362000D03*
X136144000Y-112268000D03*
X130556000Y-107696000D03*
X131572000Y-98552000D03*
X156210000Y-101092000D03*
X168148000Y-114554000D03*
X164084000Y-107696000D03*
X163830000Y-100584000D03*
X139192000Y-90678000D03*
X159004000Y-84836000D03*
X148336000Y-86360000D03*
X138938000Y-106934000D03*
X157480000Y-85852000D03*
X138430000Y-104902000D03*
X149860000Y-87884000D03*
X167132000Y-99568000D03*
X163322000Y-91440000D03*
X138938000Y-103886000D03*
X165608000Y-95504000D03*
X150368000Y-110236000D03*
X139700000Y-108712000D03*
X137414000Y-94996000D03*
X131826000Y-107442000D03*
X133858000Y-109728000D03*
X156718000Y-86614000D03*
X138938000Y-101600000D03*
X165862000Y-98806000D03*
X147320000Y-109728000D03*
X138684000Y-107950000D03*
X133858000Y-108458000D03*
X157734000Y-87630000D03*
X138938000Y-100584000D03*
D14*
X150368000Y-101600000D02*
X150368000Y-104140000D01*
X149860000Y-101092000D02*
X150368000Y-101600000D01*
X144780000Y-98044000D02*
X144780000Y-96774000D01*
X140462000Y-102362000D02*
X144780000Y-98044000D01*
X135128000Y-102362000D02*
X140462000Y-102362000D01*
X134874000Y-102616000D02*
X135128000Y-102362000D01*
X164084000Y-117348000D02*
X164084000Y-109728000D01*
X164338000Y-117602000D02*
X164084000Y-117348000D01*
X162814000Y-88392000D02*
X162814000Y-87596980D01*
X162814000Y-87596980D02*
X162593020Y-87376000D01*
X163830000Y-88392000D02*
X162814000Y-88392000D01*
X162814000Y-88392000D02*
X161544000Y-88392000D01*
X161544000Y-88392000D02*
X161544000Y-86326980D01*
X161544000Y-86106000D02*
X161544000Y-86326980D01*
X161544000Y-86326980D02*
X162593020Y-87376000D01*
X142527020Y-104902000D02*
X143510000Y-104902000D01*
X143510000Y-104902000D02*
X144272000Y-104140000D01*
X135094980Y-110744000D02*
X135094980Y-110964980D01*
X135094980Y-110964980D02*
X136398000Y-112268000D01*
X139192000Y-90678000D02*
X137193020Y-90678000D01*
X145321020Y-86614000D02*
X147066000Y-86614000D01*
X158496000Y-84328000D02*
X159004000Y-84836000D01*
X149352000Y-84328000D02*
X158496000Y-84328000D01*
X147066000Y-86614000D02*
X149352000Y-84328000D01*
X157700980Y-84836000D02*
X160494980Y-87376000D01*
X149860000Y-84836000D02*
X157700980Y-84836000D01*
X148336000Y-86360000D02*
X149860000Y-84836000D01*
X161036000Y-97248980D02*
X165320980Y-92964000D01*
X161036000Y-100076000D02*
X161036000Y-97248980D01*
X156210000Y-104902000D02*
X161036000Y-100076000D01*
X146558000Y-104902000D02*
X156210000Y-104902000D01*
X144780000Y-106680000D02*
X146558000Y-104902000D01*
X139192000Y-106680000D02*
X144780000Y-106680000D01*
X138938000Y-106934000D02*
X139192000Y-106680000D01*
X134112000Y-96774000D02*
X133383020Y-96774000D01*
X140716000Y-90170000D02*
X134112000Y-96774000D01*
X140716000Y-88900000D02*
X140716000Y-90170000D01*
X141732000Y-87884000D02*
X140716000Y-88900000D01*
X146304000Y-87884000D02*
X141732000Y-87884000D01*
X146812000Y-87376000D02*
X146304000Y-87884000D01*
X148336000Y-87376000D02*
X146812000Y-87376000D01*
X150368000Y-85344000D02*
X148336000Y-87376000D01*
X156972000Y-85344000D02*
X150368000Y-85344000D01*
X157480000Y-85852000D02*
X156972000Y-85344000D01*
X138430000Y-104902000D02*
X140428980Y-104902000D01*
X149352000Y-98077020D02*
X152366980Y-101092000D01*
X149352000Y-88392000D02*
X149352000Y-98077020D01*
X149860000Y-87884000D02*
X149352000Y-88392000D01*
X165828980Y-100871020D02*
X165828980Y-101854000D01*
X167132000Y-99568000D02*
X165828980Y-100871020D01*
X157734000Y-91440000D02*
X163322000Y-91440000D01*
X153416000Y-87122000D02*
X157734000Y-91440000D01*
X149606000Y-87122000D02*
X153416000Y-87122000D01*
X146304000Y-90424000D02*
X149606000Y-87122000D01*
X146304000Y-95250000D02*
X146304000Y-90424000D01*
X145542000Y-96012000D02*
X146304000Y-95250000D01*
X145542000Y-100838000D02*
X145542000Y-96012000D01*
X143002000Y-103378000D02*
X145542000Y-100838000D01*
X139446000Y-103378000D02*
X143002000Y-103378000D01*
X138938000Y-103886000D02*
X139446000Y-103378000D01*
X138209020Y-109728000D02*
X137193020Y-110744000D01*
X142494000Y-109728000D02*
X138209020Y-109728000D01*
X146812000Y-105410000D02*
X142494000Y-109728000D01*
X156464000Y-105410000D02*
X146812000Y-105410000D01*
X161544000Y-100330000D02*
X156464000Y-105410000D01*
X161544000Y-97536000D02*
X161544000Y-100330000D01*
X163576000Y-95504000D02*
X161544000Y-97536000D01*
X165608000Y-95504000D02*
X163576000Y-95504000D01*
X131826000Y-107696000D02*
X131826000Y-107442000D01*
X131826000Y-107188000D02*
X131826000Y-107696000D01*
X131826000Y-107188000D02*
X131826000Y-107188000D01*
X151892000Y-111760000D02*
X155160980Y-111760000D01*
X150368000Y-110236000D02*
X151892000Y-111760000D01*
X134874000Y-108712000D02*
X139700000Y-108712000D01*
X131826000Y-101092000D02*
X131826000Y-107188000D01*
X132588000Y-100838000D02*
X131826000Y-101092000D01*
X132588000Y-100330000D02*
X132588000Y-100838000D01*
X137414000Y-94996000D02*
X132588000Y-100330000D01*
X133858000Y-109728000D02*
X134874000Y-108712000D01*
X169672000Y-108170980D02*
X167352980Y-110490000D01*
X169672000Y-96012000D02*
X169672000Y-108170980D01*
X168910000Y-95250000D02*
X169672000Y-96012000D01*
X168910000Y-91440000D02*
X168910000Y-95250000D01*
X168402000Y-90932000D02*
X168910000Y-91440000D01*
X166878000Y-89662000D02*
X168402000Y-90932000D01*
X165862000Y-89154000D02*
X166878000Y-89662000D01*
X159258000Y-89154000D02*
X165862000Y-89154000D01*
X158750000Y-88138000D02*
X159258000Y-89154000D01*
X158750000Y-86868000D02*
X158750000Y-88138000D01*
X158496000Y-86614000D02*
X158750000Y-86868000D01*
X156718000Y-86614000D02*
X158496000Y-86614000D01*
X133350000Y-104140000D02*
X133096000Y-110615602D01*
X140174980Y-119346980D02*
X140174980Y-120396000D01*
X139446000Y-118618000D02*
X140174980Y-119346980D01*
X138938000Y-118618000D02*
X139446000Y-118618000D01*
X137160000Y-116840000D02*
X138938000Y-118618000D01*
X137160000Y-114679602D02*
X137160000Y-116840000D01*
X133096000Y-110615602D02*
X137160000Y-114679602D01*
X133604000Y-101600000D02*
X133350000Y-104140000D01*
X137668000Y-101346000D02*
X133604000Y-101600000D01*
X138938000Y-101600000D02*
X137668000Y-101346000D01*
X162593020Y-115857020D02*
X162593020Y-117856000D01*
X160717801Y-113981801D02*
X162593020Y-115857020D01*
X160717801Y-101918199D02*
X160717801Y-113981801D01*
X162052000Y-100584000D02*
X160717801Y-101918199D01*
X162052000Y-99314000D02*
X162052000Y-100584000D01*
X162306000Y-99060000D02*
X162052000Y-99314000D01*
X165608000Y-99060000D02*
X162306000Y-99060000D01*
X165862000Y-98806000D02*
X165608000Y-99060000D01*
X148115020Y-110523020D02*
X148115020Y-113538000D01*
X147320000Y-109728000D02*
X148115020Y-110523020D01*
X134366000Y-107950000D02*
X138684000Y-107950000D01*
X133858000Y-108458000D02*
X134366000Y-107950000D01*
X165608000Y-123477020D02*
X160561020Y-128524000D01*
X165608000Y-109982000D02*
X165608000Y-123477020D01*
X166370000Y-109220000D02*
X165608000Y-109982000D01*
X167640000Y-109220000D02*
X166370000Y-109220000D01*
X169210291Y-107649709D02*
X167640000Y-109220000D01*
X169210291Y-96312291D02*
X169210291Y-107649709D01*
X168402000Y-95504000D02*
X169210291Y-96312291D01*
X168402000Y-91636002D02*
X168402000Y-95504000D01*
X167640000Y-91128002D02*
X168402000Y-91636002D01*
X165608000Y-89916000D02*
X167640000Y-91128002D01*
X165100000Y-89916000D02*
X165608000Y-89916000D01*
X159004000Y-89916000D02*
X165100000Y-89916000D01*
X157988000Y-88138000D02*
X159004000Y-89916000D01*
X157988000Y-87884000D02*
X157988000Y-88138000D01*
X157734000Y-87630000D02*
X157988000Y-87884000D01*
X132588000Y-101854000D02*
X132588000Y-110998000D01*
X148115020Y-129760980D02*
X148115020Y-127762000D01*
X147574000Y-130302000D02*
X148115020Y-129760980D01*
X145542000Y-130302000D02*
X147574000Y-130302000D01*
X144526000Y-129286000D02*
X145542000Y-130302000D01*
X144526000Y-126746000D02*
X144526000Y-129286000D01*
X137922000Y-120142000D02*
X144526000Y-126746000D01*
X137922000Y-118618000D02*
X137922000Y-120142000D01*
X136652000Y-117348000D02*
X137922000Y-118618000D01*
X136652000Y-114808000D02*
X136652000Y-117348000D01*
X132588000Y-110998000D02*
X136652000Y-114808000D01*
X133096000Y-101092000D02*
X132588000Y-101854000D01*
X138938000Y-100584000D02*
X133096000Y-101092000D01*
D15*
G36*
X159957801Y-113981801D02*
X160015653Y-114272640D01*
X160180400Y-114519202D01*
X161833020Y-116171822D01*
X161833020Y-116639331D01*
X161758263Y-116653398D01*
X161542139Y-116792470D01*
X161536544Y-116800659D01*
X161454118Y-116718233D01*
X161220729Y-116621560D01*
X160780730Y-116621560D01*
X160621980Y-116780310D01*
X160621980Y-117729000D01*
X160641980Y-117729000D01*
X160641980Y-117983000D01*
X160621980Y-117983000D01*
X160621980Y-118931690D01*
X160780730Y-119090440D01*
X161220729Y-119090440D01*
X161454118Y-118993767D01*
X161536331Y-118911555D01*
X161741690Y-119051871D01*
X161993580Y-119102880D01*
X163192460Y-119102880D01*
X163427777Y-119058602D01*
X163643901Y-118919530D01*
X163788891Y-118707330D01*
X163839900Y-118455440D01*
X163839900Y-118407574D01*
X164151201Y-118536838D01*
X164523167Y-118537162D01*
X164848000Y-118402944D01*
X164848000Y-123162218D01*
X160733098Y-127277120D01*
X159961580Y-127277120D01*
X159726263Y-127321398D01*
X159510139Y-127460470D01*
X159504544Y-127468659D01*
X159422118Y-127386233D01*
X159188729Y-127289560D01*
X158748730Y-127289560D01*
X158589980Y-127448310D01*
X158589980Y-128397000D01*
X158609980Y-128397000D01*
X158609980Y-128651000D01*
X158589980Y-128651000D01*
X158589980Y-129599690D01*
X158748730Y-129758440D01*
X159188729Y-129758440D01*
X159422118Y-129661767D01*
X159504331Y-129579555D01*
X159709690Y-129719871D01*
X159961580Y-129770880D01*
X161160460Y-129770880D01*
X161395777Y-129726602D01*
X161611901Y-129587530D01*
X161756891Y-129375330D01*
X161807900Y-129123440D01*
X161807900Y-128351922D01*
X163856264Y-126303558D01*
X161632883Y-129603466D01*
X161190587Y-130222679D01*
X159163079Y-132503626D01*
X159153958Y-132515170D01*
X157379898Y-135049541D01*
X155624850Y-137055310D01*
X153384047Y-138051223D01*
X150371758Y-138302247D01*
X146850360Y-137799190D01*
X144553264Y-136650643D01*
X143707886Y-135798719D01*
X142851393Y-134799477D01*
X141565495Y-132656314D01*
X141339776Y-132185645D01*
X137954838Y-121587487D01*
X137810046Y-121104848D01*
X143766000Y-127060802D01*
X143766000Y-129286000D01*
X143823852Y-129576839D01*
X143988599Y-129823401D01*
X145004599Y-130839401D01*
X145251161Y-131004148D01*
X145542000Y-131062000D01*
X147574000Y-131062000D01*
X147864839Y-131004148D01*
X148111401Y-130839401D01*
X148652421Y-130298381D01*
X148817168Y-130051819D01*
X148875020Y-129760980D01*
X148875020Y-128978669D01*
X148949777Y-128964602D01*
X149165901Y-128825530D01*
X149176683Y-128809750D01*
X157228540Y-128809750D01*
X157228540Y-129249750D01*
X157325213Y-129483139D01*
X157503842Y-129661767D01*
X157737231Y-129758440D01*
X158177230Y-129758440D01*
X158335980Y-129599690D01*
X158335980Y-128651000D01*
X157387290Y-128651000D01*
X157228540Y-128809750D01*
X149176683Y-128809750D01*
X149310891Y-128613330D01*
X149361900Y-128361440D01*
X149361900Y-127798250D01*
X157228540Y-127798250D01*
X157228540Y-128238250D01*
X157387290Y-128397000D01*
X158335980Y-128397000D01*
X158335980Y-127448310D01*
X158177230Y-127289560D01*
X157737231Y-127289560D01*
X157503842Y-127386233D01*
X157325213Y-127564861D01*
X157228540Y-127798250D01*
X149361900Y-127798250D01*
X149361900Y-127162560D01*
X149317622Y-126927243D01*
X149178550Y-126711119D01*
X148966350Y-126566129D01*
X148714460Y-126515120D01*
X147515580Y-126515120D01*
X147280263Y-126559398D01*
X147064139Y-126698470D01*
X147058544Y-126706659D01*
X146976118Y-126624233D01*
X146742729Y-126527560D01*
X146302730Y-126527560D01*
X146143980Y-126686310D01*
X146143980Y-127635000D01*
X146163980Y-127635000D01*
X146163980Y-127889000D01*
X146143980Y-127889000D01*
X146143980Y-128837690D01*
X146302730Y-128996440D01*
X146742729Y-128996440D01*
X146976118Y-128899767D01*
X147058331Y-128817555D01*
X147263690Y-128957871D01*
X147355020Y-128976366D01*
X147355020Y-129446178D01*
X147259198Y-129542000D01*
X145856802Y-129542000D01*
X145311242Y-128996440D01*
X145731230Y-128996440D01*
X145889980Y-128837690D01*
X145889980Y-127889000D01*
X145869980Y-127889000D01*
X145869980Y-127635000D01*
X145889980Y-127635000D01*
X145889980Y-126686310D01*
X145731230Y-126527560D01*
X145291231Y-126527560D01*
X145246255Y-126546190D01*
X145228148Y-126455161D01*
X145228148Y-126455160D01*
X145063401Y-126208599D01*
X140497682Y-121642880D01*
X140774420Y-121642880D01*
X141009737Y-121598602D01*
X141225861Y-121459530D01*
X141231456Y-121451341D01*
X141313882Y-121533767D01*
X141547271Y-121630440D01*
X141987270Y-121630440D01*
X142146020Y-121471690D01*
X142146020Y-120523000D01*
X142400020Y-120523000D01*
X142400020Y-121471690D01*
X142558770Y-121630440D01*
X142998769Y-121630440D01*
X143232158Y-121533767D01*
X143410787Y-121355139D01*
X143507460Y-121121750D01*
X143507460Y-120681750D01*
X143348710Y-120523000D01*
X142400020Y-120523000D01*
X142146020Y-120523000D01*
X142126020Y-120523000D01*
X142126020Y-120269000D01*
X142146020Y-120269000D01*
X142146020Y-119320310D01*
X142400020Y-119320310D01*
X142400020Y-120269000D01*
X143348710Y-120269000D01*
X143507460Y-120110250D01*
X143507460Y-119670250D01*
X143410787Y-119436861D01*
X143232158Y-119258233D01*
X142998769Y-119161560D01*
X142558770Y-119161560D01*
X142400020Y-119320310D01*
X142146020Y-119320310D01*
X141987270Y-119161560D01*
X141547271Y-119161560D01*
X141313882Y-119258233D01*
X141231669Y-119340445D01*
X141026310Y-119200129D01*
X140900710Y-119174694D01*
X140877128Y-119056141D01*
X140877128Y-119056140D01*
X140712381Y-118809579D01*
X140044552Y-118141750D01*
X159260540Y-118141750D01*
X159260540Y-118581750D01*
X159357213Y-118815139D01*
X159535842Y-118993767D01*
X159769231Y-119090440D01*
X160209230Y-119090440D01*
X160367980Y-118931690D01*
X160367980Y-117983000D01*
X159419290Y-117983000D01*
X159260540Y-118141750D01*
X140044552Y-118141750D01*
X139983401Y-118080599D01*
X139736839Y-117915852D01*
X139446000Y-117858000D01*
X139252802Y-117858000D01*
X138525052Y-117130250D01*
X159260540Y-117130250D01*
X159260540Y-117570250D01*
X159419290Y-117729000D01*
X160367980Y-117729000D01*
X160367980Y-116780310D01*
X160209230Y-116621560D01*
X159769231Y-116621560D01*
X159535842Y-116718233D01*
X159357213Y-116896861D01*
X159260540Y-117130250D01*
X138525052Y-117130250D01*
X137920000Y-116525198D01*
X137920000Y-114679602D01*
X137862148Y-114388763D01*
X137697401Y-114142201D01*
X137378950Y-113823750D01*
X144782540Y-113823750D01*
X144782540Y-114263750D01*
X144879213Y-114497139D01*
X145057842Y-114675767D01*
X145291231Y-114772440D01*
X145731230Y-114772440D01*
X145889980Y-114613690D01*
X145889980Y-113665000D01*
X144941290Y-113665000D01*
X144782540Y-113823750D01*
X137378950Y-113823750D01*
X136367450Y-112812250D01*
X144782540Y-112812250D01*
X144782540Y-113252250D01*
X144941290Y-113411000D01*
X145889980Y-113411000D01*
X145889980Y-112462310D01*
X146143980Y-112462310D01*
X146143980Y-113411000D01*
X146163980Y-113411000D01*
X146163980Y-113665000D01*
X146143980Y-113665000D01*
X146143980Y-114613690D01*
X146302730Y-114772440D01*
X146742729Y-114772440D01*
X146976118Y-114675767D01*
X147058331Y-114593555D01*
X147263690Y-114733871D01*
X147515580Y-114784880D01*
X148714460Y-114784880D01*
X148949777Y-114740602D01*
X149165901Y-114601530D01*
X149310891Y-114389330D01*
X149361900Y-114137440D01*
X149361900Y-112938560D01*
X149317622Y-112703243D01*
X149178550Y-112487119D01*
X148966350Y-112342129D01*
X148875020Y-112323634D01*
X148875020Y-110523020D01*
X148854760Y-110421167D01*
X149432838Y-110421167D01*
X149574883Y-110764943D01*
X149837673Y-111028192D01*
X150181201Y-111170838D01*
X150228077Y-111170879D01*
X151354599Y-112297401D01*
X151601160Y-112462148D01*
X151649414Y-112471746D01*
X151892000Y-112520000D01*
X153944311Y-112520000D01*
X153958378Y-112594757D01*
X154097450Y-112810881D01*
X154309650Y-112955871D01*
X154561540Y-113006880D01*
X155760420Y-113006880D01*
X155995737Y-112962602D01*
X156211861Y-112823530D01*
X156217456Y-112815341D01*
X156299882Y-112897767D01*
X156533271Y-112994440D01*
X156973270Y-112994440D01*
X157132020Y-112835690D01*
X157132020Y-111887000D01*
X157386020Y-111887000D01*
X157386020Y-112835690D01*
X157544770Y-112994440D01*
X157984769Y-112994440D01*
X158218158Y-112897767D01*
X158396787Y-112719139D01*
X158493460Y-112485750D01*
X158493460Y-112045750D01*
X158334710Y-111887000D01*
X157386020Y-111887000D01*
X157132020Y-111887000D01*
X157112020Y-111887000D01*
X157112020Y-111633000D01*
X157132020Y-111633000D01*
X157132020Y-110684310D01*
X157386020Y-110684310D01*
X157386020Y-111633000D01*
X158334710Y-111633000D01*
X158493460Y-111474250D01*
X158493460Y-111034250D01*
X158396787Y-110800861D01*
X158218158Y-110622233D01*
X157984769Y-110525560D01*
X157544770Y-110525560D01*
X157386020Y-110684310D01*
X157132020Y-110684310D01*
X156973270Y-110525560D01*
X156533271Y-110525560D01*
X156299882Y-110622233D01*
X156217669Y-110704445D01*
X156012310Y-110564129D01*
X155760420Y-110513120D01*
X154561540Y-110513120D01*
X154326223Y-110557398D01*
X154110099Y-110696470D01*
X153965109Y-110908670D01*
X153946614Y-111000000D01*
X152206802Y-111000000D01*
X151303122Y-110096320D01*
X151303162Y-110050833D01*
X151161117Y-109707057D01*
X150898327Y-109443808D01*
X150554799Y-109301162D01*
X150182833Y-109300838D01*
X149839057Y-109442883D01*
X149575808Y-109705673D01*
X149433162Y-110049201D01*
X149432838Y-110421167D01*
X148854760Y-110421167D01*
X148817168Y-110232181D01*
X148652421Y-109985619D01*
X148255122Y-109588320D01*
X148255162Y-109542833D01*
X148113117Y-109199057D01*
X147850327Y-108935808D01*
X147506799Y-108793162D01*
X147134833Y-108792838D01*
X146791057Y-108934883D01*
X146527808Y-109197673D01*
X146385162Y-109541201D01*
X146384838Y-109913167D01*
X146526883Y-110256943D01*
X146789673Y-110520192D01*
X147133201Y-110662838D01*
X147180077Y-110662879D01*
X147355020Y-110837822D01*
X147355020Y-112321331D01*
X147280263Y-112335398D01*
X147064139Y-112474470D01*
X147058544Y-112482659D01*
X146976118Y-112400233D01*
X146742729Y-112303560D01*
X146302730Y-112303560D01*
X146143980Y-112462310D01*
X145889980Y-112462310D01*
X145731230Y-112303560D01*
X145291231Y-112303560D01*
X145057842Y-112400233D01*
X144879213Y-112578861D01*
X144782540Y-112812250D01*
X136367450Y-112812250D01*
X135533640Y-111978440D01*
X135820729Y-111978440D01*
X136054118Y-111881767D01*
X136136331Y-111799555D01*
X136341690Y-111939871D01*
X136593580Y-111990880D01*
X137792460Y-111990880D01*
X138027777Y-111946602D01*
X138243901Y-111807530D01*
X138388891Y-111595330D01*
X138439900Y-111343440D01*
X138439900Y-110571922D01*
X138523822Y-110488000D01*
X142494000Y-110488000D01*
X142784839Y-110430148D01*
X143031401Y-110265401D01*
X147126802Y-106170000D01*
X156464000Y-106170000D01*
X156754839Y-106112148D01*
X157001401Y-105947401D01*
X159957801Y-102991001D01*
X159957801Y-113981801D01*
X159957801Y-113981801D01*
G37*
X159957801Y-113981801D02*
X160015653Y-114272640D01*
X160180400Y-114519202D01*
X161833020Y-116171822D01*
X161833020Y-116639331D01*
X161758263Y-116653398D01*
X161542139Y-116792470D01*
X161536544Y-116800659D01*
X161454118Y-116718233D01*
X161220729Y-116621560D01*
X160780730Y-116621560D01*
X160621980Y-116780310D01*
X160621980Y-117729000D01*
X160641980Y-117729000D01*
X160641980Y-117983000D01*
X160621980Y-117983000D01*
X160621980Y-118931690D01*
X160780730Y-119090440D01*
X161220729Y-119090440D01*
X161454118Y-118993767D01*
X161536331Y-118911555D01*
X161741690Y-119051871D01*
X161993580Y-119102880D01*
X163192460Y-119102880D01*
X163427777Y-119058602D01*
X163643901Y-118919530D01*
X163788891Y-118707330D01*
X163839900Y-118455440D01*
X163839900Y-118407574D01*
X164151201Y-118536838D01*
X164523167Y-118537162D01*
X164848000Y-118402944D01*
X164848000Y-123162218D01*
X160733098Y-127277120D01*
X159961580Y-127277120D01*
X159726263Y-127321398D01*
X159510139Y-127460470D01*
X159504544Y-127468659D01*
X159422118Y-127386233D01*
X159188729Y-127289560D01*
X158748730Y-127289560D01*
X158589980Y-127448310D01*
X158589980Y-128397000D01*
X158609980Y-128397000D01*
X158609980Y-128651000D01*
X158589980Y-128651000D01*
X158589980Y-129599690D01*
X158748730Y-129758440D01*
X159188729Y-129758440D01*
X159422118Y-129661767D01*
X159504331Y-129579555D01*
X159709690Y-129719871D01*
X159961580Y-129770880D01*
X161160460Y-129770880D01*
X161395777Y-129726602D01*
X161611901Y-129587530D01*
X161756891Y-129375330D01*
X161807900Y-129123440D01*
X161807900Y-128351922D01*
X163856264Y-126303558D01*
X161632883Y-129603466D01*
X161190587Y-130222679D01*
X159163079Y-132503626D01*
X159153958Y-132515170D01*
X157379898Y-135049541D01*
X155624850Y-137055310D01*
X153384047Y-138051223D01*
X150371758Y-138302247D01*
X146850360Y-137799190D01*
X144553264Y-136650643D01*
X143707886Y-135798719D01*
X142851393Y-134799477D01*
X141565495Y-132656314D01*
X141339776Y-132185645D01*
X137954838Y-121587487D01*
X137810046Y-121104848D01*
X143766000Y-127060802D01*
X143766000Y-129286000D01*
X143823852Y-129576839D01*
X143988599Y-129823401D01*
X145004599Y-130839401D01*
X145251161Y-131004148D01*
X145542000Y-131062000D01*
X147574000Y-131062000D01*
X147864839Y-131004148D01*
X148111401Y-130839401D01*
X148652421Y-130298381D01*
X148817168Y-130051819D01*
X148875020Y-129760980D01*
X148875020Y-128978669D01*
X148949777Y-128964602D01*
X149165901Y-128825530D01*
X149176683Y-128809750D01*
X157228540Y-128809750D01*
X157228540Y-129249750D01*
X157325213Y-129483139D01*
X157503842Y-129661767D01*
X157737231Y-129758440D01*
X158177230Y-129758440D01*
X158335980Y-129599690D01*
X158335980Y-128651000D01*
X157387290Y-128651000D01*
X157228540Y-128809750D01*
X149176683Y-128809750D01*
X149310891Y-128613330D01*
X149361900Y-128361440D01*
X149361900Y-127798250D01*
X157228540Y-127798250D01*
X157228540Y-128238250D01*
X157387290Y-128397000D01*
X158335980Y-128397000D01*
X158335980Y-127448310D01*
X158177230Y-127289560D01*
X157737231Y-127289560D01*
X157503842Y-127386233D01*
X157325213Y-127564861D01*
X157228540Y-127798250D01*
X149361900Y-127798250D01*
X149361900Y-127162560D01*
X149317622Y-126927243D01*
X149178550Y-126711119D01*
X148966350Y-126566129D01*
X148714460Y-126515120D01*
X147515580Y-126515120D01*
X147280263Y-126559398D01*
X147064139Y-126698470D01*
X147058544Y-126706659D01*
X146976118Y-126624233D01*
X146742729Y-126527560D01*
X146302730Y-126527560D01*
X146143980Y-126686310D01*
X146143980Y-127635000D01*
X146163980Y-127635000D01*
X146163980Y-127889000D01*
X146143980Y-127889000D01*
X146143980Y-128837690D01*
X146302730Y-128996440D01*
X146742729Y-128996440D01*
X146976118Y-128899767D01*
X147058331Y-128817555D01*
X147263690Y-128957871D01*
X147355020Y-128976366D01*
X147355020Y-129446178D01*
X147259198Y-129542000D01*
X145856802Y-129542000D01*
X145311242Y-128996440D01*
X145731230Y-128996440D01*
X145889980Y-128837690D01*
X145889980Y-127889000D01*
X145869980Y-127889000D01*
X145869980Y-127635000D01*
X145889980Y-127635000D01*
X145889980Y-126686310D01*
X145731230Y-126527560D01*
X145291231Y-126527560D01*
X145246255Y-126546190D01*
X145228148Y-126455161D01*
X145228148Y-126455160D01*
X145063401Y-126208599D01*
X140497682Y-121642880D01*
X140774420Y-121642880D01*
X141009737Y-121598602D01*
X141225861Y-121459530D01*
X141231456Y-121451341D01*
X141313882Y-121533767D01*
X141547271Y-121630440D01*
X141987270Y-121630440D01*
X142146020Y-121471690D01*
X142146020Y-120523000D01*
X142400020Y-120523000D01*
X142400020Y-121471690D01*
X142558770Y-121630440D01*
X142998769Y-121630440D01*
X143232158Y-121533767D01*
X143410787Y-121355139D01*
X143507460Y-121121750D01*
X143507460Y-120681750D01*
X143348710Y-120523000D01*
X142400020Y-120523000D01*
X142146020Y-120523000D01*
X142126020Y-120523000D01*
X142126020Y-120269000D01*
X142146020Y-120269000D01*
X142146020Y-119320310D01*
X142400020Y-119320310D01*
X142400020Y-120269000D01*
X143348710Y-120269000D01*
X143507460Y-120110250D01*
X143507460Y-119670250D01*
X143410787Y-119436861D01*
X143232158Y-119258233D01*
X142998769Y-119161560D01*
X142558770Y-119161560D01*
X142400020Y-119320310D01*
X142146020Y-119320310D01*
X141987270Y-119161560D01*
X141547271Y-119161560D01*
X141313882Y-119258233D01*
X141231669Y-119340445D01*
X141026310Y-119200129D01*
X140900710Y-119174694D01*
X140877128Y-119056141D01*
X140877128Y-119056140D01*
X140712381Y-118809579D01*
X140044552Y-118141750D01*
X159260540Y-118141750D01*
X159260540Y-118581750D01*
X159357213Y-118815139D01*
X159535842Y-118993767D01*
X159769231Y-119090440D01*
X160209230Y-119090440D01*
X160367980Y-118931690D01*
X160367980Y-117983000D01*
X159419290Y-117983000D01*
X159260540Y-118141750D01*
X140044552Y-118141750D01*
X139983401Y-118080599D01*
X139736839Y-117915852D01*
X139446000Y-117858000D01*
X139252802Y-117858000D01*
X138525052Y-117130250D01*
X159260540Y-117130250D01*
X159260540Y-117570250D01*
X159419290Y-117729000D01*
X160367980Y-117729000D01*
X160367980Y-116780310D01*
X160209230Y-116621560D01*
X159769231Y-116621560D01*
X159535842Y-116718233D01*
X159357213Y-116896861D01*
X159260540Y-117130250D01*
X138525052Y-117130250D01*
X137920000Y-116525198D01*
X137920000Y-114679602D01*
X137862148Y-114388763D01*
X137697401Y-114142201D01*
X137378950Y-113823750D01*
X144782540Y-113823750D01*
X144782540Y-114263750D01*
X144879213Y-114497139D01*
X145057842Y-114675767D01*
X145291231Y-114772440D01*
X145731230Y-114772440D01*
X145889980Y-114613690D01*
X145889980Y-113665000D01*
X144941290Y-113665000D01*
X144782540Y-113823750D01*
X137378950Y-113823750D01*
X136367450Y-112812250D01*
X144782540Y-112812250D01*
X144782540Y-113252250D01*
X144941290Y-113411000D01*
X145889980Y-113411000D01*
X145889980Y-112462310D01*
X146143980Y-112462310D01*
X146143980Y-113411000D01*
X146163980Y-113411000D01*
X146163980Y-113665000D01*
X146143980Y-113665000D01*
X146143980Y-114613690D01*
X146302730Y-114772440D01*
X146742729Y-114772440D01*
X146976118Y-114675767D01*
X147058331Y-114593555D01*
X147263690Y-114733871D01*
X147515580Y-114784880D01*
X148714460Y-114784880D01*
X148949777Y-114740602D01*
X149165901Y-114601530D01*
X149310891Y-114389330D01*
X149361900Y-114137440D01*
X149361900Y-112938560D01*
X149317622Y-112703243D01*
X149178550Y-112487119D01*
X148966350Y-112342129D01*
X148875020Y-112323634D01*
X148875020Y-110523020D01*
X148854760Y-110421167D01*
X149432838Y-110421167D01*
X149574883Y-110764943D01*
X149837673Y-111028192D01*
X150181201Y-111170838D01*
X150228077Y-111170879D01*
X151354599Y-112297401D01*
X151601160Y-112462148D01*
X151649414Y-112471746D01*
X151892000Y-112520000D01*
X153944311Y-112520000D01*
X153958378Y-112594757D01*
X154097450Y-112810881D01*
X154309650Y-112955871D01*
X154561540Y-113006880D01*
X155760420Y-113006880D01*
X155995737Y-112962602D01*
X156211861Y-112823530D01*
X156217456Y-112815341D01*
X156299882Y-112897767D01*
X156533271Y-112994440D01*
X156973270Y-112994440D01*
X157132020Y-112835690D01*
X157132020Y-111887000D01*
X157386020Y-111887000D01*
X157386020Y-112835690D01*
X157544770Y-112994440D01*
X157984769Y-112994440D01*
X158218158Y-112897767D01*
X158396787Y-112719139D01*
X158493460Y-112485750D01*
X158493460Y-112045750D01*
X158334710Y-111887000D01*
X157386020Y-111887000D01*
X157132020Y-111887000D01*
X157112020Y-111887000D01*
X157112020Y-111633000D01*
X157132020Y-111633000D01*
X157132020Y-110684310D01*
X157386020Y-110684310D01*
X157386020Y-111633000D01*
X158334710Y-111633000D01*
X158493460Y-111474250D01*
X158493460Y-111034250D01*
X158396787Y-110800861D01*
X158218158Y-110622233D01*
X157984769Y-110525560D01*
X157544770Y-110525560D01*
X157386020Y-110684310D01*
X157132020Y-110684310D01*
X156973270Y-110525560D01*
X156533271Y-110525560D01*
X156299882Y-110622233D01*
X156217669Y-110704445D01*
X156012310Y-110564129D01*
X155760420Y-110513120D01*
X154561540Y-110513120D01*
X154326223Y-110557398D01*
X154110099Y-110696470D01*
X153965109Y-110908670D01*
X153946614Y-111000000D01*
X152206802Y-111000000D01*
X151303122Y-110096320D01*
X151303162Y-110050833D01*
X151161117Y-109707057D01*
X150898327Y-109443808D01*
X150554799Y-109301162D01*
X150182833Y-109300838D01*
X149839057Y-109442883D01*
X149575808Y-109705673D01*
X149433162Y-110049201D01*
X149432838Y-110421167D01*
X148854760Y-110421167D01*
X148817168Y-110232181D01*
X148652421Y-109985619D01*
X148255122Y-109588320D01*
X148255162Y-109542833D01*
X148113117Y-109199057D01*
X147850327Y-108935808D01*
X147506799Y-108793162D01*
X147134833Y-108792838D01*
X146791057Y-108934883D01*
X146527808Y-109197673D01*
X146385162Y-109541201D01*
X146384838Y-109913167D01*
X146526883Y-110256943D01*
X146789673Y-110520192D01*
X147133201Y-110662838D01*
X147180077Y-110662879D01*
X147355020Y-110837822D01*
X147355020Y-112321331D01*
X147280263Y-112335398D01*
X147064139Y-112474470D01*
X147058544Y-112482659D01*
X146976118Y-112400233D01*
X146742729Y-112303560D01*
X146302730Y-112303560D01*
X146143980Y-112462310D01*
X145889980Y-112462310D01*
X145731230Y-112303560D01*
X145291231Y-112303560D01*
X145057842Y-112400233D01*
X144879213Y-112578861D01*
X144782540Y-112812250D01*
X136367450Y-112812250D01*
X135533640Y-111978440D01*
X135820729Y-111978440D01*
X136054118Y-111881767D01*
X136136331Y-111799555D01*
X136341690Y-111939871D01*
X136593580Y-111990880D01*
X137792460Y-111990880D01*
X138027777Y-111946602D01*
X138243901Y-111807530D01*
X138388891Y-111595330D01*
X138439900Y-111343440D01*
X138439900Y-110571922D01*
X138523822Y-110488000D01*
X142494000Y-110488000D01*
X142784839Y-110430148D01*
X143031401Y-110265401D01*
X147126802Y-106170000D01*
X156464000Y-106170000D01*
X156754839Y-106112148D01*
X157001401Y-105947401D01*
X159957801Y-102991001D01*
X159957801Y-113981801D01*
G36*
X167917606Y-89364379D02*
X172095143Y-93022152D01*
X172918007Y-94009589D01*
X175030344Y-98284476D01*
X175390773Y-99095441D01*
X175516676Y-99976763D01*
X175789464Y-104088981D01*
X175646051Y-106096750D01*
X174347961Y-109930740D01*
X171537167Y-114903683D01*
X170884346Y-115872589D01*
X168553587Y-119050897D01*
X168545733Y-119062990D01*
X167490370Y-120909875D01*
X166368000Y-122575679D01*
X166368000Y-111594552D01*
X166501650Y-111685871D01*
X166753540Y-111736880D01*
X167952420Y-111736880D01*
X168187737Y-111692602D01*
X168403861Y-111553530D01*
X168409456Y-111545341D01*
X168491882Y-111627767D01*
X168725271Y-111724440D01*
X169165270Y-111724440D01*
X169324020Y-111565690D01*
X169324020Y-110617000D01*
X169578020Y-110617000D01*
X169578020Y-111565690D01*
X169736770Y-111724440D01*
X170176769Y-111724440D01*
X170410158Y-111627767D01*
X170588787Y-111449139D01*
X170685460Y-111215750D01*
X170685460Y-110775750D01*
X170526710Y-110617000D01*
X169578020Y-110617000D01*
X169324020Y-110617000D01*
X169304020Y-110617000D01*
X169304020Y-110363000D01*
X169324020Y-110363000D01*
X169324020Y-110343000D01*
X169578020Y-110343000D01*
X169578020Y-110363000D01*
X170526710Y-110363000D01*
X170685460Y-110204250D01*
X170685460Y-109764250D01*
X170588787Y-109530861D01*
X170410158Y-109352233D01*
X170176769Y-109255560D01*
X169736770Y-109255560D01*
X169578022Y-109414308D01*
X169578022Y-109339760D01*
X170209401Y-108708381D01*
X170374148Y-108461819D01*
X170432000Y-108170980D01*
X170432000Y-96012000D01*
X170374148Y-95721161D01*
X170209401Y-95474599D01*
X169670000Y-94935198D01*
X169670000Y-91440000D01*
X169612148Y-91149161D01*
X169447401Y-90902599D01*
X168939401Y-90394599D01*
X168910437Y-90375246D01*
X168888540Y-90348152D01*
X167364540Y-89078152D01*
X167287328Y-89036132D01*
X167217883Y-88982236D01*
X166201882Y-88474235D01*
X166175543Y-88467022D01*
X166152839Y-88451852D01*
X166033363Y-88428087D01*
X165915876Y-88395913D01*
X165888786Y-88399328D01*
X165862000Y-88394000D01*
X163671926Y-88394000D01*
X163730787Y-88335139D01*
X163827460Y-88101750D01*
X163827460Y-87661750D01*
X163668710Y-87503000D01*
X162720020Y-87503000D01*
X162720020Y-87523000D01*
X162466020Y-87523000D01*
X162466020Y-87503000D01*
X162446020Y-87503000D01*
X162446020Y-87249000D01*
X162466020Y-87249000D01*
X162466020Y-87229000D01*
X162720020Y-87229000D01*
X162720020Y-87249000D01*
X163668710Y-87249000D01*
X163827460Y-87090250D01*
X163827460Y-87007233D01*
X167917606Y-89364379D01*
X167917606Y-89364379D01*
G37*
X167917606Y-89364379D02*
X172095143Y-93022152D01*
X172918007Y-94009589D01*
X175030344Y-98284476D01*
X175390773Y-99095441D01*
X175516676Y-99976763D01*
X175789464Y-104088981D01*
X175646051Y-106096750D01*
X174347961Y-109930740D01*
X171537167Y-114903683D01*
X170884346Y-115872589D01*
X168553587Y-119050897D01*
X168545733Y-119062990D01*
X167490370Y-120909875D01*
X166368000Y-122575679D01*
X166368000Y-111594552D01*
X166501650Y-111685871D01*
X166753540Y-111736880D01*
X167952420Y-111736880D01*
X168187737Y-111692602D01*
X168403861Y-111553530D01*
X168409456Y-111545341D01*
X168491882Y-111627767D01*
X168725271Y-111724440D01*
X169165270Y-111724440D01*
X169324020Y-111565690D01*
X169324020Y-110617000D01*
X169578020Y-110617000D01*
X169578020Y-111565690D01*
X169736770Y-111724440D01*
X170176769Y-111724440D01*
X170410158Y-111627767D01*
X170588787Y-111449139D01*
X170685460Y-111215750D01*
X170685460Y-110775750D01*
X170526710Y-110617000D01*
X169578020Y-110617000D01*
X169324020Y-110617000D01*
X169304020Y-110617000D01*
X169304020Y-110363000D01*
X169324020Y-110363000D01*
X169324020Y-110343000D01*
X169578020Y-110343000D01*
X169578020Y-110363000D01*
X170526710Y-110363000D01*
X170685460Y-110204250D01*
X170685460Y-109764250D01*
X170588787Y-109530861D01*
X170410158Y-109352233D01*
X170176769Y-109255560D01*
X169736770Y-109255560D01*
X169578022Y-109414308D01*
X169578022Y-109339760D01*
X170209401Y-108708381D01*
X170374148Y-108461819D01*
X170432000Y-108170980D01*
X170432000Y-96012000D01*
X170374148Y-95721161D01*
X170209401Y-95474599D01*
X169670000Y-94935198D01*
X169670000Y-91440000D01*
X169612148Y-91149161D01*
X169447401Y-90902599D01*
X168939401Y-90394599D01*
X168910437Y-90375246D01*
X168888540Y-90348152D01*
X167364540Y-89078152D01*
X167287328Y-89036132D01*
X167217883Y-88982236D01*
X166201882Y-88474235D01*
X166175543Y-88467022D01*
X166152839Y-88451852D01*
X166033363Y-88428087D01*
X165915876Y-88395913D01*
X165888786Y-88399328D01*
X165862000Y-88394000D01*
X163671926Y-88394000D01*
X163730787Y-88335139D01*
X163827460Y-88101750D01*
X163827460Y-87661750D01*
X163668710Y-87503000D01*
X162720020Y-87503000D01*
X162720020Y-87523000D01*
X162466020Y-87523000D01*
X162466020Y-87503000D01*
X162446020Y-87503000D01*
X162446020Y-87249000D01*
X162466020Y-87249000D01*
X162466020Y-87229000D01*
X162720020Y-87229000D01*
X162720020Y-87249000D01*
X163668710Y-87249000D01*
X163827460Y-87090250D01*
X163827460Y-87007233D01*
X167917606Y-89364379D01*
G36*
X167546020Y-92837000D02*
X167566020Y-92837000D01*
X167566020Y-93091000D01*
X167546020Y-93091000D01*
X167546020Y-94039690D01*
X167642000Y-94135670D01*
X167642000Y-95504000D01*
X167699852Y-95794839D01*
X167864599Y-96041401D01*
X168450291Y-96627093D01*
X168450291Y-100619560D01*
X168212770Y-100619560D01*
X168054020Y-100778310D01*
X168054020Y-101727000D01*
X168074020Y-101727000D01*
X168074020Y-101981000D01*
X168054020Y-101981000D01*
X168054020Y-102929690D01*
X168212770Y-103088440D01*
X168450291Y-103088440D01*
X168450291Y-107334907D01*
X167325198Y-108460000D01*
X166370000Y-108460000D01*
X166079161Y-108517852D01*
X165832599Y-108682599D01*
X165070599Y-109444599D01*
X165013736Y-109529701D01*
X164877117Y-109199057D01*
X164614327Y-108935808D01*
X164270799Y-108793162D01*
X163898833Y-108792838D01*
X163555057Y-108934883D01*
X163291808Y-109197673D01*
X163149162Y-109541201D01*
X163148838Y-109913167D01*
X163290883Y-110256943D01*
X163324000Y-110290118D01*
X163324000Y-115711128D01*
X163295168Y-115566181D01*
X163130421Y-115319619D01*
X161477801Y-113666999D01*
X161477801Y-102233001D01*
X162589401Y-101121401D01*
X162754148Y-100874840D01*
X162812000Y-100584000D01*
X162812000Y-99820000D01*
X165608000Y-99820000D01*
X165854163Y-99771035D01*
X165291579Y-100333619D01*
X165126832Y-100580181D01*
X165117271Y-100628245D01*
X164994223Y-100651398D01*
X164778099Y-100790470D01*
X164633109Y-101002670D01*
X164582100Y-101254560D01*
X164582100Y-102453440D01*
X164626378Y-102688757D01*
X164765450Y-102904881D01*
X164977650Y-103049871D01*
X165229540Y-103100880D01*
X166428420Y-103100880D01*
X166663737Y-103056602D01*
X166879861Y-102917530D01*
X166885456Y-102909341D01*
X166967882Y-102991767D01*
X167201271Y-103088440D01*
X167641270Y-103088440D01*
X167800020Y-102929690D01*
X167800020Y-101981000D01*
X167780020Y-101981000D01*
X167780020Y-101727000D01*
X167800020Y-101727000D01*
X167800020Y-100778310D01*
X167641270Y-100619560D01*
X167201271Y-100619560D01*
X167122695Y-100652107D01*
X167271680Y-100503122D01*
X167317167Y-100503162D01*
X167660943Y-100361117D01*
X167924192Y-100098327D01*
X168066838Y-99754799D01*
X168067162Y-99382833D01*
X167925117Y-99039057D01*
X167662327Y-98775808D01*
X167318799Y-98633162D01*
X166946833Y-98632838D01*
X166797098Y-98694707D01*
X166797162Y-98620833D01*
X166655117Y-98277057D01*
X166392327Y-98013808D01*
X166048799Y-97871162D01*
X165676833Y-97870838D01*
X165333057Y-98012883D01*
X165069808Y-98275673D01*
X165059706Y-98300000D01*
X162306000Y-98300000D01*
X162304000Y-98300398D01*
X162304000Y-97850802D01*
X163890802Y-96264000D01*
X165045537Y-96264000D01*
X165077673Y-96296192D01*
X165421201Y-96438838D01*
X165793167Y-96439162D01*
X166136943Y-96297117D01*
X166400192Y-96034327D01*
X166542838Y-95690799D01*
X166543162Y-95318833D01*
X166401117Y-94975057D01*
X166138327Y-94711808D01*
X165794799Y-94569162D01*
X165422833Y-94568838D01*
X165079057Y-94710883D01*
X165045882Y-94744000D01*
X164615782Y-94744000D01*
X165148902Y-94210880D01*
X165920420Y-94210880D01*
X166155737Y-94166602D01*
X166371861Y-94027530D01*
X166377456Y-94019341D01*
X166459882Y-94101767D01*
X166693271Y-94198440D01*
X167133270Y-94198440D01*
X167292020Y-94039690D01*
X167292020Y-93091000D01*
X167272020Y-93091000D01*
X167272020Y-92837000D01*
X167292020Y-92837000D01*
X167292020Y-92817000D01*
X167546020Y-92817000D01*
X167546020Y-92837000D01*
X167546020Y-92837000D01*
G37*
X167546020Y-92837000D02*
X167566020Y-92837000D01*
X167566020Y-93091000D01*
X167546020Y-93091000D01*
X167546020Y-94039690D01*
X167642000Y-94135670D01*
X167642000Y-95504000D01*
X167699852Y-95794839D01*
X167864599Y-96041401D01*
X168450291Y-96627093D01*
X168450291Y-100619560D01*
X168212770Y-100619560D01*
X168054020Y-100778310D01*
X168054020Y-101727000D01*
X168074020Y-101727000D01*
X168074020Y-101981000D01*
X168054020Y-101981000D01*
X168054020Y-102929690D01*
X168212770Y-103088440D01*
X168450291Y-103088440D01*
X168450291Y-107334907D01*
X167325198Y-108460000D01*
X166370000Y-108460000D01*
X166079161Y-108517852D01*
X165832599Y-108682599D01*
X165070599Y-109444599D01*
X165013736Y-109529701D01*
X164877117Y-109199057D01*
X164614327Y-108935808D01*
X164270799Y-108793162D01*
X163898833Y-108792838D01*
X163555057Y-108934883D01*
X163291808Y-109197673D01*
X163149162Y-109541201D01*
X163148838Y-109913167D01*
X163290883Y-110256943D01*
X163324000Y-110290118D01*
X163324000Y-115711128D01*
X163295168Y-115566181D01*
X163130421Y-115319619D01*
X161477801Y-113666999D01*
X161477801Y-102233001D01*
X162589401Y-101121401D01*
X162754148Y-100874840D01*
X162812000Y-100584000D01*
X162812000Y-99820000D01*
X165608000Y-99820000D01*
X165854163Y-99771035D01*
X165291579Y-100333619D01*
X165126832Y-100580181D01*
X165117271Y-100628245D01*
X164994223Y-100651398D01*
X164778099Y-100790470D01*
X164633109Y-101002670D01*
X164582100Y-101254560D01*
X164582100Y-102453440D01*
X164626378Y-102688757D01*
X164765450Y-102904881D01*
X164977650Y-103049871D01*
X165229540Y-103100880D01*
X166428420Y-103100880D01*
X166663737Y-103056602D01*
X166879861Y-102917530D01*
X166885456Y-102909341D01*
X166967882Y-102991767D01*
X167201271Y-103088440D01*
X167641270Y-103088440D01*
X167800020Y-102929690D01*
X167800020Y-101981000D01*
X167780020Y-101981000D01*
X167780020Y-101727000D01*
X167800020Y-101727000D01*
X167800020Y-100778310D01*
X167641270Y-100619560D01*
X167201271Y-100619560D01*
X167122695Y-100652107D01*
X167271680Y-100503122D01*
X167317167Y-100503162D01*
X167660943Y-100361117D01*
X167924192Y-100098327D01*
X168066838Y-99754799D01*
X168067162Y-99382833D01*
X167925117Y-99039057D01*
X167662327Y-98775808D01*
X167318799Y-98633162D01*
X166946833Y-98632838D01*
X166797098Y-98694707D01*
X166797162Y-98620833D01*
X166655117Y-98277057D01*
X166392327Y-98013808D01*
X166048799Y-97871162D01*
X165676833Y-97870838D01*
X165333057Y-98012883D01*
X165069808Y-98275673D01*
X165059706Y-98300000D01*
X162306000Y-98300000D01*
X162304000Y-98300398D01*
X162304000Y-97850802D01*
X163890802Y-96264000D01*
X165045537Y-96264000D01*
X165077673Y-96296192D01*
X165421201Y-96438838D01*
X165793167Y-96439162D01*
X166136943Y-96297117D01*
X166400192Y-96034327D01*
X166542838Y-95690799D01*
X166543162Y-95318833D01*
X166401117Y-94975057D01*
X166138327Y-94711808D01*
X165794799Y-94569162D01*
X165422833Y-94568838D01*
X165079057Y-94710883D01*
X165045882Y-94744000D01*
X164615782Y-94744000D01*
X165148902Y-94210880D01*
X165920420Y-94210880D01*
X166155737Y-94166602D01*
X166371861Y-94027530D01*
X166377456Y-94019341D01*
X166459882Y-94101767D01*
X166693271Y-94198440D01*
X167133270Y-94198440D01*
X167292020Y-94039690D01*
X167292020Y-93091000D01*
X167272020Y-93091000D01*
X167272020Y-92837000D01*
X167292020Y-92837000D01*
X167292020Y-92817000D01*
X167546020Y-92817000D01*
X167546020Y-92837000D01*
G36*
X135221980Y-110617000D02*
X135241980Y-110617000D01*
X135241980Y-110871000D01*
X135221980Y-110871000D01*
X135221980Y-110891000D01*
X134967980Y-110891000D01*
X134967980Y-110871000D01*
X134947980Y-110871000D01*
X134947980Y-110617000D01*
X134967980Y-110617000D01*
X134967980Y-110597000D01*
X135221980Y-110597000D01*
X135221980Y-110617000D01*
X135221980Y-110617000D01*
G37*
X135221980Y-110617000D02*
X135241980Y-110617000D01*
X135241980Y-110871000D01*
X135221980Y-110871000D01*
X135221980Y-110891000D01*
X134967980Y-110891000D01*
X134967980Y-110871000D01*
X134947980Y-110871000D01*
X134947980Y-110617000D01*
X134967980Y-110617000D01*
X134967980Y-110597000D01*
X135221980Y-110597000D01*
X135221980Y-110617000D01*
G36*
X157608067Y-61959556D02*
X157582065Y-62150240D01*
X157143956Y-64993536D01*
X155651571Y-72999984D01*
X155008624Y-75934588D01*
X155006921Y-76022703D01*
X154993350Y-76109781D01*
X155004360Y-76155145D01*
X155003458Y-76201812D01*
X155035602Y-76283868D01*
X155056389Y-76369514D01*
X155067000Y-76384043D01*
X155067000Y-76454000D01*
X155077006Y-76503410D01*
X155105447Y-76545035D01*
X155147841Y-76572315D01*
X155194000Y-76581000D01*
X155210847Y-76581000D01*
X155214025Y-76585352D01*
X155253886Y-76609643D01*
X155286248Y-76643281D01*
X155367003Y-76678575D01*
X155442259Y-76724436D01*
X155488378Y-76731623D01*
X155531152Y-76750318D01*
X155619267Y-76752021D01*
X155706345Y-76765592D01*
X155751709Y-76754582D01*
X155798376Y-76755484D01*
X155880432Y-76723340D01*
X155966078Y-76702553D01*
X167075150Y-71547723D01*
X162190343Y-76791907D01*
X162184624Y-76801160D01*
X162176004Y-76807792D01*
X162114567Y-76914514D01*
X162049827Y-77019263D01*
X162048085Y-77029998D01*
X162042658Y-77039425D01*
X162026736Y-77161548D01*
X162007012Y-77283085D01*
X162009510Y-77293669D01*
X162008104Y-77304456D01*
X162013568Y-77324747D01*
X161958935Y-77383583D01*
X161932646Y-77426599D01*
X161925164Y-77476453D01*
X161937668Y-77525291D01*
X161968187Y-77565417D01*
X162011913Y-77590507D01*
X162059245Y-77596793D01*
X162102077Y-77594345D01*
X162152684Y-77660126D01*
X162224692Y-77760034D01*
X162233945Y-77765753D01*
X162240577Y-77774373D01*
X162347299Y-77835810D01*
X162452048Y-77900550D01*
X162462783Y-77902292D01*
X162472210Y-77907719D01*
X162594333Y-77923641D01*
X162715870Y-77943365D01*
X162726454Y-77940867D01*
X162737241Y-77942273D01*
X170025400Y-77455382D01*
X160869771Y-84194453D01*
X160864889Y-84199801D01*
X160858402Y-84203006D01*
X160774974Y-84298289D01*
X160689566Y-84391840D01*
X160687103Y-84398645D01*
X160682335Y-84404091D01*
X160641719Y-84524054D01*
X160598614Y-84643162D01*
X160598943Y-84650394D01*
X160596622Y-84657249D01*
X160605006Y-84783630D01*
X160610763Y-84910159D01*
X160613834Y-84916713D01*
X160614313Y-84923936D01*
X160670414Y-85037471D01*
X160724162Y-85152184D01*
X160729510Y-85157066D01*
X160732715Y-85163553D01*
X160827998Y-85246981D01*
X160921549Y-85332389D01*
X160928354Y-85334852D01*
X160933800Y-85339620D01*
X162466018Y-86222635D01*
X162466018Y-86300308D01*
X162307270Y-86141560D01*
X161867271Y-86141560D01*
X161633882Y-86238233D01*
X161551669Y-86320445D01*
X161346310Y-86180129D01*
X161094420Y-86129120D01*
X160253233Y-86129120D01*
X159614106Y-85548096D01*
X159796192Y-85366327D01*
X159938838Y-85022799D01*
X159939162Y-84650833D01*
X159797117Y-84307057D01*
X159534327Y-84043808D01*
X159190799Y-83901162D01*
X159143923Y-83901121D01*
X159033401Y-83790599D01*
X158786839Y-83625852D01*
X158496000Y-83568000D01*
X149352000Y-83568000D01*
X149061160Y-83625852D01*
X148814599Y-83790599D01*
X146751198Y-85854000D01*
X146537689Y-85854000D01*
X146523622Y-85779243D01*
X146384550Y-85563119D01*
X146172350Y-85418129D01*
X145920460Y-85367120D01*
X144721580Y-85367120D01*
X144486263Y-85411398D01*
X144270139Y-85550470D01*
X144264544Y-85558659D01*
X144182118Y-85476233D01*
X143948729Y-85379560D01*
X143508730Y-85379560D01*
X143349980Y-85538310D01*
X143349980Y-86487000D01*
X143369980Y-86487000D01*
X143369980Y-86741000D01*
X143349980Y-86741000D01*
X143349980Y-86761000D01*
X143095980Y-86761000D01*
X143095980Y-86741000D01*
X142147290Y-86741000D01*
X141988540Y-86899750D01*
X141988540Y-87124000D01*
X141732000Y-87124000D01*
X141441161Y-87181852D01*
X141194599Y-87346599D01*
X140178599Y-88362599D01*
X140013852Y-88609161D01*
X139956000Y-88900000D01*
X139956000Y-89855198D01*
X139823770Y-89987428D01*
X139722327Y-89885808D01*
X139378799Y-89743162D01*
X139006833Y-89742838D01*
X138663057Y-89884883D01*
X138629882Y-89918000D01*
X138409689Y-89918000D01*
X138395622Y-89843243D01*
X138256550Y-89627119D01*
X138044350Y-89482129D01*
X137792460Y-89431120D01*
X136593580Y-89431120D01*
X136358263Y-89475398D01*
X136142139Y-89614470D01*
X136136544Y-89622659D01*
X136054118Y-89540233D01*
X135820729Y-89443560D01*
X135380730Y-89443560D01*
X135221980Y-89602310D01*
X135221980Y-90551000D01*
X135241980Y-90551000D01*
X135241980Y-90805000D01*
X135221980Y-90805000D01*
X135221980Y-91753690D01*
X135380730Y-91912440D01*
X135820729Y-91912440D01*
X136054118Y-91815767D01*
X136136331Y-91733555D01*
X136341690Y-91873871D01*
X136593580Y-91924880D01*
X137792460Y-91924880D01*
X137908072Y-91903126D01*
X134233285Y-95577913D01*
X133982460Y-95527120D01*
X132783580Y-95527120D01*
X132548263Y-95571398D01*
X132332139Y-95710470D01*
X132326544Y-95718659D01*
X132244118Y-95636233D01*
X132010729Y-95539560D01*
X131570730Y-95539560D01*
X131411980Y-95698310D01*
X131411980Y-96647000D01*
X131431980Y-96647000D01*
X131431980Y-96901000D01*
X131411980Y-96901000D01*
X131411980Y-97849690D01*
X131570730Y-98008440D01*
X132010729Y-98008440D01*
X132244118Y-97911767D01*
X132326331Y-97829555D01*
X132531690Y-97969871D01*
X132783580Y-98020880D01*
X133652304Y-98020880D01*
X132024433Y-99820106D01*
X131957876Y-99931369D01*
X131885852Y-100039161D01*
X131882094Y-100058054D01*
X131872204Y-100074587D01*
X131853292Y-100202849D01*
X131836474Y-100287399D01*
X131585667Y-100371001D01*
X131561943Y-100384525D01*
X131535161Y-100389852D01*
X131433878Y-100457527D01*
X131328047Y-100517855D01*
X131311304Y-100539428D01*
X131288599Y-100554599D01*
X131220921Y-100655887D01*
X131146236Y-100752118D01*
X131139024Y-100778455D01*
X131123852Y-100801161D01*
X131100085Y-100920644D01*
X131067913Y-101038125D01*
X131071328Y-101065215D01*
X131066000Y-101092000D01*
X131066000Y-106879537D01*
X131033808Y-106911673D01*
X130891162Y-107255201D01*
X130890838Y-107627167D01*
X131032883Y-107970943D01*
X131275878Y-108214362D01*
X131288599Y-108233401D01*
X131535161Y-108398148D01*
X131826000Y-108456000D01*
X131828000Y-108455602D01*
X131828000Y-110395620D01*
X131415564Y-109900697D01*
X131407803Y-109892197D01*
X129651002Y-108135396D01*
X128648459Y-105127766D01*
X127890478Y-99063921D01*
X128266259Y-97059750D01*
X130050540Y-97059750D01*
X130050540Y-97499750D01*
X130147213Y-97733139D01*
X130325842Y-97911767D01*
X130559231Y-98008440D01*
X130999230Y-98008440D01*
X131157980Y-97849690D01*
X131157980Y-96901000D01*
X130209290Y-96901000D01*
X130050540Y-97059750D01*
X128266259Y-97059750D01*
X128455915Y-96048250D01*
X130050540Y-96048250D01*
X130050540Y-96488250D01*
X130209290Y-96647000D01*
X131157980Y-96647000D01*
X131157980Y-95698310D01*
X130999230Y-95539560D01*
X130559231Y-95539560D01*
X130325842Y-95636233D01*
X130147213Y-95814861D01*
X130050540Y-96048250D01*
X128455915Y-96048250D01*
X128643274Y-95049008D01*
X131755851Y-90963750D01*
X133860540Y-90963750D01*
X133860540Y-91403750D01*
X133957213Y-91637139D01*
X134135842Y-91815767D01*
X134369231Y-91912440D01*
X134809230Y-91912440D01*
X134967980Y-91753690D01*
X134967980Y-90805000D01*
X134019290Y-90805000D01*
X133860540Y-90963750D01*
X131755851Y-90963750D01*
X132526518Y-89952250D01*
X133860540Y-89952250D01*
X133860540Y-90392250D01*
X134019290Y-90551000D01*
X134967980Y-90551000D01*
X134967980Y-89602310D01*
X134809230Y-89443560D01*
X134369231Y-89443560D01*
X134135842Y-89540233D01*
X133957213Y-89718861D01*
X133860540Y-89952250D01*
X132526518Y-89952250D01*
X132671158Y-89762411D01*
X140261189Y-85967396D01*
X140448261Y-85888250D01*
X141988540Y-85888250D01*
X141988540Y-86328250D01*
X142147290Y-86487000D01*
X143095980Y-86487000D01*
X143095980Y-85538310D01*
X142937230Y-85379560D01*
X142497231Y-85379560D01*
X142263842Y-85476233D01*
X142085213Y-85654861D01*
X141988540Y-85888250D01*
X140448261Y-85888250D01*
X143210911Y-84719437D01*
X144063332Y-84570224D01*
X144078272Y-84564436D01*
X144094286Y-84564067D01*
X144202374Y-84516352D01*
X144312554Y-84473663D01*
X144324140Y-84462599D01*
X144338795Y-84456130D01*
X144420395Y-84370684D01*
X144505852Y-84289080D01*
X144512323Y-84274424D01*
X144523386Y-84262839D01*
X144566078Y-84152664D01*
X144569643Y-84144588D01*
X145612079Y-83703558D01*
X145653686Y-83675091D01*
X145680939Y-83632679D01*
X145689544Y-83583006D01*
X145678146Y-83533898D01*
X145652398Y-83496792D01*
X145634433Y-83478827D01*
X140189686Y-77353487D01*
X139867351Y-76894320D01*
X144995395Y-77601636D01*
X145960198Y-77787124D01*
X146013484Y-77786782D01*
X146065348Y-77799016D01*
X146145880Y-77785933D01*
X146227467Y-77785410D01*
X146252183Y-77774986D01*
X146794647Y-77849809D01*
X146844961Y-77846648D01*
X146890081Y-77824162D01*
X146922898Y-77785892D01*
X146938240Y-77737871D01*
X146931094Y-77679891D01*
X146762075Y-77223540D01*
X146761863Y-77190482D01*
X146774097Y-77138619D01*
X146761014Y-77058087D01*
X146760491Y-76976501D01*
X146739784Y-76927402D01*
X146731239Y-76874804D01*
X144636942Y-71266616D01*
X147738566Y-73367716D01*
X151612167Y-76261200D01*
X151682762Y-76294885D01*
X151746892Y-76339688D01*
X151802242Y-76351897D01*
X151853387Y-76376301D01*
X151931499Y-76380407D01*
X152007892Y-76397257D01*
X152063696Y-76387356D01*
X152120292Y-76390331D01*
X152194032Y-76364231D01*
X152271056Y-76350565D01*
X152318825Y-76320061D01*
X152372248Y-76301152D01*
X152430386Y-76248820D01*
X152496318Y-76206718D01*
X152528776Y-76160257D01*
X152570899Y-76122342D01*
X152604584Y-76051747D01*
X152649387Y-75987617D01*
X153836221Y-73282499D01*
X153839556Y-73267380D01*
X153847846Y-73254311D01*
X154500036Y-71567476D01*
X154514209Y-71486167D01*
X154540518Y-71407937D01*
X154681502Y-70313102D01*
X155057614Y-69389917D01*
X155064951Y-69364718D01*
X155572951Y-66570718D01*
X155575000Y-66548000D01*
X155575000Y-63754000D01*
X155574223Y-63739975D01*
X155552782Y-63547005D01*
X155553118Y-63544395D01*
X155548515Y-63477088D01*
X155557132Y-63410171D01*
X155444097Y-61757357D01*
X155957545Y-61970559D01*
X156966031Y-61971439D01*
X157641467Y-61692355D01*
X157608067Y-61959556D01*
X157608067Y-61959556D01*
G37*
X157608067Y-61959556D02*
X157582065Y-62150240D01*
X157143956Y-64993536D01*
X155651571Y-72999984D01*
X155008624Y-75934588D01*
X155006921Y-76022703D01*
X154993350Y-76109781D01*
X155004360Y-76155145D01*
X155003458Y-76201812D01*
X155035602Y-76283868D01*
X155056389Y-76369514D01*
X155067000Y-76384043D01*
X155067000Y-76454000D01*
X155077006Y-76503410D01*
X155105447Y-76545035D01*
X155147841Y-76572315D01*
X155194000Y-76581000D01*
X155210847Y-76581000D01*
X155214025Y-76585352D01*
X155253886Y-76609643D01*
X155286248Y-76643281D01*
X155367003Y-76678575D01*
X155442259Y-76724436D01*
X155488378Y-76731623D01*
X155531152Y-76750318D01*
X155619267Y-76752021D01*
X155706345Y-76765592D01*
X155751709Y-76754582D01*
X155798376Y-76755484D01*
X155880432Y-76723340D01*
X155966078Y-76702553D01*
X167075150Y-71547723D01*
X162190343Y-76791907D01*
X162184624Y-76801160D01*
X162176004Y-76807792D01*
X162114567Y-76914514D01*
X162049827Y-77019263D01*
X162048085Y-77029998D01*
X162042658Y-77039425D01*
X162026736Y-77161548D01*
X162007012Y-77283085D01*
X162009510Y-77293669D01*
X162008104Y-77304456D01*
X162013568Y-77324747D01*
X161958935Y-77383583D01*
X161932646Y-77426599D01*
X161925164Y-77476453D01*
X161937668Y-77525291D01*
X161968187Y-77565417D01*
X162011913Y-77590507D01*
X162059245Y-77596793D01*
X162102077Y-77594345D01*
X162152684Y-77660126D01*
X162224692Y-77760034D01*
X162233945Y-77765753D01*
X162240577Y-77774373D01*
X162347299Y-77835810D01*
X162452048Y-77900550D01*
X162462783Y-77902292D01*
X162472210Y-77907719D01*
X162594333Y-77923641D01*
X162715870Y-77943365D01*
X162726454Y-77940867D01*
X162737241Y-77942273D01*
X170025400Y-77455382D01*
X160869771Y-84194453D01*
X160864889Y-84199801D01*
X160858402Y-84203006D01*
X160774974Y-84298289D01*
X160689566Y-84391840D01*
X160687103Y-84398645D01*
X160682335Y-84404091D01*
X160641719Y-84524054D01*
X160598614Y-84643162D01*
X160598943Y-84650394D01*
X160596622Y-84657249D01*
X160605006Y-84783630D01*
X160610763Y-84910159D01*
X160613834Y-84916713D01*
X160614313Y-84923936D01*
X160670414Y-85037471D01*
X160724162Y-85152184D01*
X160729510Y-85157066D01*
X160732715Y-85163553D01*
X160827998Y-85246981D01*
X160921549Y-85332389D01*
X160928354Y-85334852D01*
X160933800Y-85339620D01*
X162466018Y-86222635D01*
X162466018Y-86300308D01*
X162307270Y-86141560D01*
X161867271Y-86141560D01*
X161633882Y-86238233D01*
X161551669Y-86320445D01*
X161346310Y-86180129D01*
X161094420Y-86129120D01*
X160253233Y-86129120D01*
X159614106Y-85548096D01*
X159796192Y-85366327D01*
X159938838Y-85022799D01*
X159939162Y-84650833D01*
X159797117Y-84307057D01*
X159534327Y-84043808D01*
X159190799Y-83901162D01*
X159143923Y-83901121D01*
X159033401Y-83790599D01*
X158786839Y-83625852D01*
X158496000Y-83568000D01*
X149352000Y-83568000D01*
X149061160Y-83625852D01*
X148814599Y-83790599D01*
X146751198Y-85854000D01*
X146537689Y-85854000D01*
X146523622Y-85779243D01*
X146384550Y-85563119D01*
X146172350Y-85418129D01*
X145920460Y-85367120D01*
X144721580Y-85367120D01*
X144486263Y-85411398D01*
X144270139Y-85550470D01*
X144264544Y-85558659D01*
X144182118Y-85476233D01*
X143948729Y-85379560D01*
X143508730Y-85379560D01*
X143349980Y-85538310D01*
X143349980Y-86487000D01*
X143369980Y-86487000D01*
X143369980Y-86741000D01*
X143349980Y-86741000D01*
X143349980Y-86761000D01*
X143095980Y-86761000D01*
X143095980Y-86741000D01*
X142147290Y-86741000D01*
X141988540Y-86899750D01*
X141988540Y-87124000D01*
X141732000Y-87124000D01*
X141441161Y-87181852D01*
X141194599Y-87346599D01*
X140178599Y-88362599D01*
X140013852Y-88609161D01*
X139956000Y-88900000D01*
X139956000Y-89855198D01*
X139823770Y-89987428D01*
X139722327Y-89885808D01*
X139378799Y-89743162D01*
X139006833Y-89742838D01*
X138663057Y-89884883D01*
X138629882Y-89918000D01*
X138409689Y-89918000D01*
X138395622Y-89843243D01*
X138256550Y-89627119D01*
X138044350Y-89482129D01*
X137792460Y-89431120D01*
X136593580Y-89431120D01*
X136358263Y-89475398D01*
X136142139Y-89614470D01*
X136136544Y-89622659D01*
X136054118Y-89540233D01*
X135820729Y-89443560D01*
X135380730Y-89443560D01*
X135221980Y-89602310D01*
X135221980Y-90551000D01*
X135241980Y-90551000D01*
X135241980Y-90805000D01*
X135221980Y-90805000D01*
X135221980Y-91753690D01*
X135380730Y-91912440D01*
X135820729Y-91912440D01*
X136054118Y-91815767D01*
X136136331Y-91733555D01*
X136341690Y-91873871D01*
X136593580Y-91924880D01*
X137792460Y-91924880D01*
X137908072Y-91903126D01*
X134233285Y-95577913D01*
X133982460Y-95527120D01*
X132783580Y-95527120D01*
X132548263Y-95571398D01*
X132332139Y-95710470D01*
X132326544Y-95718659D01*
X132244118Y-95636233D01*
X132010729Y-95539560D01*
X131570730Y-95539560D01*
X131411980Y-95698310D01*
X131411980Y-96647000D01*
X131431980Y-96647000D01*
X131431980Y-96901000D01*
X131411980Y-96901000D01*
X131411980Y-97849690D01*
X131570730Y-98008440D01*
X132010729Y-98008440D01*
X132244118Y-97911767D01*
X132326331Y-97829555D01*
X132531690Y-97969871D01*
X132783580Y-98020880D01*
X133652304Y-98020880D01*
X132024433Y-99820106D01*
X131957876Y-99931369D01*
X131885852Y-100039161D01*
X131882094Y-100058054D01*
X131872204Y-100074587D01*
X131853292Y-100202849D01*
X131836474Y-100287399D01*
X131585667Y-100371001D01*
X131561943Y-100384525D01*
X131535161Y-100389852D01*
X131433878Y-100457527D01*
X131328047Y-100517855D01*
X131311304Y-100539428D01*
X131288599Y-100554599D01*
X131220921Y-100655887D01*
X131146236Y-100752118D01*
X131139024Y-100778455D01*
X131123852Y-100801161D01*
X131100085Y-100920644D01*
X131067913Y-101038125D01*
X131071328Y-101065215D01*
X131066000Y-101092000D01*
X131066000Y-106879537D01*
X131033808Y-106911673D01*
X130891162Y-107255201D01*
X130890838Y-107627167D01*
X131032883Y-107970943D01*
X131275878Y-108214362D01*
X131288599Y-108233401D01*
X131535161Y-108398148D01*
X131826000Y-108456000D01*
X131828000Y-108455602D01*
X131828000Y-110395620D01*
X131415564Y-109900697D01*
X131407803Y-109892197D01*
X129651002Y-108135396D01*
X128648459Y-105127766D01*
X127890478Y-99063921D01*
X128266259Y-97059750D01*
X130050540Y-97059750D01*
X130050540Y-97499750D01*
X130147213Y-97733139D01*
X130325842Y-97911767D01*
X130559231Y-98008440D01*
X130999230Y-98008440D01*
X131157980Y-97849690D01*
X131157980Y-96901000D01*
X130209290Y-96901000D01*
X130050540Y-97059750D01*
X128266259Y-97059750D01*
X128455915Y-96048250D01*
X130050540Y-96048250D01*
X130050540Y-96488250D01*
X130209290Y-96647000D01*
X131157980Y-96647000D01*
X131157980Y-95698310D01*
X130999230Y-95539560D01*
X130559231Y-95539560D01*
X130325842Y-95636233D01*
X130147213Y-95814861D01*
X130050540Y-96048250D01*
X128455915Y-96048250D01*
X128643274Y-95049008D01*
X131755851Y-90963750D01*
X133860540Y-90963750D01*
X133860540Y-91403750D01*
X133957213Y-91637139D01*
X134135842Y-91815767D01*
X134369231Y-91912440D01*
X134809230Y-91912440D01*
X134967980Y-91753690D01*
X134967980Y-90805000D01*
X134019290Y-90805000D01*
X133860540Y-90963750D01*
X131755851Y-90963750D01*
X132526518Y-89952250D01*
X133860540Y-89952250D01*
X133860540Y-90392250D01*
X134019290Y-90551000D01*
X134967980Y-90551000D01*
X134967980Y-89602310D01*
X134809230Y-89443560D01*
X134369231Y-89443560D01*
X134135842Y-89540233D01*
X133957213Y-89718861D01*
X133860540Y-89952250D01*
X132526518Y-89952250D01*
X132671158Y-89762411D01*
X140261189Y-85967396D01*
X140448261Y-85888250D01*
X141988540Y-85888250D01*
X141988540Y-86328250D01*
X142147290Y-86487000D01*
X143095980Y-86487000D01*
X143095980Y-85538310D01*
X142937230Y-85379560D01*
X142497231Y-85379560D01*
X142263842Y-85476233D01*
X142085213Y-85654861D01*
X141988540Y-85888250D01*
X140448261Y-85888250D01*
X143210911Y-84719437D01*
X144063332Y-84570224D01*
X144078272Y-84564436D01*
X144094286Y-84564067D01*
X144202374Y-84516352D01*
X144312554Y-84473663D01*
X144324140Y-84462599D01*
X144338795Y-84456130D01*
X144420395Y-84370684D01*
X144505852Y-84289080D01*
X144512323Y-84274424D01*
X144523386Y-84262839D01*
X144566078Y-84152664D01*
X144569643Y-84144588D01*
X145612079Y-83703558D01*
X145653686Y-83675091D01*
X145680939Y-83632679D01*
X145689544Y-83583006D01*
X145678146Y-83533898D01*
X145652398Y-83496792D01*
X145634433Y-83478827D01*
X140189686Y-77353487D01*
X139867351Y-76894320D01*
X144995395Y-77601636D01*
X145960198Y-77787124D01*
X146013484Y-77786782D01*
X146065348Y-77799016D01*
X146145880Y-77785933D01*
X146227467Y-77785410D01*
X146252183Y-77774986D01*
X146794647Y-77849809D01*
X146844961Y-77846648D01*
X146890081Y-77824162D01*
X146922898Y-77785892D01*
X146938240Y-77737871D01*
X146931094Y-77679891D01*
X146762075Y-77223540D01*
X146761863Y-77190482D01*
X146774097Y-77138619D01*
X146761014Y-77058087D01*
X146760491Y-76976501D01*
X146739784Y-76927402D01*
X146731239Y-76874804D01*
X144636942Y-71266616D01*
X147738566Y-73367716D01*
X151612167Y-76261200D01*
X151682762Y-76294885D01*
X151746892Y-76339688D01*
X151802242Y-76351897D01*
X151853387Y-76376301D01*
X151931499Y-76380407D01*
X152007892Y-76397257D01*
X152063696Y-76387356D01*
X152120292Y-76390331D01*
X152194032Y-76364231D01*
X152271056Y-76350565D01*
X152318825Y-76320061D01*
X152372248Y-76301152D01*
X152430386Y-76248820D01*
X152496318Y-76206718D01*
X152528776Y-76160257D01*
X152570899Y-76122342D01*
X152604584Y-76051747D01*
X152649387Y-75987617D01*
X153836221Y-73282499D01*
X153839556Y-73267380D01*
X153847846Y-73254311D01*
X154500036Y-71567476D01*
X154514209Y-71486167D01*
X154540518Y-71407937D01*
X154681502Y-70313102D01*
X155057614Y-69389917D01*
X155064951Y-69364718D01*
X155572951Y-66570718D01*
X155575000Y-66548000D01*
X155575000Y-63754000D01*
X155574223Y-63739975D01*
X155552782Y-63547005D01*
X155553118Y-63544395D01*
X155548515Y-63477088D01*
X155557132Y-63410171D01*
X155444097Y-61757357D01*
X155957545Y-61970559D01*
X156966031Y-61971439D01*
X157641467Y-61692355D01*
X157608067Y-61959556D01*
G36*
X148592000Y-98077020D02*
X148649852Y-98367859D01*
X148814599Y-98614421D01*
X151120100Y-100919922D01*
X151120100Y-101560284D01*
X151070148Y-101309161D01*
X150905401Y-101062599D01*
X150795122Y-100952320D01*
X150795162Y-100906833D01*
X150653117Y-100563057D01*
X150390327Y-100299808D01*
X150046799Y-100157162D01*
X149674833Y-100156838D01*
X149331057Y-100298883D01*
X149067808Y-100561673D01*
X148925162Y-100905201D01*
X148924838Y-101277167D01*
X149066883Y-101620943D01*
X149329673Y-101884192D01*
X149608000Y-101999764D01*
X149608000Y-103577537D01*
X149575808Y-103609673D01*
X149433162Y-103953201D01*
X149432998Y-104142000D01*
X146558000Y-104142000D01*
X146267161Y-104199852D01*
X146020599Y-104364599D01*
X144465198Y-105920000D01*
X143605926Y-105920000D01*
X143664787Y-105861139D01*
X143761460Y-105627750D01*
X143761460Y-105187750D01*
X143602710Y-105029000D01*
X142654020Y-105029000D01*
X142654020Y-105049000D01*
X142400020Y-105049000D01*
X142400020Y-105029000D01*
X142380020Y-105029000D01*
X142380020Y-104775000D01*
X142400020Y-104775000D01*
X142400020Y-104755000D01*
X142654020Y-104755000D01*
X142654020Y-104775000D01*
X143602710Y-104775000D01*
X143761460Y-104616250D01*
X143761460Y-104176250D01*
X143664787Y-103942861D01*
X143588364Y-103866438D01*
X146079401Y-101375401D01*
X146244148Y-101128840D01*
X146267430Y-101011793D01*
X146302000Y-100838000D01*
X146302000Y-96326802D01*
X146841401Y-95787401D01*
X147006148Y-95540839D01*
X147064000Y-95250000D01*
X147064000Y-90738802D01*
X148592000Y-89210802D01*
X148592000Y-98077020D01*
X148592000Y-98077020D01*
G37*
X148592000Y-98077020D02*
X148649852Y-98367859D01*
X148814599Y-98614421D01*
X151120100Y-100919922D01*
X151120100Y-101560284D01*
X151070148Y-101309161D01*
X150905401Y-101062599D01*
X150795122Y-100952320D01*
X150795162Y-100906833D01*
X150653117Y-100563057D01*
X150390327Y-100299808D01*
X150046799Y-100157162D01*
X149674833Y-100156838D01*
X149331057Y-100298883D01*
X149067808Y-100561673D01*
X148925162Y-100905201D01*
X148924838Y-101277167D01*
X149066883Y-101620943D01*
X149329673Y-101884192D01*
X149608000Y-101999764D01*
X149608000Y-103577537D01*
X149575808Y-103609673D01*
X149433162Y-103953201D01*
X149432998Y-104142000D01*
X146558000Y-104142000D01*
X146267161Y-104199852D01*
X146020599Y-104364599D01*
X144465198Y-105920000D01*
X143605926Y-105920000D01*
X143664787Y-105861139D01*
X143761460Y-105627750D01*
X143761460Y-105187750D01*
X143602710Y-105029000D01*
X142654020Y-105029000D01*
X142654020Y-105049000D01*
X142400020Y-105049000D01*
X142400020Y-105029000D01*
X142380020Y-105029000D01*
X142380020Y-104775000D01*
X142400020Y-104775000D01*
X142400020Y-104755000D01*
X142654020Y-104755000D01*
X142654020Y-104775000D01*
X143602710Y-104775000D01*
X143761460Y-104616250D01*
X143761460Y-104176250D01*
X143664787Y-103942861D01*
X143588364Y-103866438D01*
X146079401Y-101375401D01*
X146244148Y-101128840D01*
X146267430Y-101011793D01*
X146302000Y-100838000D01*
X146302000Y-96326802D01*
X146841401Y-95787401D01*
X147006148Y-95540839D01*
X147064000Y-95250000D01*
X147064000Y-90738802D01*
X148592000Y-89210802D01*
X148592000Y-98077020D01*
G36*
X157196599Y-91977401D02*
X157443161Y-92142148D01*
X157734000Y-92200000D01*
X162759537Y-92200000D01*
X162791673Y-92232192D01*
X163135201Y-92374838D01*
X163507167Y-92375162D01*
X163850943Y-92233117D01*
X164114192Y-91970327D01*
X164256838Y-91626799D01*
X164257162Y-91254833D01*
X164115117Y-90911057D01*
X163880470Y-90676000D01*
X165398560Y-90676000D01*
X167234310Y-91770948D01*
X167292018Y-91809420D01*
X167292018Y-91888308D01*
X167133270Y-91729560D01*
X166693271Y-91729560D01*
X166459882Y-91826233D01*
X166377669Y-91908445D01*
X166172310Y-91768129D01*
X165920420Y-91717120D01*
X164721540Y-91717120D01*
X164486223Y-91761398D01*
X164270099Y-91900470D01*
X164125109Y-92112670D01*
X164074100Y-92364560D01*
X164074100Y-93136078D01*
X160498599Y-96711579D01*
X160333852Y-96958141D01*
X160276000Y-97248980D01*
X160276000Y-99761198D01*
X155895198Y-104142000D01*
X151302999Y-104142000D01*
X151303162Y-103954833D01*
X151161117Y-103611057D01*
X151128000Y-103577882D01*
X151128000Y-101733425D01*
X151164378Y-101926757D01*
X151303450Y-102142881D01*
X151515650Y-102287871D01*
X151767540Y-102338880D01*
X152966420Y-102338880D01*
X153201737Y-102294602D01*
X153417861Y-102155530D01*
X153423456Y-102147341D01*
X153505882Y-102229767D01*
X153739271Y-102326440D01*
X154179270Y-102326440D01*
X154338020Y-102167690D01*
X154338020Y-101219000D01*
X154592020Y-101219000D01*
X154592020Y-102167690D01*
X154750770Y-102326440D01*
X155190769Y-102326440D01*
X155424158Y-102229767D01*
X155602787Y-102051139D01*
X155699460Y-101817750D01*
X155699460Y-101377750D01*
X155540710Y-101219000D01*
X154592020Y-101219000D01*
X154338020Y-101219000D01*
X154318020Y-101219000D01*
X154318020Y-100965000D01*
X154338020Y-100965000D01*
X154338020Y-100016310D01*
X154592020Y-100016310D01*
X154592020Y-100965000D01*
X155540710Y-100965000D01*
X155699460Y-100806250D01*
X155699460Y-100366250D01*
X155602787Y-100132861D01*
X155424158Y-99954233D01*
X155190769Y-99857560D01*
X154750770Y-99857560D01*
X154592020Y-100016310D01*
X154338020Y-100016310D01*
X154179270Y-99857560D01*
X153739271Y-99857560D01*
X153505882Y-99954233D01*
X153423669Y-100036445D01*
X153218310Y-99896129D01*
X152966420Y-99845120D01*
X152194902Y-99845120D01*
X150112000Y-97762218D01*
X150112000Y-88791547D01*
X150388943Y-88677117D01*
X150652192Y-88414327D01*
X150794838Y-88070799D01*
X150795002Y-87882000D01*
X153101198Y-87882000D01*
X157196599Y-91977401D01*
X157196599Y-91977401D01*
G37*
X157196599Y-91977401D02*
X157443161Y-92142148D01*
X157734000Y-92200000D01*
X162759537Y-92200000D01*
X162791673Y-92232192D01*
X163135201Y-92374838D01*
X163507167Y-92375162D01*
X163850943Y-92233117D01*
X164114192Y-91970327D01*
X164256838Y-91626799D01*
X164257162Y-91254833D01*
X164115117Y-90911057D01*
X163880470Y-90676000D01*
X165398560Y-90676000D01*
X167234310Y-91770948D01*
X167292018Y-91809420D01*
X167292018Y-91888308D01*
X167133270Y-91729560D01*
X166693271Y-91729560D01*
X166459882Y-91826233D01*
X166377669Y-91908445D01*
X166172310Y-91768129D01*
X165920420Y-91717120D01*
X164721540Y-91717120D01*
X164486223Y-91761398D01*
X164270099Y-91900470D01*
X164125109Y-92112670D01*
X164074100Y-92364560D01*
X164074100Y-93136078D01*
X160498599Y-96711579D01*
X160333852Y-96958141D01*
X160276000Y-97248980D01*
X160276000Y-99761198D01*
X155895198Y-104142000D01*
X151302999Y-104142000D01*
X151303162Y-103954833D01*
X151161117Y-103611057D01*
X151128000Y-103577882D01*
X151128000Y-101733425D01*
X151164378Y-101926757D01*
X151303450Y-102142881D01*
X151515650Y-102287871D01*
X151767540Y-102338880D01*
X152966420Y-102338880D01*
X153201737Y-102294602D01*
X153417861Y-102155530D01*
X153423456Y-102147341D01*
X153505882Y-102229767D01*
X153739271Y-102326440D01*
X154179270Y-102326440D01*
X154338020Y-102167690D01*
X154338020Y-101219000D01*
X154592020Y-101219000D01*
X154592020Y-102167690D01*
X154750770Y-102326440D01*
X155190769Y-102326440D01*
X155424158Y-102229767D01*
X155602787Y-102051139D01*
X155699460Y-101817750D01*
X155699460Y-101377750D01*
X155540710Y-101219000D01*
X154592020Y-101219000D01*
X154338020Y-101219000D01*
X154318020Y-101219000D01*
X154318020Y-100965000D01*
X154338020Y-100965000D01*
X154338020Y-100016310D01*
X154592020Y-100016310D01*
X154592020Y-100965000D01*
X155540710Y-100965000D01*
X155699460Y-100806250D01*
X155699460Y-100366250D01*
X155602787Y-100132861D01*
X155424158Y-99954233D01*
X155190769Y-99857560D01*
X154750770Y-99857560D01*
X154592020Y-100016310D01*
X154338020Y-100016310D01*
X154179270Y-99857560D01*
X153739271Y-99857560D01*
X153505882Y-99954233D01*
X153423669Y-100036445D01*
X153218310Y-99896129D01*
X152966420Y-99845120D01*
X152194902Y-99845120D01*
X150112000Y-97762218D01*
X150112000Y-88791547D01*
X150388943Y-88677117D01*
X150652192Y-88414327D01*
X150794838Y-88070799D01*
X150795002Y-87882000D01*
X153101198Y-87882000D01*
X157196599Y-91977401D01*
M02*
