G04 #@! TF.FileFunction,Soldermask,Top*
%FSLAX46Y46*%
G04 Gerber Fmt 4.6, Leading zero omitted, Abs format (unit mm)*
G04 Created by KiCad (PCBNEW 4.0.4-snap1-stable) date Mon Feb 25 19:09:27 2019*
%MOMM*%
%LPD*%
G01*
G04 APERTURE LIST*
%ADD10C,0.100000*%
%ADD11C,18.180000*%
%ADD12R,2.940000X5.480000*%
%ADD13R,1.650000X1.400000*%
%ADD14R,1.924000X1.924000*%
%ADD15R,1.700000X1.100000*%
%ADD16R,1.100000X1.700000*%
%ADD17R,1.400000X3.150000*%
%ADD18R,1.900000X0.950000*%
%ADD19R,0.950000X1.900000*%
%ADD20C,10.400000*%
%ADD21C,4.200000*%
G04 APERTURE END LIST*
D10*
D11*
X152146000Y-122428000D03*
D12*
X163576000Y-122428000D03*
X140716000Y-122428000D03*
D13*
X164592000Y-104378000D03*
X164592000Y-102378000D03*
X162052000Y-104378000D03*
X162052000Y-102378000D03*
D14*
X134874000Y-106426000D03*
X134874000Y-103886000D03*
X134874000Y-101346000D03*
X134874000Y-98806000D03*
X134874000Y-96266000D03*
X134874000Y-93726000D03*
D15*
X145542000Y-90866000D03*
X145542000Y-88966000D03*
X158496000Y-92136000D03*
X158496000Y-90236000D03*
X148336000Y-91628000D03*
X148336000Y-89728000D03*
D16*
X143698000Y-107442000D03*
X141798000Y-107442000D03*
D15*
X161798000Y-93152000D03*
X161798000Y-91252000D03*
D16*
X143698000Y-98298000D03*
X141798000Y-98298000D03*
D15*
X150876000Y-91374000D03*
X150876000Y-89474000D03*
D16*
X143698000Y-105156000D03*
X141798000Y-105156000D03*
X162372000Y-95504000D03*
X164272000Y-95504000D03*
X140650000Y-95250000D03*
X138750000Y-95250000D03*
D15*
X153416000Y-91374000D03*
X153416000Y-89474000D03*
D16*
X143698000Y-102870000D03*
X141798000Y-102870000D03*
X162372000Y-98806000D03*
X164272000Y-98806000D03*
X145222000Y-93726000D03*
X143322000Y-93726000D03*
D15*
X155956000Y-91374000D03*
X155956000Y-89474000D03*
D16*
X143698000Y-100584000D03*
X141798000Y-100584000D03*
D15*
X167132000Y-118552000D03*
X167132000Y-116652000D03*
D17*
X170402000Y-107615000D03*
X170402000Y-113365000D03*
X166402000Y-113365000D03*
X166402000Y-107615000D03*
D18*
X147462000Y-98870000D03*
X147462000Y-99670000D03*
X147462000Y-100470000D03*
X147462000Y-101270000D03*
X147462000Y-102070000D03*
X147462000Y-102870000D03*
X147462000Y-103670000D03*
X147462000Y-104470000D03*
X147462000Y-105270000D03*
X147462000Y-106070000D03*
X147462000Y-106870000D03*
D19*
X149162000Y-108570000D03*
X149962000Y-108570000D03*
X150762000Y-108570000D03*
X151562000Y-108570000D03*
X152362000Y-108570000D03*
X153162000Y-108570000D03*
X153962000Y-108570000D03*
X154762000Y-108570000D03*
X155562000Y-108570000D03*
X156362000Y-108570000D03*
X157162000Y-108570000D03*
D18*
X158862000Y-106870000D03*
X158862000Y-106070000D03*
X158862000Y-105270000D03*
X158862000Y-104470000D03*
X158862000Y-103670000D03*
X158862000Y-102870000D03*
X158862000Y-102070000D03*
X158862000Y-101270000D03*
X158862000Y-100470000D03*
X158862000Y-99670000D03*
X158862000Y-98870000D03*
D19*
X157162000Y-97170000D03*
X156362000Y-97170000D03*
X155562000Y-97170000D03*
X154762000Y-97170000D03*
X153962000Y-97170000D03*
X153162000Y-97170000D03*
X152362000Y-97170000D03*
X151562000Y-97170000D03*
X150762000Y-97170000D03*
X149962000Y-97170000D03*
X149162000Y-97170000D03*
D20*
X153162000Y-81788000D03*
D21*
X156464000Y-59436000D03*
M02*
