G04 #@! TF.FileFunction,Copper,L1,Top,Signal*
%FSLAX46Y46*%
G04 Gerber Fmt 4.6, Leading zero omitted, Abs format (unit mm)*
G04 Created by KiCad (PCBNEW 4.0.4-snap1-stable) date Mon Feb 25 19:09:27 2019*
%MOMM*%
%LPD*%
G01*
G04 APERTURE LIST*
%ADD10C,0.100000*%
%ADD11C,0.300000*%
%ADD12C,17.780000*%
%ADD13R,2.540000X5.080000*%
%ADD14R,1.250000X1.000000*%
%ADD15R,1.524000X1.524000*%
%ADD16R,1.300000X0.700000*%
%ADD17R,0.700000X1.300000*%
%ADD18R,1.000000X2.750000*%
%ADD19R,1.500000X0.550000*%
%ADD20R,0.550000X1.500000*%
%ADD21C,10.000000*%
%ADD22C,3.800000*%
%ADD23C,0.600000*%
%ADD24C,0.250000*%
%ADD25C,0.254000*%
G04 APERTURE END LIST*
D10*
D11*
X143653716Y-133496857D02*
X143868002Y-133568286D01*
X143939430Y-133639714D01*
X144010859Y-133782571D01*
X144010859Y-133996857D01*
X143939430Y-134139714D01*
X143868002Y-134211143D01*
X143725144Y-134282571D01*
X143153716Y-134282571D01*
X143153716Y-132782571D01*
X143653716Y-132782571D01*
X143796573Y-132854000D01*
X143868002Y-132925429D01*
X143939430Y-133068286D01*
X143939430Y-133211143D01*
X143868002Y-133354000D01*
X143796573Y-133425429D01*
X143653716Y-133496857D01*
X143153716Y-133496857D01*
X145153716Y-133496857D02*
X145368002Y-133568286D01*
X145439430Y-133639714D01*
X145510859Y-133782571D01*
X145510859Y-133996857D01*
X145439430Y-134139714D01*
X145368002Y-134211143D01*
X145225144Y-134282571D01*
X144653716Y-134282571D01*
X144653716Y-132782571D01*
X145153716Y-132782571D01*
X145296573Y-132854000D01*
X145368002Y-132925429D01*
X145439430Y-133068286D01*
X145439430Y-133211143D01*
X145368002Y-133354000D01*
X145296573Y-133425429D01*
X145153716Y-133496857D01*
X144653716Y-133496857D01*
X146153716Y-133711143D02*
X147296573Y-133711143D01*
X148796573Y-134282571D02*
X147939430Y-134282571D01*
X148368002Y-134282571D02*
X148368002Y-132782571D01*
X148225145Y-132996857D01*
X148082287Y-133139714D01*
X147939430Y-133211143D01*
X149653716Y-133425429D02*
X149510858Y-133354000D01*
X149439430Y-133282571D01*
X149368001Y-133139714D01*
X149368001Y-133068286D01*
X149439430Y-132925429D01*
X149510858Y-132854000D01*
X149653716Y-132782571D01*
X149939430Y-132782571D01*
X150082287Y-132854000D01*
X150153716Y-132925429D01*
X150225144Y-133068286D01*
X150225144Y-133139714D01*
X150153716Y-133282571D01*
X150082287Y-133354000D01*
X149939430Y-133425429D01*
X149653716Y-133425429D01*
X149510858Y-133496857D01*
X149439430Y-133568286D01*
X149368001Y-133711143D01*
X149368001Y-133996857D01*
X149439430Y-134139714D01*
X149510858Y-134211143D01*
X149653716Y-134282571D01*
X149939430Y-134282571D01*
X150082287Y-134211143D01*
X150153716Y-134139714D01*
X150225144Y-133996857D01*
X150225144Y-133711143D01*
X150153716Y-133568286D01*
X150082287Y-133496857D01*
X149939430Y-133425429D01*
X151368001Y-133496857D02*
X150868001Y-133496857D01*
X150868001Y-134282571D02*
X150868001Y-132782571D01*
X151582287Y-132782571D01*
X152153715Y-133711143D02*
X153296572Y-133711143D01*
X154296572Y-132782571D02*
X154439429Y-132782571D01*
X154582286Y-132854000D01*
X154653715Y-132925429D01*
X154725144Y-133068286D01*
X154796572Y-133354000D01*
X154796572Y-133711143D01*
X154725144Y-133996857D01*
X154653715Y-134139714D01*
X154582286Y-134211143D01*
X154439429Y-134282571D01*
X154296572Y-134282571D01*
X154153715Y-134211143D01*
X154082286Y-134139714D01*
X154010858Y-133996857D01*
X153939429Y-133711143D01*
X153939429Y-133354000D01*
X154010858Y-133068286D01*
X154082286Y-132925429D01*
X154153715Y-132854000D01*
X154296572Y-132782571D01*
X155725143Y-132782571D02*
X155868000Y-132782571D01*
X156010857Y-132854000D01*
X156082286Y-132925429D01*
X156153715Y-133068286D01*
X156225143Y-133354000D01*
X156225143Y-133711143D01*
X156153715Y-133996857D01*
X156082286Y-134139714D01*
X156010857Y-134211143D01*
X155868000Y-134282571D01*
X155725143Y-134282571D01*
X155582286Y-134211143D01*
X155510857Y-134139714D01*
X155439429Y-133996857D01*
X155368000Y-133711143D01*
X155368000Y-133354000D01*
X155439429Y-133068286D01*
X155510857Y-132925429D01*
X155582286Y-132854000D01*
X155725143Y-132782571D01*
X157653714Y-134282571D02*
X156796571Y-134282571D01*
X157225143Y-134282571D02*
X157225143Y-132782571D01*
X157082286Y-132996857D01*
X156939428Y-133139714D01*
X156796571Y-133211143D01*
D12*
X152146000Y-122428000D03*
D13*
X163576000Y-122428000D03*
X140716000Y-122428000D03*
D14*
X164592000Y-104378000D03*
X164592000Y-102378000D03*
X162052000Y-104378000D03*
X162052000Y-102378000D03*
D15*
X134874000Y-106426000D03*
X134874000Y-103886000D03*
X134874000Y-101346000D03*
X134874000Y-98806000D03*
X134874000Y-96266000D03*
X134874000Y-93726000D03*
D16*
X145542000Y-90866000D03*
X145542000Y-88966000D03*
X158496000Y-92136000D03*
X158496000Y-90236000D03*
X148336000Y-91628000D03*
X148336000Y-89728000D03*
D17*
X143698000Y-107442000D03*
X141798000Y-107442000D03*
D16*
X161798000Y-93152000D03*
X161798000Y-91252000D03*
D17*
X143698000Y-98298000D03*
X141798000Y-98298000D03*
D16*
X150876000Y-91374000D03*
X150876000Y-89474000D03*
D17*
X143698000Y-105156000D03*
X141798000Y-105156000D03*
X162372000Y-95504000D03*
X164272000Y-95504000D03*
X140650000Y-95250000D03*
X138750000Y-95250000D03*
D16*
X153416000Y-91374000D03*
X153416000Y-89474000D03*
D17*
X143698000Y-102870000D03*
X141798000Y-102870000D03*
X162372000Y-98806000D03*
X164272000Y-98806000D03*
X145222000Y-93726000D03*
X143322000Y-93726000D03*
D16*
X155956000Y-91374000D03*
X155956000Y-89474000D03*
D17*
X143698000Y-100584000D03*
X141798000Y-100584000D03*
D16*
X167132000Y-118552000D03*
X167132000Y-116652000D03*
D18*
X170402000Y-107615000D03*
X170402000Y-113365000D03*
X166402000Y-113365000D03*
X166402000Y-107615000D03*
D19*
X147462000Y-98870000D03*
X147462000Y-99670000D03*
X147462000Y-100470000D03*
X147462000Y-101270000D03*
X147462000Y-102070000D03*
X147462000Y-102870000D03*
X147462000Y-103670000D03*
X147462000Y-104470000D03*
X147462000Y-105270000D03*
X147462000Y-106070000D03*
X147462000Y-106870000D03*
D20*
X149162000Y-108570000D03*
X149962000Y-108570000D03*
X150762000Y-108570000D03*
X151562000Y-108570000D03*
X152362000Y-108570000D03*
X153162000Y-108570000D03*
X153962000Y-108570000D03*
X154762000Y-108570000D03*
X155562000Y-108570000D03*
X156362000Y-108570000D03*
X157162000Y-108570000D03*
D19*
X158862000Y-106870000D03*
X158862000Y-106070000D03*
X158862000Y-105270000D03*
X158862000Y-104470000D03*
X158862000Y-103670000D03*
X158862000Y-102870000D03*
X158862000Y-102070000D03*
X158862000Y-101270000D03*
X158862000Y-100470000D03*
X158862000Y-99670000D03*
X158862000Y-98870000D03*
D20*
X157162000Y-97170000D03*
X156362000Y-97170000D03*
X155562000Y-97170000D03*
X154762000Y-97170000D03*
X153962000Y-97170000D03*
X153162000Y-97170000D03*
X152362000Y-97170000D03*
X151562000Y-97170000D03*
X150762000Y-97170000D03*
X149962000Y-97170000D03*
X149162000Y-97170000D03*
D21*
X153162000Y-81788000D03*
D22*
X156464000Y-59436000D03*
D23*
X150368000Y-104140000D03*
X149860000Y-101092000D03*
X144780000Y-96774000D03*
X134874000Y-102616000D03*
X164084000Y-109728000D03*
X164338000Y-117602000D03*
X141478000Y-115824000D03*
X157480000Y-130810000D03*
X143510000Y-116332000D03*
X149098000Y-102362000D03*
X136144000Y-112268000D03*
X130556000Y-107696000D03*
X131572000Y-98552000D03*
X156210000Y-101092000D03*
X168148000Y-114554000D03*
X164084000Y-107696000D03*
X163830000Y-100584000D03*
X139192000Y-90678000D03*
X159004000Y-84836000D03*
X148336000Y-86360000D03*
X138938000Y-106934000D03*
X157480000Y-85852000D03*
X138430000Y-104902000D03*
X149860000Y-87884000D03*
X167132000Y-99568000D03*
X163322000Y-91440000D03*
X138938000Y-103886000D03*
X165608000Y-95504000D03*
X150368000Y-110236000D03*
X139700000Y-108712000D03*
X137414000Y-94996000D03*
X131826000Y-107442000D03*
X133858000Y-109728000D03*
X156718000Y-86614000D03*
X138938000Y-101600000D03*
X165862000Y-98806000D03*
X147320000Y-109728000D03*
X138684000Y-107950000D03*
X133858000Y-108458000D03*
X157734000Y-87630000D03*
X138938000Y-100584000D03*
D24*
X150368000Y-103670000D02*
X150368000Y-104140000D01*
X134874000Y-102616000D02*
X134874000Y-103886000D01*
X149860000Y-99568000D02*
X149860000Y-101092000D01*
X147574000Y-97282000D02*
X149860000Y-99568000D01*
X145288000Y-97282000D02*
X147574000Y-97282000D01*
X144780000Y-96774000D02*
X145288000Y-97282000D01*
X150368000Y-103670000D02*
X150368000Y-103632000D01*
X150368000Y-103632000D02*
X150368000Y-103670000D01*
X167132000Y-118552000D02*
X165288000Y-118552000D01*
X163576000Y-105394000D02*
X164592000Y-104378000D01*
X163576000Y-106172000D02*
X163576000Y-105394000D01*
X162814000Y-106934000D02*
X163576000Y-106172000D01*
X162814000Y-108458000D02*
X162814000Y-106934000D01*
X164084000Y-109728000D02*
X162814000Y-108458000D01*
X165288000Y-118552000D02*
X164338000Y-117602000D01*
X163576000Y-122428000D02*
X165100000Y-122428000D01*
X167132000Y-120396000D02*
X167132000Y-118552000D01*
X165100000Y-122428000D02*
X167132000Y-120396000D01*
X147462000Y-103670000D02*
X150368000Y-103670000D01*
X150368000Y-103670000D02*
X153886000Y-103670000D01*
X154686000Y-102870000D02*
X158862000Y-102870000D01*
X153886000Y-103670000D02*
X154686000Y-102870000D01*
X164592000Y-104378000D02*
X162052000Y-104378000D01*
X162052000Y-104378000D02*
X160544000Y-102870000D01*
X160544000Y-102870000D02*
X158862000Y-102870000D01*
X140716000Y-122428000D02*
X140716000Y-126492000D01*
X163576000Y-126492000D02*
X163576000Y-122428000D01*
X157988000Y-132080000D02*
X163576000Y-126492000D01*
X146304000Y-132080000D02*
X157988000Y-132080000D01*
X140716000Y-126492000D02*
X146304000Y-132080000D01*
X152146000Y-122428000D02*
X148082000Y-122428000D01*
X148082000Y-122428000D02*
X141478000Y-115824000D01*
X152146000Y-122428000D02*
X152146000Y-125476000D01*
X152146000Y-125476000D02*
X157480000Y-130810000D01*
X152146000Y-122428000D02*
X149606000Y-122428000D01*
X149606000Y-122428000D02*
X143510000Y-116332000D01*
X149098000Y-102870000D02*
X149098000Y-102362000D01*
X130556000Y-107696000D02*
X134874000Y-112014000D01*
X135890000Y-112014000D02*
X134874000Y-112014000D01*
X135890000Y-112014000D02*
X136144000Y-112268000D01*
X134874000Y-101346000D02*
X134366000Y-101346000D01*
X134366000Y-101346000D02*
X131572000Y-98552000D01*
X156718000Y-102070000D02*
X156718000Y-101600000D01*
X156718000Y-101600000D02*
X156210000Y-101092000D01*
X166402000Y-113365000D02*
X166959000Y-113365000D01*
X166959000Y-113365000D02*
X168148000Y-114554000D01*
X166402000Y-107615000D02*
X164165000Y-107615000D01*
X164165000Y-107615000D02*
X164084000Y-107696000D01*
X163322000Y-102378000D02*
X163322000Y-101092000D01*
X163322000Y-101092000D02*
X163830000Y-100584000D01*
X166402000Y-113365000D02*
X166402000Y-107615000D01*
X158862000Y-102070000D02*
X156718000Y-102070000D01*
X156718000Y-102070000D02*
X153962000Y-102070000D01*
X153162000Y-102870000D02*
X149098000Y-102870000D01*
X149098000Y-102870000D02*
X147462000Y-102870000D01*
X153962000Y-102070000D02*
X153162000Y-102870000D01*
X164592000Y-102378000D02*
X163322000Y-102378000D01*
X163322000Y-102378000D02*
X162052000Y-102378000D01*
X162052000Y-102378000D02*
X162036000Y-102362000D01*
X162036000Y-102362000D02*
X160274000Y-102362000D01*
X160274000Y-102362000D02*
X159982000Y-102070000D01*
X159982000Y-102070000D02*
X158862000Y-102070000D01*
X145542000Y-88966000D02*
X140904000Y-88966000D01*
X140904000Y-88966000D02*
X139192000Y-90678000D01*
X158496000Y-85344000D02*
X158496000Y-90236000D01*
X159004000Y-84836000D02*
X158496000Y-85344000D01*
X148336000Y-89728000D02*
X148336000Y-86360000D01*
X141798000Y-107442000D02*
X139446000Y-107442000D01*
X139446000Y-107442000D02*
X138938000Y-106934000D01*
X161798000Y-91252000D02*
X161798000Y-90424000D01*
X157734000Y-85598000D02*
X157480000Y-85852000D01*
X157734000Y-85344000D02*
X157734000Y-85598000D01*
X158242000Y-84836000D02*
X157734000Y-85344000D01*
X158242000Y-84074000D02*
X158242000Y-84836000D01*
X158496000Y-83820000D02*
X158242000Y-84074000D01*
X158750000Y-83820000D02*
X158496000Y-83820000D01*
X159004000Y-83820000D02*
X158750000Y-83820000D01*
X159766000Y-84582000D02*
X159004000Y-83820000D01*
X159766000Y-85344000D02*
X159766000Y-84582000D01*
X159004000Y-86106000D02*
X159766000Y-85344000D01*
X159004000Y-88646000D02*
X159004000Y-86106000D01*
X160528000Y-90170000D02*
X159004000Y-88646000D01*
X161544000Y-90170000D02*
X160528000Y-90170000D01*
X161798000Y-90424000D02*
X161544000Y-90170000D01*
X141798000Y-98298000D02*
X138684000Y-98298000D01*
X138118002Y-104590002D02*
X138430000Y-104902000D01*
X138118002Y-103943998D02*
X138118002Y-104590002D01*
X138176000Y-103886000D02*
X138118002Y-103943998D01*
X138176000Y-98806000D02*
X138176000Y-103886000D01*
X138684000Y-98298000D02*
X138176000Y-98806000D01*
X150876000Y-89474000D02*
X150876000Y-88646000D01*
X150114000Y-87884000D02*
X149860000Y-87884000D01*
X150876000Y-88646000D02*
X150114000Y-87884000D01*
X141798000Y-105156000D02*
X140462000Y-105156000D01*
X167132000Y-91694000D02*
X167132000Y-99568000D01*
X163322000Y-91440000D02*
X167132000Y-91694000D01*
X139192000Y-103886000D02*
X138938000Y-103886000D01*
X140462000Y-105156000D02*
X139192000Y-103886000D01*
X164272000Y-95504000D02*
X165608000Y-95504000D01*
X138750000Y-95250000D02*
X137668000Y-95250000D01*
X150114000Y-110490000D02*
X150368000Y-110236000D01*
X140970000Y-110490000D02*
X150114000Y-110490000D01*
X140462000Y-109982000D02*
X140970000Y-110490000D01*
X140462000Y-109474000D02*
X140462000Y-109982000D01*
X139700000Y-108712000D02*
X140462000Y-109474000D01*
X137668000Y-95250000D02*
X137414000Y-94996000D01*
X131826000Y-107442000D02*
X133858000Y-109728000D01*
X153416000Y-89474000D02*
X153416000Y-88138000D01*
X155956000Y-86614000D02*
X156718000Y-86614000D01*
X155194000Y-87376000D02*
X155956000Y-86614000D01*
X154178000Y-87376000D02*
X155194000Y-87376000D01*
X153416000Y-88138000D02*
X154178000Y-87376000D01*
X141798000Y-102870000D02*
X138938000Y-101600000D01*
X164272000Y-98806000D02*
X165862000Y-98806000D01*
X143322000Y-93726000D02*
X139700000Y-93726000D01*
X141478000Y-109728000D02*
X147320000Y-109728000D01*
X141224000Y-109474000D02*
X141478000Y-109728000D01*
X141224000Y-108712000D02*
X141224000Y-109474000D01*
X140462000Y-107950000D02*
X141224000Y-108712000D01*
X138684000Y-107950000D02*
X140462000Y-107950000D01*
X131064000Y-105664000D02*
X133858000Y-108458000D01*
X131064000Y-99314000D02*
X131064000Y-105664000D01*
X129794000Y-98044000D02*
X131064000Y-99314000D01*
X129794000Y-96012000D02*
X129794000Y-98044000D01*
X133604000Y-92202000D02*
X129794000Y-96012000D01*
X138176000Y-92202000D02*
X133604000Y-92202000D01*
X139700000Y-93726000D02*
X138176000Y-92202000D01*
X155956000Y-89474000D02*
X155956000Y-88138000D01*
X156464000Y-87630000D02*
X157734000Y-87630000D01*
X155956000Y-88138000D02*
X156464000Y-87630000D01*
X141798000Y-100584000D02*
X138938000Y-100584000D01*
X153962000Y-108570000D02*
X153962000Y-111722000D01*
X134874000Y-109220000D02*
X134874000Y-106426000D01*
X138176000Y-112522000D02*
X134874000Y-109220000D01*
X153162000Y-112522000D02*
X138176000Y-112522000D01*
X153962000Y-111722000D02*
X153162000Y-112522000D01*
X134874000Y-98806000D02*
X135382000Y-98806000D01*
X135382000Y-98806000D02*
X136398000Y-99822000D01*
X136398000Y-99822000D02*
X136398000Y-109474000D01*
X136398000Y-109474000D02*
X138938000Y-112014000D01*
X138938000Y-112014000D02*
X152908000Y-112014000D01*
X152908000Y-112014000D02*
X153162000Y-111760000D01*
X153162000Y-111760000D02*
X153162000Y-108570000D01*
X134874000Y-96266000D02*
X137160000Y-98552000D01*
X152362000Y-111290000D02*
X152362000Y-108570000D01*
X152146000Y-111506000D02*
X152362000Y-111290000D01*
X139192000Y-111506000D02*
X152146000Y-111506000D01*
X137160000Y-109474000D02*
X139192000Y-111506000D01*
X137160000Y-98552000D02*
X137160000Y-109474000D01*
X134874000Y-93726000D02*
X137668000Y-96520000D01*
X151638000Y-110490000D02*
X151638000Y-108646000D01*
X151130000Y-110998000D02*
X151638000Y-110490000D01*
X139700000Y-110998000D02*
X151130000Y-110998000D01*
X137668000Y-108966000D02*
X139700000Y-110998000D01*
X137668000Y-96520000D02*
X137668000Y-108966000D01*
X151638000Y-108646000D02*
X151562000Y-108570000D01*
X150762000Y-97170000D02*
X150762000Y-96152000D01*
X145542000Y-91948000D02*
X145542000Y-90866000D01*
X146558000Y-92964000D02*
X145542000Y-91948000D01*
X146812000Y-92964000D02*
X146558000Y-92964000D01*
X148336000Y-94488000D02*
X146812000Y-92964000D01*
X149098000Y-94488000D02*
X148336000Y-94488000D01*
X150762000Y-96152000D02*
X149098000Y-94488000D01*
X154762000Y-97170000D02*
X154762000Y-94920000D01*
X158496000Y-92710000D02*
X158496000Y-92136000D01*
X157734000Y-93472000D02*
X158496000Y-92710000D01*
X157226000Y-93472000D02*
X157734000Y-93472000D01*
X156972000Y-93726000D02*
X157226000Y-93472000D01*
X155956000Y-93726000D02*
X156972000Y-93726000D01*
X154762000Y-94920000D02*
X155956000Y-93726000D01*
X151562000Y-97170000D02*
X151562000Y-95936000D01*
X148336000Y-92456000D02*
X148336000Y-91628000D01*
X148844000Y-92964000D02*
X148336000Y-92456000D01*
X148844000Y-93472000D02*
X148844000Y-92964000D01*
X149860000Y-94488000D02*
X148844000Y-93472000D01*
X150114000Y-94488000D02*
X149860000Y-94488000D01*
X151562000Y-95936000D02*
X150114000Y-94488000D01*
X147462000Y-102070000D02*
X146342000Y-102070000D01*
X145542000Y-107442000D02*
X143698000Y-107442000D01*
X146050000Y-106934000D02*
X145542000Y-107442000D01*
X146050000Y-102362000D02*
X146050000Y-106934000D01*
X146342000Y-102070000D02*
X146050000Y-102362000D01*
X155562000Y-97170000D02*
X155562000Y-95898000D01*
X161798000Y-93980000D02*
X161798000Y-93152000D01*
X161544000Y-94234000D02*
X161798000Y-93980000D01*
X160782000Y-94234000D02*
X161544000Y-94234000D01*
X160528000Y-94488000D02*
X160782000Y-94234000D01*
X156972000Y-94488000D02*
X160528000Y-94488000D01*
X155562000Y-95898000D02*
X156972000Y-94488000D01*
X147462000Y-98870000D02*
X146368000Y-98870000D01*
X145796000Y-98298000D02*
X143698000Y-98298000D01*
X146368000Y-98870000D02*
X145796000Y-98298000D01*
X152362000Y-97170000D02*
X152362000Y-95974000D01*
X150876000Y-94488000D02*
X150876000Y-91374000D01*
X152362000Y-95974000D02*
X150876000Y-94488000D01*
X147462000Y-101270000D02*
X146380000Y-101270000D01*
X144780000Y-105156000D02*
X143698000Y-105156000D01*
X145542000Y-104394000D02*
X144780000Y-105156000D01*
X145542000Y-102108000D02*
X145542000Y-104394000D01*
X146380000Y-101270000D02*
X145542000Y-102108000D01*
X156362000Y-97170000D02*
X156362000Y-96368000D01*
X157226000Y-95504000D02*
X162372000Y-95504000D01*
X156362000Y-96368000D02*
X157226000Y-95504000D01*
X149162000Y-97170000D02*
X149162000Y-96330000D01*
X142494000Y-95250000D02*
X140650000Y-95250000D01*
X143002000Y-95758000D02*
X142494000Y-95250000D01*
X148590000Y-95758000D02*
X143002000Y-95758000D01*
X149162000Y-96330000D02*
X148590000Y-95758000D01*
X153162000Y-97170000D02*
X153162000Y-94488000D01*
X153416000Y-94234000D02*
X153416000Y-91374000D01*
X153162000Y-94488000D02*
X153416000Y-94234000D01*
X147462000Y-100470000D02*
X146418000Y-100470000D01*
X144780000Y-102870000D02*
X143698000Y-102870000D01*
X145034000Y-102616000D02*
X144780000Y-102870000D01*
X145034000Y-101854000D02*
X145034000Y-102616000D01*
X146418000Y-100470000D02*
X145034000Y-101854000D01*
X158862000Y-99670000D02*
X160376000Y-99670000D01*
X160986000Y-99060000D02*
X162118000Y-99060000D01*
X160376000Y-99670000D02*
X160986000Y-99060000D01*
X162118000Y-99060000D02*
X162372000Y-98806000D01*
X149962000Y-97170000D02*
X149962000Y-96114000D01*
X146304000Y-93726000D02*
X145222000Y-93726000D01*
X147574000Y-94996000D02*
X146304000Y-93726000D01*
X148844000Y-94996000D02*
X147574000Y-94996000D01*
X149962000Y-96114000D02*
X148844000Y-94996000D01*
X153962000Y-97170000D02*
X153962000Y-95288000D01*
X155956000Y-92202000D02*
X155956000Y-91374000D01*
X155702000Y-92456000D02*
X155956000Y-92202000D01*
X155194000Y-92456000D02*
X155702000Y-92456000D01*
X154178000Y-93472000D02*
X155194000Y-92456000D01*
X154178000Y-95072000D02*
X154178000Y-93472000D01*
X153962000Y-95288000D02*
X154178000Y-95072000D01*
X147462000Y-99670000D02*
X146456000Y-99670000D01*
X145542000Y-100584000D02*
X143698000Y-100584000D01*
X146456000Y-99670000D02*
X145542000Y-100584000D01*
X167132000Y-116652000D02*
X160340000Y-116652000D01*
X154762000Y-112090000D02*
X154762000Y-108570000D01*
X155702000Y-113030000D02*
X154762000Y-112090000D01*
X156718000Y-113030000D02*
X155702000Y-113030000D01*
X160340000Y-116652000D02*
X156718000Y-113030000D01*
X167132000Y-116652000D02*
X168844000Y-116652000D01*
X170402000Y-115094000D02*
X170402000Y-113365000D01*
X168844000Y-116652000D02*
X170402000Y-115094000D01*
X170402000Y-113365000D02*
X170402000Y-107615000D01*
D25*
G36*
X151612167Y-76261200D02*
X151682762Y-76294885D01*
X151689278Y-76299438D01*
X149974199Y-77008094D01*
X148387665Y-78591861D01*
X147527980Y-80662212D01*
X147526024Y-82903953D01*
X148382094Y-84975801D01*
X149965861Y-86562335D01*
X152036212Y-87422020D01*
X153056288Y-87422910D01*
X152878599Y-87600599D01*
X152713852Y-87847161D01*
X152656000Y-88138000D01*
X152656000Y-88497258D01*
X152530683Y-88520838D01*
X152314559Y-88659910D01*
X152169569Y-88872110D01*
X152147007Y-88983523D01*
X152129162Y-88888683D01*
X151990090Y-88672559D01*
X151777890Y-88527569D01*
X151605498Y-88492659D01*
X151578148Y-88355161D01*
X151413401Y-88108599D01*
X150651401Y-87346599D01*
X150631198Y-87333100D01*
X150390327Y-87091808D01*
X150046799Y-86949162D01*
X149674833Y-86948838D01*
X149331057Y-87090883D01*
X149096000Y-87325530D01*
X149096000Y-86922463D01*
X149128192Y-86890327D01*
X149270838Y-86546799D01*
X149271162Y-86174833D01*
X149129117Y-85831057D01*
X148866327Y-85567808D01*
X148522799Y-85425162D01*
X148150833Y-85424838D01*
X147807057Y-85566883D01*
X147543808Y-85829673D01*
X147401162Y-86173201D01*
X147400838Y-86545167D01*
X147542883Y-86888943D01*
X147576000Y-86922118D01*
X147576000Y-88751258D01*
X147450683Y-88774838D01*
X147234559Y-88913910D01*
X147089569Y-89126110D01*
X147038560Y-89378000D01*
X147038560Y-90078000D01*
X147082838Y-90313317D01*
X147221910Y-90529441D01*
X147434110Y-90674431D01*
X147447197Y-90677081D01*
X147234559Y-90813910D01*
X147089569Y-91026110D01*
X147038560Y-91278000D01*
X147038560Y-91978000D01*
X147082838Y-92213317D01*
X147122540Y-92275016D01*
X147102839Y-92261852D01*
X146887899Y-92219097D01*
X146464219Y-91795417D01*
X146643441Y-91680090D01*
X146788431Y-91467890D01*
X146839440Y-91216000D01*
X146839440Y-90516000D01*
X146795162Y-90280683D01*
X146656090Y-90064559D01*
X146443890Y-89919569D01*
X146430803Y-89916919D01*
X146643441Y-89780090D01*
X146788431Y-89567890D01*
X146839440Y-89316000D01*
X146839440Y-88616000D01*
X146795162Y-88380683D01*
X146656090Y-88164559D01*
X146443890Y-88019569D01*
X146192000Y-87968560D01*
X144892000Y-87968560D01*
X144656683Y-88012838D01*
X144440559Y-88151910D01*
X144403601Y-88206000D01*
X140904000Y-88206000D01*
X140613161Y-88263852D01*
X140366599Y-88428599D01*
X139052320Y-89742878D01*
X139006833Y-89742838D01*
X138663057Y-89884883D01*
X138399808Y-90147673D01*
X138257162Y-90491201D01*
X138256838Y-90863167D01*
X138398883Y-91206943D01*
X138661673Y-91470192D01*
X139005201Y-91612838D01*
X139377167Y-91613162D01*
X139720943Y-91471117D01*
X139984192Y-91208327D01*
X140126838Y-90864799D01*
X140126879Y-90817923D01*
X141218802Y-89726000D01*
X144401243Y-89726000D01*
X144427910Y-89767441D01*
X144640110Y-89912431D01*
X144653197Y-89915081D01*
X144440559Y-90051910D01*
X144295569Y-90264110D01*
X144244560Y-90516000D01*
X144244560Y-91216000D01*
X144288838Y-91451317D01*
X144427910Y-91667441D01*
X144640110Y-91812431D01*
X144782000Y-91841164D01*
X144782000Y-91948000D01*
X144839852Y-92238839D01*
X144966619Y-92428560D01*
X144872000Y-92428560D01*
X144636683Y-92472838D01*
X144420559Y-92611910D01*
X144275569Y-92824110D01*
X144272919Y-92837197D01*
X144136090Y-92624559D01*
X143923890Y-92479569D01*
X143672000Y-92428560D01*
X142972000Y-92428560D01*
X142736683Y-92472838D01*
X142520559Y-92611910D01*
X142375569Y-92824110D01*
X142346836Y-92966000D01*
X140014802Y-92966000D01*
X138713401Y-91664599D01*
X138466839Y-91499852D01*
X138176000Y-91442000D01*
X133604000Y-91442000D01*
X133313161Y-91499852D01*
X133066599Y-91664599D01*
X129256599Y-95474599D01*
X129091852Y-95721161D01*
X129034000Y-96012000D01*
X129034000Y-98044000D01*
X129091852Y-98334839D01*
X129256599Y-98581401D01*
X130304000Y-99628802D01*
X130304000Y-105664000D01*
X130361852Y-105954839D01*
X130526599Y-106201401D01*
X131135428Y-106810230D01*
X131033808Y-106911673D01*
X130891162Y-107255201D01*
X130890838Y-107627167D01*
X131032883Y-107970943D01*
X131295673Y-108234192D01*
X131639201Y-108376838D01*
X131640122Y-108376839D01*
X132922919Y-109819986D01*
X132922838Y-109913167D01*
X133064883Y-110256943D01*
X133327673Y-110520192D01*
X133671201Y-110662838D01*
X134043167Y-110663162D01*
X134386943Y-110521117D01*
X134650192Y-110258327D01*
X134705156Y-110125958D01*
X137638599Y-113059401D01*
X137885160Y-113224148D01*
X138176000Y-113282000D01*
X149393339Y-113282000D01*
X146963848Y-114214559D01*
X146540894Y-114497169D01*
X145481510Y-115583905D01*
X152146000Y-122248395D01*
X152160143Y-122234253D01*
X152339748Y-122413858D01*
X152325605Y-122428000D01*
X158990095Y-129092490D01*
X160076831Y-128033106D01*
X161618113Y-124571445D01*
X161658560Y-123027587D01*
X161658560Y-124968000D01*
X161702838Y-125203317D01*
X161841910Y-125419441D01*
X162054110Y-125564431D01*
X162306000Y-125615440D01*
X162816000Y-125615440D01*
X162816000Y-126177198D01*
X157673198Y-131320000D01*
X155560378Y-131320000D01*
X157328152Y-130641441D01*
X157751106Y-130358831D01*
X158810490Y-129272095D01*
X152146000Y-122607605D01*
X145481510Y-129272095D01*
X146540894Y-130358831D01*
X148699643Y-131320000D01*
X146618802Y-131320000D01*
X141476000Y-126177198D01*
X141476000Y-125615440D01*
X141986000Y-125615440D01*
X142221317Y-125571162D01*
X142437441Y-125432090D01*
X142582431Y-125219890D01*
X142633440Y-124968000D01*
X142633440Y-124225703D01*
X143932559Y-127610152D01*
X144215169Y-128033106D01*
X145301905Y-129092490D01*
X151966395Y-122428000D01*
X145301905Y-115763510D01*
X144215169Y-116822894D01*
X142673887Y-120284555D01*
X142633440Y-121828413D01*
X142633440Y-119888000D01*
X142589162Y-119652683D01*
X142450090Y-119436559D01*
X142237890Y-119291569D01*
X141986000Y-119240560D01*
X139446000Y-119240560D01*
X139210683Y-119284838D01*
X138994559Y-119423910D01*
X138849569Y-119636110D01*
X138798560Y-119888000D01*
X138798560Y-124229160D01*
X136872001Y-118197151D01*
X136863829Y-118182386D01*
X136861118Y-118165729D01*
X136325964Y-116733983D01*
X136281824Y-116662639D01*
X136248670Y-116585568D01*
X135919631Y-116107283D01*
X134479592Y-113227204D01*
X134450374Y-113189079D01*
X133064644Y-111957319D01*
X132766034Y-111523264D01*
X132717690Y-111476212D01*
X132679448Y-111420624D01*
X129508182Y-108334141D01*
X129293144Y-108105663D01*
X127548818Y-105570139D01*
X126641730Y-103529190D01*
X126111000Y-101037907D01*
X126111000Y-99629119D01*
X126121349Y-99573137D01*
X128885637Y-93541963D01*
X132666888Y-89256546D01*
X139235527Y-85972227D01*
X143539088Y-84959624D01*
X143557167Y-84953917D01*
X144827167Y-84445917D01*
X144869327Y-84418276D01*
X144897411Y-84376410D01*
X144906995Y-84326917D01*
X144896568Y-84277594D01*
X144883569Y-84254499D01*
X144617602Y-83879727D01*
X144619962Y-83777372D01*
X144614175Y-83762435D01*
X144613806Y-83746419D01*
X144566083Y-83638312D01*
X144523401Y-83528151D01*
X144512340Y-83516568D01*
X144505869Y-83501909D01*
X139717192Y-76680417D01*
X146026875Y-77848877D01*
X146077281Y-77848035D01*
X146139803Y-77813803D01*
X146167814Y-77785792D01*
X146227467Y-77785410D01*
X146276566Y-77764703D01*
X146329163Y-77756158D01*
X146398559Y-77713252D01*
X146473734Y-77681547D01*
X146511171Y-77643627D01*
X146556495Y-77615604D01*
X146604189Y-77549407D01*
X146661509Y-77491348D01*
X146681585Y-77441988D01*
X146712735Y-77398754D01*
X146731466Y-77319346D01*
X146762205Y-77243769D01*
X146761863Y-77190482D01*
X146774097Y-77138619D01*
X146761014Y-77058087D01*
X146760491Y-76976501D01*
X146739784Y-76927402D01*
X146731239Y-76874804D01*
X144525212Y-70967420D01*
X151612167Y-76261200D01*
X151612167Y-76261200D01*
G37*
X151612167Y-76261200D02*
X151682762Y-76294885D01*
X151689278Y-76299438D01*
X149974199Y-77008094D01*
X148387665Y-78591861D01*
X147527980Y-80662212D01*
X147526024Y-82903953D01*
X148382094Y-84975801D01*
X149965861Y-86562335D01*
X152036212Y-87422020D01*
X153056288Y-87422910D01*
X152878599Y-87600599D01*
X152713852Y-87847161D01*
X152656000Y-88138000D01*
X152656000Y-88497258D01*
X152530683Y-88520838D01*
X152314559Y-88659910D01*
X152169569Y-88872110D01*
X152147007Y-88983523D01*
X152129162Y-88888683D01*
X151990090Y-88672559D01*
X151777890Y-88527569D01*
X151605498Y-88492659D01*
X151578148Y-88355161D01*
X151413401Y-88108599D01*
X150651401Y-87346599D01*
X150631198Y-87333100D01*
X150390327Y-87091808D01*
X150046799Y-86949162D01*
X149674833Y-86948838D01*
X149331057Y-87090883D01*
X149096000Y-87325530D01*
X149096000Y-86922463D01*
X149128192Y-86890327D01*
X149270838Y-86546799D01*
X149271162Y-86174833D01*
X149129117Y-85831057D01*
X148866327Y-85567808D01*
X148522799Y-85425162D01*
X148150833Y-85424838D01*
X147807057Y-85566883D01*
X147543808Y-85829673D01*
X147401162Y-86173201D01*
X147400838Y-86545167D01*
X147542883Y-86888943D01*
X147576000Y-86922118D01*
X147576000Y-88751258D01*
X147450683Y-88774838D01*
X147234559Y-88913910D01*
X147089569Y-89126110D01*
X147038560Y-89378000D01*
X147038560Y-90078000D01*
X147082838Y-90313317D01*
X147221910Y-90529441D01*
X147434110Y-90674431D01*
X147447197Y-90677081D01*
X147234559Y-90813910D01*
X147089569Y-91026110D01*
X147038560Y-91278000D01*
X147038560Y-91978000D01*
X147082838Y-92213317D01*
X147122540Y-92275016D01*
X147102839Y-92261852D01*
X146887899Y-92219097D01*
X146464219Y-91795417D01*
X146643441Y-91680090D01*
X146788431Y-91467890D01*
X146839440Y-91216000D01*
X146839440Y-90516000D01*
X146795162Y-90280683D01*
X146656090Y-90064559D01*
X146443890Y-89919569D01*
X146430803Y-89916919D01*
X146643441Y-89780090D01*
X146788431Y-89567890D01*
X146839440Y-89316000D01*
X146839440Y-88616000D01*
X146795162Y-88380683D01*
X146656090Y-88164559D01*
X146443890Y-88019569D01*
X146192000Y-87968560D01*
X144892000Y-87968560D01*
X144656683Y-88012838D01*
X144440559Y-88151910D01*
X144403601Y-88206000D01*
X140904000Y-88206000D01*
X140613161Y-88263852D01*
X140366599Y-88428599D01*
X139052320Y-89742878D01*
X139006833Y-89742838D01*
X138663057Y-89884883D01*
X138399808Y-90147673D01*
X138257162Y-90491201D01*
X138256838Y-90863167D01*
X138398883Y-91206943D01*
X138661673Y-91470192D01*
X139005201Y-91612838D01*
X139377167Y-91613162D01*
X139720943Y-91471117D01*
X139984192Y-91208327D01*
X140126838Y-90864799D01*
X140126879Y-90817923D01*
X141218802Y-89726000D01*
X144401243Y-89726000D01*
X144427910Y-89767441D01*
X144640110Y-89912431D01*
X144653197Y-89915081D01*
X144440559Y-90051910D01*
X144295569Y-90264110D01*
X144244560Y-90516000D01*
X144244560Y-91216000D01*
X144288838Y-91451317D01*
X144427910Y-91667441D01*
X144640110Y-91812431D01*
X144782000Y-91841164D01*
X144782000Y-91948000D01*
X144839852Y-92238839D01*
X144966619Y-92428560D01*
X144872000Y-92428560D01*
X144636683Y-92472838D01*
X144420559Y-92611910D01*
X144275569Y-92824110D01*
X144272919Y-92837197D01*
X144136090Y-92624559D01*
X143923890Y-92479569D01*
X143672000Y-92428560D01*
X142972000Y-92428560D01*
X142736683Y-92472838D01*
X142520559Y-92611910D01*
X142375569Y-92824110D01*
X142346836Y-92966000D01*
X140014802Y-92966000D01*
X138713401Y-91664599D01*
X138466839Y-91499852D01*
X138176000Y-91442000D01*
X133604000Y-91442000D01*
X133313161Y-91499852D01*
X133066599Y-91664599D01*
X129256599Y-95474599D01*
X129091852Y-95721161D01*
X129034000Y-96012000D01*
X129034000Y-98044000D01*
X129091852Y-98334839D01*
X129256599Y-98581401D01*
X130304000Y-99628802D01*
X130304000Y-105664000D01*
X130361852Y-105954839D01*
X130526599Y-106201401D01*
X131135428Y-106810230D01*
X131033808Y-106911673D01*
X130891162Y-107255201D01*
X130890838Y-107627167D01*
X131032883Y-107970943D01*
X131295673Y-108234192D01*
X131639201Y-108376838D01*
X131640122Y-108376839D01*
X132922919Y-109819986D01*
X132922838Y-109913167D01*
X133064883Y-110256943D01*
X133327673Y-110520192D01*
X133671201Y-110662838D01*
X134043167Y-110663162D01*
X134386943Y-110521117D01*
X134650192Y-110258327D01*
X134705156Y-110125958D01*
X137638599Y-113059401D01*
X137885160Y-113224148D01*
X138176000Y-113282000D01*
X149393339Y-113282000D01*
X146963848Y-114214559D01*
X146540894Y-114497169D01*
X145481510Y-115583905D01*
X152146000Y-122248395D01*
X152160143Y-122234253D01*
X152339748Y-122413858D01*
X152325605Y-122428000D01*
X158990095Y-129092490D01*
X160076831Y-128033106D01*
X161618113Y-124571445D01*
X161658560Y-123027587D01*
X161658560Y-124968000D01*
X161702838Y-125203317D01*
X161841910Y-125419441D01*
X162054110Y-125564431D01*
X162306000Y-125615440D01*
X162816000Y-125615440D01*
X162816000Y-126177198D01*
X157673198Y-131320000D01*
X155560378Y-131320000D01*
X157328152Y-130641441D01*
X157751106Y-130358831D01*
X158810490Y-129272095D01*
X152146000Y-122607605D01*
X145481510Y-129272095D01*
X146540894Y-130358831D01*
X148699643Y-131320000D01*
X146618802Y-131320000D01*
X141476000Y-126177198D01*
X141476000Y-125615440D01*
X141986000Y-125615440D01*
X142221317Y-125571162D01*
X142437441Y-125432090D01*
X142582431Y-125219890D01*
X142633440Y-124968000D01*
X142633440Y-124225703D01*
X143932559Y-127610152D01*
X144215169Y-128033106D01*
X145301905Y-129092490D01*
X151966395Y-122428000D01*
X145301905Y-115763510D01*
X144215169Y-116822894D01*
X142673887Y-120284555D01*
X142633440Y-121828413D01*
X142633440Y-119888000D01*
X142589162Y-119652683D01*
X142450090Y-119436559D01*
X142237890Y-119291569D01*
X141986000Y-119240560D01*
X139446000Y-119240560D01*
X139210683Y-119284838D01*
X138994559Y-119423910D01*
X138849569Y-119636110D01*
X138798560Y-119888000D01*
X138798560Y-124229160D01*
X136872001Y-118197151D01*
X136863829Y-118182386D01*
X136861118Y-118165729D01*
X136325964Y-116733983D01*
X136281824Y-116662639D01*
X136248670Y-116585568D01*
X135919631Y-116107283D01*
X134479592Y-113227204D01*
X134450374Y-113189079D01*
X133064644Y-111957319D01*
X132766034Y-111523264D01*
X132717690Y-111476212D01*
X132679448Y-111420624D01*
X129508182Y-108334141D01*
X129293144Y-108105663D01*
X127548818Y-105570139D01*
X126641730Y-103529190D01*
X126111000Y-101037907D01*
X126111000Y-99629119D01*
X126121349Y-99573137D01*
X128885637Y-93541963D01*
X132666888Y-89256546D01*
X139235527Y-85972227D01*
X143539088Y-84959624D01*
X143557167Y-84953917D01*
X144827167Y-84445917D01*
X144869327Y-84418276D01*
X144897411Y-84376410D01*
X144906995Y-84326917D01*
X144896568Y-84277594D01*
X144883569Y-84254499D01*
X144617602Y-83879727D01*
X144619962Y-83777372D01*
X144614175Y-83762435D01*
X144613806Y-83746419D01*
X144566083Y-83638312D01*
X144523401Y-83528151D01*
X144512340Y-83516568D01*
X144505869Y-83501909D01*
X139717192Y-76680417D01*
X146026875Y-77848877D01*
X146077281Y-77848035D01*
X146139803Y-77813803D01*
X146167814Y-77785792D01*
X146227467Y-77785410D01*
X146276566Y-77764703D01*
X146329163Y-77756158D01*
X146398559Y-77713252D01*
X146473734Y-77681547D01*
X146511171Y-77643627D01*
X146556495Y-77615604D01*
X146604189Y-77549407D01*
X146661509Y-77491348D01*
X146681585Y-77441988D01*
X146712735Y-77398754D01*
X146731466Y-77319346D01*
X146762205Y-77243769D01*
X146761863Y-77190482D01*
X146774097Y-77138619D01*
X146761014Y-77058087D01*
X146760491Y-76976501D01*
X146739784Y-76927402D01*
X146731239Y-76874804D01*
X144525212Y-70967420D01*
X151612167Y-76261200D01*
G36*
X161452307Y-77382128D02*
X161425344Y-77424725D01*
X161417078Y-77474455D01*
X161428811Y-77523484D01*
X161454197Y-77559803D01*
X161962197Y-78067803D01*
X162004211Y-78095666D01*
X162063854Y-78104446D01*
X166413094Y-77696705D01*
X169631533Y-77481695D01*
X163313317Y-82395862D01*
X160869771Y-84194453D01*
X160864889Y-84199801D01*
X160858402Y-84203006D01*
X160774974Y-84298289D01*
X160689566Y-84391840D01*
X160687103Y-84398645D01*
X160682335Y-84404091D01*
X160641719Y-84524054D01*
X160598614Y-84643162D01*
X160598943Y-84650394D01*
X160596622Y-84657249D01*
X160605006Y-84783630D01*
X160610763Y-84910159D01*
X160613834Y-84916713D01*
X160614313Y-84923936D01*
X160670414Y-85037471D01*
X160724162Y-85152184D01*
X160729510Y-85157066D01*
X160732715Y-85163553D01*
X160827998Y-85246981D01*
X160909000Y-85320932D01*
X160909000Y-85344000D01*
X160919006Y-85393410D01*
X160966888Y-85450548D01*
X170336488Y-91528126D01*
X175134221Y-100871080D01*
X175375242Y-106896603D01*
X175000333Y-108003920D01*
X172609938Y-113219328D01*
X171549440Y-114665461D01*
X171549440Y-111990000D01*
X171505162Y-111754683D01*
X171366090Y-111538559D01*
X171162000Y-111399110D01*
X171162000Y-109577279D01*
X171353441Y-109454090D01*
X171498431Y-109241890D01*
X171549440Y-108990000D01*
X171549440Y-106240000D01*
X171505162Y-106004683D01*
X171366090Y-105788559D01*
X171153890Y-105643569D01*
X170902000Y-105592560D01*
X169902000Y-105592560D01*
X169666683Y-105636838D01*
X169450559Y-105775910D01*
X169305569Y-105988110D01*
X169254560Y-106240000D01*
X169254560Y-108990000D01*
X169298838Y-109225317D01*
X169437910Y-109441441D01*
X169642000Y-109580890D01*
X169642000Y-111402721D01*
X169450559Y-111525910D01*
X169305569Y-111738110D01*
X169254560Y-111990000D01*
X169254560Y-114740000D01*
X169298838Y-114975317D01*
X169356411Y-115064787D01*
X168529198Y-115892000D01*
X168272757Y-115892000D01*
X168246090Y-115850559D01*
X168033890Y-115705569D01*
X167782000Y-115654560D01*
X166482000Y-115654560D01*
X166246683Y-115698838D01*
X166030559Y-115837910D01*
X165993601Y-115892000D01*
X160654802Y-115892000D01*
X158413552Y-113650750D01*
X165267000Y-113650750D01*
X165267000Y-114866309D01*
X165363673Y-115099698D01*
X165542301Y-115278327D01*
X165775690Y-115375000D01*
X166116250Y-115375000D01*
X166275000Y-115216250D01*
X166275000Y-113492000D01*
X166529000Y-113492000D01*
X166529000Y-115216250D01*
X166687750Y-115375000D01*
X167028310Y-115375000D01*
X167261699Y-115278327D01*
X167440327Y-115099698D01*
X167537000Y-114866309D01*
X167537000Y-113650750D01*
X167378250Y-113492000D01*
X166529000Y-113492000D01*
X166275000Y-113492000D01*
X165425750Y-113492000D01*
X165267000Y-113650750D01*
X158413552Y-113650750D01*
X157255401Y-112492599D01*
X157008839Y-112327852D01*
X156718000Y-112270000D01*
X156016802Y-112270000D01*
X155610493Y-111863691D01*
X165267000Y-111863691D01*
X165267000Y-113079250D01*
X165425750Y-113238000D01*
X166275000Y-113238000D01*
X166275000Y-111513750D01*
X166529000Y-111513750D01*
X166529000Y-113238000D01*
X167378250Y-113238000D01*
X167537000Y-113079250D01*
X167537000Y-111863691D01*
X167440327Y-111630302D01*
X167261699Y-111451673D01*
X167028310Y-111355000D01*
X166687750Y-111355000D01*
X166529000Y-111513750D01*
X166275000Y-111513750D01*
X166116250Y-111355000D01*
X165775690Y-111355000D01*
X165542301Y-111451673D01*
X165363673Y-111630302D01*
X165267000Y-111863691D01*
X155610493Y-111863691D01*
X155522000Y-111775198D01*
X155522000Y-109967440D01*
X155837000Y-109967440D01*
X155966589Y-109943056D01*
X156087000Y-109967440D01*
X156637000Y-109967440D01*
X156766589Y-109943056D01*
X156887000Y-109967440D01*
X157437000Y-109967440D01*
X157672317Y-109923162D01*
X157888441Y-109784090D01*
X158033431Y-109571890D01*
X158084440Y-109320000D01*
X158084440Y-107820000D01*
X158077957Y-107785546D01*
X158112000Y-107792440D01*
X159612000Y-107792440D01*
X159847317Y-107748162D01*
X160063441Y-107609090D01*
X160208431Y-107396890D01*
X160259440Y-107145000D01*
X160259440Y-106595000D01*
X160235056Y-106465411D01*
X160259440Y-106345000D01*
X160259440Y-105795000D01*
X160235056Y-105665411D01*
X160259440Y-105545000D01*
X160259440Y-104995000D01*
X160235056Y-104865411D01*
X160259440Y-104745000D01*
X160259440Y-104195000D01*
X160235056Y-104065411D01*
X160259440Y-103945000D01*
X160259440Y-103660242D01*
X160779560Y-104180362D01*
X160779560Y-104878000D01*
X160823838Y-105113317D01*
X160962910Y-105329441D01*
X161175110Y-105474431D01*
X161427000Y-105525440D01*
X162677000Y-105525440D01*
X162816000Y-105499285D01*
X162816000Y-105857198D01*
X162276599Y-106396599D01*
X162111852Y-106643161D01*
X162054000Y-106934000D01*
X162054000Y-108458000D01*
X162111852Y-108748839D01*
X162276599Y-108995401D01*
X163148878Y-109867680D01*
X163148838Y-109913167D01*
X163290883Y-110256943D01*
X163553673Y-110520192D01*
X163897201Y-110662838D01*
X164269167Y-110663162D01*
X164612943Y-110521117D01*
X164876192Y-110258327D01*
X165018838Y-109914799D01*
X165019162Y-109542833D01*
X164877117Y-109199057D01*
X164614327Y-108935808D01*
X164270799Y-108793162D01*
X164223923Y-108793121D01*
X163574000Y-108143198D01*
X163574000Y-107900750D01*
X165267000Y-107900750D01*
X165267000Y-109116309D01*
X165363673Y-109349698D01*
X165542301Y-109528327D01*
X165775690Y-109625000D01*
X166116250Y-109625000D01*
X166275000Y-109466250D01*
X166275000Y-107742000D01*
X166529000Y-107742000D01*
X166529000Y-109466250D01*
X166687750Y-109625000D01*
X167028310Y-109625000D01*
X167261699Y-109528327D01*
X167440327Y-109349698D01*
X167537000Y-109116309D01*
X167537000Y-107900750D01*
X167378250Y-107742000D01*
X166529000Y-107742000D01*
X166275000Y-107742000D01*
X165425750Y-107742000D01*
X165267000Y-107900750D01*
X163574000Y-107900750D01*
X163574000Y-107248802D01*
X164113401Y-106709401D01*
X164278148Y-106462839D01*
X164336000Y-106172000D01*
X164336000Y-106113691D01*
X165267000Y-106113691D01*
X165267000Y-107329250D01*
X165425750Y-107488000D01*
X166275000Y-107488000D01*
X166275000Y-105763750D01*
X166529000Y-105763750D01*
X166529000Y-107488000D01*
X167378250Y-107488000D01*
X167537000Y-107329250D01*
X167537000Y-106113691D01*
X167440327Y-105880302D01*
X167261699Y-105701673D01*
X167028310Y-105605000D01*
X166687750Y-105605000D01*
X166529000Y-105763750D01*
X166275000Y-105763750D01*
X166116250Y-105605000D01*
X165775690Y-105605000D01*
X165542301Y-105701673D01*
X165363673Y-105880302D01*
X165267000Y-106113691D01*
X164336000Y-106113691D01*
X164336000Y-105708802D01*
X164519362Y-105525440D01*
X165217000Y-105525440D01*
X165452317Y-105481162D01*
X165668441Y-105342090D01*
X165813431Y-105129890D01*
X165864440Y-104878000D01*
X165864440Y-103878000D01*
X165820162Y-103642683D01*
X165681090Y-103426559D01*
X165612994Y-103380031D01*
X165755327Y-103237698D01*
X165852000Y-103004309D01*
X165852000Y-102663750D01*
X165693250Y-102505000D01*
X164719000Y-102505000D01*
X164719000Y-102525000D01*
X164465000Y-102525000D01*
X164465000Y-102505000D01*
X163490750Y-102505000D01*
X163332000Y-102663750D01*
X163332000Y-103004309D01*
X163428673Y-103237698D01*
X163569910Y-103378936D01*
X163515559Y-103413910D01*
X163376110Y-103618000D01*
X163264279Y-103618000D01*
X163141090Y-103426559D01*
X163072994Y-103380031D01*
X163215327Y-103237698D01*
X163312000Y-103004309D01*
X163312000Y-102663750D01*
X163153250Y-102505000D01*
X162179000Y-102505000D01*
X162179000Y-102525000D01*
X161925000Y-102525000D01*
X161925000Y-102505000D01*
X161905000Y-102505000D01*
X161905000Y-102251000D01*
X161925000Y-102251000D01*
X161925000Y-101401750D01*
X162179000Y-101401750D01*
X162179000Y-102251000D01*
X163153250Y-102251000D01*
X163312000Y-102092250D01*
X163312000Y-101751691D01*
X163332000Y-101751691D01*
X163332000Y-102092250D01*
X163490750Y-102251000D01*
X164465000Y-102251000D01*
X164465000Y-101401750D01*
X164719000Y-101401750D01*
X164719000Y-102251000D01*
X165693250Y-102251000D01*
X165852000Y-102092250D01*
X165852000Y-101751691D01*
X165755327Y-101518302D01*
X165576699Y-101339673D01*
X165343310Y-101243000D01*
X164877750Y-101243000D01*
X164719000Y-101401750D01*
X164465000Y-101401750D01*
X164306250Y-101243000D01*
X163840690Y-101243000D01*
X163607301Y-101339673D01*
X163428673Y-101518302D01*
X163332000Y-101751691D01*
X163312000Y-101751691D01*
X163215327Y-101518302D01*
X163036699Y-101339673D01*
X162803310Y-101243000D01*
X162337750Y-101243000D01*
X162179000Y-101401750D01*
X161925000Y-101401750D01*
X161766250Y-101243000D01*
X161300690Y-101243000D01*
X161067301Y-101339673D01*
X160888673Y-101518302D01*
X160792000Y-101751691D01*
X160792000Y-102092250D01*
X160933575Y-102233825D01*
X160834839Y-102167852D01*
X160544000Y-102110000D01*
X160026975Y-102110000D01*
X159968603Y-102070116D01*
X160063441Y-102009090D01*
X160152495Y-101878755D01*
X160247000Y-101784250D01*
X160247000Y-101668690D01*
X160238532Y-101648247D01*
X160259440Y-101545000D01*
X160259440Y-100995000D01*
X160235056Y-100865411D01*
X160259440Y-100745000D01*
X160259440Y-100430000D01*
X160376000Y-100430000D01*
X160666839Y-100372148D01*
X160913401Y-100207401D01*
X161300802Y-99820000D01*
X161501643Y-99820000D01*
X161557910Y-99907441D01*
X161770110Y-100052431D01*
X162022000Y-100103440D01*
X162722000Y-100103440D01*
X162957317Y-100059162D01*
X163173441Y-99920090D01*
X163318431Y-99707890D01*
X163321081Y-99694803D01*
X163457910Y-99907441D01*
X163670110Y-100052431D01*
X163922000Y-100103440D01*
X164622000Y-100103440D01*
X164857317Y-100059162D01*
X165073441Y-99920090D01*
X165218431Y-99707890D01*
X165247164Y-99566000D01*
X165299537Y-99566000D01*
X165331673Y-99598192D01*
X165675201Y-99740838D01*
X166047167Y-99741162D01*
X166196902Y-99679293D01*
X166196838Y-99753167D01*
X166338883Y-100096943D01*
X166601673Y-100360192D01*
X166945201Y-100502838D01*
X167317167Y-100503162D01*
X167660943Y-100361117D01*
X167924192Y-100098327D01*
X168066838Y-99754799D01*
X168067162Y-99382833D01*
X167925117Y-99039057D01*
X167892000Y-99005882D01*
X167892000Y-91694000D01*
X167867915Y-91572916D01*
X167851939Y-91450511D01*
X167839148Y-91428300D01*
X167834148Y-91403161D01*
X167765562Y-91300515D01*
X167703958Y-91193537D01*
X167683641Y-91177911D01*
X167669401Y-91156599D01*
X167566756Y-91088014D01*
X167468901Y-91012753D01*
X167444149Y-91006091D01*
X167422839Y-90991852D01*
X167301767Y-90967769D01*
X167182554Y-90935683D01*
X163922759Y-90718363D01*
X163852327Y-90647808D01*
X163508799Y-90505162D01*
X163136833Y-90504838D01*
X162986886Y-90566795D01*
X162912090Y-90450559D01*
X162699890Y-90305569D01*
X162527498Y-90270659D01*
X162500148Y-90133160D01*
X162335401Y-89886599D01*
X162081401Y-89632599D01*
X161834839Y-89467852D01*
X161544000Y-89410000D01*
X160842802Y-89410000D01*
X159764000Y-88331198D01*
X159764000Y-86420802D01*
X160303401Y-85881401D01*
X160468148Y-85634839D01*
X160526000Y-85344000D01*
X160526000Y-84582000D01*
X160468148Y-84291161D01*
X160303401Y-84044599D01*
X159541401Y-83282599D01*
X159294839Y-83117852D01*
X159004000Y-83060000D01*
X158735307Y-83060000D01*
X158796020Y-82913788D01*
X158797976Y-80672047D01*
X157941906Y-78600199D01*
X156358139Y-77013665D01*
X155927866Y-76835000D01*
X155956000Y-76835000D01*
X156009706Y-76823085D01*
X166824813Y-71776035D01*
X161452307Y-77382128D01*
X161452307Y-77382128D01*
G37*
X161452307Y-77382128D02*
X161425344Y-77424725D01*
X161417078Y-77474455D01*
X161428811Y-77523484D01*
X161454197Y-77559803D01*
X161962197Y-78067803D01*
X162004211Y-78095666D01*
X162063854Y-78104446D01*
X166413094Y-77696705D01*
X169631533Y-77481695D01*
X163313317Y-82395862D01*
X160869771Y-84194453D01*
X160864889Y-84199801D01*
X160858402Y-84203006D01*
X160774974Y-84298289D01*
X160689566Y-84391840D01*
X160687103Y-84398645D01*
X160682335Y-84404091D01*
X160641719Y-84524054D01*
X160598614Y-84643162D01*
X160598943Y-84650394D01*
X160596622Y-84657249D01*
X160605006Y-84783630D01*
X160610763Y-84910159D01*
X160613834Y-84916713D01*
X160614313Y-84923936D01*
X160670414Y-85037471D01*
X160724162Y-85152184D01*
X160729510Y-85157066D01*
X160732715Y-85163553D01*
X160827998Y-85246981D01*
X160909000Y-85320932D01*
X160909000Y-85344000D01*
X160919006Y-85393410D01*
X160966888Y-85450548D01*
X170336488Y-91528126D01*
X175134221Y-100871080D01*
X175375242Y-106896603D01*
X175000333Y-108003920D01*
X172609938Y-113219328D01*
X171549440Y-114665461D01*
X171549440Y-111990000D01*
X171505162Y-111754683D01*
X171366090Y-111538559D01*
X171162000Y-111399110D01*
X171162000Y-109577279D01*
X171353441Y-109454090D01*
X171498431Y-109241890D01*
X171549440Y-108990000D01*
X171549440Y-106240000D01*
X171505162Y-106004683D01*
X171366090Y-105788559D01*
X171153890Y-105643569D01*
X170902000Y-105592560D01*
X169902000Y-105592560D01*
X169666683Y-105636838D01*
X169450559Y-105775910D01*
X169305569Y-105988110D01*
X169254560Y-106240000D01*
X169254560Y-108990000D01*
X169298838Y-109225317D01*
X169437910Y-109441441D01*
X169642000Y-109580890D01*
X169642000Y-111402721D01*
X169450559Y-111525910D01*
X169305569Y-111738110D01*
X169254560Y-111990000D01*
X169254560Y-114740000D01*
X169298838Y-114975317D01*
X169356411Y-115064787D01*
X168529198Y-115892000D01*
X168272757Y-115892000D01*
X168246090Y-115850559D01*
X168033890Y-115705569D01*
X167782000Y-115654560D01*
X166482000Y-115654560D01*
X166246683Y-115698838D01*
X166030559Y-115837910D01*
X165993601Y-115892000D01*
X160654802Y-115892000D01*
X158413552Y-113650750D01*
X165267000Y-113650750D01*
X165267000Y-114866309D01*
X165363673Y-115099698D01*
X165542301Y-115278327D01*
X165775690Y-115375000D01*
X166116250Y-115375000D01*
X166275000Y-115216250D01*
X166275000Y-113492000D01*
X166529000Y-113492000D01*
X166529000Y-115216250D01*
X166687750Y-115375000D01*
X167028310Y-115375000D01*
X167261699Y-115278327D01*
X167440327Y-115099698D01*
X167537000Y-114866309D01*
X167537000Y-113650750D01*
X167378250Y-113492000D01*
X166529000Y-113492000D01*
X166275000Y-113492000D01*
X165425750Y-113492000D01*
X165267000Y-113650750D01*
X158413552Y-113650750D01*
X157255401Y-112492599D01*
X157008839Y-112327852D01*
X156718000Y-112270000D01*
X156016802Y-112270000D01*
X155610493Y-111863691D01*
X165267000Y-111863691D01*
X165267000Y-113079250D01*
X165425750Y-113238000D01*
X166275000Y-113238000D01*
X166275000Y-111513750D01*
X166529000Y-111513750D01*
X166529000Y-113238000D01*
X167378250Y-113238000D01*
X167537000Y-113079250D01*
X167537000Y-111863691D01*
X167440327Y-111630302D01*
X167261699Y-111451673D01*
X167028310Y-111355000D01*
X166687750Y-111355000D01*
X166529000Y-111513750D01*
X166275000Y-111513750D01*
X166116250Y-111355000D01*
X165775690Y-111355000D01*
X165542301Y-111451673D01*
X165363673Y-111630302D01*
X165267000Y-111863691D01*
X155610493Y-111863691D01*
X155522000Y-111775198D01*
X155522000Y-109967440D01*
X155837000Y-109967440D01*
X155966589Y-109943056D01*
X156087000Y-109967440D01*
X156637000Y-109967440D01*
X156766589Y-109943056D01*
X156887000Y-109967440D01*
X157437000Y-109967440D01*
X157672317Y-109923162D01*
X157888441Y-109784090D01*
X158033431Y-109571890D01*
X158084440Y-109320000D01*
X158084440Y-107820000D01*
X158077957Y-107785546D01*
X158112000Y-107792440D01*
X159612000Y-107792440D01*
X159847317Y-107748162D01*
X160063441Y-107609090D01*
X160208431Y-107396890D01*
X160259440Y-107145000D01*
X160259440Y-106595000D01*
X160235056Y-106465411D01*
X160259440Y-106345000D01*
X160259440Y-105795000D01*
X160235056Y-105665411D01*
X160259440Y-105545000D01*
X160259440Y-104995000D01*
X160235056Y-104865411D01*
X160259440Y-104745000D01*
X160259440Y-104195000D01*
X160235056Y-104065411D01*
X160259440Y-103945000D01*
X160259440Y-103660242D01*
X160779560Y-104180362D01*
X160779560Y-104878000D01*
X160823838Y-105113317D01*
X160962910Y-105329441D01*
X161175110Y-105474431D01*
X161427000Y-105525440D01*
X162677000Y-105525440D01*
X162816000Y-105499285D01*
X162816000Y-105857198D01*
X162276599Y-106396599D01*
X162111852Y-106643161D01*
X162054000Y-106934000D01*
X162054000Y-108458000D01*
X162111852Y-108748839D01*
X162276599Y-108995401D01*
X163148878Y-109867680D01*
X163148838Y-109913167D01*
X163290883Y-110256943D01*
X163553673Y-110520192D01*
X163897201Y-110662838D01*
X164269167Y-110663162D01*
X164612943Y-110521117D01*
X164876192Y-110258327D01*
X165018838Y-109914799D01*
X165019162Y-109542833D01*
X164877117Y-109199057D01*
X164614327Y-108935808D01*
X164270799Y-108793162D01*
X164223923Y-108793121D01*
X163574000Y-108143198D01*
X163574000Y-107900750D01*
X165267000Y-107900750D01*
X165267000Y-109116309D01*
X165363673Y-109349698D01*
X165542301Y-109528327D01*
X165775690Y-109625000D01*
X166116250Y-109625000D01*
X166275000Y-109466250D01*
X166275000Y-107742000D01*
X166529000Y-107742000D01*
X166529000Y-109466250D01*
X166687750Y-109625000D01*
X167028310Y-109625000D01*
X167261699Y-109528327D01*
X167440327Y-109349698D01*
X167537000Y-109116309D01*
X167537000Y-107900750D01*
X167378250Y-107742000D01*
X166529000Y-107742000D01*
X166275000Y-107742000D01*
X165425750Y-107742000D01*
X165267000Y-107900750D01*
X163574000Y-107900750D01*
X163574000Y-107248802D01*
X164113401Y-106709401D01*
X164278148Y-106462839D01*
X164336000Y-106172000D01*
X164336000Y-106113691D01*
X165267000Y-106113691D01*
X165267000Y-107329250D01*
X165425750Y-107488000D01*
X166275000Y-107488000D01*
X166275000Y-105763750D01*
X166529000Y-105763750D01*
X166529000Y-107488000D01*
X167378250Y-107488000D01*
X167537000Y-107329250D01*
X167537000Y-106113691D01*
X167440327Y-105880302D01*
X167261699Y-105701673D01*
X167028310Y-105605000D01*
X166687750Y-105605000D01*
X166529000Y-105763750D01*
X166275000Y-105763750D01*
X166116250Y-105605000D01*
X165775690Y-105605000D01*
X165542301Y-105701673D01*
X165363673Y-105880302D01*
X165267000Y-106113691D01*
X164336000Y-106113691D01*
X164336000Y-105708802D01*
X164519362Y-105525440D01*
X165217000Y-105525440D01*
X165452317Y-105481162D01*
X165668441Y-105342090D01*
X165813431Y-105129890D01*
X165864440Y-104878000D01*
X165864440Y-103878000D01*
X165820162Y-103642683D01*
X165681090Y-103426559D01*
X165612994Y-103380031D01*
X165755327Y-103237698D01*
X165852000Y-103004309D01*
X165852000Y-102663750D01*
X165693250Y-102505000D01*
X164719000Y-102505000D01*
X164719000Y-102525000D01*
X164465000Y-102525000D01*
X164465000Y-102505000D01*
X163490750Y-102505000D01*
X163332000Y-102663750D01*
X163332000Y-103004309D01*
X163428673Y-103237698D01*
X163569910Y-103378936D01*
X163515559Y-103413910D01*
X163376110Y-103618000D01*
X163264279Y-103618000D01*
X163141090Y-103426559D01*
X163072994Y-103380031D01*
X163215327Y-103237698D01*
X163312000Y-103004309D01*
X163312000Y-102663750D01*
X163153250Y-102505000D01*
X162179000Y-102505000D01*
X162179000Y-102525000D01*
X161925000Y-102525000D01*
X161925000Y-102505000D01*
X161905000Y-102505000D01*
X161905000Y-102251000D01*
X161925000Y-102251000D01*
X161925000Y-101401750D01*
X162179000Y-101401750D01*
X162179000Y-102251000D01*
X163153250Y-102251000D01*
X163312000Y-102092250D01*
X163312000Y-101751691D01*
X163332000Y-101751691D01*
X163332000Y-102092250D01*
X163490750Y-102251000D01*
X164465000Y-102251000D01*
X164465000Y-101401750D01*
X164719000Y-101401750D01*
X164719000Y-102251000D01*
X165693250Y-102251000D01*
X165852000Y-102092250D01*
X165852000Y-101751691D01*
X165755327Y-101518302D01*
X165576699Y-101339673D01*
X165343310Y-101243000D01*
X164877750Y-101243000D01*
X164719000Y-101401750D01*
X164465000Y-101401750D01*
X164306250Y-101243000D01*
X163840690Y-101243000D01*
X163607301Y-101339673D01*
X163428673Y-101518302D01*
X163332000Y-101751691D01*
X163312000Y-101751691D01*
X163215327Y-101518302D01*
X163036699Y-101339673D01*
X162803310Y-101243000D01*
X162337750Y-101243000D01*
X162179000Y-101401750D01*
X161925000Y-101401750D01*
X161766250Y-101243000D01*
X161300690Y-101243000D01*
X161067301Y-101339673D01*
X160888673Y-101518302D01*
X160792000Y-101751691D01*
X160792000Y-102092250D01*
X160933575Y-102233825D01*
X160834839Y-102167852D01*
X160544000Y-102110000D01*
X160026975Y-102110000D01*
X159968603Y-102070116D01*
X160063441Y-102009090D01*
X160152495Y-101878755D01*
X160247000Y-101784250D01*
X160247000Y-101668690D01*
X160238532Y-101648247D01*
X160259440Y-101545000D01*
X160259440Y-100995000D01*
X160235056Y-100865411D01*
X160259440Y-100745000D01*
X160259440Y-100430000D01*
X160376000Y-100430000D01*
X160666839Y-100372148D01*
X160913401Y-100207401D01*
X161300802Y-99820000D01*
X161501643Y-99820000D01*
X161557910Y-99907441D01*
X161770110Y-100052431D01*
X162022000Y-100103440D01*
X162722000Y-100103440D01*
X162957317Y-100059162D01*
X163173441Y-99920090D01*
X163318431Y-99707890D01*
X163321081Y-99694803D01*
X163457910Y-99907441D01*
X163670110Y-100052431D01*
X163922000Y-100103440D01*
X164622000Y-100103440D01*
X164857317Y-100059162D01*
X165073441Y-99920090D01*
X165218431Y-99707890D01*
X165247164Y-99566000D01*
X165299537Y-99566000D01*
X165331673Y-99598192D01*
X165675201Y-99740838D01*
X166047167Y-99741162D01*
X166196902Y-99679293D01*
X166196838Y-99753167D01*
X166338883Y-100096943D01*
X166601673Y-100360192D01*
X166945201Y-100502838D01*
X167317167Y-100503162D01*
X167660943Y-100361117D01*
X167924192Y-100098327D01*
X168066838Y-99754799D01*
X168067162Y-99382833D01*
X167925117Y-99039057D01*
X167892000Y-99005882D01*
X167892000Y-91694000D01*
X167867915Y-91572916D01*
X167851939Y-91450511D01*
X167839148Y-91428300D01*
X167834148Y-91403161D01*
X167765562Y-91300515D01*
X167703958Y-91193537D01*
X167683641Y-91177911D01*
X167669401Y-91156599D01*
X167566756Y-91088014D01*
X167468901Y-91012753D01*
X167444149Y-91006091D01*
X167422839Y-90991852D01*
X167301767Y-90967769D01*
X167182554Y-90935683D01*
X163922759Y-90718363D01*
X163852327Y-90647808D01*
X163508799Y-90505162D01*
X163136833Y-90504838D01*
X162986886Y-90566795D01*
X162912090Y-90450559D01*
X162699890Y-90305569D01*
X162527498Y-90270659D01*
X162500148Y-90133160D01*
X162335401Y-89886599D01*
X162081401Y-89632599D01*
X161834839Y-89467852D01*
X161544000Y-89410000D01*
X160842802Y-89410000D01*
X159764000Y-88331198D01*
X159764000Y-86420802D01*
X160303401Y-85881401D01*
X160468148Y-85634839D01*
X160526000Y-85344000D01*
X160526000Y-84582000D01*
X160468148Y-84291161D01*
X160303401Y-84044599D01*
X159541401Y-83282599D01*
X159294839Y-83117852D01*
X159004000Y-83060000D01*
X158735307Y-83060000D01*
X158796020Y-82913788D01*
X158797976Y-80672047D01*
X157941906Y-78600199D01*
X156358139Y-77013665D01*
X155927866Y-76835000D01*
X155956000Y-76835000D01*
X156009706Y-76823085D01*
X166824813Y-71776035D01*
X161452307Y-77382128D01*
G36*
X133464560Y-94488000D02*
X133508838Y-94723317D01*
X133647910Y-94939441D01*
X133729770Y-94995374D01*
X133660559Y-95039910D01*
X133515569Y-95252110D01*
X133464560Y-95504000D01*
X133464560Y-97028000D01*
X133508838Y-97263317D01*
X133647910Y-97479441D01*
X133729770Y-97535374D01*
X133660559Y-97579910D01*
X133515569Y-97792110D01*
X133464560Y-98044000D01*
X133464560Y-99568000D01*
X133508838Y-99803317D01*
X133647910Y-100019441D01*
X133725511Y-100072464D01*
X133573673Y-100224301D01*
X133477000Y-100457690D01*
X133477000Y-101060250D01*
X133635750Y-101219000D01*
X134747000Y-101219000D01*
X134747000Y-101199000D01*
X135001000Y-101199000D01*
X135001000Y-101219000D01*
X135021000Y-101219000D01*
X135021000Y-101473000D01*
X135001000Y-101473000D01*
X135001000Y-101493000D01*
X134747000Y-101493000D01*
X134747000Y-101473000D01*
X133635750Y-101473000D01*
X133477000Y-101631750D01*
X133477000Y-102234310D01*
X133573673Y-102467699D01*
X133724646Y-102618671D01*
X133660559Y-102659910D01*
X133515569Y-102872110D01*
X133464560Y-103124000D01*
X133464560Y-104648000D01*
X133508838Y-104883317D01*
X133647910Y-105099441D01*
X133729770Y-105155374D01*
X133660559Y-105199910D01*
X133515569Y-105412110D01*
X133464560Y-105664000D01*
X133464560Y-106989758D01*
X131824000Y-105349198D01*
X131824000Y-99314000D01*
X131766148Y-99023161D01*
X131766148Y-99023160D01*
X131601401Y-98776599D01*
X130554000Y-97729198D01*
X130554000Y-96326802D01*
X133464560Y-93416242D01*
X133464560Y-94488000D01*
X133464560Y-94488000D01*
G37*
X133464560Y-94488000D02*
X133508838Y-94723317D01*
X133647910Y-94939441D01*
X133729770Y-94995374D01*
X133660559Y-95039910D01*
X133515569Y-95252110D01*
X133464560Y-95504000D01*
X133464560Y-97028000D01*
X133508838Y-97263317D01*
X133647910Y-97479441D01*
X133729770Y-97535374D01*
X133660559Y-97579910D01*
X133515569Y-97792110D01*
X133464560Y-98044000D01*
X133464560Y-99568000D01*
X133508838Y-99803317D01*
X133647910Y-100019441D01*
X133725511Y-100072464D01*
X133573673Y-100224301D01*
X133477000Y-100457690D01*
X133477000Y-101060250D01*
X133635750Y-101219000D01*
X134747000Y-101219000D01*
X134747000Y-101199000D01*
X135001000Y-101199000D01*
X135001000Y-101219000D01*
X135021000Y-101219000D01*
X135021000Y-101473000D01*
X135001000Y-101473000D01*
X135001000Y-101493000D01*
X134747000Y-101493000D01*
X134747000Y-101473000D01*
X133635750Y-101473000D01*
X133477000Y-101631750D01*
X133477000Y-102234310D01*
X133573673Y-102467699D01*
X133724646Y-102618671D01*
X133660559Y-102659910D01*
X133515569Y-102872110D01*
X133464560Y-103124000D01*
X133464560Y-104648000D01*
X133508838Y-104883317D01*
X133647910Y-105099441D01*
X133729770Y-105155374D01*
X133660559Y-105199910D01*
X133515569Y-105412110D01*
X133464560Y-105664000D01*
X133464560Y-106989758D01*
X131824000Y-105349198D01*
X131824000Y-99314000D01*
X131766148Y-99023161D01*
X131766148Y-99023160D01*
X131601401Y-98776599D01*
X130554000Y-97729198D01*
X130554000Y-96326802D01*
X133464560Y-93416242D01*
X133464560Y-94488000D01*
G36*
X156887000Y-98567440D02*
X157437000Y-98567440D01*
X157471454Y-98560957D01*
X157464560Y-98595000D01*
X157464560Y-99145000D01*
X157488944Y-99274589D01*
X157464560Y-99395000D01*
X157464560Y-99945000D01*
X157488944Y-100074589D01*
X157464560Y-100195000D01*
X157464560Y-100745000D01*
X157488944Y-100874589D01*
X157464560Y-100995000D01*
X157464560Y-101545000D01*
X157484450Y-101650705D01*
X157477000Y-101668690D01*
X157477000Y-101784250D01*
X157573401Y-101880651D01*
X157647910Y-101996441D01*
X157755397Y-102069884D01*
X157693054Y-102110000D01*
X154686000Y-102110000D01*
X154395161Y-102167852D01*
X154148599Y-102332599D01*
X153571198Y-102910000D01*
X150559037Y-102910000D01*
X150368000Y-102872000D01*
X150176963Y-102910000D01*
X148626975Y-102910000D01*
X148568603Y-102870116D01*
X148663441Y-102809090D01*
X148752495Y-102678755D01*
X148847000Y-102584250D01*
X148847000Y-102468690D01*
X148838532Y-102448247D01*
X148859440Y-102345000D01*
X148859440Y-101795000D01*
X148835056Y-101665411D01*
X148859440Y-101545000D01*
X148859440Y-100995000D01*
X148835056Y-100865411D01*
X148859440Y-100745000D01*
X148859440Y-100195000D01*
X148835056Y-100065411D01*
X148859440Y-99945000D01*
X148859440Y-99642242D01*
X149100000Y-99882802D01*
X149100000Y-100529537D01*
X149067808Y-100561673D01*
X148925162Y-100905201D01*
X148924838Y-101277167D01*
X149066883Y-101620943D01*
X149329673Y-101884192D01*
X149673201Y-102026838D01*
X150045167Y-102027162D01*
X150388943Y-101885117D01*
X150652192Y-101622327D01*
X150794838Y-101278799D01*
X150795162Y-100906833D01*
X150653117Y-100563057D01*
X150620000Y-100529882D01*
X150620000Y-99568000D01*
X150562148Y-99277161D01*
X150562148Y-99277160D01*
X150397401Y-99030599D01*
X149934242Y-98567440D01*
X150237000Y-98567440D01*
X150366589Y-98543056D01*
X150487000Y-98567440D01*
X151037000Y-98567440D01*
X151166589Y-98543056D01*
X151287000Y-98567440D01*
X151837000Y-98567440D01*
X151966589Y-98543056D01*
X152087000Y-98567440D01*
X152637000Y-98567440D01*
X152766589Y-98543056D01*
X152887000Y-98567440D01*
X153437000Y-98567440D01*
X153566589Y-98543056D01*
X153687000Y-98567440D01*
X154237000Y-98567440D01*
X154366589Y-98543056D01*
X154487000Y-98567440D01*
X155037000Y-98567440D01*
X155166589Y-98543056D01*
X155287000Y-98567440D01*
X155837000Y-98567440D01*
X155966589Y-98543056D01*
X156087000Y-98567440D01*
X156637000Y-98567440D01*
X156766589Y-98543056D01*
X156887000Y-98567440D01*
X156887000Y-98567440D01*
G37*
X156887000Y-98567440D02*
X157437000Y-98567440D01*
X157471454Y-98560957D01*
X157464560Y-98595000D01*
X157464560Y-99145000D01*
X157488944Y-99274589D01*
X157464560Y-99395000D01*
X157464560Y-99945000D01*
X157488944Y-100074589D01*
X157464560Y-100195000D01*
X157464560Y-100745000D01*
X157488944Y-100874589D01*
X157464560Y-100995000D01*
X157464560Y-101545000D01*
X157484450Y-101650705D01*
X157477000Y-101668690D01*
X157477000Y-101784250D01*
X157573401Y-101880651D01*
X157647910Y-101996441D01*
X157755397Y-102069884D01*
X157693054Y-102110000D01*
X154686000Y-102110000D01*
X154395161Y-102167852D01*
X154148599Y-102332599D01*
X153571198Y-102910000D01*
X150559037Y-102910000D01*
X150368000Y-102872000D01*
X150176963Y-102910000D01*
X148626975Y-102910000D01*
X148568603Y-102870116D01*
X148663441Y-102809090D01*
X148752495Y-102678755D01*
X148847000Y-102584250D01*
X148847000Y-102468690D01*
X148838532Y-102448247D01*
X148859440Y-102345000D01*
X148859440Y-101795000D01*
X148835056Y-101665411D01*
X148859440Y-101545000D01*
X148859440Y-100995000D01*
X148835056Y-100865411D01*
X148859440Y-100745000D01*
X148859440Y-100195000D01*
X148835056Y-100065411D01*
X148859440Y-99945000D01*
X148859440Y-99642242D01*
X149100000Y-99882802D01*
X149100000Y-100529537D01*
X149067808Y-100561673D01*
X148925162Y-100905201D01*
X148924838Y-101277167D01*
X149066883Y-101620943D01*
X149329673Y-101884192D01*
X149673201Y-102026838D01*
X150045167Y-102027162D01*
X150388943Y-101885117D01*
X150652192Y-101622327D01*
X150794838Y-101278799D01*
X150795162Y-100906833D01*
X150653117Y-100563057D01*
X150620000Y-100529882D01*
X150620000Y-99568000D01*
X150562148Y-99277161D01*
X150562148Y-99277160D01*
X150397401Y-99030599D01*
X149934242Y-98567440D01*
X150237000Y-98567440D01*
X150366589Y-98543056D01*
X150487000Y-98567440D01*
X151037000Y-98567440D01*
X151166589Y-98543056D01*
X151287000Y-98567440D01*
X151837000Y-98567440D01*
X151966589Y-98543056D01*
X152087000Y-98567440D01*
X152637000Y-98567440D01*
X152766589Y-98543056D01*
X152887000Y-98567440D01*
X153437000Y-98567440D01*
X153566589Y-98543056D01*
X153687000Y-98567440D01*
X154237000Y-98567440D01*
X154366589Y-98543056D01*
X154487000Y-98567440D01*
X155037000Y-98567440D01*
X155166589Y-98543056D01*
X155287000Y-98567440D01*
X155837000Y-98567440D01*
X155966589Y-98543056D01*
X156087000Y-98567440D01*
X156637000Y-98567440D01*
X156766589Y-98543056D01*
X156887000Y-98567440D01*
M02*
