G04 #@! TF.FileFunction,Profile,NP*
%FSLAX46Y46*%
G04 Gerber Fmt 4.6, Leading zero omitted, Abs format (unit mm)*
G04 Created by KiCad (PCBNEW 4.0.4-snap1-stable) date Mon Feb 25 19:09:27 2019*
%MOMM*%
%LPD*%
G01*
G04 APERTURE LIST*
%ADD10C,0.100000*%
G04 APERTURE END LIST*
D10*
X132201686Y-111911509D02*
G75*
G02X136219475Y-118405561I-10983643J-11285349D01*
G01*
X128806980Y-108607559D02*
X132201686Y-111911510D01*
X128806980Y-108607558D02*
G75*
G02X127304754Y-93649218I8149154J8373000D01*
G01*
X128980293Y-91193571D02*
X127304754Y-93649218D01*
X128980293Y-91193571D02*
G75*
G02X138941306Y-84771398I12588758J-8589574D01*
G01*
X143945222Y-83895483D02*
X138941306Y-84771398D01*
X138107697Y-75579902D02*
X143945222Y-83895483D01*
X146089524Y-77114443D02*
X138107697Y-75579902D01*
X143068321Y-69024150D02*
X146089524Y-77114443D01*
X152022104Y-75712405D02*
X143068321Y-69024150D01*
X153208938Y-73007287D02*
X152022104Y-75712405D01*
X154873728Y-63456909D02*
G75*
G02X153208938Y-73007287I-20272647J-1386430D01*
G01*
X154457798Y-57375115D02*
X154873728Y-63456909D01*
X159057120Y-57075288D02*
X154457798Y-57375115D01*
X157819328Y-65108485D02*
X159057120Y-57075288D01*
X157819328Y-65108484D02*
G75*
G02X156323005Y-73136065I-128531153J19804672D01*
G01*
X155677753Y-76081189D02*
X156323005Y-73136065D01*
X169962780Y-69452652D02*
X155677753Y-76081189D01*
X162691581Y-77258796D02*
X169962780Y-69452652D01*
X172322115Y-76615422D02*
X162691581Y-77258796D01*
X161275832Y-84746123D02*
X172322115Y-76615422D01*
X168318091Y-88804567D02*
X161275832Y-84746123D01*
X168318091Y-88804567D02*
G75*
G02X173850289Y-112696486I-8370541J-14524660D01*
G01*
X158805902Y-135025127D02*
X173850289Y-112696486D01*
X158805902Y-135025127D02*
G75*
G02X140701656Y-132439159I-8425902J5677127D01*
G01*
X136219475Y-118405561D02*
X140701656Y-132439159D01*
M02*
