M48
;DRILL file {KiCad 4.0.4-snap1-stable} date Wed May  1 15:14:12 2019
;FORMAT={-:-/ absolute / inch / decimal}
FMAT,2
INCH,TZ
T1C0.016
T2C0.025
%
G90
G05
M72
T1
X5.1Y-4.76
X5.353Y-4.811
X5.425Y-5.149
X5.56Y-5.62
X5.613Y-5.095
X5.691Y-5.398
X5.719Y-4.155
X5.884Y-4.767
X6.007Y-4.383
X6.18Y-5.24
X6.22Y-5.44
X6.24Y-4.8
X6.315Y-5.535
X6.38Y-5.8
X6.412Y-5.614
X6.425Y-4.293
X6.548Y-5.387
X6.616Y-4.419
X6.653Y-5.127
X6.687Y-5.417
X6.777Y-4.992
T2
X6.215Y-3.141
T0
M30
