M48
;DRILL file {KiCad 4.0.4-snap1-stable} date Wed Apr 17 18:01:26 2019
;FORMAT={-:-/ absolute / inch / decimal}
FMAT,2
INCH,TZ
T1C0.016
T2C0.087
%
G90
G05
M72
T1
X5.1Y-4.76
X5.307Y-4.394
X5.406Y-4.909
X5.42Y-5.
X5.42Y-5.16
X5.538Y-4.959
X5.56Y-5.62
X5.64Y-4.18
X5.7Y-5.4
X5.8Y-4.44
X5.8Y-5.3
X5.881Y-4.819
X5.98Y-4.4
X6.12Y-6.12
X6.18Y-5.24
X6.22Y-5.44
X6.24Y-4.8
X6.36Y-4.16
X6.38Y-4.22
X6.38Y-5.8
X6.42Y-5.6
X6.56Y-5.36
X6.6Y-4.42
X6.66Y-5.12
X6.8Y-4.94
T2
X6.221Y-3.141
T0
M30
