G04 #@! TF.FileFunction,Soldermask,Top*
%FSLAX46Y46*%
G04 Gerber Fmt 4.6, Leading zero omitted, Abs format (unit mm)*
G04 Created by KiCad (PCBNEW 4.0.4-snap1-stable) date Wed May  1 15:14:01 2019*
%MOMM*%
%LPD*%
G01*
G04 APERTURE LIST*
%ADD10C,0.100000*%
%ADD11R,0.950000X1.900000*%
%ADD12R,1.900000X0.950000*%
%ADD13C,18.180000*%
%ADD14R,5.480000X2.940000*%
%ADD15R,1.924000X1.924000*%
%ADD16R,1.300000X1.600000*%
%ADD17R,1.150000X1.600000*%
%ADD18R,1.197560X1.197560*%
%ADD19R,0.910000X1.300000*%
%ADD20R,0.925000X1.300000*%
%ADD21R,1.300000X0.910000*%
%ADD22R,1.300000X0.925000*%
%ADD23R,3.150000X1.600000*%
%ADD24C,10.400000*%
%ADD25R,2.500000X1.800000*%
%ADD26C,1.543000*%
G04 APERTURE END LIST*
D10*
D11*
X151320000Y-114696000D03*
X150520000Y-114696000D03*
X149720000Y-114696000D03*
X148920000Y-114696000D03*
X148120000Y-114696000D03*
X147320000Y-114696000D03*
X146520000Y-114696000D03*
X145720000Y-114696000D03*
X144920000Y-114696000D03*
X144120000Y-114696000D03*
X143320000Y-114696000D03*
D12*
X141620000Y-116396000D03*
X141620000Y-117196000D03*
X141620000Y-117996000D03*
X141620000Y-118796000D03*
X141620000Y-119596000D03*
X141620000Y-120396000D03*
X141620000Y-121196000D03*
X141620000Y-121996000D03*
X141620000Y-122796000D03*
X141620000Y-123596000D03*
X141620000Y-124396000D03*
D11*
X143320000Y-126096000D03*
X144120000Y-126096000D03*
X144920000Y-126096000D03*
X145720000Y-126096000D03*
X146520000Y-126096000D03*
X147320000Y-126096000D03*
X148120000Y-126096000D03*
X148920000Y-126096000D03*
X149720000Y-126096000D03*
X150520000Y-126096000D03*
X151320000Y-126096000D03*
D12*
X153020000Y-124396000D03*
X153020000Y-123596000D03*
X153020000Y-122796000D03*
X153020000Y-121996000D03*
X153020000Y-121196000D03*
X153020000Y-120396000D03*
X153020000Y-119596000D03*
X153020000Y-118796000D03*
X153020000Y-117996000D03*
X153020000Y-117196000D03*
X153020000Y-116396000D03*
D13*
X150972520Y-145232120D03*
D14*
X150972520Y-133802120D03*
X150972520Y-156662120D03*
D15*
X131572000Y-125984000D03*
X131572000Y-123444000D03*
X131572000Y-120904000D03*
X131572000Y-118364000D03*
X131572000Y-115824000D03*
X131572000Y-113284000D03*
D16*
X135102600Y-127119200D03*
X135102600Y-129319200D03*
D17*
X146304000Y-128082000D03*
X146304000Y-129982000D03*
X144272000Y-128082000D03*
X144272000Y-129982000D03*
D16*
X146481800Y-108450200D03*
X146481800Y-110650200D03*
D18*
X135102600Y-123355100D03*
X135102600Y-124853700D03*
D19*
X148615000Y-108828000D03*
X148615000Y-110628000D03*
X149430000Y-108828000D03*
X149430000Y-110628000D03*
D20*
X150290000Y-108828000D03*
D19*
X150290000Y-110628000D03*
X151105000Y-108828000D03*
X151105000Y-110628000D03*
D21*
X158612000Y-119101000D03*
X160412000Y-119101000D03*
X158612000Y-118286000D03*
X160412000Y-118286000D03*
D22*
X158612000Y-117426000D03*
D21*
X160412000Y-117426000D03*
X158612000Y-116611000D03*
X160412000Y-116611000D03*
X156072000Y-115037000D03*
X157872000Y-115037000D03*
X156072000Y-114222000D03*
X157872000Y-114222000D03*
D22*
X156072000Y-113362000D03*
D21*
X157872000Y-113362000D03*
X156072000Y-112547000D03*
X157872000Y-112547000D03*
D19*
X152171000Y-128132000D03*
X152171000Y-129932000D03*
X152986000Y-128132000D03*
X152986000Y-129932000D03*
D20*
X153846000Y-128132000D03*
D19*
X153846000Y-129932000D03*
X154661000Y-128132000D03*
X154661000Y-129932000D03*
D23*
X170046200Y-125258200D03*
X175546200Y-125258200D03*
X170046200Y-122758200D03*
X175546200Y-122758200D03*
X170046200Y-120258200D03*
X175546200Y-120258200D03*
D24*
X154533600Y-101269800D03*
D25*
X160787000Y-129657800D03*
X170937000Y-129657800D03*
X160787000Y-134857800D03*
X170937000Y-134857800D03*
D26*
X157861000Y-79781400D03*
M02*
