M48
;DRILL file {KiCad 4.0.4-snap1-stable} date Wed Feb 20 20:01:14 2019
;FORMAT={-:-/ absolute / inch / decimal}
FMAT,2
INCH,TZ
T1C0.016
T2C0.087
%
G90
G05
M72
T1
X5.14Y-4.24
X5.18Y-3.88
X5.19Y-4.23
X5.27Y-4.27
X5.27Y-4.32
X5.31Y-4.04
X5.36Y-4.42
X5.41Y-3.74
X5.45Y-4.13
X5.46Y-4.25
X5.47Y-3.96
X5.47Y-4.
X5.47Y-4.09
X5.47Y-4.21
X5.48Y-3.57
X5.5Y-4.28
X5.57Y-4.56
X5.65Y-4.58
X5.7Y-3.81
X5.8Y-4.32
X5.84Y-3.4
X5.87Y-4.03
X5.9Y-3.46
X5.9Y-3.98
X5.92Y-4.1
X5.92Y-4.34
X6.15Y-3.98
X6.17Y-3.41
X6.2Y-3.38
X6.2Y-5.15
X6.21Y-3.45
X6.26Y-3.34
X6.43Y-3.6
X6.45Y-3.96
X6.46Y-4.24
X6.46Y-4.32
X6.47Y-4.63
X6.52Y-3.76
X6.53Y-3.89
X6.58Y-3.92
X6.62Y-4.51
T2
X6.16Y-2.34
T0
M30
