G04 #@! TF.FileFunction,Copper,L1,Top,Signal*
%FSLAX46Y46*%
G04 Gerber Fmt 4.6, Leading zero omitted, Abs format (unit mm)*
G04 Created by KiCad (PCBNEW 4.0.4-snap1-stable) date Wed May  1 15:14:01 2019*
%MOMM*%
%LPD*%
G01*
G04 APERTURE LIST*
%ADD10C,0.100000*%
%ADD11R,0.550000X1.500000*%
%ADD12R,1.500000X0.550000*%
%ADD13C,17.780000*%
%ADD14R,5.080000X2.540000*%
%ADD15R,1.524000X1.524000*%
%ADD16R,0.900000X1.200000*%
%ADD17R,0.750000X1.200000*%
%ADD18R,0.797560X0.797560*%
%ADD19R,0.510000X0.900000*%
%ADD20R,0.525000X0.900000*%
%ADD21R,0.900000X0.510000*%
%ADD22R,0.900000X0.525000*%
%ADD23R,2.750000X1.200000*%
%ADD24C,10.000000*%
%ADD25R,2.100000X1.400000*%
%ADD26C,1.143000*%
%ADD27C,0.600000*%
%ADD28C,0.400000*%
%ADD29C,0.250000*%
%ADD30C,0.254000*%
G04 APERTURE END LIST*
D10*
D11*
X151320000Y-114696000D03*
X150520000Y-114696000D03*
X149720000Y-114696000D03*
X148920000Y-114696000D03*
X148120000Y-114696000D03*
X147320000Y-114696000D03*
X146520000Y-114696000D03*
X145720000Y-114696000D03*
X144920000Y-114696000D03*
X144120000Y-114696000D03*
X143320000Y-114696000D03*
D12*
X141620000Y-116396000D03*
X141620000Y-117196000D03*
X141620000Y-117996000D03*
X141620000Y-118796000D03*
X141620000Y-119596000D03*
X141620000Y-120396000D03*
X141620000Y-121196000D03*
X141620000Y-121996000D03*
X141620000Y-122796000D03*
X141620000Y-123596000D03*
X141620000Y-124396000D03*
D11*
X143320000Y-126096000D03*
X144120000Y-126096000D03*
X144920000Y-126096000D03*
X145720000Y-126096000D03*
X146520000Y-126096000D03*
X147320000Y-126096000D03*
X148120000Y-126096000D03*
X148920000Y-126096000D03*
X149720000Y-126096000D03*
X150520000Y-126096000D03*
X151320000Y-126096000D03*
D12*
X153020000Y-124396000D03*
X153020000Y-123596000D03*
X153020000Y-122796000D03*
X153020000Y-121996000D03*
X153020000Y-121196000D03*
X153020000Y-120396000D03*
X153020000Y-119596000D03*
X153020000Y-118796000D03*
X153020000Y-117996000D03*
X153020000Y-117196000D03*
X153020000Y-116396000D03*
D13*
X150972520Y-145232120D03*
D14*
X150972520Y-133802120D03*
X150972520Y-156662120D03*
D15*
X131572000Y-125984000D03*
X131572000Y-123444000D03*
X131572000Y-120904000D03*
X131572000Y-118364000D03*
X131572000Y-115824000D03*
X131572000Y-113284000D03*
D16*
X135102600Y-127119200D03*
X135102600Y-129319200D03*
D17*
X146304000Y-128082000D03*
X146304000Y-129982000D03*
X144272000Y-128082000D03*
X144272000Y-129982000D03*
D16*
X146481800Y-108450200D03*
X146481800Y-110650200D03*
D18*
X135102600Y-123355100D03*
X135102600Y-124853700D03*
D19*
X148615000Y-108828000D03*
X148615000Y-110628000D03*
X149430000Y-108828000D03*
X149430000Y-110628000D03*
D20*
X150290000Y-108828000D03*
D19*
X150290000Y-110628000D03*
X151105000Y-108828000D03*
X151105000Y-110628000D03*
D21*
X158612000Y-119101000D03*
X160412000Y-119101000D03*
X158612000Y-118286000D03*
X160412000Y-118286000D03*
D22*
X158612000Y-117426000D03*
D21*
X160412000Y-117426000D03*
X158612000Y-116611000D03*
X160412000Y-116611000D03*
X156072000Y-115037000D03*
X157872000Y-115037000D03*
X156072000Y-114222000D03*
X157872000Y-114222000D03*
D22*
X156072000Y-113362000D03*
D21*
X157872000Y-113362000D03*
X156072000Y-112547000D03*
X157872000Y-112547000D03*
D19*
X152171000Y-128132000D03*
X152171000Y-129932000D03*
X152986000Y-128132000D03*
X152986000Y-129932000D03*
D20*
X153846000Y-128132000D03*
D19*
X153846000Y-129932000D03*
X154661000Y-128132000D03*
X154661000Y-129932000D03*
D23*
X170046200Y-125258200D03*
X175546200Y-125258200D03*
X170046200Y-122758200D03*
X175546200Y-122758200D03*
X170046200Y-120258200D03*
X175546200Y-120258200D03*
D24*
X154533600Y-101269800D03*
D25*
X160787000Y-129657800D03*
X170937000Y-129657800D03*
X160787000Y-134857800D03*
X170937000Y-134857800D03*
D26*
X157861000Y-79781400D03*
D27*
X149453600Y-121081800D03*
X169849800Y-137591800D03*
X142570200Y-129413000D03*
X160401000Y-140589000D03*
X129540000Y-120904000D03*
X141224000Y-142748000D03*
X172135800Y-126796800D03*
X162052000Y-147320000D03*
X145262600Y-105537000D03*
X144551400Y-137109200D03*
X168986200Y-130225800D03*
X157988000Y-138176000D03*
X163195000Y-109042200D03*
X137795000Y-130784600D03*
X166319200Y-136829800D03*
X156972000Y-133096000D03*
X168046400Y-112242600D03*
X135966200Y-122199400D03*
X162864800Y-142595600D03*
X158496000Y-121920000D03*
X152577800Y-111328200D03*
D28*
X150972520Y-156662120D02*
X154868880Y-156662120D01*
X173837600Y-122758200D02*
X175546200Y-122758200D01*
X172897800Y-123698000D02*
X173837600Y-122758200D01*
X172897800Y-126212600D02*
X172897800Y-123698000D01*
X174167800Y-127482600D02*
X172897800Y-126212600D01*
X175260000Y-127482600D02*
X174167800Y-127482600D01*
X175463200Y-127685800D02*
X175260000Y-127482600D01*
X175463200Y-128701800D02*
X175463200Y-127685800D01*
X171500800Y-132664200D02*
X175463200Y-128701800D01*
X170154600Y-132664200D02*
X171500800Y-132664200D01*
X167970200Y-134848600D02*
X170154600Y-132664200D01*
X167970200Y-140055600D02*
X167970200Y-134848600D01*
X164566600Y-143459200D02*
X167970200Y-140055600D01*
X164566600Y-146964400D02*
X164566600Y-143459200D01*
X154868880Y-156662120D02*
X164566600Y-146964400D01*
D29*
X150972520Y-133802120D02*
X150058120Y-133802120D01*
D28*
X148120000Y-122275600D02*
X148259800Y-122275600D01*
X148259800Y-122275600D02*
X149453600Y-121081800D01*
X170937000Y-134857800D02*
X170937000Y-136824800D01*
X170170000Y-137591800D02*
X169849800Y-137591800D01*
X170937000Y-136824800D02*
X170170000Y-137591800D01*
X160787000Y-134857800D02*
X158283600Y-134857800D01*
X158283600Y-134857800D02*
X150972520Y-142168880D01*
X150972520Y-142168880D02*
X150972520Y-145232120D01*
X144272000Y-129982000D02*
X143139200Y-129982000D01*
X143139200Y-129982000D02*
X142570200Y-129413000D01*
X150972520Y-145232120D02*
X155757880Y-145232120D01*
X155757880Y-145232120D02*
X160401000Y-140589000D01*
X150972520Y-145232120D02*
X154843480Y-145232120D01*
X131572000Y-120904000D02*
X129540000Y-120904000D01*
D29*
X146304000Y-129982000D02*
X144272000Y-129982000D01*
X148120000Y-126096000D02*
X148120000Y-128545602D01*
X146683602Y-129982000D02*
X146304000Y-129982000D01*
X148120000Y-128545602D02*
X146683602Y-129982000D01*
X148120000Y-126096000D02*
X148120000Y-122275600D01*
X148120000Y-122275600D02*
X148120000Y-118656000D01*
X147320000Y-117856000D02*
X147320000Y-114696000D01*
X148120000Y-118656000D02*
X147320000Y-117856000D01*
X131572000Y-120904000D02*
X131064000Y-120904000D01*
X154616000Y-129532000D02*
X154616000Y-134944000D01*
X141224000Y-141732000D02*
X141224000Y-142748000D01*
X147320000Y-135636000D02*
X141224000Y-141732000D01*
X153924000Y-135636000D02*
X147320000Y-135636000D01*
X154616000Y-134944000D02*
X153924000Y-135636000D01*
X157872000Y-112547000D02*
X166395000Y-112547000D01*
X172135800Y-123469400D02*
X172135800Y-126796800D01*
X173151800Y-122453400D02*
X172135800Y-123469400D01*
X173151800Y-118160800D02*
X173151800Y-122453400D01*
X172948600Y-117957600D02*
X173151800Y-118160800D01*
X171805600Y-117957600D02*
X172948600Y-117957600D01*
X166395000Y-112547000D02*
X171805600Y-117957600D01*
X160012000Y-116656000D02*
X163392000Y-116656000D01*
X162052000Y-141732000D02*
X162052000Y-147320000D01*
X163576000Y-140208000D02*
X162052000Y-141732000D01*
X163576000Y-116840000D02*
X163576000Y-140208000D01*
X163392000Y-116656000D02*
X163576000Y-116840000D01*
X148622500Y-109103000D02*
X148622500Y-108160300D01*
X145999200Y-105537000D02*
X145262600Y-105537000D01*
X148622500Y-108160300D02*
X145999200Y-105537000D01*
X153828500Y-129657000D02*
X153828500Y-131540500D01*
X147777200Y-133883400D02*
X144551400Y-137109200D01*
X147777200Y-132029200D02*
X147777200Y-133883400D01*
X147980400Y-131826000D02*
X147777200Y-132029200D01*
X153543000Y-131826000D02*
X147980400Y-131826000D01*
X153828500Y-131540500D02*
X153543000Y-131826000D01*
X157872000Y-113362000D02*
X166168600Y-113362000D01*
X168986200Y-129667000D02*
X168986200Y-130225800D01*
X167868600Y-128549400D02*
X168986200Y-129667000D01*
X167868600Y-115062000D02*
X167868600Y-128549400D01*
X166168600Y-113362000D02*
X167868600Y-115062000D01*
X157472000Y-113392000D02*
X157880000Y-113392000D01*
X160012000Y-117456000D02*
X162668000Y-117456000D01*
X162052000Y-138176000D02*
X157988000Y-138176000D01*
X163068000Y-137160000D02*
X162052000Y-138176000D01*
X163068000Y-117856000D02*
X163068000Y-137160000D01*
X162668000Y-117456000D02*
X163068000Y-117856000D01*
X149430000Y-108828000D02*
X149430000Y-107846600D01*
X162458400Y-109778800D02*
X163195000Y-109042200D01*
X154432000Y-109778800D02*
X162458400Y-109778800D01*
X152178598Y-107525398D02*
X154432000Y-109778800D01*
X149751202Y-107525398D02*
X152178598Y-107525398D01*
X149430000Y-107846600D02*
X149751202Y-107525398D01*
X153003500Y-129657000D02*
X153003500Y-130943100D01*
X137795000Y-131927600D02*
X137795000Y-130784600D01*
X141757400Y-135890000D02*
X137795000Y-131927600D01*
X145134202Y-135890000D02*
X141757400Y-135890000D01*
X147320000Y-133704202D02*
X145134202Y-135890000D01*
X147320000Y-131749800D02*
X147320000Y-133704202D01*
X147701000Y-131368800D02*
X147320000Y-131749800D01*
X148089198Y-131368800D02*
X147701000Y-131368800D01*
X152577800Y-131368800D02*
X148089198Y-131368800D01*
X153003500Y-130943100D02*
X152577800Y-131368800D01*
X153016000Y-129532000D02*
X153016000Y-129940000D01*
X157872000Y-114222000D02*
X165936400Y-114222000D01*
X167081200Y-136067800D02*
X166319200Y-136829800D01*
X167081200Y-115366800D02*
X167081200Y-136067800D01*
X165936400Y-114222000D02*
X167081200Y-115366800D01*
X157472000Y-114192000D02*
X158096000Y-114192000D01*
X160012000Y-118256000D02*
X161944000Y-118256000D01*
X161544000Y-133096000D02*
X156972000Y-133096000D01*
X162560000Y-132080000D02*
X161544000Y-133096000D01*
X162560000Y-118872000D02*
X162560000Y-132080000D01*
X161944000Y-118256000D02*
X162560000Y-118872000D01*
X150290000Y-108828000D02*
X150290000Y-108155000D01*
X167284400Y-112242600D02*
X168046400Y-112242600D01*
X165328600Y-110286800D02*
X167284400Y-112242600D01*
X154076400Y-110286800D02*
X165328600Y-110286800D01*
X151765000Y-107975400D02*
X154076400Y-110286800D01*
X150469600Y-107975400D02*
X151765000Y-107975400D01*
X150290000Y-108155000D02*
X150469600Y-107975400D01*
X152178500Y-129657000D02*
X152178500Y-130650500D01*
X136880600Y-123113800D02*
X135966200Y-122199400D01*
X136880600Y-127736600D02*
X136880600Y-123113800D01*
X141147800Y-132003800D02*
X136880600Y-127736600D01*
X145999200Y-132003800D02*
X141147800Y-132003800D01*
X147116800Y-130886200D02*
X145999200Y-132003800D01*
X151942800Y-130886200D02*
X147116800Y-130886200D01*
X152178500Y-130650500D02*
X151942800Y-130886200D01*
X157872000Y-115037000D02*
X164998800Y-115037000D01*
X162864800Y-142265400D02*
X162864800Y-142595600D01*
X164439600Y-140690600D02*
X162864800Y-142265400D01*
X164439600Y-137236200D02*
X164439600Y-140690600D01*
X166014400Y-135661400D02*
X164439600Y-137236200D01*
X166014400Y-116052600D02*
X166014400Y-135661400D01*
X164998800Y-115037000D02*
X166014400Y-116052600D01*
X157472000Y-114992000D02*
X158312000Y-114992000D01*
X160012000Y-119056000D02*
X161728000Y-119056000D01*
X160528000Y-121920000D02*
X158496000Y-121920000D01*
X162052000Y-120396000D02*
X160528000Y-121920000D01*
X162052000Y-119380000D02*
X162052000Y-120396000D01*
X161728000Y-119056000D02*
X162052000Y-119380000D01*
X151105000Y-108828000D02*
X151931800Y-108828000D01*
X152704800Y-111201200D02*
X152577800Y-111328200D01*
X152704800Y-109601000D02*
X152704800Y-111201200D01*
X151931800Y-108828000D02*
X152704800Y-109601000D01*
X151105000Y-108828000D02*
X151169800Y-108828000D01*
X141620000Y-120396000D02*
X139192000Y-120396000D01*
X137160000Y-118364000D02*
X131572000Y-118364000D01*
X139192000Y-120396000D02*
X137160000Y-118364000D01*
X141620000Y-119596000D02*
X140424000Y-119596000D01*
X134112000Y-115824000D02*
X131572000Y-115824000D01*
X135636000Y-117348000D02*
X134112000Y-115824000D01*
X138176000Y-117348000D02*
X135636000Y-117348000D01*
X140424000Y-119596000D02*
X138176000Y-117348000D01*
X141620000Y-118796000D02*
X140640000Y-118796000D01*
X134112000Y-113792000D02*
X132080000Y-113792000D01*
X137160000Y-116840000D02*
X134112000Y-113792000D01*
X138684000Y-116840000D02*
X137160000Y-116840000D01*
X140640000Y-118796000D02*
X138684000Y-116840000D01*
X132080000Y-113792000D02*
X131572000Y-113284000D01*
X146481800Y-110650200D02*
X146601000Y-110650200D01*
X146601000Y-110650200D02*
X147548600Y-109702600D01*
X160787000Y-125481000D02*
X160787000Y-129657800D01*
X157607000Y-122301000D02*
X160787000Y-125481000D01*
X157607000Y-121081800D02*
X157607000Y-122301000D01*
X157886400Y-120802400D02*
X157607000Y-121081800D01*
X158623000Y-120802400D02*
X157886400Y-120802400D01*
X159537400Y-119888000D02*
X158623000Y-120802400D01*
X159537400Y-116052600D02*
X159537400Y-119888000D01*
X159207200Y-115722400D02*
X159537400Y-116052600D01*
X157148802Y-115722400D02*
X159207200Y-115722400D01*
X156972000Y-115545598D02*
X157148802Y-115722400D01*
X156972000Y-111760000D02*
X156972000Y-115545598D01*
X156311600Y-111099600D02*
X156972000Y-111760000D01*
X153797000Y-111099600D02*
X156311600Y-111099600D01*
X152654000Y-112242600D02*
X153797000Y-111099600D01*
X152273000Y-112242600D02*
X152654000Y-112242600D01*
X151892000Y-111861600D02*
X152273000Y-112242600D01*
X151892000Y-109956600D02*
X151892000Y-111861600D01*
X151638000Y-109702600D02*
X151892000Y-109956600D01*
X147548600Y-109702600D02*
X151638000Y-109702600D01*
X146481800Y-110650200D02*
X146159400Y-110650200D01*
X146481800Y-110650200D02*
X146481800Y-111531400D01*
X145720000Y-112293200D02*
X145720000Y-114696000D01*
X146481800Y-111531400D02*
X145720000Y-112293200D01*
X139852400Y-113004600D02*
X141274800Y-113004600D01*
X145829200Y-108450200D02*
X146481800Y-108450200D01*
X141274800Y-113004600D02*
X145829200Y-108450200D01*
X175546200Y-120258200D02*
X175546200Y-117786600D01*
X175546200Y-117786600D02*
X165887400Y-108127800D01*
X165887400Y-108127800D02*
X154686000Y-108127800D01*
X154686000Y-108127800D02*
X153466800Y-106908600D01*
X153466800Y-106908600D02*
X149072600Y-106908600D01*
X149072600Y-106908600D02*
X147091400Y-104927400D01*
X147091400Y-104927400D02*
X146812000Y-104648000D01*
X146812000Y-104648000D02*
X145897600Y-104648000D01*
X145897600Y-104648000D02*
X145694400Y-104851200D01*
X145694400Y-104851200D02*
X144424400Y-104851200D01*
X144424400Y-104851200D02*
X144272000Y-105003600D01*
X144272000Y-105003600D02*
X144272000Y-106240400D01*
X144272000Y-106240400D02*
X146481800Y-108450200D01*
X134061200Y-113004600D02*
X139852400Y-113004600D01*
X132638800Y-111582200D02*
X134061200Y-113004600D01*
X130860800Y-111582200D02*
X132638800Y-111582200D01*
X130022600Y-112420400D02*
X130860800Y-111582200D01*
X130022600Y-114249200D02*
X130022600Y-112420400D01*
X128676400Y-115595400D02*
X130022600Y-114249200D01*
X128676400Y-123190000D02*
X128676400Y-115595400D01*
X130200400Y-124714000D02*
X128676400Y-123190000D01*
X135102600Y-127119200D02*
X135102600Y-127025400D01*
X135102600Y-127025400D02*
X132791200Y-124714000D01*
X146354800Y-116408200D02*
X146520000Y-116573400D01*
X143256000Y-116408200D02*
X146354800Y-116408200D01*
X139852400Y-113004600D02*
X143256000Y-116408200D01*
X132791200Y-124714000D02*
X130200400Y-124714000D01*
X135102600Y-124853700D02*
X135102600Y-127119200D01*
X131572000Y-123444000D02*
X132562600Y-123444000D01*
X133972300Y-124853700D02*
X135102600Y-124853700D01*
X132562600Y-123444000D02*
X133972300Y-124853700D01*
X146812000Y-108204000D02*
X146812000Y-108120000D01*
X146304000Y-128082000D02*
X144272000Y-128082000D01*
X147320000Y-126096000D02*
X147320000Y-128016000D01*
X147254000Y-128082000D02*
X146304000Y-128082000D01*
X147320000Y-128016000D02*
X147254000Y-128082000D01*
X147320000Y-126096000D02*
X147320000Y-119380000D01*
X146520000Y-118580000D02*
X146520000Y-116573400D01*
X146520000Y-116573400D02*
X146520000Y-114696000D01*
X147320000Y-119380000D02*
X146520000Y-118580000D01*
X148120000Y-114696000D02*
X148120000Y-111976000D01*
X148660000Y-111436000D02*
X148660000Y-110228000D01*
X148120000Y-111976000D02*
X148660000Y-111436000D01*
X148920000Y-114696000D02*
X148920000Y-112192000D01*
X149460000Y-111652000D02*
X149460000Y-110228000D01*
X148920000Y-112192000D02*
X149460000Y-111652000D01*
X149720000Y-114696000D02*
X149720000Y-112408000D01*
X150368000Y-111760000D02*
X150368000Y-110236000D01*
X149720000Y-112408000D02*
X150368000Y-111760000D01*
X150368000Y-110236000D02*
X150260000Y-110228000D01*
X150520000Y-114696000D02*
X150520000Y-112624000D01*
X151060000Y-112084000D02*
X151060000Y-110228000D01*
X150520000Y-112624000D02*
X151060000Y-112084000D01*
X153020000Y-121196000D02*
X155664000Y-121196000D01*
X157804000Y-119056000D02*
X159012000Y-119056000D01*
X155664000Y-121196000D02*
X157804000Y-119056000D01*
X153020000Y-120396000D02*
X154432000Y-120396000D01*
X157480000Y-118364000D02*
X158904000Y-118364000D01*
X155448000Y-120396000D02*
X157480000Y-118364000D01*
X154432000Y-120396000D02*
X155448000Y-120396000D01*
X158904000Y-118364000D02*
X159012000Y-118256000D01*
X153020000Y-119596000D02*
X154724000Y-119596000D01*
X156972000Y-117348000D02*
X158904000Y-117348000D01*
X156464000Y-117856000D02*
X156972000Y-117348000D01*
X154724000Y-119596000D02*
X156464000Y-117856000D01*
X158904000Y-117348000D02*
X159012000Y-117456000D01*
X153020000Y-118796000D02*
X154508000Y-118796000D01*
X156140000Y-116656000D02*
X159012000Y-116656000D01*
X155448000Y-117348000D02*
X156140000Y-116656000D01*
X155448000Y-117856000D02*
X155448000Y-117348000D01*
X154508000Y-118796000D02*
X155448000Y-117856000D01*
X153020000Y-117996000D02*
X154292000Y-117996000D01*
X155264000Y-114992000D02*
X156472000Y-114992000D01*
X154940000Y-115316000D02*
X155264000Y-114992000D01*
X154940000Y-115824000D02*
X154940000Y-115316000D01*
X154940000Y-117348000D02*
X154940000Y-115824000D01*
X154292000Y-117996000D02*
X154940000Y-117348000D01*
X153020000Y-117196000D02*
X154076000Y-117196000D01*
X155048000Y-114192000D02*
X156472000Y-114192000D01*
X154432000Y-114808000D02*
X155048000Y-114192000D01*
X154432000Y-116840000D02*
X154432000Y-114808000D01*
X154076000Y-117196000D02*
X154432000Y-116840000D01*
X153020000Y-116396000D02*
X153020000Y-113680000D01*
X153308000Y-113392000D02*
X156472000Y-113392000D01*
X153020000Y-113680000D02*
X153308000Y-113392000D01*
X151320000Y-114696000D02*
X151320000Y-114364000D01*
X151320000Y-114364000D02*
X153924000Y-111760000D01*
X153924000Y-111760000D02*
X155956000Y-111760000D01*
X155956000Y-111760000D02*
X156472000Y-112276000D01*
X156472000Y-112276000D02*
X156472000Y-112592000D01*
X152216000Y-128532000D02*
X151392000Y-128532000D01*
X150520000Y-127660000D02*
X150520000Y-126096000D01*
X151392000Y-128532000D02*
X150520000Y-127660000D01*
X153016000Y-128532000D02*
X153016000Y-126092000D01*
X154076000Y-123596000D02*
X153020000Y-123596000D01*
X154432000Y-123952000D02*
X154076000Y-123596000D01*
X154432000Y-124968000D02*
X154432000Y-123952000D01*
X153924000Y-125476000D02*
X154432000Y-124968000D01*
X153632000Y-125476000D02*
X153924000Y-125476000D01*
X153016000Y-126092000D02*
X153632000Y-125476000D01*
X153816000Y-128532000D02*
X153816000Y-126600000D01*
X154432000Y-122936000D02*
X153160000Y-122936000D01*
X154940000Y-123444000D02*
X154432000Y-122936000D01*
X154940000Y-124460000D02*
X154940000Y-123444000D01*
X154940000Y-125476000D02*
X154940000Y-124460000D01*
X153816000Y-126600000D02*
X154940000Y-125476000D01*
X153160000Y-122936000D02*
X153020000Y-122796000D01*
X153020000Y-121996000D02*
X154508000Y-121996000D01*
X154616000Y-126816000D02*
X154616000Y-128532000D01*
X155448000Y-125984000D02*
X154616000Y-126816000D01*
X155448000Y-122936000D02*
X155448000Y-125984000D01*
X154508000Y-121996000D02*
X155448000Y-122936000D01*
X135102600Y-129319200D02*
X135806000Y-129319200D01*
X136296400Y-124548900D02*
X135102600Y-123355100D01*
X136296400Y-128828800D02*
X136296400Y-124548900D01*
X135806000Y-129319200D02*
X136296400Y-128828800D01*
X131572000Y-125984000D02*
X131191000Y-125984000D01*
X135102600Y-123355100D02*
X135102600Y-121666000D01*
X135102600Y-121666000D02*
X135572600Y-121196000D01*
X135572600Y-121196000D02*
X141620000Y-121196000D01*
X131572000Y-125984000D02*
X132613400Y-125984000D01*
X134094400Y-129319200D02*
X135102600Y-129319200D01*
X133324600Y-128549400D02*
X134094400Y-129319200D01*
X133324600Y-126695200D02*
X133324600Y-128549400D01*
X132613400Y-125984000D02*
X133324600Y-126695200D01*
D30*
G36*
X127916400Y-123190000D02*
X127974252Y-123480839D01*
X128138999Y-123727401D01*
X129662999Y-125251401D01*
X129909560Y-125416148D01*
X129948065Y-125423807D01*
X130162560Y-125466473D01*
X130162560Y-126746000D01*
X130206838Y-126981317D01*
X130345910Y-127197441D01*
X130558110Y-127342431D01*
X130810000Y-127393440D01*
X132334000Y-127393440D01*
X132564600Y-127350050D01*
X132564600Y-128549400D01*
X132622452Y-128840239D01*
X132787199Y-129086801D01*
X133556999Y-129856601D01*
X133803561Y-130021348D01*
X134032967Y-130066980D01*
X134049438Y-130154517D01*
X134188510Y-130370641D01*
X134400710Y-130515631D01*
X134652600Y-130566640D01*
X135552600Y-130566640D01*
X135787917Y-130522362D01*
X136004041Y-130383290D01*
X136149031Y-130171090D01*
X136192267Y-129957585D01*
X136343401Y-129856601D01*
X136833801Y-129366201D01*
X136998548Y-129119640D01*
X137030119Y-128960921D01*
X137918905Y-129849707D01*
X137609833Y-129849438D01*
X137266057Y-129991483D01*
X137002808Y-130254273D01*
X136860162Y-130597801D01*
X136859838Y-130969767D01*
X137001883Y-131313543D01*
X137035000Y-131346718D01*
X137035000Y-131927600D01*
X137092852Y-132218439D01*
X137257599Y-132465001D01*
X141219999Y-136427401D01*
X141466561Y-136592148D01*
X141757400Y-136650000D01*
X143729673Y-136650000D01*
X143616562Y-136922401D01*
X143616238Y-137294367D01*
X143758283Y-137638143D01*
X144000458Y-137880740D01*
X140686599Y-141194599D01*
X140521852Y-141441161D01*
X140464000Y-141732000D01*
X140464000Y-142185537D01*
X140431808Y-142217673D01*
X140289162Y-142561201D01*
X140288838Y-142933167D01*
X140430883Y-143276943D01*
X140693673Y-143540192D01*
X141037201Y-143682838D01*
X141409167Y-143683162D01*
X141485660Y-143651556D01*
X141401167Y-146876656D01*
X142759079Y-150414272D01*
X143041689Y-150837226D01*
X144128425Y-151896610D01*
X150792915Y-145232120D01*
X150778773Y-145217978D01*
X150958378Y-145038373D01*
X150972520Y-145052515D01*
X150986663Y-145038373D01*
X151166268Y-145217978D01*
X151152125Y-145232120D01*
X157816615Y-151896610D01*
X158903351Y-150837226D01*
X160444633Y-147375565D01*
X160543873Y-143587584D01*
X159185961Y-140049968D01*
X158903351Y-139627014D01*
X158314342Y-139052830D01*
X158516943Y-138969117D01*
X158550118Y-138936000D01*
X162052000Y-138936000D01*
X162342839Y-138878148D01*
X162589401Y-138713401D01*
X162816000Y-138486802D01*
X162816000Y-139893198D01*
X161514599Y-141194599D01*
X161349852Y-141441161D01*
X161292000Y-141732000D01*
X161292000Y-146757537D01*
X161259808Y-146789673D01*
X161117162Y-147133201D01*
X161116838Y-147505167D01*
X161258883Y-147848943D01*
X161521673Y-148112192D01*
X161865201Y-148254838D01*
X162095094Y-148255038D01*
X154523012Y-155827120D01*
X154159960Y-155827120D01*
X154159960Y-155392120D01*
X154115682Y-155156803D01*
X153976610Y-154940679D01*
X153764410Y-154795689D01*
X153512520Y-154744680D01*
X152770223Y-154744680D01*
X156154672Y-153445561D01*
X156577626Y-153162951D01*
X157637010Y-152076215D01*
X150972520Y-145411725D01*
X144308030Y-152076215D01*
X145367414Y-153162951D01*
X148829075Y-154704233D01*
X150372933Y-154744680D01*
X148432520Y-154744680D01*
X148197203Y-154788958D01*
X147981079Y-154928030D01*
X147836089Y-155140230D01*
X147785080Y-155392120D01*
X147785080Y-157932120D01*
X147825295Y-158145845D01*
X146439329Y-157565487D01*
X143824424Y-154930337D01*
X142685976Y-152556445D01*
X138218201Y-138567951D01*
X138210029Y-138553186D01*
X138207318Y-138536529D01*
X137672164Y-137104783D01*
X137628024Y-137033439D01*
X137594870Y-136956368D01*
X134112234Y-131894064D01*
X134063890Y-131847012D01*
X134025648Y-131791424D01*
X130679294Y-128534534D01*
X128210865Y-124946465D01*
X127317763Y-120754180D01*
X127916400Y-117515956D01*
X127916400Y-123190000D01*
X127916400Y-123190000D01*
G37*
X127916400Y-123190000D02*
X127974252Y-123480839D01*
X128138999Y-123727401D01*
X129662999Y-125251401D01*
X129909560Y-125416148D01*
X129948065Y-125423807D01*
X130162560Y-125466473D01*
X130162560Y-126746000D01*
X130206838Y-126981317D01*
X130345910Y-127197441D01*
X130558110Y-127342431D01*
X130810000Y-127393440D01*
X132334000Y-127393440D01*
X132564600Y-127350050D01*
X132564600Y-128549400D01*
X132622452Y-128840239D01*
X132787199Y-129086801D01*
X133556999Y-129856601D01*
X133803561Y-130021348D01*
X134032967Y-130066980D01*
X134049438Y-130154517D01*
X134188510Y-130370641D01*
X134400710Y-130515631D01*
X134652600Y-130566640D01*
X135552600Y-130566640D01*
X135787917Y-130522362D01*
X136004041Y-130383290D01*
X136149031Y-130171090D01*
X136192267Y-129957585D01*
X136343401Y-129856601D01*
X136833801Y-129366201D01*
X136998548Y-129119640D01*
X137030119Y-128960921D01*
X137918905Y-129849707D01*
X137609833Y-129849438D01*
X137266057Y-129991483D01*
X137002808Y-130254273D01*
X136860162Y-130597801D01*
X136859838Y-130969767D01*
X137001883Y-131313543D01*
X137035000Y-131346718D01*
X137035000Y-131927600D01*
X137092852Y-132218439D01*
X137257599Y-132465001D01*
X141219999Y-136427401D01*
X141466561Y-136592148D01*
X141757400Y-136650000D01*
X143729673Y-136650000D01*
X143616562Y-136922401D01*
X143616238Y-137294367D01*
X143758283Y-137638143D01*
X144000458Y-137880740D01*
X140686599Y-141194599D01*
X140521852Y-141441161D01*
X140464000Y-141732000D01*
X140464000Y-142185537D01*
X140431808Y-142217673D01*
X140289162Y-142561201D01*
X140288838Y-142933167D01*
X140430883Y-143276943D01*
X140693673Y-143540192D01*
X141037201Y-143682838D01*
X141409167Y-143683162D01*
X141485660Y-143651556D01*
X141401167Y-146876656D01*
X142759079Y-150414272D01*
X143041689Y-150837226D01*
X144128425Y-151896610D01*
X150792915Y-145232120D01*
X150778773Y-145217978D01*
X150958378Y-145038373D01*
X150972520Y-145052515D01*
X150986663Y-145038373D01*
X151166268Y-145217978D01*
X151152125Y-145232120D01*
X157816615Y-151896610D01*
X158903351Y-150837226D01*
X160444633Y-147375565D01*
X160543873Y-143587584D01*
X159185961Y-140049968D01*
X158903351Y-139627014D01*
X158314342Y-139052830D01*
X158516943Y-138969117D01*
X158550118Y-138936000D01*
X162052000Y-138936000D01*
X162342839Y-138878148D01*
X162589401Y-138713401D01*
X162816000Y-138486802D01*
X162816000Y-139893198D01*
X161514599Y-141194599D01*
X161349852Y-141441161D01*
X161292000Y-141732000D01*
X161292000Y-146757537D01*
X161259808Y-146789673D01*
X161117162Y-147133201D01*
X161116838Y-147505167D01*
X161258883Y-147848943D01*
X161521673Y-148112192D01*
X161865201Y-148254838D01*
X162095094Y-148255038D01*
X154523012Y-155827120D01*
X154159960Y-155827120D01*
X154159960Y-155392120D01*
X154115682Y-155156803D01*
X153976610Y-154940679D01*
X153764410Y-154795689D01*
X153512520Y-154744680D01*
X152770223Y-154744680D01*
X156154672Y-153445561D01*
X156577626Y-153162951D01*
X157637010Y-152076215D01*
X150972520Y-145411725D01*
X144308030Y-152076215D01*
X145367414Y-153162951D01*
X148829075Y-154704233D01*
X150372933Y-154744680D01*
X148432520Y-154744680D01*
X148197203Y-154788958D01*
X147981079Y-154928030D01*
X147836089Y-155140230D01*
X147785080Y-155392120D01*
X147785080Y-157932120D01*
X147825295Y-158145845D01*
X146439329Y-157565487D01*
X143824424Y-154930337D01*
X142685976Y-152556445D01*
X138218201Y-138567951D01*
X138210029Y-138553186D01*
X138207318Y-138536529D01*
X137672164Y-137104783D01*
X137628024Y-137033439D01*
X137594870Y-136956368D01*
X134112234Y-131894064D01*
X134063890Y-131847012D01*
X134025648Y-131791424D01*
X130679294Y-128534534D01*
X128210865Y-124946465D01*
X127317763Y-120754180D01*
X127916400Y-117515956D01*
X127916400Y-123190000D01*
G36*
X175195119Y-131775491D02*
X174621698Y-132694479D01*
X172622000Y-135662400D01*
X172622000Y-135143550D01*
X172463250Y-134984800D01*
X171064000Y-134984800D01*
X171064000Y-136034050D01*
X171222750Y-136192800D01*
X172113309Y-136192800D01*
X172323213Y-136105855D01*
X165401600Y-146378803D01*
X165401600Y-143805068D01*
X168560634Y-140646034D01*
X168658986Y-140498840D01*
X168741639Y-140375141D01*
X168805200Y-140055600D01*
X168805200Y-135194468D01*
X168856118Y-135143550D01*
X169252000Y-135143550D01*
X169252000Y-135684110D01*
X169348673Y-135917499D01*
X169527302Y-136096127D01*
X169760691Y-136192800D01*
X170651250Y-136192800D01*
X170810000Y-136034050D01*
X170810000Y-134984800D01*
X169410750Y-134984800D01*
X169252000Y-135143550D01*
X168856118Y-135143550D01*
X169339809Y-134659859D01*
X169410750Y-134730800D01*
X170810000Y-134730800D01*
X170810000Y-133681550D01*
X171064000Y-133681550D01*
X171064000Y-134730800D01*
X172463250Y-134730800D01*
X172622000Y-134572050D01*
X172622000Y-134031490D01*
X172525327Y-133798101D01*
X172346698Y-133619473D01*
X172113309Y-133522800D01*
X171222750Y-133522800D01*
X171064000Y-133681550D01*
X170810000Y-133681550D01*
X170651250Y-133522800D01*
X170476868Y-133522800D01*
X170500468Y-133499200D01*
X171500800Y-133499200D01*
X171820341Y-133435639D01*
X172091234Y-133254634D01*
X176026801Y-129319067D01*
X175195119Y-131775491D01*
X175195119Y-131775491D01*
G37*
X175195119Y-131775491D02*
X174621698Y-132694479D01*
X172622000Y-135662400D01*
X172622000Y-135143550D01*
X172463250Y-134984800D01*
X171064000Y-134984800D01*
X171064000Y-136034050D01*
X171222750Y-136192800D01*
X172113309Y-136192800D01*
X172323213Y-136105855D01*
X165401600Y-146378803D01*
X165401600Y-143805068D01*
X168560634Y-140646034D01*
X168658986Y-140498840D01*
X168741639Y-140375141D01*
X168805200Y-140055600D01*
X168805200Y-135194468D01*
X168856118Y-135143550D01*
X169252000Y-135143550D01*
X169252000Y-135684110D01*
X169348673Y-135917499D01*
X169527302Y-136096127D01*
X169760691Y-136192800D01*
X170651250Y-136192800D01*
X170810000Y-136034050D01*
X170810000Y-134984800D01*
X169410750Y-134984800D01*
X169252000Y-135143550D01*
X168856118Y-135143550D01*
X169339809Y-134659859D01*
X169410750Y-134730800D01*
X170810000Y-134730800D01*
X170810000Y-133681550D01*
X171064000Y-133681550D01*
X171064000Y-134730800D01*
X172463250Y-134730800D01*
X172622000Y-134572050D01*
X172622000Y-134031490D01*
X172525327Y-133798101D01*
X172346698Y-133619473D01*
X172113309Y-133522800D01*
X171222750Y-133522800D01*
X171064000Y-133681550D01*
X170810000Y-133681550D01*
X170651250Y-133522800D01*
X170476868Y-133522800D01*
X170500468Y-133499200D01*
X171500800Y-133499200D01*
X171820341Y-133435639D01*
X172091234Y-133254634D01*
X176026801Y-129319067D01*
X175195119Y-131775491D01*
G36*
X156847000Y-122301000D02*
X156904852Y-122591839D01*
X157069599Y-122838401D01*
X160027000Y-125795802D01*
X160027000Y-128310360D01*
X159737000Y-128310360D01*
X159501683Y-128354638D01*
X159285559Y-128493710D01*
X159140569Y-128705910D01*
X159089560Y-128957800D01*
X159089560Y-130357800D01*
X159133838Y-130593117D01*
X159272910Y-130809241D01*
X159485110Y-130954231D01*
X159737000Y-131005240D01*
X161800000Y-131005240D01*
X161800000Y-131765198D01*
X161229198Y-132336000D01*
X157534463Y-132336000D01*
X157502327Y-132303808D01*
X157158799Y-132161162D01*
X156786833Y-132160838D01*
X156443057Y-132302883D01*
X156179808Y-132565673D01*
X156037162Y-132909201D01*
X156036838Y-133281167D01*
X156178883Y-133624943D01*
X156441673Y-133888192D01*
X156785201Y-134030838D01*
X157157167Y-134031162D01*
X157500943Y-133889117D01*
X157534118Y-133856000D01*
X159174690Y-133856000D01*
X159102000Y-134031490D01*
X159102000Y-134572050D01*
X159260750Y-134730800D01*
X160660000Y-134730800D01*
X160660000Y-134710800D01*
X160914000Y-134710800D01*
X160914000Y-134730800D01*
X160934000Y-134730800D01*
X160934000Y-134984800D01*
X160914000Y-134984800D01*
X160914000Y-136034050D01*
X161072750Y-136192800D01*
X161963309Y-136192800D01*
X162196698Y-136096127D01*
X162308000Y-135984826D01*
X162308000Y-136845198D01*
X161737198Y-137416000D01*
X158550463Y-137416000D01*
X158518327Y-137383808D01*
X158174799Y-137241162D01*
X157802833Y-137240838D01*
X157459057Y-137382883D01*
X157195808Y-137645673D01*
X157111430Y-137848876D01*
X156577626Y-137301289D01*
X154294660Y-136284813D01*
X154461401Y-136173401D01*
X155153401Y-135481401D01*
X155318148Y-135234839D01*
X155336306Y-135143550D01*
X159102000Y-135143550D01*
X159102000Y-135684110D01*
X159198673Y-135917499D01*
X159377302Y-136096127D01*
X159610691Y-136192800D01*
X160501250Y-136192800D01*
X160660000Y-136034050D01*
X160660000Y-134984800D01*
X159260750Y-134984800D01*
X159102000Y-135143550D01*
X155336306Y-135143550D01*
X155376000Y-134944000D01*
X155376000Y-130833563D01*
X155512431Y-130633890D01*
X155563440Y-130382000D01*
X155563440Y-129482000D01*
X155519162Y-129246683D01*
X155380090Y-129030559D01*
X155378701Y-129029610D01*
X155512431Y-128833890D01*
X155563440Y-128582000D01*
X155563440Y-127682000D01*
X155519162Y-127446683D01*
X155380090Y-127230559D01*
X155376000Y-127227764D01*
X155376000Y-127130802D01*
X155985401Y-126521401D01*
X156150148Y-126274839D01*
X156208000Y-125984000D01*
X156208000Y-122936000D01*
X156150148Y-122645161D01*
X155985401Y-122398599D01*
X155542802Y-121956000D01*
X155664000Y-121956000D01*
X155954839Y-121898148D01*
X156201401Y-121733401D01*
X156847000Y-121087802D01*
X156847000Y-122301000D01*
X156847000Y-122301000D01*
G37*
X156847000Y-122301000D02*
X156904852Y-122591839D01*
X157069599Y-122838401D01*
X160027000Y-125795802D01*
X160027000Y-128310360D01*
X159737000Y-128310360D01*
X159501683Y-128354638D01*
X159285559Y-128493710D01*
X159140569Y-128705910D01*
X159089560Y-128957800D01*
X159089560Y-130357800D01*
X159133838Y-130593117D01*
X159272910Y-130809241D01*
X159485110Y-130954231D01*
X159737000Y-131005240D01*
X161800000Y-131005240D01*
X161800000Y-131765198D01*
X161229198Y-132336000D01*
X157534463Y-132336000D01*
X157502327Y-132303808D01*
X157158799Y-132161162D01*
X156786833Y-132160838D01*
X156443057Y-132302883D01*
X156179808Y-132565673D01*
X156037162Y-132909201D01*
X156036838Y-133281167D01*
X156178883Y-133624943D01*
X156441673Y-133888192D01*
X156785201Y-134030838D01*
X157157167Y-134031162D01*
X157500943Y-133889117D01*
X157534118Y-133856000D01*
X159174690Y-133856000D01*
X159102000Y-134031490D01*
X159102000Y-134572050D01*
X159260750Y-134730800D01*
X160660000Y-134730800D01*
X160660000Y-134710800D01*
X160914000Y-134710800D01*
X160914000Y-134730800D01*
X160934000Y-134730800D01*
X160934000Y-134984800D01*
X160914000Y-134984800D01*
X160914000Y-136034050D01*
X161072750Y-136192800D01*
X161963309Y-136192800D01*
X162196698Y-136096127D01*
X162308000Y-135984826D01*
X162308000Y-136845198D01*
X161737198Y-137416000D01*
X158550463Y-137416000D01*
X158518327Y-137383808D01*
X158174799Y-137241162D01*
X157802833Y-137240838D01*
X157459057Y-137382883D01*
X157195808Y-137645673D01*
X157111430Y-137848876D01*
X156577626Y-137301289D01*
X154294660Y-136284813D01*
X154461401Y-136173401D01*
X155153401Y-135481401D01*
X155318148Y-135234839D01*
X155336306Y-135143550D01*
X159102000Y-135143550D01*
X159102000Y-135684110D01*
X159198673Y-135917499D01*
X159377302Y-136096127D01*
X159610691Y-136192800D01*
X160501250Y-136192800D01*
X160660000Y-136034050D01*
X160660000Y-134984800D01*
X159260750Y-134984800D01*
X159102000Y-135143550D01*
X155336306Y-135143550D01*
X155376000Y-134944000D01*
X155376000Y-130833563D01*
X155512431Y-130633890D01*
X155563440Y-130382000D01*
X155563440Y-129482000D01*
X155519162Y-129246683D01*
X155380090Y-129030559D01*
X155378701Y-129029610D01*
X155512431Y-128833890D01*
X155563440Y-128582000D01*
X155563440Y-127682000D01*
X155519162Y-127446683D01*
X155380090Y-127230559D01*
X155376000Y-127227764D01*
X155376000Y-127130802D01*
X155985401Y-126521401D01*
X156150148Y-126274839D01*
X156208000Y-125984000D01*
X156208000Y-122936000D01*
X156150148Y-122645161D01*
X155985401Y-122398599D01*
X155542802Y-121956000D01*
X155664000Y-121956000D01*
X155954839Y-121898148D01*
X156201401Y-121733401D01*
X156847000Y-121087802D01*
X156847000Y-122301000D01*
G36*
X140222560Y-122271000D02*
X140246944Y-122400589D01*
X140222560Y-122521000D01*
X140222560Y-123071000D01*
X140246944Y-123200589D01*
X140222560Y-123321000D01*
X140222560Y-123871000D01*
X140246944Y-124000589D01*
X140222560Y-124121000D01*
X140222560Y-124671000D01*
X140266838Y-124906317D01*
X140405910Y-125122441D01*
X140618110Y-125267431D01*
X140870000Y-125318440D01*
X142370000Y-125318440D01*
X142404454Y-125311957D01*
X142397560Y-125346000D01*
X142397560Y-126846000D01*
X142441838Y-127081317D01*
X142580910Y-127297441D01*
X142793110Y-127442431D01*
X143045000Y-127493440D01*
X143249560Y-127493440D01*
X143249560Y-128682000D01*
X143293838Y-128917317D01*
X143360329Y-129020646D01*
X143358673Y-129022302D01*
X143262000Y-129255691D01*
X143262000Y-129696250D01*
X143420750Y-129855000D01*
X144145000Y-129855000D01*
X144145000Y-129835000D01*
X144399000Y-129835000D01*
X144399000Y-129855000D01*
X145123250Y-129855000D01*
X145282000Y-129696250D01*
X145282000Y-129255691D01*
X145185327Y-129022302D01*
X145183957Y-129020932D01*
X145243431Y-128933890D01*
X145262039Y-128842000D01*
X145311666Y-128842000D01*
X145325838Y-128917317D01*
X145392329Y-129020646D01*
X145390673Y-129022302D01*
X145294000Y-129255691D01*
X145294000Y-129696250D01*
X145452750Y-129855000D01*
X146177000Y-129855000D01*
X146177000Y-129835000D01*
X146431000Y-129835000D01*
X146431000Y-129855000D01*
X147155250Y-129855000D01*
X147314000Y-129696250D01*
X147314000Y-129255691D01*
X147217327Y-129022302D01*
X147215957Y-129020932D01*
X147275431Y-128933890D01*
X147295720Y-128833701D01*
X147544839Y-128784148D01*
X147791401Y-128619401D01*
X147857401Y-128553401D01*
X148022148Y-128306839D01*
X148080000Y-128016000D01*
X148080000Y-127260975D01*
X148119884Y-127202603D01*
X148180910Y-127297441D01*
X148311245Y-127386495D01*
X148405750Y-127481000D01*
X148521310Y-127481000D01*
X148541753Y-127472532D01*
X148645000Y-127493440D01*
X149195000Y-127493440D01*
X149324589Y-127469056D01*
X149445000Y-127493440D01*
X149760000Y-127493440D01*
X149760000Y-127660000D01*
X149817852Y-127950839D01*
X149982599Y-128197401D01*
X150854599Y-129069401D01*
X151101160Y-129234148D01*
X151310326Y-129275754D01*
X151268560Y-129482000D01*
X151268560Y-130126200D01*
X147172450Y-130126200D01*
X147155250Y-130109000D01*
X146431000Y-130109000D01*
X146431000Y-130129000D01*
X146177000Y-130129000D01*
X146177000Y-130109000D01*
X145452750Y-130109000D01*
X145294000Y-130267750D01*
X145294000Y-130708309D01*
X145390673Y-130941698D01*
X145569301Y-131120327D01*
X145737995Y-131190203D01*
X145684398Y-131243800D01*
X141462602Y-131243800D01*
X140486552Y-130267750D01*
X143262000Y-130267750D01*
X143262000Y-130708309D01*
X143358673Y-130941698D01*
X143537301Y-131120327D01*
X143770690Y-131217000D01*
X143986250Y-131217000D01*
X144145000Y-131058250D01*
X144145000Y-130109000D01*
X144399000Y-130109000D01*
X144399000Y-131058250D01*
X144557750Y-131217000D01*
X144773310Y-131217000D01*
X145006699Y-131120327D01*
X145185327Y-130941698D01*
X145282000Y-130708309D01*
X145282000Y-130267750D01*
X145123250Y-130109000D01*
X144399000Y-130109000D01*
X144145000Y-130109000D01*
X143420750Y-130109000D01*
X143262000Y-130267750D01*
X140486552Y-130267750D01*
X137640600Y-127421798D01*
X137640600Y-123113800D01*
X137582748Y-122822961D01*
X137418001Y-122576399D01*
X136901322Y-122059720D01*
X136901362Y-122014233D01*
X136877301Y-121956000D01*
X140222560Y-121956000D01*
X140222560Y-122271000D01*
X140222560Y-122271000D01*
G37*
X140222560Y-122271000D02*
X140246944Y-122400589D01*
X140222560Y-122521000D01*
X140222560Y-123071000D01*
X140246944Y-123200589D01*
X140222560Y-123321000D01*
X140222560Y-123871000D01*
X140246944Y-124000589D01*
X140222560Y-124121000D01*
X140222560Y-124671000D01*
X140266838Y-124906317D01*
X140405910Y-125122441D01*
X140618110Y-125267431D01*
X140870000Y-125318440D01*
X142370000Y-125318440D01*
X142404454Y-125311957D01*
X142397560Y-125346000D01*
X142397560Y-126846000D01*
X142441838Y-127081317D01*
X142580910Y-127297441D01*
X142793110Y-127442431D01*
X143045000Y-127493440D01*
X143249560Y-127493440D01*
X143249560Y-128682000D01*
X143293838Y-128917317D01*
X143360329Y-129020646D01*
X143358673Y-129022302D01*
X143262000Y-129255691D01*
X143262000Y-129696250D01*
X143420750Y-129855000D01*
X144145000Y-129855000D01*
X144145000Y-129835000D01*
X144399000Y-129835000D01*
X144399000Y-129855000D01*
X145123250Y-129855000D01*
X145282000Y-129696250D01*
X145282000Y-129255691D01*
X145185327Y-129022302D01*
X145183957Y-129020932D01*
X145243431Y-128933890D01*
X145262039Y-128842000D01*
X145311666Y-128842000D01*
X145325838Y-128917317D01*
X145392329Y-129020646D01*
X145390673Y-129022302D01*
X145294000Y-129255691D01*
X145294000Y-129696250D01*
X145452750Y-129855000D01*
X146177000Y-129855000D01*
X146177000Y-129835000D01*
X146431000Y-129835000D01*
X146431000Y-129855000D01*
X147155250Y-129855000D01*
X147314000Y-129696250D01*
X147314000Y-129255691D01*
X147217327Y-129022302D01*
X147215957Y-129020932D01*
X147275431Y-128933890D01*
X147295720Y-128833701D01*
X147544839Y-128784148D01*
X147791401Y-128619401D01*
X147857401Y-128553401D01*
X148022148Y-128306839D01*
X148080000Y-128016000D01*
X148080000Y-127260975D01*
X148119884Y-127202603D01*
X148180910Y-127297441D01*
X148311245Y-127386495D01*
X148405750Y-127481000D01*
X148521310Y-127481000D01*
X148541753Y-127472532D01*
X148645000Y-127493440D01*
X149195000Y-127493440D01*
X149324589Y-127469056D01*
X149445000Y-127493440D01*
X149760000Y-127493440D01*
X149760000Y-127660000D01*
X149817852Y-127950839D01*
X149982599Y-128197401D01*
X150854599Y-129069401D01*
X151101160Y-129234148D01*
X151310326Y-129275754D01*
X151268560Y-129482000D01*
X151268560Y-130126200D01*
X147172450Y-130126200D01*
X147155250Y-130109000D01*
X146431000Y-130109000D01*
X146431000Y-130129000D01*
X146177000Y-130129000D01*
X146177000Y-130109000D01*
X145452750Y-130109000D01*
X145294000Y-130267750D01*
X145294000Y-130708309D01*
X145390673Y-130941698D01*
X145569301Y-131120327D01*
X145737995Y-131190203D01*
X145684398Y-131243800D01*
X141462602Y-131243800D01*
X140486552Y-130267750D01*
X143262000Y-130267750D01*
X143262000Y-130708309D01*
X143358673Y-130941698D01*
X143537301Y-131120327D01*
X143770690Y-131217000D01*
X143986250Y-131217000D01*
X144145000Y-131058250D01*
X144145000Y-130109000D01*
X144399000Y-130109000D01*
X144399000Y-131058250D01*
X144557750Y-131217000D01*
X144773310Y-131217000D01*
X145006699Y-131120327D01*
X145185327Y-130941698D01*
X145282000Y-130708309D01*
X145282000Y-130267750D01*
X145123250Y-130109000D01*
X144399000Y-130109000D01*
X144145000Y-130109000D01*
X143420750Y-130109000D01*
X143262000Y-130267750D01*
X140486552Y-130267750D01*
X137640600Y-127421798D01*
X137640600Y-123113800D01*
X137582748Y-122822961D01*
X137418001Y-122576399D01*
X136901322Y-122059720D01*
X136901362Y-122014233D01*
X136877301Y-121956000D01*
X140222560Y-121956000D01*
X140222560Y-122271000D01*
G36*
X147380910Y-115897441D02*
X147511245Y-115986495D01*
X147605750Y-116081000D01*
X147721310Y-116081000D01*
X147741753Y-116072532D01*
X147845000Y-116093440D01*
X148395000Y-116093440D01*
X148524589Y-116069056D01*
X148645000Y-116093440D01*
X149195000Y-116093440D01*
X149324589Y-116069056D01*
X149445000Y-116093440D01*
X149995000Y-116093440D01*
X150124589Y-116069056D01*
X150245000Y-116093440D01*
X150795000Y-116093440D01*
X150924589Y-116069056D01*
X151045000Y-116093440D01*
X151595000Y-116093440D01*
X151629454Y-116086957D01*
X151622560Y-116121000D01*
X151622560Y-116671000D01*
X151646944Y-116800589D01*
X151622560Y-116921000D01*
X151622560Y-117471000D01*
X151646944Y-117600589D01*
X151622560Y-117721000D01*
X151622560Y-118271000D01*
X151646944Y-118400589D01*
X151622560Y-118521000D01*
X151622560Y-119071000D01*
X151646944Y-119200589D01*
X151622560Y-119321000D01*
X151622560Y-119871000D01*
X151646944Y-120000589D01*
X151622560Y-120121000D01*
X151622560Y-120671000D01*
X151646944Y-120800589D01*
X151622560Y-120921000D01*
X151622560Y-121471000D01*
X151646944Y-121600589D01*
X151622560Y-121721000D01*
X151622560Y-122271000D01*
X151646944Y-122400589D01*
X151622560Y-122521000D01*
X151622560Y-123071000D01*
X151646944Y-123200589D01*
X151622560Y-123321000D01*
X151622560Y-123871000D01*
X151646944Y-124000589D01*
X151622560Y-124121000D01*
X151622560Y-124671000D01*
X151629043Y-124705454D01*
X151595000Y-124698560D01*
X151045000Y-124698560D01*
X150915411Y-124722944D01*
X150795000Y-124698560D01*
X150245000Y-124698560D01*
X150115411Y-124722944D01*
X149995000Y-124698560D01*
X149445000Y-124698560D01*
X149315411Y-124722944D01*
X149195000Y-124698560D01*
X148645000Y-124698560D01*
X148539295Y-124718450D01*
X148521310Y-124711000D01*
X148405750Y-124711000D01*
X148309349Y-124807401D01*
X148193559Y-124881910D01*
X148120116Y-124989397D01*
X148080000Y-124927054D01*
X148080000Y-119380000D01*
X148022148Y-119089161D01*
X147857401Y-118842599D01*
X147280000Y-118265198D01*
X147280000Y-115860975D01*
X147319884Y-115802603D01*
X147380910Y-115897441D01*
X147380910Y-115897441D01*
G37*
X147380910Y-115897441D02*
X147511245Y-115986495D01*
X147605750Y-116081000D01*
X147721310Y-116081000D01*
X147741753Y-116072532D01*
X147845000Y-116093440D01*
X148395000Y-116093440D01*
X148524589Y-116069056D01*
X148645000Y-116093440D01*
X149195000Y-116093440D01*
X149324589Y-116069056D01*
X149445000Y-116093440D01*
X149995000Y-116093440D01*
X150124589Y-116069056D01*
X150245000Y-116093440D01*
X150795000Y-116093440D01*
X150924589Y-116069056D01*
X151045000Y-116093440D01*
X151595000Y-116093440D01*
X151629454Y-116086957D01*
X151622560Y-116121000D01*
X151622560Y-116671000D01*
X151646944Y-116800589D01*
X151622560Y-116921000D01*
X151622560Y-117471000D01*
X151646944Y-117600589D01*
X151622560Y-117721000D01*
X151622560Y-118271000D01*
X151646944Y-118400589D01*
X151622560Y-118521000D01*
X151622560Y-119071000D01*
X151646944Y-119200589D01*
X151622560Y-119321000D01*
X151622560Y-119871000D01*
X151646944Y-120000589D01*
X151622560Y-120121000D01*
X151622560Y-120671000D01*
X151646944Y-120800589D01*
X151622560Y-120921000D01*
X151622560Y-121471000D01*
X151646944Y-121600589D01*
X151622560Y-121721000D01*
X151622560Y-122271000D01*
X151646944Y-122400589D01*
X151622560Y-122521000D01*
X151622560Y-123071000D01*
X151646944Y-123200589D01*
X151622560Y-123321000D01*
X151622560Y-123871000D01*
X151646944Y-124000589D01*
X151622560Y-124121000D01*
X151622560Y-124671000D01*
X151629043Y-124705454D01*
X151595000Y-124698560D01*
X151045000Y-124698560D01*
X150915411Y-124722944D01*
X150795000Y-124698560D01*
X150245000Y-124698560D01*
X150115411Y-124722944D01*
X149995000Y-124698560D01*
X149445000Y-124698560D01*
X149315411Y-124722944D01*
X149195000Y-124698560D01*
X148645000Y-124698560D01*
X148539295Y-124718450D01*
X148521310Y-124711000D01*
X148405750Y-124711000D01*
X148309349Y-124807401D01*
X148193559Y-124881910D01*
X148120116Y-124989397D01*
X148080000Y-124927054D01*
X148080000Y-119380000D01*
X148022148Y-119089161D01*
X147857401Y-118842599D01*
X147280000Y-118265198D01*
X147280000Y-115860975D01*
X147319884Y-115802603D01*
X147380910Y-115897441D01*
G36*
X130162560Y-116586000D02*
X130206838Y-116821317D01*
X130345910Y-117037441D01*
X130427770Y-117093374D01*
X130358559Y-117137910D01*
X130213569Y-117350110D01*
X130162560Y-117602000D01*
X130162560Y-119126000D01*
X130206838Y-119361317D01*
X130345910Y-119577441D01*
X130423511Y-119630464D01*
X130271673Y-119782301D01*
X130175000Y-120015690D01*
X130175000Y-120618250D01*
X130333750Y-120777000D01*
X131445000Y-120777000D01*
X131445000Y-120757000D01*
X131699000Y-120757000D01*
X131699000Y-120777000D01*
X132810250Y-120777000D01*
X132969000Y-120618250D01*
X132969000Y-120015690D01*
X132872327Y-119782301D01*
X132721354Y-119631329D01*
X132785441Y-119590090D01*
X132930431Y-119377890D01*
X132981440Y-119126000D01*
X132981440Y-119124000D01*
X136845198Y-119124000D01*
X138157198Y-120436000D01*
X135572600Y-120436000D01*
X135281760Y-120493852D01*
X135035199Y-120658599D01*
X134565199Y-121128599D01*
X134400452Y-121375161D01*
X134342600Y-121666000D01*
X134342600Y-122434174D01*
X134252379Y-122492230D01*
X134107389Y-122704430D01*
X134056380Y-122956320D01*
X134056380Y-123753880D01*
X134081666Y-123888264D01*
X133100001Y-122906599D01*
X132981440Y-122827379D01*
X132981440Y-122682000D01*
X132937162Y-122446683D01*
X132798090Y-122230559D01*
X132720489Y-122177536D01*
X132872327Y-122025699D01*
X132969000Y-121792310D01*
X132969000Y-121189750D01*
X132810250Y-121031000D01*
X131699000Y-121031000D01*
X131699000Y-121051000D01*
X131445000Y-121051000D01*
X131445000Y-121031000D01*
X130333750Y-121031000D01*
X130175000Y-121189750D01*
X130175000Y-121792310D01*
X130271673Y-122025699D01*
X130422646Y-122176671D01*
X130358559Y-122217910D01*
X130213569Y-122430110D01*
X130162560Y-122682000D01*
X130162560Y-123601358D01*
X129436400Y-122875198D01*
X129436400Y-115910202D01*
X130162560Y-115184042D01*
X130162560Y-116586000D01*
X130162560Y-116586000D01*
G37*
X130162560Y-116586000D02*
X130206838Y-116821317D01*
X130345910Y-117037441D01*
X130427770Y-117093374D01*
X130358559Y-117137910D01*
X130213569Y-117350110D01*
X130162560Y-117602000D01*
X130162560Y-119126000D01*
X130206838Y-119361317D01*
X130345910Y-119577441D01*
X130423511Y-119630464D01*
X130271673Y-119782301D01*
X130175000Y-120015690D01*
X130175000Y-120618250D01*
X130333750Y-120777000D01*
X131445000Y-120777000D01*
X131445000Y-120757000D01*
X131699000Y-120757000D01*
X131699000Y-120777000D01*
X132810250Y-120777000D01*
X132969000Y-120618250D01*
X132969000Y-120015690D01*
X132872327Y-119782301D01*
X132721354Y-119631329D01*
X132785441Y-119590090D01*
X132930431Y-119377890D01*
X132981440Y-119126000D01*
X132981440Y-119124000D01*
X136845198Y-119124000D01*
X138157198Y-120436000D01*
X135572600Y-120436000D01*
X135281760Y-120493852D01*
X135035199Y-120658599D01*
X134565199Y-121128599D01*
X134400452Y-121375161D01*
X134342600Y-121666000D01*
X134342600Y-122434174D01*
X134252379Y-122492230D01*
X134107389Y-122704430D01*
X134056380Y-122956320D01*
X134056380Y-123753880D01*
X134081666Y-123888264D01*
X133100001Y-122906599D01*
X132981440Y-122827379D01*
X132981440Y-122682000D01*
X132937162Y-122446683D01*
X132798090Y-122230559D01*
X132720489Y-122177536D01*
X132872327Y-122025699D01*
X132969000Y-121792310D01*
X132969000Y-121189750D01*
X132810250Y-121031000D01*
X131699000Y-121031000D01*
X131699000Y-121051000D01*
X131445000Y-121051000D01*
X131445000Y-121031000D01*
X130333750Y-121031000D01*
X130175000Y-121189750D01*
X130175000Y-121792310D01*
X130271673Y-122025699D01*
X130422646Y-122176671D01*
X130358559Y-122217910D01*
X130213569Y-122430110D01*
X130162560Y-122682000D01*
X130162560Y-123601358D01*
X129436400Y-122875198D01*
X129436400Y-115910202D01*
X130162560Y-115184042D01*
X130162560Y-116586000D01*
M02*
