G04 #@! TF.FileFunction,Legend,Bot*
%FSLAX46Y46*%
G04 Gerber Fmt 4.6, Leading zero omitted, Abs format (unit mm)*
G04 Created by KiCad (PCBNEW 4.0.4-snap1-stable) date Wed May  1 15:14:01 2019*
%MOMM*%
%LPD*%
G01*
G04 APERTURE LIST*
%ADD10C,0.100000*%
%ADD11C,0.300000*%
%ADD12C,0.150000*%
G04 APERTURE END LIST*
D10*
D11*
X148827428Y-122261143D02*
X148827428Y-119261143D01*
X147827428Y-121404000D01*
X146827428Y-119261143D01*
X146827428Y-122261143D01*
X144113143Y-120261143D02*
X144113143Y-122261143D01*
X145398857Y-120261143D02*
X145398857Y-121832571D01*
X145256000Y-122118286D01*
X144970286Y-122261143D01*
X144541714Y-122261143D01*
X144256000Y-122118286D01*
X144113143Y-121975429D01*
X142827428Y-122118286D02*
X142541714Y-122261143D01*
X141970286Y-122261143D01*
X141684571Y-122118286D01*
X141541714Y-121832571D01*
X141541714Y-121689714D01*
X141684571Y-121404000D01*
X141970286Y-121261143D01*
X142398857Y-121261143D01*
X142684571Y-121118286D01*
X142827428Y-120832571D01*
X142827428Y-120689714D01*
X142684571Y-120404000D01*
X142398857Y-120261143D01*
X141970286Y-120261143D01*
X141684571Y-120404000D01*
X140256000Y-122261143D02*
X140256000Y-120261143D01*
X140256000Y-119261143D02*
X140398857Y-119404000D01*
X140256000Y-119546857D01*
X140113143Y-119404000D01*
X140256000Y-119261143D01*
X140256000Y-119546857D01*
X137541715Y-122118286D02*
X137827429Y-122261143D01*
X138398858Y-122261143D01*
X138684572Y-122118286D01*
X138827429Y-121975429D01*
X138970286Y-121689714D01*
X138970286Y-120832571D01*
X138827429Y-120546857D01*
X138684572Y-120404000D01*
X138398858Y-120261143D01*
X137827429Y-120261143D01*
X137541715Y-120404000D01*
X161098857Y-100750857D02*
X160956000Y-100608000D01*
X160670286Y-100465143D01*
X159956000Y-100465143D01*
X159670286Y-100608000D01*
X159527429Y-100750857D01*
X159384572Y-101036571D01*
X159384572Y-101322286D01*
X159527429Y-101750857D01*
X161241715Y-103465143D01*
X159384572Y-103465143D01*
X157527429Y-100465143D02*
X157241714Y-100465143D01*
X156956000Y-100608000D01*
X156813143Y-100750857D01*
X156670286Y-101036571D01*
X156527429Y-101608000D01*
X156527429Y-102322286D01*
X156670286Y-102893714D01*
X156813143Y-103179429D01*
X156956000Y-103322286D01*
X157241714Y-103465143D01*
X157527429Y-103465143D01*
X157813143Y-103322286D01*
X157956000Y-103179429D01*
X158098857Y-102893714D01*
X158241714Y-102322286D01*
X158241714Y-101608000D01*
X158098857Y-101036571D01*
X157956000Y-100750857D01*
X157813143Y-100608000D01*
X157527429Y-100465143D01*
X153670286Y-103465143D02*
X155384571Y-103465143D01*
X154527429Y-103465143D02*
X154527429Y-100465143D01*
X154813143Y-100893714D01*
X155098857Y-101179429D01*
X155384571Y-101322286D01*
X152241714Y-103465143D02*
X151670286Y-103465143D01*
X151384571Y-103322286D01*
X151241714Y-103179429D01*
X150956000Y-102750857D01*
X150813143Y-102179429D01*
X150813143Y-101036571D01*
X150956000Y-100750857D01*
X151098857Y-100608000D01*
X151384571Y-100465143D01*
X151956000Y-100465143D01*
X152241714Y-100608000D01*
X152384571Y-100750857D01*
X152527428Y-101036571D01*
X152527428Y-101750857D01*
X152384571Y-102036571D01*
X152241714Y-102179429D01*
X151956000Y-102322286D01*
X151384571Y-102322286D01*
X151098857Y-102179429D01*
X150956000Y-102036571D01*
X150813143Y-101750857D01*
X155058714Y-147658371D02*
X155058714Y-146158371D01*
X154558714Y-147229800D01*
X154058714Y-146158371D01*
X154058714Y-147658371D01*
X152701571Y-146658371D02*
X152701571Y-147658371D01*
X153344428Y-146658371D02*
X153344428Y-147444086D01*
X153273000Y-147586943D01*
X153130142Y-147658371D01*
X152915857Y-147658371D01*
X152773000Y-147586943D01*
X152701571Y-147515514D01*
X152058714Y-147586943D02*
X151915857Y-147658371D01*
X151630142Y-147658371D01*
X151487285Y-147586943D01*
X151415857Y-147444086D01*
X151415857Y-147372657D01*
X151487285Y-147229800D01*
X151630142Y-147158371D01*
X151844428Y-147158371D01*
X151987285Y-147086943D01*
X152058714Y-146944086D01*
X152058714Y-146872657D01*
X151987285Y-146729800D01*
X151844428Y-146658371D01*
X151630142Y-146658371D01*
X151487285Y-146729800D01*
X150772999Y-147658371D02*
X150772999Y-146658371D01*
X150772999Y-146158371D02*
X150844428Y-146229800D01*
X150772999Y-146301229D01*
X150701571Y-146229800D01*
X150772999Y-146158371D01*
X150772999Y-146301229D01*
X149415856Y-147586943D02*
X149558713Y-147658371D01*
X149844427Y-147658371D01*
X149987285Y-147586943D01*
X150058713Y-147515514D01*
X150130142Y-147372657D01*
X150130142Y-146944086D01*
X150058713Y-146801229D01*
X149987285Y-146729800D01*
X149844427Y-146658371D01*
X149558713Y-146658371D01*
X149415856Y-146729800D01*
X154701571Y-150208371D02*
X154701571Y-149208371D01*
X154701571Y-148708371D02*
X154773000Y-148779800D01*
X154701571Y-148851229D01*
X154630143Y-148779800D01*
X154701571Y-148708371D01*
X154701571Y-148851229D01*
X153987285Y-149208371D02*
X153987285Y-150208371D01*
X153987285Y-149351229D02*
X153915857Y-149279800D01*
X153772999Y-149208371D01*
X153558714Y-149208371D01*
X153415857Y-149279800D01*
X153344428Y-149422657D01*
X153344428Y-150208371D01*
X151701571Y-149208371D02*
X151130142Y-149208371D01*
X151487285Y-148708371D02*
X151487285Y-149994086D01*
X151415857Y-150136943D01*
X151272999Y-150208371D01*
X151130142Y-150208371D01*
X150630142Y-150208371D02*
X150630142Y-148708371D01*
X149987285Y-150208371D02*
X149987285Y-149422657D01*
X150058714Y-149279800D01*
X150201571Y-149208371D01*
X150415856Y-149208371D01*
X150558714Y-149279800D01*
X150630142Y-149351229D01*
X148701571Y-150136943D02*
X148844428Y-150208371D01*
X149130142Y-150208371D01*
X149272999Y-150136943D01*
X149344428Y-149994086D01*
X149344428Y-149422657D01*
X149272999Y-149279800D01*
X149130142Y-149208371D01*
X148844428Y-149208371D01*
X148701571Y-149279800D01*
X148630142Y-149422657D01*
X148630142Y-149565514D01*
X149344428Y-149708371D01*
X156415858Y-152758371D02*
X156415858Y-151258371D01*
X155915858Y-152329800D01*
X155415858Y-151258371D01*
X155415858Y-152758371D01*
X154487286Y-152758371D02*
X154630144Y-152686943D01*
X154701572Y-152615514D01*
X154773001Y-152472657D01*
X154773001Y-152044086D01*
X154701572Y-151901229D01*
X154630144Y-151829800D01*
X154487286Y-151758371D01*
X154273001Y-151758371D01*
X154130144Y-151829800D01*
X154058715Y-151901229D01*
X153987286Y-152044086D01*
X153987286Y-152472657D01*
X154058715Y-152615514D01*
X154130144Y-152686943D01*
X154273001Y-152758371D01*
X154487286Y-152758371D01*
X152701572Y-151758371D02*
X152701572Y-152758371D01*
X153344429Y-151758371D02*
X153344429Y-152544086D01*
X153273001Y-152686943D01*
X153130143Y-152758371D01*
X152915858Y-152758371D01*
X152773001Y-152686943D01*
X152701572Y-152615514D01*
X151987286Y-151758371D02*
X151987286Y-152758371D01*
X151987286Y-151901229D02*
X151915858Y-151829800D01*
X151773000Y-151758371D01*
X151558715Y-151758371D01*
X151415858Y-151829800D01*
X151344429Y-151972657D01*
X151344429Y-152758371D01*
X150844429Y-151758371D02*
X150273000Y-151758371D01*
X150630143Y-151258371D02*
X150630143Y-152544086D01*
X150558715Y-152686943D01*
X150415857Y-152758371D01*
X150273000Y-152758371D01*
X149130143Y-152758371D02*
X149130143Y-151972657D01*
X149201572Y-151829800D01*
X149344429Y-151758371D01*
X149630143Y-151758371D01*
X149773000Y-151829800D01*
X149130143Y-152686943D02*
X149273000Y-152758371D01*
X149630143Y-152758371D01*
X149773000Y-152686943D01*
X149844429Y-152544086D01*
X149844429Y-152401229D01*
X149773000Y-152258371D01*
X149630143Y-152186943D01*
X149273000Y-152186943D01*
X149130143Y-152115514D01*
X148415857Y-152758371D02*
X148415857Y-151758371D01*
X148415857Y-151258371D02*
X148487286Y-151329800D01*
X148415857Y-151401229D01*
X148344429Y-151329800D01*
X148415857Y-151258371D01*
X148415857Y-151401229D01*
X147701571Y-151758371D02*
X147701571Y-152758371D01*
X147701571Y-151901229D02*
X147630143Y-151829800D01*
X147487285Y-151758371D01*
X147273000Y-151758371D01*
X147130143Y-151829800D01*
X147058714Y-151972657D01*
X147058714Y-152758371D01*
X146415857Y-152686943D02*
X146273000Y-152758371D01*
X145987285Y-152758371D01*
X145844428Y-152686943D01*
X145773000Y-152544086D01*
X145773000Y-152472657D01*
X145844428Y-152329800D01*
X145987285Y-152258371D01*
X146201571Y-152258371D01*
X146344428Y-152186943D01*
X146415857Y-152044086D01*
X146415857Y-151972657D01*
X146344428Y-151829800D01*
X146201571Y-151758371D01*
X145987285Y-151758371D01*
X145844428Y-151829800D01*
X162884571Y-124753714D02*
X163884571Y-124753714D01*
X163884571Y-126325143D02*
X163884571Y-123325143D01*
X162456000Y-123325143D01*
X160170285Y-126182286D02*
X160455999Y-126325143D01*
X161027428Y-126325143D01*
X161313142Y-126182286D01*
X161455999Y-125896571D01*
X161455999Y-124753714D01*
X161313142Y-124468000D01*
X161027428Y-124325143D01*
X160455999Y-124325143D01*
X160170285Y-124468000D01*
X160027428Y-124753714D01*
X160027428Y-125039429D01*
X161455999Y-125325143D01*
X158884570Y-126182286D02*
X158598856Y-126325143D01*
X158027428Y-126325143D01*
X157741713Y-126182286D01*
X157598856Y-125896571D01*
X157598856Y-125753714D01*
X157741713Y-125468000D01*
X158027428Y-125325143D01*
X158455999Y-125325143D01*
X158741713Y-125182286D01*
X158884570Y-124896571D01*
X158884570Y-124753714D01*
X158741713Y-124468000D01*
X158455999Y-124325143D01*
X158027428Y-124325143D01*
X157741713Y-124468000D01*
X156741714Y-124325143D02*
X155598857Y-124325143D01*
X156313142Y-123325143D02*
X156313142Y-125896571D01*
X156170285Y-126182286D01*
X155884571Y-126325143D01*
X155598857Y-126325143D01*
X154598856Y-126325143D02*
X154598856Y-124325143D01*
X154598856Y-123325143D02*
X154741713Y-123468000D01*
X154598856Y-123610857D01*
X154455999Y-123468000D01*
X154598856Y-123325143D01*
X154598856Y-123610857D01*
X153456000Y-124325143D02*
X152741714Y-126325143D01*
X152027428Y-124325143D01*
X149598857Y-126325143D02*
X149598857Y-124753714D01*
X149741714Y-124468000D01*
X150027428Y-124325143D01*
X150598857Y-124325143D01*
X150884571Y-124468000D01*
X149598857Y-126182286D02*
X149884571Y-126325143D01*
X150598857Y-126325143D01*
X150884571Y-126182286D01*
X151027428Y-125896571D01*
X151027428Y-125610857D01*
X150884571Y-125325143D01*
X150598857Y-125182286D01*
X149884571Y-125182286D01*
X149598857Y-125039429D01*
X147741714Y-126325143D02*
X148027428Y-126182286D01*
X148170285Y-125896571D01*
X148170285Y-123325143D01*
X172250286Y-118562286D02*
X171821715Y-118705143D01*
X171107429Y-118705143D01*
X170821715Y-118562286D01*
X170678858Y-118419429D01*
X170536001Y-118133714D01*
X170536001Y-117848000D01*
X170678858Y-117562286D01*
X170821715Y-117419429D01*
X171107429Y-117276571D01*
X171678858Y-117133714D01*
X171964572Y-116990857D01*
X172107429Y-116848000D01*
X172250286Y-116562286D01*
X172250286Y-116276571D01*
X172107429Y-115990857D01*
X171964572Y-115848000D01*
X171678858Y-115705143D01*
X170964572Y-115705143D01*
X170536001Y-115848000D01*
X169678858Y-116705143D02*
X168536001Y-116705143D01*
X169250286Y-115705143D02*
X169250286Y-118276571D01*
X169107429Y-118562286D01*
X168821715Y-118705143D01*
X168536001Y-118705143D01*
X167536000Y-118705143D02*
X167536000Y-116705143D01*
X167536000Y-117276571D02*
X167393143Y-116990857D01*
X167250286Y-116848000D01*
X166964572Y-116705143D01*
X166678857Y-116705143D01*
X164393143Y-118705143D02*
X164393143Y-117133714D01*
X164536000Y-116848000D01*
X164821714Y-116705143D01*
X165393143Y-116705143D01*
X165678857Y-116848000D01*
X164393143Y-118562286D02*
X164678857Y-118705143D01*
X165393143Y-118705143D01*
X165678857Y-118562286D01*
X165821714Y-118276571D01*
X165821714Y-117990857D01*
X165678857Y-117705143D01*
X165393143Y-117562286D01*
X164678857Y-117562286D01*
X164393143Y-117419429D01*
X163250286Y-116705143D02*
X162678857Y-118705143D01*
X162107428Y-117276571D01*
X161536000Y-118705143D01*
X160964571Y-116705143D01*
X159821714Y-118705143D02*
X159821714Y-115705143D01*
X159821714Y-116848000D02*
X159536000Y-116705143D01*
X158964571Y-116705143D01*
X158678857Y-116848000D01*
X158536000Y-116990857D01*
X158393143Y-117276571D01*
X158393143Y-118133714D01*
X158536000Y-118419429D01*
X158678857Y-118562286D01*
X158964571Y-118705143D01*
X159536000Y-118705143D01*
X159821714Y-118562286D01*
X155964571Y-118562286D02*
X156250285Y-118705143D01*
X156821714Y-118705143D01*
X157107428Y-118562286D01*
X157250285Y-118276571D01*
X157250285Y-117133714D01*
X157107428Y-116848000D01*
X156821714Y-116705143D01*
X156250285Y-116705143D01*
X155964571Y-116848000D01*
X155821714Y-117133714D01*
X155821714Y-117419429D01*
X157250285Y-117705143D01*
X154535999Y-118705143D02*
X154535999Y-116705143D01*
X154535999Y-117276571D02*
X154393142Y-116990857D01*
X154250285Y-116848000D01*
X153964571Y-116705143D01*
X153678856Y-116705143D01*
X152678856Y-118705143D02*
X152678856Y-116705143D01*
X152678856Y-117276571D02*
X152535999Y-116990857D01*
X152393142Y-116848000D01*
X152107428Y-116705143D01*
X151821713Y-116705143D01*
X151107428Y-116705143D02*
X150393142Y-118705143D01*
X149678856Y-116705143D02*
X150393142Y-118705143D01*
X150678856Y-119419429D01*
X150821713Y-119562286D01*
X151107428Y-119705143D01*
D12*
X142832000Y-144822000D02*
X140932000Y-144822000D01*
X142832000Y-143722000D02*
X140932000Y-143722000D01*
X141932000Y-144272000D02*
X141482000Y-144272000D01*
X141982000Y-144022000D02*
X141982000Y-144522000D01*
X141982000Y-144272000D02*
X141732000Y-144022000D01*
X141732000Y-144022000D02*
X141732000Y-144522000D01*
X141732000Y-144522000D02*
X141982000Y-144272000D01*
X175852000Y-126026000D02*
X173952000Y-126026000D01*
X175852000Y-124926000D02*
X173952000Y-124926000D01*
X174952000Y-125476000D02*
X174502000Y-125476000D01*
X175002000Y-125226000D02*
X175002000Y-125726000D01*
X175002000Y-125476000D02*
X174752000Y-125226000D01*
X174752000Y-125226000D02*
X174752000Y-125726000D01*
X174752000Y-125726000D02*
X175002000Y-125476000D01*
X160444000Y-148294000D02*
X162344000Y-148294000D01*
X160444000Y-149394000D02*
X162344000Y-149394000D01*
X161344000Y-148844000D02*
X161794000Y-148844000D01*
X161294000Y-149094000D02*
X161294000Y-148594000D01*
X161294000Y-148844000D02*
X161544000Y-149094000D01*
X161544000Y-149094000D02*
X161544000Y-148594000D01*
X161544000Y-148594000D02*
X161294000Y-148844000D01*
X142867200Y-107120600D02*
X144767200Y-107120600D01*
X142867200Y-108220600D02*
X144767200Y-108220600D01*
X143767200Y-107670600D02*
X144217200Y-107670600D01*
X143717200Y-107920600D02*
X143717200Y-107420600D01*
X143717200Y-107670600D02*
X143967200Y-107920600D01*
X143967200Y-107920600D02*
X143967200Y-107420600D01*
X143967200Y-107420600D02*
X143717200Y-107670600D01*
X141648000Y-136610000D02*
X143548000Y-136610000D01*
X141648000Y-137710000D02*
X143548000Y-137710000D01*
X142548000Y-137160000D02*
X142998000Y-137160000D01*
X142498000Y-137410000D02*
X142498000Y-136910000D01*
X142498000Y-137160000D02*
X142748000Y-137410000D01*
X142748000Y-137410000D02*
X142748000Y-136910000D01*
X142748000Y-136910000D02*
X142498000Y-137160000D01*
X171280000Y-132122000D02*
X169380000Y-132122000D01*
X171280000Y-131022000D02*
X169380000Y-131022000D01*
X170380000Y-131572000D02*
X169930000Y-131572000D01*
X170430000Y-131322000D02*
X170430000Y-131822000D01*
X170430000Y-131572000D02*
X170180000Y-131322000D01*
X170180000Y-131322000D02*
X170180000Y-131822000D01*
X170180000Y-131822000D02*
X170430000Y-131572000D01*
X154348000Y-137626000D02*
X156248000Y-137626000D01*
X154348000Y-138726000D02*
X156248000Y-138726000D01*
X155248000Y-138176000D02*
X155698000Y-138176000D01*
X155198000Y-138426000D02*
X155198000Y-137926000D01*
X155198000Y-138176000D02*
X155448000Y-138426000D01*
X155448000Y-138426000D02*
X155448000Y-137926000D01*
X155448000Y-137926000D02*
X155198000Y-138176000D01*
X165184000Y-108246000D02*
X163284000Y-108246000D01*
X165184000Y-107146000D02*
X163284000Y-107146000D01*
X164284000Y-107696000D02*
X163834000Y-107696000D01*
X164334000Y-107446000D02*
X164334000Y-107946000D01*
X164334000Y-107696000D02*
X164084000Y-107446000D01*
X164084000Y-107446000D02*
X164084000Y-107946000D01*
X164084000Y-107946000D02*
X164334000Y-107696000D01*
X139784000Y-130090000D02*
X137884000Y-130090000D01*
X139784000Y-128990000D02*
X137884000Y-128990000D01*
X138884000Y-129540000D02*
X138434000Y-129540000D01*
X138934000Y-129290000D02*
X138934000Y-129790000D01*
X138934000Y-129540000D02*
X138684000Y-129290000D01*
X138684000Y-129290000D02*
X138684000Y-129790000D01*
X138684000Y-129790000D02*
X138934000Y-129540000D01*
X168232000Y-138726000D02*
X166332000Y-138726000D01*
X168232000Y-137626000D02*
X166332000Y-137626000D01*
X167332000Y-138176000D02*
X166882000Y-138176000D01*
X167382000Y-137926000D02*
X167382000Y-138426000D01*
X167382000Y-138176000D02*
X167132000Y-137926000D01*
X167132000Y-137926000D02*
X167132000Y-138426000D01*
X167132000Y-138426000D02*
X167382000Y-138176000D01*
X153840000Y-132546000D02*
X155740000Y-132546000D01*
X153840000Y-133646000D02*
X155740000Y-133646000D01*
X154740000Y-133096000D02*
X155190000Y-133096000D01*
X154690000Y-133346000D02*
X154690000Y-132846000D01*
X154690000Y-133096000D02*
X154940000Y-133346000D01*
X154940000Y-133346000D02*
X154940000Y-132846000D01*
X154940000Y-132846000D02*
X154690000Y-133096000D01*
X170772000Y-112818000D02*
X168872000Y-112818000D01*
X170772000Y-111718000D02*
X168872000Y-111718000D01*
X169872000Y-112268000D02*
X169422000Y-112268000D01*
X169922000Y-112018000D02*
X169922000Y-112518000D01*
X169922000Y-112268000D02*
X169672000Y-112018000D01*
X169672000Y-112018000D02*
X169672000Y-112518000D01*
X169672000Y-112518000D02*
X169922000Y-112268000D01*
X134028000Y-120354000D02*
X135928000Y-120354000D01*
X134028000Y-121454000D02*
X135928000Y-121454000D01*
X134928000Y-120904000D02*
X135378000Y-120904000D01*
X134878000Y-121154000D02*
X134878000Y-120654000D01*
X134878000Y-120904000D02*
X135128000Y-121154000D01*
X135128000Y-121154000D02*
X135128000Y-120654000D01*
X135128000Y-120654000D02*
X134878000Y-120904000D01*
X164676000Y-144314000D02*
X162776000Y-144314000D01*
X164676000Y-143214000D02*
X162776000Y-143214000D01*
X163776000Y-143764000D02*
X163326000Y-143764000D01*
X163826000Y-143514000D02*
X163826000Y-144014000D01*
X163826000Y-143764000D02*
X163576000Y-143514000D01*
X163576000Y-143514000D02*
X163576000Y-144014000D01*
X163576000Y-144014000D02*
X163826000Y-143764000D01*
X155364000Y-121370000D02*
X157264000Y-121370000D01*
X155364000Y-122470000D02*
X157264000Y-122470000D01*
X156264000Y-121920000D02*
X156714000Y-121920000D01*
X156214000Y-122170000D02*
X156214000Y-121670000D01*
X156214000Y-121920000D02*
X156464000Y-122170000D01*
X156464000Y-122170000D02*
X156464000Y-121670000D01*
X156464000Y-121670000D02*
X156214000Y-121920000D01*
X154008000Y-113326000D02*
X152108000Y-113326000D01*
X154008000Y-112226000D02*
X152108000Y-112226000D01*
X153108000Y-112776000D02*
X152658000Y-112776000D01*
X153158000Y-112526000D02*
X153158000Y-113026000D01*
X153158000Y-112776000D02*
X152908000Y-112526000D01*
X152908000Y-112526000D02*
X152908000Y-113026000D01*
X152908000Y-113026000D02*
X153158000Y-112776000D01*
X142470095Y-143224381D02*
X142470095Y-142224381D01*
X142232000Y-142224381D01*
X142089142Y-142272000D01*
X141993904Y-142367238D01*
X141946285Y-142462476D01*
X141898666Y-142652952D01*
X141898666Y-142795810D01*
X141946285Y-142986286D01*
X141993904Y-143081524D01*
X142089142Y-143176762D01*
X142232000Y-143224381D01*
X142470095Y-143224381D01*
X140946285Y-143224381D02*
X141517714Y-143224381D01*
X141232000Y-143224381D02*
X141232000Y-142224381D01*
X141327238Y-142367238D01*
X141422476Y-142462476D01*
X141517714Y-142510095D01*
X175490095Y-124428381D02*
X175490095Y-123428381D01*
X175252000Y-123428381D01*
X175109142Y-123476000D01*
X175013904Y-123571238D01*
X174966285Y-123666476D01*
X174918666Y-123856952D01*
X174918666Y-123999810D01*
X174966285Y-124190286D01*
X175013904Y-124285524D01*
X175109142Y-124380762D01*
X175252000Y-124428381D01*
X175490095Y-124428381D01*
X174537714Y-123523619D02*
X174490095Y-123476000D01*
X174394857Y-123428381D01*
X174156761Y-123428381D01*
X174061523Y-123476000D01*
X174013904Y-123523619D01*
X173966285Y-123618857D01*
X173966285Y-123714095D01*
X174013904Y-123856952D01*
X174585333Y-124428381D01*
X173966285Y-124428381D01*
X162282095Y-150796381D02*
X162282095Y-149796381D01*
X162044000Y-149796381D01*
X161901142Y-149844000D01*
X161805904Y-149939238D01*
X161758285Y-150034476D01*
X161710666Y-150224952D01*
X161710666Y-150367810D01*
X161758285Y-150558286D01*
X161805904Y-150653524D01*
X161901142Y-150748762D01*
X162044000Y-150796381D01*
X162282095Y-150796381D01*
X161377333Y-149796381D02*
X160758285Y-149796381D01*
X161091619Y-150177333D01*
X160948761Y-150177333D01*
X160853523Y-150224952D01*
X160805904Y-150272571D01*
X160758285Y-150367810D01*
X160758285Y-150605905D01*
X160805904Y-150701143D01*
X160853523Y-150748762D01*
X160948761Y-150796381D01*
X161234476Y-150796381D01*
X161329714Y-150748762D01*
X161377333Y-150701143D01*
X144705295Y-109622981D02*
X144705295Y-108622981D01*
X144467200Y-108622981D01*
X144324342Y-108670600D01*
X144229104Y-108765838D01*
X144181485Y-108861076D01*
X144133866Y-109051552D01*
X144133866Y-109194410D01*
X144181485Y-109384886D01*
X144229104Y-109480124D01*
X144324342Y-109575362D01*
X144467200Y-109622981D01*
X144705295Y-109622981D01*
X143276723Y-108956314D02*
X143276723Y-109622981D01*
X143514819Y-108575362D02*
X143752914Y-109289648D01*
X143133866Y-109289648D01*
X143486095Y-139112381D02*
X143486095Y-138112381D01*
X143248000Y-138112381D01*
X143105142Y-138160000D01*
X143009904Y-138255238D01*
X142962285Y-138350476D01*
X142914666Y-138540952D01*
X142914666Y-138683810D01*
X142962285Y-138874286D01*
X143009904Y-138969524D01*
X143105142Y-139064762D01*
X143248000Y-139112381D01*
X143486095Y-139112381D01*
X142009904Y-138112381D02*
X142486095Y-138112381D01*
X142533714Y-138588571D01*
X142486095Y-138540952D01*
X142390857Y-138493333D01*
X142152761Y-138493333D01*
X142057523Y-138540952D01*
X142009904Y-138588571D01*
X141962285Y-138683810D01*
X141962285Y-138921905D01*
X142009904Y-139017143D01*
X142057523Y-139064762D01*
X142152761Y-139112381D01*
X142390857Y-139112381D01*
X142486095Y-139064762D01*
X142533714Y-139017143D01*
X170918095Y-130524381D02*
X170918095Y-129524381D01*
X170680000Y-129524381D01*
X170537142Y-129572000D01*
X170441904Y-129667238D01*
X170394285Y-129762476D01*
X170346666Y-129952952D01*
X170346666Y-130095810D01*
X170394285Y-130286286D01*
X170441904Y-130381524D01*
X170537142Y-130476762D01*
X170680000Y-130524381D01*
X170918095Y-130524381D01*
X169489523Y-129524381D02*
X169680000Y-129524381D01*
X169775238Y-129572000D01*
X169822857Y-129619619D01*
X169918095Y-129762476D01*
X169965714Y-129952952D01*
X169965714Y-130333905D01*
X169918095Y-130429143D01*
X169870476Y-130476762D01*
X169775238Y-130524381D01*
X169584761Y-130524381D01*
X169489523Y-130476762D01*
X169441904Y-130429143D01*
X169394285Y-130333905D01*
X169394285Y-130095810D01*
X169441904Y-130000571D01*
X169489523Y-129952952D01*
X169584761Y-129905333D01*
X169775238Y-129905333D01*
X169870476Y-129952952D01*
X169918095Y-130000571D01*
X169965714Y-130095810D01*
X156186095Y-140128381D02*
X156186095Y-139128381D01*
X155948000Y-139128381D01*
X155805142Y-139176000D01*
X155709904Y-139271238D01*
X155662285Y-139366476D01*
X155614666Y-139556952D01*
X155614666Y-139699810D01*
X155662285Y-139890286D01*
X155709904Y-139985524D01*
X155805142Y-140080762D01*
X155948000Y-140128381D01*
X156186095Y-140128381D01*
X155281333Y-139128381D02*
X154614666Y-139128381D01*
X155043238Y-140128381D01*
X164822095Y-106648381D02*
X164822095Y-105648381D01*
X164584000Y-105648381D01*
X164441142Y-105696000D01*
X164345904Y-105791238D01*
X164298285Y-105886476D01*
X164250666Y-106076952D01*
X164250666Y-106219810D01*
X164298285Y-106410286D01*
X164345904Y-106505524D01*
X164441142Y-106600762D01*
X164584000Y-106648381D01*
X164822095Y-106648381D01*
X163679238Y-106076952D02*
X163774476Y-106029333D01*
X163822095Y-105981714D01*
X163869714Y-105886476D01*
X163869714Y-105838857D01*
X163822095Y-105743619D01*
X163774476Y-105696000D01*
X163679238Y-105648381D01*
X163488761Y-105648381D01*
X163393523Y-105696000D01*
X163345904Y-105743619D01*
X163298285Y-105838857D01*
X163298285Y-105886476D01*
X163345904Y-105981714D01*
X163393523Y-106029333D01*
X163488761Y-106076952D01*
X163679238Y-106076952D01*
X163774476Y-106124571D01*
X163822095Y-106172190D01*
X163869714Y-106267429D01*
X163869714Y-106457905D01*
X163822095Y-106553143D01*
X163774476Y-106600762D01*
X163679238Y-106648381D01*
X163488761Y-106648381D01*
X163393523Y-106600762D01*
X163345904Y-106553143D01*
X163298285Y-106457905D01*
X163298285Y-106267429D01*
X163345904Y-106172190D01*
X163393523Y-106124571D01*
X163488761Y-106076952D01*
X139422095Y-128492381D02*
X139422095Y-127492381D01*
X139184000Y-127492381D01*
X139041142Y-127540000D01*
X138945904Y-127635238D01*
X138898285Y-127730476D01*
X138850666Y-127920952D01*
X138850666Y-128063810D01*
X138898285Y-128254286D01*
X138945904Y-128349524D01*
X139041142Y-128444762D01*
X139184000Y-128492381D01*
X139422095Y-128492381D01*
X138374476Y-128492381D02*
X138184000Y-128492381D01*
X138088761Y-128444762D01*
X138041142Y-128397143D01*
X137945904Y-128254286D01*
X137898285Y-128063810D01*
X137898285Y-127682857D01*
X137945904Y-127587619D01*
X137993523Y-127540000D01*
X138088761Y-127492381D01*
X138279238Y-127492381D01*
X138374476Y-127540000D01*
X138422095Y-127587619D01*
X138469714Y-127682857D01*
X138469714Y-127920952D01*
X138422095Y-128016190D01*
X138374476Y-128063810D01*
X138279238Y-128111429D01*
X138088761Y-128111429D01*
X137993523Y-128063810D01*
X137945904Y-128016190D01*
X137898285Y-127920952D01*
X168346286Y-137128381D02*
X168346286Y-136128381D01*
X168108191Y-136128381D01*
X167965333Y-136176000D01*
X167870095Y-136271238D01*
X167822476Y-136366476D01*
X167774857Y-136556952D01*
X167774857Y-136699810D01*
X167822476Y-136890286D01*
X167870095Y-136985524D01*
X167965333Y-137080762D01*
X168108191Y-137128381D01*
X168346286Y-137128381D01*
X166822476Y-137128381D02*
X167393905Y-137128381D01*
X167108191Y-137128381D02*
X167108191Y-136128381D01*
X167203429Y-136271238D01*
X167298667Y-136366476D01*
X167393905Y-136414095D01*
X166203429Y-136128381D02*
X166108190Y-136128381D01*
X166012952Y-136176000D01*
X165965333Y-136223619D01*
X165917714Y-136318857D01*
X165870095Y-136509333D01*
X165870095Y-136747429D01*
X165917714Y-136937905D01*
X165965333Y-137033143D01*
X166012952Y-137080762D01*
X166108190Y-137128381D01*
X166203429Y-137128381D01*
X166298667Y-137080762D01*
X166346286Y-137033143D01*
X166393905Y-136937905D01*
X166441524Y-136747429D01*
X166441524Y-136509333D01*
X166393905Y-136318857D01*
X166346286Y-136223619D01*
X166298667Y-136176000D01*
X166203429Y-136128381D01*
X156154286Y-135048381D02*
X156154286Y-134048381D01*
X155916191Y-134048381D01*
X155773333Y-134096000D01*
X155678095Y-134191238D01*
X155630476Y-134286476D01*
X155582857Y-134476952D01*
X155582857Y-134619810D01*
X155630476Y-134810286D01*
X155678095Y-134905524D01*
X155773333Y-135000762D01*
X155916191Y-135048381D01*
X156154286Y-135048381D01*
X154630476Y-135048381D02*
X155201905Y-135048381D01*
X154916191Y-135048381D02*
X154916191Y-134048381D01*
X155011429Y-134191238D01*
X155106667Y-134286476D01*
X155201905Y-134334095D01*
X153678095Y-135048381D02*
X154249524Y-135048381D01*
X153963810Y-135048381D02*
X153963810Y-134048381D01*
X154059048Y-134191238D01*
X154154286Y-134286476D01*
X154249524Y-134334095D01*
X170886286Y-111220381D02*
X170886286Y-110220381D01*
X170648191Y-110220381D01*
X170505333Y-110268000D01*
X170410095Y-110363238D01*
X170362476Y-110458476D01*
X170314857Y-110648952D01*
X170314857Y-110791810D01*
X170362476Y-110982286D01*
X170410095Y-111077524D01*
X170505333Y-111172762D01*
X170648191Y-111220381D01*
X170886286Y-111220381D01*
X169362476Y-111220381D02*
X169933905Y-111220381D01*
X169648191Y-111220381D02*
X169648191Y-110220381D01*
X169743429Y-110363238D01*
X169838667Y-110458476D01*
X169933905Y-110506095D01*
X168981524Y-110315619D02*
X168933905Y-110268000D01*
X168838667Y-110220381D01*
X168600571Y-110220381D01*
X168505333Y-110268000D01*
X168457714Y-110315619D01*
X168410095Y-110410857D01*
X168410095Y-110506095D01*
X168457714Y-110648952D01*
X169029143Y-111220381D01*
X168410095Y-111220381D01*
X136342286Y-122856381D02*
X136342286Y-121856381D01*
X136104191Y-121856381D01*
X135961333Y-121904000D01*
X135866095Y-121999238D01*
X135818476Y-122094476D01*
X135770857Y-122284952D01*
X135770857Y-122427810D01*
X135818476Y-122618286D01*
X135866095Y-122713524D01*
X135961333Y-122808762D01*
X136104191Y-122856381D01*
X136342286Y-122856381D01*
X134818476Y-122856381D02*
X135389905Y-122856381D01*
X135104191Y-122856381D02*
X135104191Y-121856381D01*
X135199429Y-121999238D01*
X135294667Y-122094476D01*
X135389905Y-122142095D01*
X134485143Y-121856381D02*
X133866095Y-121856381D01*
X134199429Y-122237333D01*
X134056571Y-122237333D01*
X133961333Y-122284952D01*
X133913714Y-122332571D01*
X133866095Y-122427810D01*
X133866095Y-122665905D01*
X133913714Y-122761143D01*
X133961333Y-122808762D01*
X134056571Y-122856381D01*
X134342286Y-122856381D01*
X134437524Y-122808762D01*
X134485143Y-122761143D01*
X164790286Y-142716381D02*
X164790286Y-141716381D01*
X164552191Y-141716381D01*
X164409333Y-141764000D01*
X164314095Y-141859238D01*
X164266476Y-141954476D01*
X164218857Y-142144952D01*
X164218857Y-142287810D01*
X164266476Y-142478286D01*
X164314095Y-142573524D01*
X164409333Y-142668762D01*
X164552191Y-142716381D01*
X164790286Y-142716381D01*
X163266476Y-142716381D02*
X163837905Y-142716381D01*
X163552191Y-142716381D02*
X163552191Y-141716381D01*
X163647429Y-141859238D01*
X163742667Y-141954476D01*
X163837905Y-142002095D01*
X162409333Y-142049714D02*
X162409333Y-142716381D01*
X162647429Y-141668762D02*
X162885524Y-142383048D01*
X162266476Y-142383048D01*
X157678286Y-123872381D02*
X157678286Y-122872381D01*
X157440191Y-122872381D01*
X157297333Y-122920000D01*
X157202095Y-123015238D01*
X157154476Y-123110476D01*
X157106857Y-123300952D01*
X157106857Y-123443810D01*
X157154476Y-123634286D01*
X157202095Y-123729524D01*
X157297333Y-123824762D01*
X157440191Y-123872381D01*
X157678286Y-123872381D01*
X156154476Y-123872381D02*
X156725905Y-123872381D01*
X156440191Y-123872381D02*
X156440191Y-122872381D01*
X156535429Y-123015238D01*
X156630667Y-123110476D01*
X156725905Y-123158095D01*
X155249714Y-122872381D02*
X155725905Y-122872381D01*
X155773524Y-123348571D01*
X155725905Y-123300952D01*
X155630667Y-123253333D01*
X155392571Y-123253333D01*
X155297333Y-123300952D01*
X155249714Y-123348571D01*
X155202095Y-123443810D01*
X155202095Y-123681905D01*
X155249714Y-123777143D01*
X155297333Y-123824762D01*
X155392571Y-123872381D01*
X155630667Y-123872381D01*
X155725905Y-123824762D01*
X155773524Y-123777143D01*
X154122286Y-111728381D02*
X154122286Y-110728381D01*
X153884191Y-110728381D01*
X153741333Y-110776000D01*
X153646095Y-110871238D01*
X153598476Y-110966476D01*
X153550857Y-111156952D01*
X153550857Y-111299810D01*
X153598476Y-111490286D01*
X153646095Y-111585524D01*
X153741333Y-111680762D01*
X153884191Y-111728381D01*
X154122286Y-111728381D01*
X152598476Y-111728381D02*
X153169905Y-111728381D01*
X152884191Y-111728381D02*
X152884191Y-110728381D01*
X152979429Y-110871238D01*
X153074667Y-110966476D01*
X153169905Y-111014095D01*
X151741333Y-110728381D02*
X151931810Y-110728381D01*
X152027048Y-110776000D01*
X152074667Y-110823619D01*
X152169905Y-110966476D01*
X152217524Y-111156952D01*
X152217524Y-111537905D01*
X152169905Y-111633143D01*
X152122286Y-111680762D01*
X152027048Y-111728381D01*
X151836571Y-111728381D01*
X151741333Y-111680762D01*
X151693714Y-111633143D01*
X151646095Y-111537905D01*
X151646095Y-111299810D01*
X151693714Y-111204571D01*
X151741333Y-111156952D01*
X151836571Y-111109333D01*
X152027048Y-111109333D01*
X152122286Y-111156952D01*
X152169905Y-111204571D01*
X152217524Y-111299810D01*
M02*
