G04 #@! TF.FileFunction,Legend,Top*
%FSLAX46Y46*%
G04 Gerber Fmt 4.6, Leading zero omitted, Abs format (unit mm)*
G04 Created by KiCad (PCBNEW 4.0.4-snap1-stable) date Mon Feb 25 19:09:27 2019*
%MOMM*%
%LPD*%
G01*
G04 APERTURE LIST*
%ADD10C,0.100000*%
%ADD11C,0.150000*%
G04 APERTURE END LIST*
D10*
D11*
X163742000Y-102878000D02*
X163742000Y-103878000D01*
X165442000Y-103878000D02*
X165442000Y-102878000D01*
X161202000Y-102878000D02*
X161202000Y-103878000D01*
X162902000Y-103878000D02*
X162902000Y-102878000D01*
X146417000Y-89316000D02*
X146417000Y-90516000D01*
X144667000Y-90516000D02*
X144667000Y-89316000D01*
X159371000Y-90586000D02*
X159371000Y-91786000D01*
X157621000Y-91786000D02*
X157621000Y-90586000D01*
X149211000Y-90078000D02*
X149211000Y-91278000D01*
X147461000Y-91278000D02*
X147461000Y-90078000D01*
X142148000Y-106567000D02*
X143348000Y-106567000D01*
X143348000Y-108317000D02*
X142148000Y-108317000D01*
X162673000Y-91602000D02*
X162673000Y-92802000D01*
X160923000Y-92802000D02*
X160923000Y-91602000D01*
X142148000Y-97423000D02*
X143348000Y-97423000D01*
X143348000Y-99173000D02*
X142148000Y-99173000D01*
X151751000Y-89824000D02*
X151751000Y-91024000D01*
X150001000Y-91024000D02*
X150001000Y-89824000D01*
X142148000Y-104281000D02*
X143348000Y-104281000D01*
X143348000Y-106031000D02*
X142148000Y-106031000D01*
X163922000Y-96379000D02*
X162722000Y-96379000D01*
X162722000Y-94629000D02*
X163922000Y-94629000D01*
X139100000Y-94375000D02*
X140300000Y-94375000D01*
X140300000Y-96125000D02*
X139100000Y-96125000D01*
X154291000Y-89824000D02*
X154291000Y-91024000D01*
X152541000Y-91024000D02*
X152541000Y-89824000D01*
X142148000Y-101995000D02*
X143348000Y-101995000D01*
X143348000Y-103745000D02*
X142148000Y-103745000D01*
X163922000Y-99681000D02*
X162722000Y-99681000D01*
X162722000Y-97931000D02*
X163922000Y-97931000D01*
X143672000Y-92851000D02*
X144872000Y-92851000D01*
X144872000Y-94601000D02*
X143672000Y-94601000D01*
X156831000Y-89824000D02*
X156831000Y-91024000D01*
X155081000Y-91024000D02*
X155081000Y-89824000D01*
X142148000Y-99709000D02*
X143348000Y-99709000D01*
X143348000Y-101459000D02*
X142148000Y-101459000D01*
X168007000Y-117002000D02*
X168007000Y-118202000D01*
X166257000Y-118202000D02*
X166257000Y-117002000D01*
X169652000Y-110490000D02*
G75*
G03X169652000Y-110490000I-1250000J0D01*
G01*
X165652000Y-113740000D02*
X165002000Y-113740000D01*
X165002000Y-113740000D02*
X165002000Y-107240000D01*
X165002000Y-107240000D02*
X165652000Y-107240000D01*
X171152000Y-113740000D02*
X171802000Y-113740000D01*
X171802000Y-113740000D02*
X171802000Y-107240000D01*
X171802000Y-107240000D02*
X171152000Y-107240000D01*
X169652000Y-113740000D02*
X167152000Y-113740000D01*
X169652000Y-107240000D02*
X167152000Y-107240000D01*
X147987000Y-97695000D02*
X147987000Y-98370000D01*
X158337000Y-97695000D02*
X158337000Y-98370000D01*
X158337000Y-108045000D02*
X158337000Y-107370000D01*
X147987000Y-108045000D02*
X147987000Y-107370000D01*
X147987000Y-97695000D02*
X148662000Y-97695000D01*
X147987000Y-108045000D02*
X148662000Y-108045000D01*
X158337000Y-108045000D02*
X157662000Y-108045000D01*
X158337000Y-97695000D02*
X157662000Y-97695000D01*
X147987000Y-98370000D02*
X146712000Y-98370000D01*
D10*
X158314000Y-59436000D02*
G75*
G03X158314000Y-59436000I-1850000J0D01*
G01*
D11*
X151360286Y-135556571D02*
X151503143Y-135604190D01*
X151550762Y-135651810D01*
X151598381Y-135747048D01*
X151598381Y-135889905D01*
X151550762Y-135985143D01*
X151503143Y-136032762D01*
X151407905Y-136080381D01*
X151026952Y-136080381D01*
X151026952Y-135080381D01*
X151360286Y-135080381D01*
X151455524Y-135128000D01*
X151503143Y-135175619D01*
X151550762Y-135270857D01*
X151550762Y-135366095D01*
X151503143Y-135461333D01*
X151455524Y-135508952D01*
X151360286Y-135556571D01*
X151026952Y-135556571D01*
X151884095Y-135080381D02*
X152455524Y-135080381D01*
X152169809Y-136080381D02*
X152169809Y-135080381D01*
X153312667Y-136080381D02*
X152741238Y-136080381D01*
X153026952Y-136080381D02*
X153026952Y-135080381D01*
X152931714Y-135223238D01*
X152836476Y-135318476D01*
X152741238Y-135366095D01*
X162849143Y-103544666D02*
X162896762Y-103592285D01*
X162944381Y-103735142D01*
X162944381Y-103830380D01*
X162896762Y-103973238D01*
X162801524Y-104068476D01*
X162706286Y-104116095D01*
X162515810Y-104163714D01*
X162372952Y-104163714D01*
X162182476Y-104116095D01*
X162087238Y-104068476D01*
X161992000Y-103973238D01*
X161944381Y-103830380D01*
X161944381Y-103735142D01*
X161992000Y-103592285D01*
X162039619Y-103544666D01*
X162944381Y-102592285D02*
X162944381Y-103163714D01*
X162944381Y-102878000D02*
X161944381Y-102878000D01*
X162087238Y-102973238D01*
X162182476Y-103068476D01*
X162230095Y-103163714D01*
X160309143Y-103544666D02*
X160356762Y-103592285D01*
X160404381Y-103735142D01*
X160404381Y-103830380D01*
X160356762Y-103973238D01*
X160261524Y-104068476D01*
X160166286Y-104116095D01*
X159975810Y-104163714D01*
X159832952Y-104163714D01*
X159642476Y-104116095D01*
X159547238Y-104068476D01*
X159452000Y-103973238D01*
X159404381Y-103830380D01*
X159404381Y-103735142D01*
X159452000Y-103592285D01*
X159499619Y-103544666D01*
X159499619Y-103163714D02*
X159452000Y-103116095D01*
X159404381Y-103020857D01*
X159404381Y-102782761D01*
X159452000Y-102687523D01*
X159499619Y-102639904D01*
X159594857Y-102592285D01*
X159690095Y-102592285D01*
X159832952Y-102639904D01*
X160404381Y-103211333D01*
X160404381Y-102592285D01*
X133270667Y-110188381D02*
X133270667Y-110902667D01*
X133223047Y-111045524D01*
X133127809Y-111140762D01*
X132984952Y-111188381D01*
X132889714Y-111188381D01*
X134270667Y-111188381D02*
X133699238Y-111188381D01*
X133984952Y-111188381D02*
X133984952Y-110188381D01*
X133889714Y-110331238D01*
X133794476Y-110426476D01*
X133699238Y-110474095D01*
X130683048Y-106211714D02*
X131444953Y-106497429D01*
X130683048Y-106783143D01*
X143894381Y-90082666D02*
X143418190Y-90416000D01*
X143894381Y-90654095D02*
X142894381Y-90654095D01*
X142894381Y-90273142D01*
X142942000Y-90177904D01*
X142989619Y-90130285D01*
X143084857Y-90082666D01*
X143227714Y-90082666D01*
X143322952Y-90130285D01*
X143370571Y-90177904D01*
X143418190Y-90273142D01*
X143418190Y-90654095D01*
X143894381Y-89130285D02*
X143894381Y-89701714D01*
X143894381Y-89416000D02*
X142894381Y-89416000D01*
X143037238Y-89511238D01*
X143132476Y-89606476D01*
X143180095Y-89701714D01*
X156848381Y-91352666D02*
X156372190Y-91686000D01*
X156848381Y-91924095D02*
X155848381Y-91924095D01*
X155848381Y-91543142D01*
X155896000Y-91447904D01*
X155943619Y-91400285D01*
X156038857Y-91352666D01*
X156181714Y-91352666D01*
X156276952Y-91400285D01*
X156324571Y-91447904D01*
X156372190Y-91543142D01*
X156372190Y-91924095D01*
X155943619Y-90971714D02*
X155896000Y-90924095D01*
X155848381Y-90828857D01*
X155848381Y-90590761D01*
X155896000Y-90495523D01*
X155943619Y-90447904D01*
X156038857Y-90400285D01*
X156134095Y-90400285D01*
X156276952Y-90447904D01*
X156848381Y-91019333D01*
X156848381Y-90400285D01*
X146688381Y-90844666D02*
X146212190Y-91178000D01*
X146688381Y-91416095D02*
X145688381Y-91416095D01*
X145688381Y-91035142D01*
X145736000Y-90939904D01*
X145783619Y-90892285D01*
X145878857Y-90844666D01*
X146021714Y-90844666D01*
X146116952Y-90892285D01*
X146164571Y-90939904D01*
X146212190Y-91035142D01*
X146212190Y-91416095D01*
X145688381Y-90511333D02*
X145688381Y-89892285D01*
X146069333Y-90225619D01*
X146069333Y-90082761D01*
X146116952Y-89987523D01*
X146164571Y-89939904D01*
X146259810Y-89892285D01*
X146497905Y-89892285D01*
X146593143Y-89939904D01*
X146640762Y-89987523D01*
X146688381Y-90082761D01*
X146688381Y-90368476D01*
X146640762Y-90463714D01*
X146593143Y-90511333D01*
X142581334Y-109994381D02*
X142248000Y-109518190D01*
X142009905Y-109994381D02*
X142009905Y-108994381D01*
X142390858Y-108994381D01*
X142486096Y-109042000D01*
X142533715Y-109089619D01*
X142581334Y-109184857D01*
X142581334Y-109327714D01*
X142533715Y-109422952D01*
X142486096Y-109470571D01*
X142390858Y-109518190D01*
X142009905Y-109518190D01*
X143438477Y-109327714D02*
X143438477Y-109994381D01*
X143200381Y-108946762D02*
X142962286Y-109661048D01*
X143581334Y-109661048D01*
X160150381Y-92368666D02*
X159674190Y-92702000D01*
X160150381Y-92940095D02*
X159150381Y-92940095D01*
X159150381Y-92559142D01*
X159198000Y-92463904D01*
X159245619Y-92416285D01*
X159340857Y-92368666D01*
X159483714Y-92368666D01*
X159578952Y-92416285D01*
X159626571Y-92463904D01*
X159674190Y-92559142D01*
X159674190Y-92940095D01*
X159150381Y-91463904D02*
X159150381Y-91940095D01*
X159626571Y-91987714D01*
X159578952Y-91940095D01*
X159531333Y-91844857D01*
X159531333Y-91606761D01*
X159578952Y-91511523D01*
X159626571Y-91463904D01*
X159721810Y-91416285D01*
X159959905Y-91416285D01*
X160055143Y-91463904D01*
X160102762Y-91511523D01*
X160150381Y-91606761D01*
X160150381Y-91844857D01*
X160102762Y-91940095D01*
X160055143Y-91987714D01*
X142581334Y-100850381D02*
X142248000Y-100374190D01*
X142009905Y-100850381D02*
X142009905Y-99850381D01*
X142390858Y-99850381D01*
X142486096Y-99898000D01*
X142533715Y-99945619D01*
X142581334Y-100040857D01*
X142581334Y-100183714D01*
X142533715Y-100278952D01*
X142486096Y-100326571D01*
X142390858Y-100374190D01*
X142009905Y-100374190D01*
X143438477Y-99850381D02*
X143248000Y-99850381D01*
X143152762Y-99898000D01*
X143105143Y-99945619D01*
X143009905Y-100088476D01*
X142962286Y-100278952D01*
X142962286Y-100659905D01*
X143009905Y-100755143D01*
X143057524Y-100802762D01*
X143152762Y-100850381D01*
X143343239Y-100850381D01*
X143438477Y-100802762D01*
X143486096Y-100755143D01*
X143533715Y-100659905D01*
X143533715Y-100421810D01*
X143486096Y-100326571D01*
X143438477Y-100278952D01*
X143343239Y-100231333D01*
X143152762Y-100231333D01*
X143057524Y-100278952D01*
X143009905Y-100326571D01*
X142962286Y-100421810D01*
X149228381Y-90590666D02*
X148752190Y-90924000D01*
X149228381Y-91162095D02*
X148228381Y-91162095D01*
X148228381Y-90781142D01*
X148276000Y-90685904D01*
X148323619Y-90638285D01*
X148418857Y-90590666D01*
X148561714Y-90590666D01*
X148656952Y-90638285D01*
X148704571Y-90685904D01*
X148752190Y-90781142D01*
X148752190Y-91162095D01*
X148228381Y-90257333D02*
X148228381Y-89590666D01*
X149228381Y-90019238D01*
X142581334Y-107708381D02*
X142248000Y-107232190D01*
X142009905Y-107708381D02*
X142009905Y-106708381D01*
X142390858Y-106708381D01*
X142486096Y-106756000D01*
X142533715Y-106803619D01*
X142581334Y-106898857D01*
X142581334Y-107041714D01*
X142533715Y-107136952D01*
X142486096Y-107184571D01*
X142390858Y-107232190D01*
X142009905Y-107232190D01*
X143152762Y-107136952D02*
X143057524Y-107089333D01*
X143009905Y-107041714D01*
X142962286Y-106946476D01*
X142962286Y-106898857D01*
X143009905Y-106803619D01*
X143057524Y-106756000D01*
X143152762Y-106708381D01*
X143343239Y-106708381D01*
X143438477Y-106756000D01*
X143486096Y-106803619D01*
X143533715Y-106898857D01*
X143533715Y-106946476D01*
X143486096Y-107041714D01*
X143438477Y-107089333D01*
X143343239Y-107136952D01*
X143152762Y-107136952D01*
X143057524Y-107184571D01*
X143009905Y-107232190D01*
X142962286Y-107327429D01*
X142962286Y-107517905D01*
X143009905Y-107613143D01*
X143057524Y-107660762D01*
X143152762Y-107708381D01*
X143343239Y-107708381D01*
X143438477Y-107660762D01*
X143486096Y-107613143D01*
X143533715Y-107517905D01*
X143533715Y-107327429D01*
X143486096Y-107232190D01*
X143438477Y-107184571D01*
X143343239Y-107136952D01*
X163155334Y-93856381D02*
X162822000Y-93380190D01*
X162583905Y-93856381D02*
X162583905Y-92856381D01*
X162964858Y-92856381D01*
X163060096Y-92904000D01*
X163107715Y-92951619D01*
X163155334Y-93046857D01*
X163155334Y-93189714D01*
X163107715Y-93284952D01*
X163060096Y-93332571D01*
X162964858Y-93380190D01*
X162583905Y-93380190D01*
X163631524Y-93856381D02*
X163822000Y-93856381D01*
X163917239Y-93808762D01*
X163964858Y-93761143D01*
X164060096Y-93618286D01*
X164107715Y-93427810D01*
X164107715Y-93046857D01*
X164060096Y-92951619D01*
X164012477Y-92904000D01*
X163917239Y-92856381D01*
X163726762Y-92856381D01*
X163631524Y-92904000D01*
X163583905Y-92951619D01*
X163536286Y-93046857D01*
X163536286Y-93284952D01*
X163583905Y-93380190D01*
X163631524Y-93427810D01*
X163726762Y-93475429D01*
X163917239Y-93475429D01*
X164012477Y-93427810D01*
X164060096Y-93380190D01*
X164107715Y-93284952D01*
X139057143Y-97802381D02*
X138723809Y-97326190D01*
X138485714Y-97802381D02*
X138485714Y-96802381D01*
X138866667Y-96802381D01*
X138961905Y-96850000D01*
X139009524Y-96897619D01*
X139057143Y-96992857D01*
X139057143Y-97135714D01*
X139009524Y-97230952D01*
X138961905Y-97278571D01*
X138866667Y-97326190D01*
X138485714Y-97326190D01*
X140009524Y-97802381D02*
X139438095Y-97802381D01*
X139723809Y-97802381D02*
X139723809Y-96802381D01*
X139628571Y-96945238D01*
X139533333Y-97040476D01*
X139438095Y-97088095D01*
X140628571Y-96802381D02*
X140723810Y-96802381D01*
X140819048Y-96850000D01*
X140866667Y-96897619D01*
X140914286Y-96992857D01*
X140961905Y-97183333D01*
X140961905Y-97421429D01*
X140914286Y-97611905D01*
X140866667Y-97707143D01*
X140819048Y-97754762D01*
X140723810Y-97802381D01*
X140628571Y-97802381D01*
X140533333Y-97754762D01*
X140485714Y-97707143D01*
X140438095Y-97611905D01*
X140390476Y-97421429D01*
X140390476Y-97183333D01*
X140438095Y-96992857D01*
X140485714Y-96897619D01*
X140533333Y-96850000D01*
X140628571Y-96802381D01*
X151768381Y-91066857D02*
X151292190Y-91400191D01*
X151768381Y-91638286D02*
X150768381Y-91638286D01*
X150768381Y-91257333D01*
X150816000Y-91162095D01*
X150863619Y-91114476D01*
X150958857Y-91066857D01*
X151101714Y-91066857D01*
X151196952Y-91114476D01*
X151244571Y-91162095D01*
X151292190Y-91257333D01*
X151292190Y-91638286D01*
X151768381Y-90114476D02*
X151768381Y-90685905D01*
X151768381Y-90400191D02*
X150768381Y-90400191D01*
X150911238Y-90495429D01*
X151006476Y-90590667D01*
X151054095Y-90685905D01*
X151768381Y-89162095D02*
X151768381Y-89733524D01*
X151768381Y-89447810D02*
X150768381Y-89447810D01*
X150911238Y-89543048D01*
X151006476Y-89638286D01*
X151054095Y-89733524D01*
X142105143Y-105422381D02*
X141771809Y-104946190D01*
X141533714Y-105422381D02*
X141533714Y-104422381D01*
X141914667Y-104422381D01*
X142009905Y-104470000D01*
X142057524Y-104517619D01*
X142105143Y-104612857D01*
X142105143Y-104755714D01*
X142057524Y-104850952D01*
X142009905Y-104898571D01*
X141914667Y-104946190D01*
X141533714Y-104946190D01*
X143057524Y-105422381D02*
X142486095Y-105422381D01*
X142771809Y-105422381D02*
X142771809Y-104422381D01*
X142676571Y-104565238D01*
X142581333Y-104660476D01*
X142486095Y-104708095D01*
X143438476Y-104517619D02*
X143486095Y-104470000D01*
X143581333Y-104422381D01*
X143819429Y-104422381D01*
X143914667Y-104470000D01*
X143962286Y-104517619D01*
X144009905Y-104612857D01*
X144009905Y-104708095D01*
X143962286Y-104850952D01*
X143390857Y-105422381D01*
X144009905Y-105422381D01*
X162679143Y-97158381D02*
X162345809Y-96682190D01*
X162107714Y-97158381D02*
X162107714Y-96158381D01*
X162488667Y-96158381D01*
X162583905Y-96206000D01*
X162631524Y-96253619D01*
X162679143Y-96348857D01*
X162679143Y-96491714D01*
X162631524Y-96586952D01*
X162583905Y-96634571D01*
X162488667Y-96682190D01*
X162107714Y-96682190D01*
X163631524Y-97158381D02*
X163060095Y-97158381D01*
X163345809Y-97158381D02*
X163345809Y-96158381D01*
X163250571Y-96301238D01*
X163155333Y-96396476D01*
X163060095Y-96444095D01*
X163964857Y-96158381D02*
X164583905Y-96158381D01*
X164250571Y-96539333D01*
X164393429Y-96539333D01*
X164488667Y-96586952D01*
X164536286Y-96634571D01*
X164583905Y-96729810D01*
X164583905Y-96967905D01*
X164536286Y-97063143D01*
X164488667Y-97110762D01*
X164393429Y-97158381D01*
X164107714Y-97158381D01*
X164012476Y-97110762D01*
X163964857Y-97063143D01*
X143629143Y-96278381D02*
X143295809Y-95802190D01*
X143057714Y-96278381D02*
X143057714Y-95278381D01*
X143438667Y-95278381D01*
X143533905Y-95326000D01*
X143581524Y-95373619D01*
X143629143Y-95468857D01*
X143629143Y-95611714D01*
X143581524Y-95706952D01*
X143533905Y-95754571D01*
X143438667Y-95802190D01*
X143057714Y-95802190D01*
X144581524Y-96278381D02*
X144010095Y-96278381D01*
X144295809Y-96278381D02*
X144295809Y-95278381D01*
X144200571Y-95421238D01*
X144105333Y-95516476D01*
X144010095Y-95564095D01*
X145438667Y-95611714D02*
X145438667Y-96278381D01*
X145200571Y-95230762D02*
X144962476Y-95945048D01*
X145581524Y-95945048D01*
X154308381Y-91066857D02*
X153832190Y-91400191D01*
X154308381Y-91638286D02*
X153308381Y-91638286D01*
X153308381Y-91257333D01*
X153356000Y-91162095D01*
X153403619Y-91114476D01*
X153498857Y-91066857D01*
X153641714Y-91066857D01*
X153736952Y-91114476D01*
X153784571Y-91162095D01*
X153832190Y-91257333D01*
X153832190Y-91638286D01*
X154308381Y-90114476D02*
X154308381Y-90685905D01*
X154308381Y-90400191D02*
X153308381Y-90400191D01*
X153451238Y-90495429D01*
X153546476Y-90590667D01*
X153594095Y-90685905D01*
X153308381Y-89209714D02*
X153308381Y-89685905D01*
X153784571Y-89733524D01*
X153736952Y-89685905D01*
X153689333Y-89590667D01*
X153689333Y-89352571D01*
X153736952Y-89257333D01*
X153784571Y-89209714D01*
X153879810Y-89162095D01*
X154117905Y-89162095D01*
X154213143Y-89209714D01*
X154260762Y-89257333D01*
X154308381Y-89352571D01*
X154308381Y-89590667D01*
X154260762Y-89685905D01*
X154213143Y-89733524D01*
X142105143Y-103136381D02*
X141771809Y-102660190D01*
X141533714Y-103136381D02*
X141533714Y-102136381D01*
X141914667Y-102136381D01*
X142009905Y-102184000D01*
X142057524Y-102231619D01*
X142105143Y-102326857D01*
X142105143Y-102469714D01*
X142057524Y-102564952D01*
X142009905Y-102612571D01*
X141914667Y-102660190D01*
X141533714Y-102660190D01*
X143057524Y-103136381D02*
X142486095Y-103136381D01*
X142771809Y-103136381D02*
X142771809Y-102136381D01*
X142676571Y-102279238D01*
X142581333Y-102374476D01*
X142486095Y-102422095D01*
X143914667Y-102136381D02*
X143724190Y-102136381D01*
X143628952Y-102184000D01*
X143581333Y-102231619D01*
X143486095Y-102374476D01*
X143438476Y-102564952D01*
X143438476Y-102945905D01*
X143486095Y-103041143D01*
X143533714Y-103088762D01*
X143628952Y-103136381D01*
X143819429Y-103136381D01*
X143914667Y-103088762D01*
X143962286Y-103041143D01*
X144009905Y-102945905D01*
X144009905Y-102707810D01*
X143962286Y-102612571D01*
X143914667Y-102564952D01*
X143819429Y-102517333D01*
X143628952Y-102517333D01*
X143533714Y-102564952D01*
X143486095Y-102612571D01*
X143438476Y-102707810D01*
X165484381Y-118244857D02*
X165008190Y-118578191D01*
X165484381Y-118816286D02*
X164484381Y-118816286D01*
X164484381Y-118435333D01*
X164532000Y-118340095D01*
X164579619Y-118292476D01*
X164674857Y-118244857D01*
X164817714Y-118244857D01*
X164912952Y-118292476D01*
X164960571Y-118340095D01*
X165008190Y-118435333D01*
X165008190Y-118816286D01*
X165484381Y-117292476D02*
X165484381Y-117863905D01*
X165484381Y-117578191D02*
X164484381Y-117578191D01*
X164627238Y-117673429D01*
X164722476Y-117768667D01*
X164770095Y-117863905D01*
X164484381Y-116959143D02*
X164484381Y-116292476D01*
X165484381Y-116721048D01*
X173306762Y-111823333D02*
X173354381Y-111680476D01*
X173354381Y-111442380D01*
X173306762Y-111347142D01*
X173259143Y-111299523D01*
X173163905Y-111251904D01*
X173068667Y-111251904D01*
X172973429Y-111299523D01*
X172925810Y-111347142D01*
X172878190Y-111442380D01*
X172830571Y-111632857D01*
X172782952Y-111728095D01*
X172735333Y-111775714D01*
X172640095Y-111823333D01*
X172544857Y-111823333D01*
X172449619Y-111775714D01*
X172402000Y-111728095D01*
X172354381Y-111632857D01*
X172354381Y-111394761D01*
X172402000Y-111251904D01*
X172354381Y-110918571D02*
X173354381Y-110680476D01*
X172640095Y-110489999D01*
X173354381Y-110299523D01*
X172354381Y-110061428D01*
X173354381Y-109156666D02*
X173354381Y-109728095D01*
X173354381Y-109442381D02*
X172354381Y-109442381D01*
X172497238Y-109537619D01*
X172592476Y-109632857D01*
X172640095Y-109728095D01*
X152400095Y-94872381D02*
X152400095Y-95681905D01*
X152447714Y-95777143D01*
X152495333Y-95824762D01*
X152590571Y-95872381D01*
X152781048Y-95872381D01*
X152876286Y-95824762D01*
X152923905Y-95777143D01*
X152971524Y-95681905D01*
X152971524Y-94872381D01*
X153971524Y-95872381D02*
X153400095Y-95872381D01*
X153685809Y-95872381D02*
X153685809Y-94872381D01*
X153590571Y-95015238D01*
X153495333Y-95110476D01*
X153400095Y-95158095D01*
X151828667Y-91630381D02*
X151495333Y-91154190D01*
X151257238Y-91630381D02*
X151257238Y-90630381D01*
X151638191Y-90630381D01*
X151733429Y-90678000D01*
X151781048Y-90725619D01*
X151828667Y-90820857D01*
X151828667Y-90963714D01*
X151781048Y-91058952D01*
X151733429Y-91106571D01*
X151638191Y-91154190D01*
X151257238Y-91154190D01*
X152257238Y-91106571D02*
X152590572Y-91106571D01*
X152733429Y-91630381D02*
X152257238Y-91630381D01*
X152257238Y-90630381D01*
X152733429Y-90630381D01*
X153495334Y-91106571D02*
X153162000Y-91106571D01*
X153162000Y-91630381D02*
X153162000Y-90630381D01*
X153638191Y-90630381D01*
X154162000Y-90630381D02*
X154162000Y-90868476D01*
X153923905Y-90773238D02*
X154162000Y-90868476D01*
X154400096Y-90773238D01*
X154019143Y-91058952D02*
X154162000Y-90868476D01*
X154304858Y-91058952D01*
X154923905Y-90630381D02*
X154923905Y-90868476D01*
X154685810Y-90773238D02*
X154923905Y-90868476D01*
X155162001Y-90773238D01*
X154781048Y-91058952D02*
X154923905Y-90868476D01*
X155066763Y-91058952D01*
X155130667Y-56988381D02*
X154797333Y-56512190D01*
X154559238Y-56988381D02*
X154559238Y-55988381D01*
X154940191Y-55988381D01*
X155035429Y-56036000D01*
X155083048Y-56083619D01*
X155130667Y-56178857D01*
X155130667Y-56321714D01*
X155083048Y-56416952D01*
X155035429Y-56464571D01*
X154940191Y-56512190D01*
X154559238Y-56512190D01*
X155559238Y-56464571D02*
X155892572Y-56464571D01*
X156035429Y-56988381D02*
X155559238Y-56988381D01*
X155559238Y-55988381D01*
X156035429Y-55988381D01*
X156797334Y-56464571D02*
X156464000Y-56464571D01*
X156464000Y-56988381D02*
X156464000Y-55988381D01*
X156940191Y-55988381D01*
X157464000Y-55988381D02*
X157464000Y-56226476D01*
X157225905Y-56131238D02*
X157464000Y-56226476D01*
X157702096Y-56131238D01*
X157321143Y-56416952D02*
X157464000Y-56226476D01*
X157606858Y-56416952D01*
X158225905Y-55988381D02*
X158225905Y-56226476D01*
X157987810Y-56131238D02*
X158225905Y-56226476D01*
X158464001Y-56131238D01*
X158083048Y-56416952D02*
X158225905Y-56226476D01*
X158368763Y-56416952D01*
M02*
