G04 #@! TF.FileFunction,Profile,NP*
%FSLAX46Y46*%
G04 Gerber Fmt 4.6, Leading zero omitted, Abs format (unit mm)*
G04 Created by KiCad (PCBNEW 4.0.4-snap1-stable) date Wed May  1 15:14:01 2019*
%MOMM*%
%LPD*%
G01*
G04 APERTURE LIST*
%ADD10C,0.100000*%
G04 APERTURE END LIST*
D10*
X133547886Y-132282309D02*
G75*
G02X137565675Y-138776361I-10983643J-11285349D01*
G01*
X130153180Y-128978359D02*
X133547886Y-132282310D01*
X130153180Y-128978358D02*
G75*
G02X128650954Y-114020018I8149154J8373000D01*
G01*
X130326493Y-111564371D02*
X128650954Y-114020018D01*
X130326493Y-111564371D02*
G75*
G02X140287506Y-105142198I12588758J-8589574D01*
G01*
X145291422Y-104266283D02*
X140287506Y-105142198D01*
X139453897Y-95950702D02*
X145291422Y-104266283D01*
X147435724Y-97485243D02*
X139453897Y-95950702D01*
X144414521Y-89394950D02*
X147435724Y-97485243D01*
X153368304Y-96083205D02*
X144414521Y-89394950D01*
X154555138Y-93378087D02*
X153368304Y-96083205D01*
X156219928Y-83827709D02*
G75*
G02X154555138Y-93378087I-20272647J-1386430D01*
G01*
X155803998Y-77745915D02*
X156219928Y-83827709D01*
X160403320Y-77446088D02*
X155803998Y-77745915D01*
X159165528Y-85479285D02*
X160403320Y-77446088D01*
X159165528Y-85479284D02*
G75*
G02X157669205Y-93506865I-128531153J19804672D01*
G01*
X157023953Y-96451989D02*
X157669205Y-93506865D01*
X171308980Y-89823452D02*
X157023953Y-96451989D01*
X164037781Y-97629596D02*
X171308980Y-89823452D01*
X173668315Y-96986222D02*
X164037781Y-97629596D01*
X162622032Y-105116923D02*
X173668315Y-96986222D01*
X169664291Y-109175367D02*
X162622032Y-105116923D01*
X169664291Y-109175367D02*
G75*
G02X175196489Y-133067286I-8370541J-14524660D01*
G01*
X160152102Y-155395927D02*
X175196489Y-133067286D01*
X160152102Y-155395927D02*
G75*
G02X142047856Y-152809959I-8425902J5677127D01*
G01*
X137565675Y-138776361D02*
X142047856Y-152809959D01*
M02*
