G04 #@! TF.FileFunction,Soldermask,Top*
%FSLAX46Y46*%
G04 Gerber Fmt 4.6, Leading zero omitted, Abs format (unit mm)*
G04 Created by KiCad (PCBNEW 4.0.4-snap1-stable) date Wed Apr 17 18:01:07 2019*
%MOMM*%
%LPD*%
G01*
G04 APERTURE LIST*
%ADD10C,0.100000*%
%ADD11R,0.950000X1.900000*%
%ADD12R,1.900000X0.950000*%
%ADD13C,4.200000*%
%ADD14C,10.400000*%
%ADD15C,18.180000*%
%ADD16R,5.480000X2.940000*%
%ADD17R,1.924000X1.924000*%
%ADD18R,1.300000X1.600000*%
%ADD19R,2.900000X1.600000*%
%ADD20R,1.150000X1.600000*%
%ADD21R,3.150000X1.400000*%
%ADD22R,0.900000X0.700000*%
%ADD23R,0.700000X0.900000*%
%ADD24R,1.197560X1.197560*%
G04 APERTURE END LIST*
D10*
D11*
X151320000Y-114696000D03*
X150520000Y-114696000D03*
X149720000Y-114696000D03*
X148920000Y-114696000D03*
X148120000Y-114696000D03*
X147320000Y-114696000D03*
X146520000Y-114696000D03*
X145720000Y-114696000D03*
X144920000Y-114696000D03*
X144120000Y-114696000D03*
X143320000Y-114696000D03*
D12*
X141620000Y-116396000D03*
X141620000Y-117196000D03*
X141620000Y-117996000D03*
X141620000Y-118796000D03*
X141620000Y-119596000D03*
X141620000Y-120396000D03*
X141620000Y-121196000D03*
X141620000Y-121996000D03*
X141620000Y-122796000D03*
X141620000Y-123596000D03*
X141620000Y-124396000D03*
D11*
X143320000Y-126096000D03*
X144120000Y-126096000D03*
X144920000Y-126096000D03*
X145720000Y-126096000D03*
X146520000Y-126096000D03*
X147320000Y-126096000D03*
X148120000Y-126096000D03*
X148920000Y-126096000D03*
X149720000Y-126096000D03*
X150520000Y-126096000D03*
X151320000Y-126096000D03*
D12*
X153020000Y-124396000D03*
X153020000Y-123596000D03*
X153020000Y-122796000D03*
X153020000Y-121996000D03*
X153020000Y-121196000D03*
X153020000Y-120396000D03*
X153020000Y-119596000D03*
X153020000Y-118796000D03*
X153020000Y-117996000D03*
X153020000Y-117196000D03*
X153020000Y-116396000D03*
D13*
X158013400Y-79781400D03*
D14*
X154965400Y-101523800D03*
D15*
X150972520Y-145232120D03*
D16*
X150972520Y-133802120D03*
X150972520Y-156662120D03*
D17*
X131572000Y-125984000D03*
X131572000Y-123444000D03*
X131572000Y-120904000D03*
X131572000Y-118364000D03*
X131572000Y-115824000D03*
X131572000Y-113284000D03*
D18*
X135128000Y-123868000D03*
X135128000Y-126068000D03*
D19*
X170712000Y-121372000D03*
X173712000Y-121372000D03*
X170712000Y-118872000D03*
X173712000Y-118872000D03*
X170712000Y-116372000D03*
X173712000Y-116372000D03*
D20*
X146304000Y-128082000D03*
X146304000Y-129982000D03*
X144272000Y-128082000D03*
X144272000Y-129982000D03*
D18*
X146812000Y-110320000D03*
X146812000Y-108120000D03*
D21*
X137841000Y-107728000D03*
X143591000Y-107728000D03*
X143591000Y-111728000D03*
X137841000Y-111728000D03*
D22*
X148660000Y-109228000D03*
X148660000Y-110228000D03*
X149460000Y-109228000D03*
X149460000Y-110228000D03*
X150260000Y-109228000D03*
X150260000Y-110228000D03*
X151060000Y-109228000D03*
X151060000Y-110228000D03*
D23*
X159012000Y-119056000D03*
X160012000Y-119056000D03*
X159012000Y-118256000D03*
X160012000Y-118256000D03*
X159012000Y-117456000D03*
X160012000Y-117456000D03*
X159012000Y-116656000D03*
X160012000Y-116656000D03*
X156472000Y-114992000D03*
X157472000Y-114992000D03*
X156472000Y-114192000D03*
X157472000Y-114192000D03*
X156472000Y-113392000D03*
X157472000Y-113392000D03*
X156472000Y-112592000D03*
X157472000Y-112592000D03*
D22*
X152216000Y-128532000D03*
X152216000Y-129532000D03*
X153016000Y-128532000D03*
X153016000Y-129532000D03*
X153816000Y-128532000D03*
X153816000Y-129532000D03*
X154616000Y-128532000D03*
X154616000Y-129532000D03*
D24*
X138684000Y-125717300D03*
X138684000Y-124218700D03*
M02*
