G04 #@! TF.FileFunction,Legend,Bot*
%FSLAX46Y46*%
G04 Gerber Fmt 4.6, Leading zero omitted, Abs format (unit mm)*
G04 Created by KiCad (PCBNEW 4.0.4-snap1-stable) date Mon Feb 25 19:09:27 2019*
%MOMM*%
%LPD*%
G01*
G04 APERTURE LIST*
%ADD10C,0.100000*%
%ADD11C,0.300000*%
%ADD12C,0.150000*%
G04 APERTURE END LIST*
D10*
D11*
X158558857Y-80938857D02*
X158416000Y-80796000D01*
X158130286Y-80653143D01*
X157416000Y-80653143D01*
X157130286Y-80796000D01*
X156987429Y-80938857D01*
X156844572Y-81224571D01*
X156844572Y-81510286D01*
X156987429Y-81938857D01*
X158701715Y-83653143D01*
X156844572Y-83653143D01*
X154987429Y-80653143D02*
X154701714Y-80653143D01*
X154416000Y-80796000D01*
X154273143Y-80938857D01*
X154130286Y-81224571D01*
X153987429Y-81796000D01*
X153987429Y-82510286D01*
X154130286Y-83081714D01*
X154273143Y-83367429D01*
X154416000Y-83510286D01*
X154701714Y-83653143D01*
X154987429Y-83653143D01*
X155273143Y-83510286D01*
X155416000Y-83367429D01*
X155558857Y-83081714D01*
X155701714Y-82510286D01*
X155701714Y-81796000D01*
X155558857Y-81224571D01*
X155416000Y-80938857D01*
X155273143Y-80796000D01*
X154987429Y-80653143D01*
X151130286Y-83653143D02*
X152844571Y-83653143D01*
X151987429Y-83653143D02*
X151987429Y-80653143D01*
X152273143Y-81081714D01*
X152558857Y-81367429D01*
X152844571Y-81510286D01*
X149701714Y-83653143D02*
X149130286Y-83653143D01*
X148844571Y-83510286D01*
X148701714Y-83367429D01*
X148416000Y-82938857D01*
X148273143Y-82367429D01*
X148273143Y-81224571D01*
X148416000Y-80938857D01*
X148558857Y-80796000D01*
X148844571Y-80653143D01*
X149416000Y-80653143D01*
X149701714Y-80796000D01*
X149844571Y-80938857D01*
X149987428Y-81224571D01*
X149987428Y-81938857D01*
X149844571Y-82224571D01*
X149701714Y-82367429D01*
X149416000Y-82510286D01*
X148844571Y-82510286D01*
X148558857Y-82367429D01*
X148416000Y-82224571D01*
X148273143Y-81938857D01*
X155693714Y-119032571D02*
X155693714Y-117532571D01*
X155193714Y-118604000D01*
X154693714Y-117532571D01*
X154693714Y-119032571D01*
X153336571Y-118032571D02*
X153336571Y-119032571D01*
X153979428Y-118032571D02*
X153979428Y-118818286D01*
X153908000Y-118961143D01*
X153765142Y-119032571D01*
X153550857Y-119032571D01*
X153408000Y-118961143D01*
X153336571Y-118889714D01*
X152693714Y-118961143D02*
X152550857Y-119032571D01*
X152265142Y-119032571D01*
X152122285Y-118961143D01*
X152050857Y-118818286D01*
X152050857Y-118746857D01*
X152122285Y-118604000D01*
X152265142Y-118532571D01*
X152479428Y-118532571D01*
X152622285Y-118461143D01*
X152693714Y-118318286D01*
X152693714Y-118246857D01*
X152622285Y-118104000D01*
X152479428Y-118032571D01*
X152265142Y-118032571D01*
X152122285Y-118104000D01*
X151407999Y-119032571D02*
X151407999Y-118032571D01*
X151407999Y-117532571D02*
X151479428Y-117604000D01*
X151407999Y-117675429D01*
X151336571Y-117604000D01*
X151407999Y-117532571D01*
X151407999Y-117675429D01*
X150050856Y-118961143D02*
X150193713Y-119032571D01*
X150479427Y-119032571D01*
X150622285Y-118961143D01*
X150693713Y-118889714D01*
X150765142Y-118746857D01*
X150765142Y-118318286D01*
X150693713Y-118175429D01*
X150622285Y-118104000D01*
X150479427Y-118032571D01*
X150193713Y-118032571D01*
X150050856Y-118104000D01*
X155336571Y-121582571D02*
X155336571Y-120582571D01*
X155336571Y-120082571D02*
X155408000Y-120154000D01*
X155336571Y-120225429D01*
X155265143Y-120154000D01*
X155336571Y-120082571D01*
X155336571Y-120225429D01*
X154622285Y-120582571D02*
X154622285Y-121582571D01*
X154622285Y-120725429D02*
X154550857Y-120654000D01*
X154407999Y-120582571D01*
X154193714Y-120582571D01*
X154050857Y-120654000D01*
X153979428Y-120796857D01*
X153979428Y-121582571D01*
X152336571Y-120582571D02*
X151765142Y-120582571D01*
X152122285Y-120082571D02*
X152122285Y-121368286D01*
X152050857Y-121511143D01*
X151907999Y-121582571D01*
X151765142Y-121582571D01*
X151265142Y-121582571D02*
X151265142Y-120082571D01*
X150622285Y-121582571D02*
X150622285Y-120796857D01*
X150693714Y-120654000D01*
X150836571Y-120582571D01*
X151050856Y-120582571D01*
X151193714Y-120654000D01*
X151265142Y-120725429D01*
X149336571Y-121511143D02*
X149479428Y-121582571D01*
X149765142Y-121582571D01*
X149907999Y-121511143D01*
X149979428Y-121368286D01*
X149979428Y-120796857D01*
X149907999Y-120654000D01*
X149765142Y-120582571D01*
X149479428Y-120582571D01*
X149336571Y-120654000D01*
X149265142Y-120796857D01*
X149265142Y-120939714D01*
X149979428Y-121082571D01*
X157050858Y-124132571D02*
X157050858Y-122632571D01*
X156550858Y-123704000D01*
X156050858Y-122632571D01*
X156050858Y-124132571D01*
X155122286Y-124132571D02*
X155265144Y-124061143D01*
X155336572Y-123989714D01*
X155408001Y-123846857D01*
X155408001Y-123418286D01*
X155336572Y-123275429D01*
X155265144Y-123204000D01*
X155122286Y-123132571D01*
X154908001Y-123132571D01*
X154765144Y-123204000D01*
X154693715Y-123275429D01*
X154622286Y-123418286D01*
X154622286Y-123846857D01*
X154693715Y-123989714D01*
X154765144Y-124061143D01*
X154908001Y-124132571D01*
X155122286Y-124132571D01*
X153336572Y-123132571D02*
X153336572Y-124132571D01*
X153979429Y-123132571D02*
X153979429Y-123918286D01*
X153908001Y-124061143D01*
X153765143Y-124132571D01*
X153550858Y-124132571D01*
X153408001Y-124061143D01*
X153336572Y-123989714D01*
X152622286Y-123132571D02*
X152622286Y-124132571D01*
X152622286Y-123275429D02*
X152550858Y-123204000D01*
X152408000Y-123132571D01*
X152193715Y-123132571D01*
X152050858Y-123204000D01*
X151979429Y-123346857D01*
X151979429Y-124132571D01*
X151479429Y-123132571D02*
X150908000Y-123132571D01*
X151265143Y-122632571D02*
X151265143Y-123918286D01*
X151193715Y-124061143D01*
X151050857Y-124132571D01*
X150908000Y-124132571D01*
X149765143Y-124132571D02*
X149765143Y-123346857D01*
X149836572Y-123204000D01*
X149979429Y-123132571D01*
X150265143Y-123132571D01*
X150408000Y-123204000D01*
X149765143Y-124061143D02*
X149908000Y-124132571D01*
X150265143Y-124132571D01*
X150408000Y-124061143D01*
X150479429Y-123918286D01*
X150479429Y-123775429D01*
X150408000Y-123632571D01*
X150265143Y-123561143D01*
X149908000Y-123561143D01*
X149765143Y-123489714D01*
X149050857Y-124132571D02*
X149050857Y-123132571D01*
X149050857Y-122632571D02*
X149122286Y-122704000D01*
X149050857Y-122775429D01*
X148979429Y-122704000D01*
X149050857Y-122632571D01*
X149050857Y-122775429D01*
X148336571Y-123132571D02*
X148336571Y-124132571D01*
X148336571Y-123275429D02*
X148265143Y-123204000D01*
X148122285Y-123132571D01*
X147908000Y-123132571D01*
X147765143Y-123204000D01*
X147693714Y-123346857D01*
X147693714Y-124132571D01*
X147050857Y-124061143D02*
X146908000Y-124132571D01*
X146622285Y-124132571D01*
X146479428Y-124061143D01*
X146408000Y-123918286D01*
X146408000Y-123846857D01*
X146479428Y-123704000D01*
X146622285Y-123632571D01*
X146836571Y-123632571D01*
X146979428Y-123561143D01*
X147050857Y-123418286D01*
X147050857Y-123346857D01*
X146979428Y-123204000D01*
X146836571Y-123132571D01*
X146622285Y-123132571D01*
X146479428Y-123204000D01*
X160344571Y-104941714D02*
X161344571Y-104941714D01*
X161344571Y-106513143D02*
X161344571Y-103513143D01*
X159916000Y-103513143D01*
X157630285Y-106370286D02*
X157915999Y-106513143D01*
X158487428Y-106513143D01*
X158773142Y-106370286D01*
X158915999Y-106084571D01*
X158915999Y-104941714D01*
X158773142Y-104656000D01*
X158487428Y-104513143D01*
X157915999Y-104513143D01*
X157630285Y-104656000D01*
X157487428Y-104941714D01*
X157487428Y-105227429D01*
X158915999Y-105513143D01*
X156344570Y-106370286D02*
X156058856Y-106513143D01*
X155487428Y-106513143D01*
X155201713Y-106370286D01*
X155058856Y-106084571D01*
X155058856Y-105941714D01*
X155201713Y-105656000D01*
X155487428Y-105513143D01*
X155915999Y-105513143D01*
X156201713Y-105370286D01*
X156344570Y-105084571D01*
X156344570Y-104941714D01*
X156201713Y-104656000D01*
X155915999Y-104513143D01*
X155487428Y-104513143D01*
X155201713Y-104656000D01*
X154201714Y-104513143D02*
X153058857Y-104513143D01*
X153773142Y-103513143D02*
X153773142Y-106084571D01*
X153630285Y-106370286D01*
X153344571Y-106513143D01*
X153058857Y-106513143D01*
X152058856Y-106513143D02*
X152058856Y-104513143D01*
X152058856Y-103513143D02*
X152201713Y-103656000D01*
X152058856Y-103798857D01*
X151915999Y-103656000D01*
X152058856Y-103513143D01*
X152058856Y-103798857D01*
X150916000Y-104513143D02*
X150201714Y-106513143D01*
X149487428Y-104513143D01*
X147058857Y-106513143D02*
X147058857Y-104941714D01*
X147201714Y-104656000D01*
X147487428Y-104513143D01*
X148058857Y-104513143D01*
X148344571Y-104656000D01*
X147058857Y-106370286D02*
X147344571Y-106513143D01*
X148058857Y-106513143D01*
X148344571Y-106370286D01*
X148487428Y-106084571D01*
X148487428Y-105798857D01*
X148344571Y-105513143D01*
X148058857Y-105370286D01*
X147344571Y-105370286D01*
X147058857Y-105227429D01*
X145201714Y-106513143D02*
X145487428Y-106370286D01*
X145630285Y-106084571D01*
X145630285Y-103513143D01*
X146287428Y-102449143D02*
X146287428Y-99449143D01*
X145287428Y-101592000D01*
X144287428Y-99449143D01*
X144287428Y-102449143D01*
X141573143Y-100449143D02*
X141573143Y-102449143D01*
X142858857Y-100449143D02*
X142858857Y-102020571D01*
X142716000Y-102306286D01*
X142430286Y-102449143D01*
X142001714Y-102449143D01*
X141716000Y-102306286D01*
X141573143Y-102163429D01*
X140287428Y-102306286D02*
X140001714Y-102449143D01*
X139430286Y-102449143D01*
X139144571Y-102306286D01*
X139001714Y-102020571D01*
X139001714Y-101877714D01*
X139144571Y-101592000D01*
X139430286Y-101449143D01*
X139858857Y-101449143D01*
X140144571Y-101306286D01*
X140287428Y-101020571D01*
X140287428Y-100877714D01*
X140144571Y-100592000D01*
X139858857Y-100449143D01*
X139430286Y-100449143D01*
X139144571Y-100592000D01*
X137716000Y-102449143D02*
X137716000Y-100449143D01*
X137716000Y-99449143D02*
X137858857Y-99592000D01*
X137716000Y-99734857D01*
X137573143Y-99592000D01*
X137716000Y-99449143D01*
X137716000Y-99734857D01*
X135001715Y-102306286D02*
X135287429Y-102449143D01*
X135858858Y-102449143D01*
X136144572Y-102306286D01*
X136287429Y-102163429D01*
X136430286Y-101877714D01*
X136430286Y-101020571D01*
X136287429Y-100734857D01*
X136144572Y-100592000D01*
X135858858Y-100449143D01*
X135287429Y-100449143D01*
X135001715Y-100592000D01*
X169710286Y-98750286D02*
X169281715Y-98893143D01*
X168567429Y-98893143D01*
X168281715Y-98750286D01*
X168138858Y-98607429D01*
X167996001Y-98321714D01*
X167996001Y-98036000D01*
X168138858Y-97750286D01*
X168281715Y-97607429D01*
X168567429Y-97464571D01*
X169138858Y-97321714D01*
X169424572Y-97178857D01*
X169567429Y-97036000D01*
X169710286Y-96750286D01*
X169710286Y-96464571D01*
X169567429Y-96178857D01*
X169424572Y-96036000D01*
X169138858Y-95893143D01*
X168424572Y-95893143D01*
X167996001Y-96036000D01*
X167138858Y-96893143D02*
X165996001Y-96893143D01*
X166710286Y-95893143D02*
X166710286Y-98464571D01*
X166567429Y-98750286D01*
X166281715Y-98893143D01*
X165996001Y-98893143D01*
X164996000Y-98893143D02*
X164996000Y-96893143D01*
X164996000Y-97464571D02*
X164853143Y-97178857D01*
X164710286Y-97036000D01*
X164424572Y-96893143D01*
X164138857Y-96893143D01*
X161853143Y-98893143D02*
X161853143Y-97321714D01*
X161996000Y-97036000D01*
X162281714Y-96893143D01*
X162853143Y-96893143D01*
X163138857Y-97036000D01*
X161853143Y-98750286D02*
X162138857Y-98893143D01*
X162853143Y-98893143D01*
X163138857Y-98750286D01*
X163281714Y-98464571D01*
X163281714Y-98178857D01*
X163138857Y-97893143D01*
X162853143Y-97750286D01*
X162138857Y-97750286D01*
X161853143Y-97607429D01*
X160710286Y-96893143D02*
X160138857Y-98893143D01*
X159567428Y-97464571D01*
X158996000Y-98893143D01*
X158424571Y-96893143D01*
X157281714Y-98893143D02*
X157281714Y-95893143D01*
X157281714Y-97036000D02*
X156996000Y-96893143D01*
X156424571Y-96893143D01*
X156138857Y-97036000D01*
X155996000Y-97178857D01*
X155853143Y-97464571D01*
X155853143Y-98321714D01*
X155996000Y-98607429D01*
X156138857Y-98750286D01*
X156424571Y-98893143D01*
X156996000Y-98893143D01*
X157281714Y-98750286D01*
X153424571Y-98750286D02*
X153710285Y-98893143D01*
X154281714Y-98893143D01*
X154567428Y-98750286D01*
X154710285Y-98464571D01*
X154710285Y-97321714D01*
X154567428Y-97036000D01*
X154281714Y-96893143D01*
X153710285Y-96893143D01*
X153424571Y-97036000D01*
X153281714Y-97321714D01*
X153281714Y-97607429D01*
X154710285Y-97893143D01*
X151995999Y-98893143D02*
X151995999Y-96893143D01*
X151995999Y-97464571D02*
X151853142Y-97178857D01*
X151710285Y-97036000D01*
X151424571Y-96893143D01*
X151138856Y-96893143D01*
X150138856Y-98893143D02*
X150138856Y-96893143D01*
X150138856Y-97464571D02*
X149995999Y-97178857D01*
X149853142Y-97036000D01*
X149567428Y-96893143D01*
X149281713Y-96893143D01*
X148567428Y-96893143D02*
X147853142Y-98893143D01*
X147138856Y-96893143D02*
X147853142Y-98893143D01*
X148138856Y-99607429D01*
X148281713Y-99750286D01*
X148567428Y-99893143D01*
D12*
X134544000Y-89928000D02*
X137244000Y-89928000D01*
X134544000Y-91428000D02*
X137244000Y-91428000D01*
X136044000Y-90528000D02*
X136044000Y-90778000D01*
X136044000Y-90778000D02*
X135894000Y-90628000D01*
X135794000Y-91028000D02*
X135794000Y-90328000D01*
X136144000Y-90678000D02*
X136494000Y-90678000D01*
X135794000Y-90678000D02*
X136144000Y-91028000D01*
X136144000Y-91028000D02*
X136144000Y-90328000D01*
X136144000Y-90328000D02*
X135794000Y-90678000D01*
X142672000Y-85864000D02*
X145372000Y-85864000D01*
X142672000Y-87364000D02*
X145372000Y-87364000D01*
X144172000Y-86464000D02*
X144172000Y-86714000D01*
X144172000Y-86714000D02*
X144022000Y-86564000D01*
X143922000Y-86964000D02*
X143922000Y-86264000D01*
X144272000Y-86614000D02*
X144622000Y-86614000D01*
X143922000Y-86614000D02*
X144272000Y-86964000D01*
X144272000Y-86964000D02*
X144272000Y-86264000D01*
X144272000Y-86264000D02*
X143922000Y-86614000D01*
X163144000Y-88126000D02*
X160444000Y-88126000D01*
X163144000Y-86626000D02*
X160444000Y-86626000D01*
X161644000Y-87526000D02*
X161644000Y-87276000D01*
X161644000Y-87276000D02*
X161794000Y-87426000D01*
X161894000Y-87026000D02*
X161894000Y-87726000D01*
X161544000Y-87376000D02*
X161194000Y-87376000D01*
X161894000Y-87376000D02*
X161544000Y-87026000D01*
X161544000Y-87026000D02*
X161544000Y-87726000D01*
X161544000Y-87726000D02*
X161894000Y-87376000D01*
X167970000Y-93714000D02*
X165270000Y-93714000D01*
X167970000Y-92214000D02*
X165270000Y-92214000D01*
X166470000Y-93114000D02*
X166470000Y-92864000D01*
X166470000Y-92864000D02*
X166620000Y-93014000D01*
X166720000Y-92614000D02*
X166720000Y-93314000D01*
X166370000Y-92964000D02*
X166020000Y-92964000D01*
X166720000Y-92964000D02*
X166370000Y-92614000D01*
X166370000Y-92614000D02*
X166370000Y-93314000D01*
X166370000Y-93314000D02*
X166720000Y-92964000D01*
X130734000Y-96024000D02*
X133434000Y-96024000D01*
X130734000Y-97524000D02*
X133434000Y-97524000D01*
X132234000Y-96624000D02*
X132234000Y-96874000D01*
X132234000Y-96874000D02*
X132084000Y-96724000D01*
X131984000Y-97124000D02*
X131984000Y-96424000D01*
X132334000Y-96774000D02*
X132684000Y-96774000D01*
X131984000Y-96774000D02*
X132334000Y-97124000D01*
X132334000Y-97124000D02*
X132334000Y-96424000D01*
X132334000Y-96424000D02*
X131984000Y-96774000D01*
X143078000Y-105652000D02*
X140378000Y-105652000D01*
X143078000Y-104152000D02*
X140378000Y-104152000D01*
X141578000Y-105052000D02*
X141578000Y-104802000D01*
X141578000Y-104802000D02*
X141728000Y-104952000D01*
X141828000Y-104552000D02*
X141828000Y-105252000D01*
X141478000Y-104902000D02*
X141128000Y-104902000D01*
X141828000Y-104902000D02*
X141478000Y-104552000D01*
X141478000Y-104552000D02*
X141478000Y-105252000D01*
X141478000Y-105252000D02*
X141828000Y-104902000D01*
X155016000Y-101842000D02*
X152316000Y-101842000D01*
X155016000Y-100342000D02*
X152316000Y-100342000D01*
X153516000Y-101242000D02*
X153516000Y-100992000D01*
X153516000Y-100992000D02*
X153666000Y-101142000D01*
X153766000Y-100742000D02*
X153766000Y-101442000D01*
X153416000Y-101092000D02*
X153066000Y-101092000D01*
X153766000Y-101092000D02*
X153416000Y-100742000D01*
X153416000Y-100742000D02*
X153416000Y-101442000D01*
X153416000Y-101442000D02*
X153766000Y-101092000D01*
X168478000Y-102604000D02*
X165778000Y-102604000D01*
X168478000Y-101104000D02*
X165778000Y-101104000D01*
X166978000Y-102004000D02*
X166978000Y-101754000D01*
X166978000Y-101754000D02*
X167128000Y-101904000D01*
X167228000Y-101504000D02*
X167228000Y-102204000D01*
X166878000Y-101854000D02*
X166528000Y-101854000D01*
X167228000Y-101854000D02*
X166878000Y-101504000D01*
X166878000Y-101504000D02*
X166878000Y-102204000D01*
X166878000Y-102204000D02*
X167228000Y-101854000D01*
X134544000Y-109994000D02*
X137244000Y-109994000D01*
X134544000Y-111494000D02*
X137244000Y-111494000D01*
X136044000Y-110594000D02*
X136044000Y-110844000D01*
X136044000Y-110844000D02*
X135894000Y-110694000D01*
X135794000Y-111094000D02*
X135794000Y-110394000D01*
X136144000Y-110744000D02*
X136494000Y-110744000D01*
X135794000Y-110744000D02*
X136144000Y-111094000D01*
X136144000Y-111094000D02*
X136144000Y-110394000D01*
X136144000Y-110394000D02*
X135794000Y-110744000D01*
X157810000Y-112510000D02*
X155110000Y-112510000D01*
X157810000Y-111010000D02*
X155110000Y-111010000D01*
X156310000Y-111910000D02*
X156310000Y-111660000D01*
X156310000Y-111660000D02*
X156460000Y-111810000D01*
X156560000Y-111410000D02*
X156560000Y-112110000D01*
X156210000Y-111760000D02*
X155860000Y-111760000D01*
X156560000Y-111760000D02*
X156210000Y-111410000D01*
X156210000Y-111410000D02*
X156210000Y-112110000D01*
X156210000Y-112110000D02*
X156560000Y-111760000D01*
X170002000Y-111240000D02*
X167302000Y-111240000D01*
X170002000Y-109740000D02*
X167302000Y-109740000D01*
X168502000Y-110640000D02*
X168502000Y-110390000D01*
X168502000Y-110390000D02*
X168652000Y-110540000D01*
X168752000Y-110140000D02*
X168752000Y-110840000D01*
X168402000Y-110490000D02*
X168052000Y-110490000D01*
X168752000Y-110490000D02*
X168402000Y-110140000D01*
X168402000Y-110140000D02*
X168402000Y-110840000D01*
X168402000Y-110840000D02*
X168752000Y-110490000D01*
X142824000Y-121146000D02*
X140124000Y-121146000D01*
X142824000Y-119646000D02*
X140124000Y-119646000D01*
X141324000Y-120546000D02*
X141324000Y-120296000D01*
X141324000Y-120296000D02*
X141474000Y-120446000D01*
X141574000Y-120046000D02*
X141574000Y-120746000D01*
X141224000Y-120396000D02*
X140874000Y-120396000D01*
X141574000Y-120396000D02*
X141224000Y-120046000D01*
X141224000Y-120046000D02*
X141224000Y-120746000D01*
X141224000Y-120746000D02*
X141574000Y-120396000D01*
X159944000Y-117106000D02*
X162644000Y-117106000D01*
X159944000Y-118606000D02*
X162644000Y-118606000D01*
X161444000Y-117706000D02*
X161444000Y-117956000D01*
X161444000Y-117956000D02*
X161294000Y-117806000D01*
X161194000Y-118206000D02*
X161194000Y-117506000D01*
X161544000Y-117856000D02*
X161894000Y-117856000D01*
X161194000Y-117856000D02*
X161544000Y-118206000D01*
X161544000Y-118206000D02*
X161544000Y-117506000D01*
X161544000Y-117506000D02*
X161194000Y-117856000D01*
X145466000Y-112788000D02*
X148166000Y-112788000D01*
X145466000Y-114288000D02*
X148166000Y-114288000D01*
X146966000Y-113388000D02*
X146966000Y-113638000D01*
X146966000Y-113638000D02*
X146816000Y-113488000D01*
X146716000Y-113888000D02*
X146716000Y-113188000D01*
X147066000Y-113538000D02*
X147416000Y-113538000D01*
X146716000Y-113538000D02*
X147066000Y-113888000D01*
X147066000Y-113888000D02*
X147066000Y-113188000D01*
X147066000Y-113188000D02*
X146716000Y-113538000D01*
X157912000Y-127774000D02*
X160612000Y-127774000D01*
X157912000Y-129274000D02*
X160612000Y-129274000D01*
X159412000Y-128374000D02*
X159412000Y-128624000D01*
X159412000Y-128624000D02*
X159262000Y-128474000D01*
X159162000Y-128874000D02*
X159162000Y-128174000D01*
X159512000Y-128524000D02*
X159862000Y-128524000D01*
X159162000Y-128524000D02*
X159512000Y-128874000D01*
X159512000Y-128874000D02*
X159512000Y-128174000D01*
X159512000Y-128174000D02*
X159162000Y-128524000D01*
X145466000Y-127012000D02*
X148166000Y-127012000D01*
X145466000Y-128512000D02*
X148166000Y-128512000D01*
X146966000Y-127612000D02*
X146966000Y-127862000D01*
X146966000Y-127862000D02*
X146816000Y-127712000D01*
X146716000Y-128112000D02*
X146716000Y-127412000D01*
X147066000Y-127762000D02*
X147416000Y-127762000D01*
X146716000Y-127762000D02*
X147066000Y-128112000D01*
X147066000Y-128112000D02*
X147066000Y-127412000D01*
X147066000Y-127412000D02*
X146716000Y-127762000D01*
X136882095Y-92880381D02*
X136882095Y-91880381D01*
X136644000Y-91880381D01*
X136501142Y-91928000D01*
X136405904Y-92023238D01*
X136358285Y-92118476D01*
X136310666Y-92308952D01*
X136310666Y-92451810D01*
X136358285Y-92642286D01*
X136405904Y-92737524D01*
X136501142Y-92832762D01*
X136644000Y-92880381D01*
X136882095Y-92880381D01*
X135358285Y-92880381D02*
X135929714Y-92880381D01*
X135644000Y-92880381D02*
X135644000Y-91880381D01*
X135739238Y-92023238D01*
X135834476Y-92118476D01*
X135929714Y-92166095D01*
X145010095Y-88816381D02*
X145010095Y-87816381D01*
X144772000Y-87816381D01*
X144629142Y-87864000D01*
X144533904Y-87959238D01*
X144486285Y-88054476D01*
X144438666Y-88244952D01*
X144438666Y-88387810D01*
X144486285Y-88578286D01*
X144533904Y-88673524D01*
X144629142Y-88768762D01*
X144772000Y-88816381D01*
X145010095Y-88816381D01*
X144057714Y-87911619D02*
X144010095Y-87864000D01*
X143914857Y-87816381D01*
X143676761Y-87816381D01*
X143581523Y-87864000D01*
X143533904Y-87911619D01*
X143486285Y-88006857D01*
X143486285Y-88102095D01*
X143533904Y-88244952D01*
X144105333Y-88816381D01*
X143486285Y-88816381D01*
X162282095Y-86078381D02*
X162282095Y-85078381D01*
X162044000Y-85078381D01*
X161901142Y-85126000D01*
X161805904Y-85221238D01*
X161758285Y-85316476D01*
X161710666Y-85506952D01*
X161710666Y-85649810D01*
X161758285Y-85840286D01*
X161805904Y-85935524D01*
X161901142Y-86030762D01*
X162044000Y-86078381D01*
X162282095Y-86078381D01*
X161377333Y-85078381D02*
X160758285Y-85078381D01*
X161091619Y-85459333D01*
X160948761Y-85459333D01*
X160853523Y-85506952D01*
X160805904Y-85554571D01*
X160758285Y-85649810D01*
X160758285Y-85887905D01*
X160805904Y-85983143D01*
X160853523Y-86030762D01*
X160948761Y-86078381D01*
X161234476Y-86078381D01*
X161329714Y-86030762D01*
X161377333Y-85983143D01*
X167108095Y-91666381D02*
X167108095Y-90666381D01*
X166870000Y-90666381D01*
X166727142Y-90714000D01*
X166631904Y-90809238D01*
X166584285Y-90904476D01*
X166536666Y-91094952D01*
X166536666Y-91237810D01*
X166584285Y-91428286D01*
X166631904Y-91523524D01*
X166727142Y-91618762D01*
X166870000Y-91666381D01*
X167108095Y-91666381D01*
X165679523Y-90999714D02*
X165679523Y-91666381D01*
X165917619Y-90618762D02*
X166155714Y-91333048D01*
X165536666Y-91333048D01*
X133072095Y-98976381D02*
X133072095Y-97976381D01*
X132834000Y-97976381D01*
X132691142Y-98024000D01*
X132595904Y-98119238D01*
X132548285Y-98214476D01*
X132500666Y-98404952D01*
X132500666Y-98547810D01*
X132548285Y-98738286D01*
X132595904Y-98833524D01*
X132691142Y-98928762D01*
X132834000Y-98976381D01*
X133072095Y-98976381D01*
X131595904Y-97976381D02*
X132072095Y-97976381D01*
X132119714Y-98452571D01*
X132072095Y-98404952D01*
X131976857Y-98357333D01*
X131738761Y-98357333D01*
X131643523Y-98404952D01*
X131595904Y-98452571D01*
X131548285Y-98547810D01*
X131548285Y-98785905D01*
X131595904Y-98881143D01*
X131643523Y-98928762D01*
X131738761Y-98976381D01*
X131976857Y-98976381D01*
X132072095Y-98928762D01*
X132119714Y-98881143D01*
X142216095Y-103604381D02*
X142216095Y-102604381D01*
X141978000Y-102604381D01*
X141835142Y-102652000D01*
X141739904Y-102747238D01*
X141692285Y-102842476D01*
X141644666Y-103032952D01*
X141644666Y-103175810D01*
X141692285Y-103366286D01*
X141739904Y-103461524D01*
X141835142Y-103556762D01*
X141978000Y-103604381D01*
X142216095Y-103604381D01*
X140787523Y-102604381D02*
X140978000Y-102604381D01*
X141073238Y-102652000D01*
X141120857Y-102699619D01*
X141216095Y-102842476D01*
X141263714Y-103032952D01*
X141263714Y-103413905D01*
X141216095Y-103509143D01*
X141168476Y-103556762D01*
X141073238Y-103604381D01*
X140882761Y-103604381D01*
X140787523Y-103556762D01*
X140739904Y-103509143D01*
X140692285Y-103413905D01*
X140692285Y-103175810D01*
X140739904Y-103080571D01*
X140787523Y-103032952D01*
X140882761Y-102985333D01*
X141073238Y-102985333D01*
X141168476Y-103032952D01*
X141216095Y-103080571D01*
X141263714Y-103175810D01*
X154154095Y-99794381D02*
X154154095Y-98794381D01*
X153916000Y-98794381D01*
X153773142Y-98842000D01*
X153677904Y-98937238D01*
X153630285Y-99032476D01*
X153582666Y-99222952D01*
X153582666Y-99365810D01*
X153630285Y-99556286D01*
X153677904Y-99651524D01*
X153773142Y-99746762D01*
X153916000Y-99794381D01*
X154154095Y-99794381D01*
X153249333Y-98794381D02*
X152582666Y-98794381D01*
X153011238Y-99794381D01*
X167616095Y-100556381D02*
X167616095Y-99556381D01*
X167378000Y-99556381D01*
X167235142Y-99604000D01*
X167139904Y-99699238D01*
X167092285Y-99794476D01*
X167044666Y-99984952D01*
X167044666Y-100127810D01*
X167092285Y-100318286D01*
X167139904Y-100413524D01*
X167235142Y-100508762D01*
X167378000Y-100556381D01*
X167616095Y-100556381D01*
X166473238Y-99984952D02*
X166568476Y-99937333D01*
X166616095Y-99889714D01*
X166663714Y-99794476D01*
X166663714Y-99746857D01*
X166616095Y-99651619D01*
X166568476Y-99604000D01*
X166473238Y-99556381D01*
X166282761Y-99556381D01*
X166187523Y-99604000D01*
X166139904Y-99651619D01*
X166092285Y-99746857D01*
X166092285Y-99794476D01*
X166139904Y-99889714D01*
X166187523Y-99937333D01*
X166282761Y-99984952D01*
X166473238Y-99984952D01*
X166568476Y-100032571D01*
X166616095Y-100080190D01*
X166663714Y-100175429D01*
X166663714Y-100365905D01*
X166616095Y-100461143D01*
X166568476Y-100508762D01*
X166473238Y-100556381D01*
X166282761Y-100556381D01*
X166187523Y-100508762D01*
X166139904Y-100461143D01*
X166092285Y-100365905D01*
X166092285Y-100175429D01*
X166139904Y-100080190D01*
X166187523Y-100032571D01*
X166282761Y-99984952D01*
X136882095Y-112946381D02*
X136882095Y-111946381D01*
X136644000Y-111946381D01*
X136501142Y-111994000D01*
X136405904Y-112089238D01*
X136358285Y-112184476D01*
X136310666Y-112374952D01*
X136310666Y-112517810D01*
X136358285Y-112708286D01*
X136405904Y-112803524D01*
X136501142Y-112898762D01*
X136644000Y-112946381D01*
X136882095Y-112946381D01*
X135834476Y-112946381D02*
X135644000Y-112946381D01*
X135548761Y-112898762D01*
X135501142Y-112851143D01*
X135405904Y-112708286D01*
X135358285Y-112517810D01*
X135358285Y-112136857D01*
X135405904Y-112041619D01*
X135453523Y-111994000D01*
X135548761Y-111946381D01*
X135739238Y-111946381D01*
X135834476Y-111994000D01*
X135882095Y-112041619D01*
X135929714Y-112136857D01*
X135929714Y-112374952D01*
X135882095Y-112470190D01*
X135834476Y-112517810D01*
X135739238Y-112565429D01*
X135548761Y-112565429D01*
X135453523Y-112517810D01*
X135405904Y-112470190D01*
X135358285Y-112374952D01*
X157424286Y-110462381D02*
X157424286Y-109462381D01*
X157186191Y-109462381D01*
X157043333Y-109510000D01*
X156948095Y-109605238D01*
X156900476Y-109700476D01*
X156852857Y-109890952D01*
X156852857Y-110033810D01*
X156900476Y-110224286D01*
X156948095Y-110319524D01*
X157043333Y-110414762D01*
X157186191Y-110462381D01*
X157424286Y-110462381D01*
X155900476Y-110462381D02*
X156471905Y-110462381D01*
X156186191Y-110462381D02*
X156186191Y-109462381D01*
X156281429Y-109605238D01*
X156376667Y-109700476D01*
X156471905Y-109748095D01*
X155281429Y-109462381D02*
X155186190Y-109462381D01*
X155090952Y-109510000D01*
X155043333Y-109557619D01*
X154995714Y-109652857D01*
X154948095Y-109843333D01*
X154948095Y-110081429D01*
X154995714Y-110271905D01*
X155043333Y-110367143D01*
X155090952Y-110414762D01*
X155186190Y-110462381D01*
X155281429Y-110462381D01*
X155376667Y-110414762D01*
X155424286Y-110367143D01*
X155471905Y-110271905D01*
X155519524Y-110081429D01*
X155519524Y-109843333D01*
X155471905Y-109652857D01*
X155424286Y-109557619D01*
X155376667Y-109510000D01*
X155281429Y-109462381D01*
X169616286Y-109192381D02*
X169616286Y-108192381D01*
X169378191Y-108192381D01*
X169235333Y-108240000D01*
X169140095Y-108335238D01*
X169092476Y-108430476D01*
X169044857Y-108620952D01*
X169044857Y-108763810D01*
X169092476Y-108954286D01*
X169140095Y-109049524D01*
X169235333Y-109144762D01*
X169378191Y-109192381D01*
X169616286Y-109192381D01*
X168092476Y-109192381D02*
X168663905Y-109192381D01*
X168378191Y-109192381D02*
X168378191Y-108192381D01*
X168473429Y-108335238D01*
X168568667Y-108430476D01*
X168663905Y-108478095D01*
X167140095Y-109192381D02*
X167711524Y-109192381D01*
X167425810Y-109192381D02*
X167425810Y-108192381D01*
X167521048Y-108335238D01*
X167616286Y-108430476D01*
X167711524Y-108478095D01*
X142438286Y-119098381D02*
X142438286Y-118098381D01*
X142200191Y-118098381D01*
X142057333Y-118146000D01*
X141962095Y-118241238D01*
X141914476Y-118336476D01*
X141866857Y-118526952D01*
X141866857Y-118669810D01*
X141914476Y-118860286D01*
X141962095Y-118955524D01*
X142057333Y-119050762D01*
X142200191Y-119098381D01*
X142438286Y-119098381D01*
X140914476Y-119098381D02*
X141485905Y-119098381D01*
X141200191Y-119098381D02*
X141200191Y-118098381D01*
X141295429Y-118241238D01*
X141390667Y-118336476D01*
X141485905Y-118384095D01*
X140533524Y-118193619D02*
X140485905Y-118146000D01*
X140390667Y-118098381D01*
X140152571Y-118098381D01*
X140057333Y-118146000D01*
X140009714Y-118193619D01*
X139962095Y-118288857D01*
X139962095Y-118384095D01*
X140009714Y-118526952D01*
X140581143Y-119098381D01*
X139962095Y-119098381D01*
X162758286Y-120058381D02*
X162758286Y-119058381D01*
X162520191Y-119058381D01*
X162377333Y-119106000D01*
X162282095Y-119201238D01*
X162234476Y-119296476D01*
X162186857Y-119486952D01*
X162186857Y-119629810D01*
X162234476Y-119820286D01*
X162282095Y-119915524D01*
X162377333Y-120010762D01*
X162520191Y-120058381D01*
X162758286Y-120058381D01*
X161234476Y-120058381D02*
X161805905Y-120058381D01*
X161520191Y-120058381D02*
X161520191Y-119058381D01*
X161615429Y-119201238D01*
X161710667Y-119296476D01*
X161805905Y-119344095D01*
X160901143Y-119058381D02*
X160282095Y-119058381D01*
X160615429Y-119439333D01*
X160472571Y-119439333D01*
X160377333Y-119486952D01*
X160329714Y-119534571D01*
X160282095Y-119629810D01*
X160282095Y-119867905D01*
X160329714Y-119963143D01*
X160377333Y-120010762D01*
X160472571Y-120058381D01*
X160758286Y-120058381D01*
X160853524Y-120010762D01*
X160901143Y-119963143D01*
X148280286Y-115740381D02*
X148280286Y-114740381D01*
X148042191Y-114740381D01*
X147899333Y-114788000D01*
X147804095Y-114883238D01*
X147756476Y-114978476D01*
X147708857Y-115168952D01*
X147708857Y-115311810D01*
X147756476Y-115502286D01*
X147804095Y-115597524D01*
X147899333Y-115692762D01*
X148042191Y-115740381D01*
X148280286Y-115740381D01*
X146756476Y-115740381D02*
X147327905Y-115740381D01*
X147042191Y-115740381D02*
X147042191Y-114740381D01*
X147137429Y-114883238D01*
X147232667Y-114978476D01*
X147327905Y-115026095D01*
X145899333Y-115073714D02*
X145899333Y-115740381D01*
X146137429Y-114692762D02*
X146375524Y-115407048D01*
X145756476Y-115407048D01*
X160726286Y-130726381D02*
X160726286Y-129726381D01*
X160488191Y-129726381D01*
X160345333Y-129774000D01*
X160250095Y-129869238D01*
X160202476Y-129964476D01*
X160154857Y-130154952D01*
X160154857Y-130297810D01*
X160202476Y-130488286D01*
X160250095Y-130583524D01*
X160345333Y-130678762D01*
X160488191Y-130726381D01*
X160726286Y-130726381D01*
X159202476Y-130726381D02*
X159773905Y-130726381D01*
X159488191Y-130726381D02*
X159488191Y-129726381D01*
X159583429Y-129869238D01*
X159678667Y-129964476D01*
X159773905Y-130012095D01*
X158297714Y-129726381D02*
X158773905Y-129726381D01*
X158821524Y-130202571D01*
X158773905Y-130154952D01*
X158678667Y-130107333D01*
X158440571Y-130107333D01*
X158345333Y-130154952D01*
X158297714Y-130202571D01*
X158250095Y-130297810D01*
X158250095Y-130535905D01*
X158297714Y-130631143D01*
X158345333Y-130678762D01*
X158440571Y-130726381D01*
X158678667Y-130726381D01*
X158773905Y-130678762D01*
X158821524Y-130631143D01*
X148280286Y-129964381D02*
X148280286Y-128964381D01*
X148042191Y-128964381D01*
X147899333Y-129012000D01*
X147804095Y-129107238D01*
X147756476Y-129202476D01*
X147708857Y-129392952D01*
X147708857Y-129535810D01*
X147756476Y-129726286D01*
X147804095Y-129821524D01*
X147899333Y-129916762D01*
X148042191Y-129964381D01*
X148280286Y-129964381D01*
X146756476Y-129964381D02*
X147327905Y-129964381D01*
X147042191Y-129964381D02*
X147042191Y-128964381D01*
X147137429Y-129107238D01*
X147232667Y-129202476D01*
X147327905Y-129250095D01*
X145899333Y-128964381D02*
X146089810Y-128964381D01*
X146185048Y-129012000D01*
X146232667Y-129059619D01*
X146327905Y-129202476D01*
X146375524Y-129392952D01*
X146375524Y-129773905D01*
X146327905Y-129869143D01*
X146280286Y-129916762D01*
X146185048Y-129964381D01*
X145994571Y-129964381D01*
X145899333Y-129916762D01*
X145851714Y-129869143D01*
X145804095Y-129773905D01*
X145804095Y-129535810D01*
X145851714Y-129440571D01*
X145899333Y-129392952D01*
X145994571Y-129345333D01*
X146185048Y-129345333D01*
X146280286Y-129392952D01*
X146327905Y-129440571D01*
X146375524Y-129535810D01*
M02*
