G04 #@! TF.FileFunction,Copper,L2,Bot,Signal*
%FSLAX46Y46*%
G04 Gerber Fmt 4.6, Leading zero omitted, Abs format (unit mm)*
G04 Created by KiCad (PCBNEW 4.0.4-snap1-stable) date Wed May  1 15:14:01 2019*
%MOMM*%
%LPD*%
G01*
G04 APERTURE LIST*
%ADD10C,0.100000*%
%ADD11R,0.797560X0.797560*%
%ADD12C,1.143000*%
%ADD13C,0.600000*%
%ADD14C,0.250000*%
%ADD15C,0.254000*%
G04 APERTURE END LIST*
D10*
D11*
X140982700Y-144272000D03*
X142481300Y-144272000D03*
X174002700Y-125476000D03*
X175501300Y-125476000D03*
X162293300Y-148844000D03*
X160794700Y-148844000D03*
X144716500Y-107670600D03*
X143217900Y-107670600D03*
X143497300Y-137160000D03*
X141998700Y-137160000D03*
X169430700Y-131572000D03*
X170929300Y-131572000D03*
X156197300Y-138176000D03*
X154698700Y-138176000D03*
X163334700Y-107696000D03*
X164833300Y-107696000D03*
X137934700Y-129540000D03*
X139433300Y-129540000D03*
X166382700Y-138176000D03*
X167881300Y-138176000D03*
X155689300Y-133096000D03*
X154190700Y-133096000D03*
X168922700Y-112268000D03*
X170421300Y-112268000D03*
X135877300Y-120904000D03*
X134378700Y-120904000D03*
X162826700Y-143764000D03*
X164325300Y-143764000D03*
X157213300Y-121920000D03*
X155714700Y-121920000D03*
X152158700Y-112776000D03*
X153657300Y-112776000D03*
D12*
X157861000Y-79781400D03*
D13*
X149453600Y-121081800D03*
X169849800Y-137591800D03*
X142570200Y-129413000D03*
X160401000Y-140589000D03*
X129540000Y-120904000D03*
X141224000Y-142748000D03*
X172135800Y-126796800D03*
X162052000Y-147320000D03*
X145262600Y-105537000D03*
X144551400Y-137109200D03*
X168986200Y-130225800D03*
X157988000Y-138176000D03*
X163195000Y-109042200D03*
X137795000Y-130784600D03*
X166319200Y-136829800D03*
X156972000Y-133096000D03*
X168046400Y-112242600D03*
X135966200Y-122199400D03*
X162864800Y-142595600D03*
X158496000Y-121920000D03*
X152577800Y-111328200D03*
D14*
X140982700Y-142989300D02*
X140982700Y-144272000D01*
X141224000Y-142748000D02*
X140982700Y-142989300D01*
X173456600Y-125476000D02*
X174002700Y-125476000D01*
X172135800Y-126796800D02*
X173456600Y-125476000D01*
X162052000Y-148844000D02*
X162560000Y-148844000D01*
X162052000Y-147320000D02*
X162052000Y-148844000D01*
X145211800Y-107670600D02*
X144716500Y-107670600D01*
X145211800Y-105587800D02*
X145211800Y-107670600D01*
X145262600Y-105537000D02*
X145211800Y-105587800D01*
X144500600Y-137160000D02*
X143497300Y-137160000D01*
X144551400Y-137109200D02*
X144500600Y-137160000D01*
X169430700Y-130670300D02*
X169430700Y-131572000D01*
X168986200Y-130225800D02*
X169430700Y-130670300D01*
X157988000Y-138176000D02*
X156197300Y-138176000D01*
X163334700Y-108902500D02*
X163334700Y-107696000D01*
X163195000Y-109042200D02*
X163334700Y-108902500D01*
X137934700Y-130644900D02*
X137934700Y-129540000D01*
X137795000Y-130784600D02*
X137934700Y-130644900D01*
X166382700Y-136893300D02*
X166382700Y-138176000D01*
X166319200Y-136829800D02*
X166382700Y-136893300D01*
X156972000Y-133096000D02*
X155689300Y-133096000D01*
X168071800Y-112268000D02*
X168922700Y-112268000D01*
X168046400Y-112242600D02*
X168071800Y-112268000D01*
X135877300Y-122110500D02*
X135877300Y-120904000D01*
X135966200Y-122199400D02*
X135877300Y-122110500D01*
X135877300Y-121145300D02*
X135877300Y-120904000D01*
X162826700Y-142633700D02*
X162826700Y-143764000D01*
X162864800Y-142595600D02*
X162826700Y-142633700D01*
X158496000Y-121920000D02*
X157213300Y-121920000D01*
X152158700Y-111747300D02*
X152158700Y-112776000D01*
X152577800Y-111328200D02*
X152158700Y-111747300D01*
D15*
G36*
X158490156Y-85364336D02*
X156997771Y-93370784D01*
X156354824Y-96305388D01*
X156353121Y-96393503D01*
X156339550Y-96480581D01*
X156350560Y-96525945D01*
X156349658Y-96572612D01*
X156381802Y-96654668D01*
X156402589Y-96740314D01*
X156430119Y-96778008D01*
X156447145Y-96821472D01*
X156508248Y-96884984D01*
X156560225Y-96956152D01*
X156600086Y-96980443D01*
X156632448Y-97014081D01*
X156713203Y-97049375D01*
X156788459Y-97095236D01*
X156834578Y-97102423D01*
X156877352Y-97121118D01*
X156965467Y-97122821D01*
X157052545Y-97136392D01*
X157097909Y-97125382D01*
X157144576Y-97126284D01*
X157226632Y-97094140D01*
X157312278Y-97073353D01*
X168421350Y-91918523D01*
X163536543Y-97162707D01*
X163530824Y-97171960D01*
X163522204Y-97178592D01*
X163460767Y-97285314D01*
X163396027Y-97390063D01*
X163394285Y-97400798D01*
X163388858Y-97410225D01*
X163372936Y-97532348D01*
X163353212Y-97653885D01*
X163355710Y-97664469D01*
X163354304Y-97675256D01*
X163386328Y-97794172D01*
X163414617Y-97914009D01*
X163420977Y-97922833D01*
X163423805Y-97933335D01*
X163498884Y-98030926D01*
X163570892Y-98130834D01*
X163580145Y-98136553D01*
X163586777Y-98145173D01*
X163693499Y-98206610D01*
X163798248Y-98271350D01*
X163808983Y-98273092D01*
X163818410Y-98278519D01*
X163940533Y-98294441D01*
X164062070Y-98314165D01*
X164072654Y-98311667D01*
X164083441Y-98313073D01*
X171371600Y-97826182D01*
X162215971Y-104565253D01*
X162211089Y-104570601D01*
X162204602Y-104573806D01*
X162121174Y-104669089D01*
X162035766Y-104762640D01*
X162033303Y-104769445D01*
X162028535Y-104774891D01*
X161987919Y-104894854D01*
X161944814Y-105013962D01*
X161945143Y-105021194D01*
X161942822Y-105028049D01*
X161951206Y-105154430D01*
X161956963Y-105280959D01*
X161960034Y-105287513D01*
X161960513Y-105294736D01*
X162016614Y-105408271D01*
X162070362Y-105522984D01*
X162075710Y-105527866D01*
X162078915Y-105534353D01*
X162174198Y-105617781D01*
X162267749Y-105703189D01*
X162274554Y-105705652D01*
X162280000Y-105710420D01*
X164089077Y-106752989D01*
X164074822Y-106758893D01*
X164073030Y-106760685D01*
X163985370Y-106700789D01*
X163733480Y-106649780D01*
X162935920Y-106649780D01*
X162700603Y-106694058D01*
X162484479Y-106833130D01*
X162339489Y-107045330D01*
X162288480Y-107297220D01*
X162288480Y-108094780D01*
X162332758Y-108330097D01*
X162431376Y-108483354D01*
X162402808Y-108511873D01*
X162260162Y-108855401D01*
X162259838Y-109227367D01*
X162401883Y-109571143D01*
X162664673Y-109834392D01*
X163008201Y-109977038D01*
X163380167Y-109977362D01*
X163723943Y-109835317D01*
X163987192Y-109572527D01*
X164129838Y-109228999D01*
X164130162Y-108857033D01*
X164094700Y-108771208D01*
X164094700Y-108641341D01*
X164308211Y-108729780D01*
X164547550Y-108729780D01*
X164706300Y-108571030D01*
X164706300Y-107823000D01*
X164686300Y-107823000D01*
X164686300Y-107569000D01*
X164706300Y-107569000D01*
X164706300Y-107549000D01*
X164960300Y-107549000D01*
X164960300Y-107569000D01*
X164980300Y-107569000D01*
X164980300Y-107823000D01*
X164960300Y-107823000D01*
X164960300Y-108571030D01*
X165119050Y-108729780D01*
X165358389Y-108729780D01*
X165591778Y-108633107D01*
X165770407Y-108454479D01*
X165867080Y-108221090D01*
X165867080Y-107981750D01*
X165708332Y-107823002D01*
X165867080Y-107823002D01*
X165867080Y-107777650D01*
X169263806Y-109735179D01*
X171002317Y-111257386D01*
X170946389Y-111234220D01*
X170707050Y-111234220D01*
X170548300Y-111392970D01*
X170548300Y-112141000D01*
X171296330Y-112141000D01*
X171455080Y-111982250D01*
X171455080Y-111742910D01*
X171397176Y-111603117D01*
X174031709Y-113909865D01*
X176808623Y-119529705D01*
X177223536Y-125784436D01*
X175195119Y-131775491D01*
X174621698Y-132694479D01*
X159621713Y-154957220D01*
X156952398Y-157606027D01*
X153536264Y-159005628D01*
X149844567Y-158991391D01*
X146439329Y-157565487D01*
X143824424Y-154930337D01*
X142685976Y-152556445D01*
X141591527Y-149129750D01*
X159760920Y-149129750D01*
X159760920Y-149369090D01*
X159857593Y-149602479D01*
X160036222Y-149781107D01*
X160269611Y-149877780D01*
X160508950Y-149877780D01*
X160667700Y-149719030D01*
X160667700Y-148971000D01*
X159919670Y-148971000D01*
X159760920Y-149129750D01*
X141591527Y-149129750D01*
X141332554Y-148318910D01*
X159760920Y-148318910D01*
X159760920Y-148558250D01*
X159919670Y-148717000D01*
X160667700Y-148717000D01*
X160667700Y-147968970D01*
X160921700Y-147968970D01*
X160921700Y-148717000D01*
X160941700Y-148717000D01*
X160941700Y-148971000D01*
X160921700Y-148971000D01*
X160921700Y-149719030D01*
X161080450Y-149877780D01*
X161319789Y-149877780D01*
X161553178Y-149781107D01*
X161554970Y-149779315D01*
X161642630Y-149839211D01*
X161894520Y-149890220D01*
X162692080Y-149890220D01*
X162927397Y-149845942D01*
X163143521Y-149706870D01*
X163288511Y-149494670D01*
X163339520Y-149242780D01*
X163339520Y-148445220D01*
X163295242Y-148209903D01*
X163156170Y-147993779D01*
X162943970Y-147848789D01*
X162852520Y-147830270D01*
X162986838Y-147506799D01*
X162987162Y-147134833D01*
X162845117Y-146791057D01*
X162582327Y-146527808D01*
X162238799Y-146385162D01*
X161866833Y-146384838D01*
X161523057Y-146526883D01*
X161259808Y-146789673D01*
X161117162Y-147133201D01*
X161116838Y-147505167D01*
X161242883Y-147810220D01*
X161080450Y-147810220D01*
X160921700Y-147968970D01*
X160667700Y-147968970D01*
X160508950Y-147810220D01*
X160269611Y-147810220D01*
X160036222Y-147906893D01*
X159857593Y-148085521D01*
X159760920Y-148318910D01*
X141332554Y-148318910D01*
X140359660Y-145272806D01*
X140583920Y-145318220D01*
X141381480Y-145318220D01*
X141616797Y-145273942D01*
X141720759Y-145207044D01*
X141722822Y-145209107D01*
X141956211Y-145305780D01*
X142195550Y-145305780D01*
X142354300Y-145147030D01*
X142354300Y-144399000D01*
X142608300Y-144399000D01*
X142608300Y-145147030D01*
X142767050Y-145305780D01*
X143006389Y-145305780D01*
X143239778Y-145209107D01*
X143418407Y-145030479D01*
X143515080Y-144797090D01*
X143515080Y-144557750D01*
X143356330Y-144399000D01*
X142608300Y-144399000D01*
X142354300Y-144399000D01*
X142334300Y-144399000D01*
X142334300Y-144145000D01*
X142354300Y-144145000D01*
X142354300Y-143396970D01*
X142608300Y-143396970D01*
X142608300Y-144145000D01*
X143356330Y-144145000D01*
X143515080Y-143986250D01*
X143515080Y-143746910D01*
X143418407Y-143513521D01*
X143270106Y-143365220D01*
X161780480Y-143365220D01*
X161780480Y-144162780D01*
X161824758Y-144398097D01*
X161963830Y-144614221D01*
X162176030Y-144759211D01*
X162427920Y-144810220D01*
X163225480Y-144810220D01*
X163460797Y-144765942D01*
X163564759Y-144699044D01*
X163566822Y-144701107D01*
X163800211Y-144797780D01*
X164039550Y-144797780D01*
X164198300Y-144639030D01*
X164198300Y-143891000D01*
X164452300Y-143891000D01*
X164452300Y-144639030D01*
X164611050Y-144797780D01*
X164850389Y-144797780D01*
X165083778Y-144701107D01*
X165262407Y-144522479D01*
X165359080Y-144289090D01*
X165359080Y-144049750D01*
X165200330Y-143891000D01*
X164452300Y-143891000D01*
X164198300Y-143891000D01*
X164178300Y-143891000D01*
X164178300Y-143637000D01*
X164198300Y-143637000D01*
X164198300Y-142888970D01*
X164452300Y-142888970D01*
X164452300Y-143637000D01*
X165200330Y-143637000D01*
X165359080Y-143478250D01*
X165359080Y-143238910D01*
X165262407Y-143005521D01*
X165083778Y-142826893D01*
X164850389Y-142730220D01*
X164611050Y-142730220D01*
X164452300Y-142888970D01*
X164198300Y-142888970D01*
X164039550Y-142730220D01*
X163800211Y-142730220D01*
X163799683Y-142730439D01*
X163799962Y-142410433D01*
X163657917Y-142066657D01*
X163395127Y-141803408D01*
X163051599Y-141660762D01*
X162679633Y-141660438D01*
X162335857Y-141802483D01*
X162072608Y-142065273D01*
X161929962Y-142408801D01*
X161929638Y-142780767D01*
X161978763Y-142899660D01*
X161976479Y-142901130D01*
X161831489Y-143113330D01*
X161780480Y-143365220D01*
X143270106Y-143365220D01*
X143239778Y-143334893D01*
X143006389Y-143238220D01*
X142767050Y-143238220D01*
X142608300Y-143396970D01*
X142354300Y-143396970D01*
X142195550Y-143238220D01*
X142032846Y-143238220D01*
X142158838Y-142934799D01*
X142159162Y-142562833D01*
X142017117Y-142219057D01*
X141754327Y-141955808D01*
X141410799Y-141813162D01*
X141038833Y-141812838D01*
X140695057Y-141954883D01*
X140431808Y-142217673D01*
X140289162Y-142561201D01*
X140289054Y-142685738D01*
X140280552Y-142698461D01*
X140222700Y-142989300D01*
X140222700Y-143351074D01*
X140132479Y-143409130D01*
X139987489Y-143621330D01*
X139936480Y-143873220D01*
X139936480Y-143947840D01*
X138218201Y-138567951D01*
X138210029Y-138553186D01*
X138207318Y-138536529D01*
X138179368Y-138461750D01*
X153664920Y-138461750D01*
X153664920Y-138701090D01*
X153761593Y-138934479D01*
X153940222Y-139113107D01*
X154173611Y-139209780D01*
X154412950Y-139209780D01*
X154571700Y-139051030D01*
X154571700Y-138303000D01*
X153823670Y-138303000D01*
X153664920Y-138461750D01*
X138179368Y-138461750D01*
X137799610Y-137445750D01*
X140964920Y-137445750D01*
X140964920Y-137685090D01*
X141061593Y-137918479D01*
X141240222Y-138097107D01*
X141473611Y-138193780D01*
X141712950Y-138193780D01*
X141871700Y-138035030D01*
X141871700Y-137287000D01*
X141123670Y-137287000D01*
X140964920Y-137445750D01*
X137799610Y-137445750D01*
X137672164Y-137104783D01*
X137628024Y-137033439D01*
X137594870Y-136956368D01*
X137373722Y-136634910D01*
X140964920Y-136634910D01*
X140964920Y-136874250D01*
X141123670Y-137033000D01*
X141871700Y-137033000D01*
X141871700Y-136284970D01*
X142125700Y-136284970D01*
X142125700Y-137033000D01*
X142145700Y-137033000D01*
X142145700Y-137287000D01*
X142125700Y-137287000D01*
X142125700Y-138035030D01*
X142284450Y-138193780D01*
X142523789Y-138193780D01*
X142757178Y-138097107D01*
X142758970Y-138095315D01*
X142846630Y-138155211D01*
X143098520Y-138206220D01*
X143896080Y-138206220D01*
X144131397Y-138161942D01*
X144334226Y-138031425D01*
X144364601Y-138044038D01*
X144736567Y-138044362D01*
X145080343Y-137902317D01*
X145332189Y-137650910D01*
X153664920Y-137650910D01*
X153664920Y-137890250D01*
X153823670Y-138049000D01*
X154571700Y-138049000D01*
X154571700Y-137300970D01*
X154825700Y-137300970D01*
X154825700Y-138049000D01*
X154845700Y-138049000D01*
X154845700Y-138303000D01*
X154825700Y-138303000D01*
X154825700Y-139051030D01*
X154984450Y-139209780D01*
X155223789Y-139209780D01*
X155457178Y-139113107D01*
X155458970Y-139111315D01*
X155546630Y-139171211D01*
X155798520Y-139222220D01*
X156596080Y-139222220D01*
X156831397Y-139177942D01*
X157047521Y-139038870D01*
X157117809Y-138936000D01*
X157425537Y-138936000D01*
X157457673Y-138968192D01*
X157801201Y-139110838D01*
X158173167Y-139111162D01*
X158516943Y-138969117D01*
X158780192Y-138706327D01*
X158922838Y-138362799D01*
X158923162Y-137990833D01*
X158834900Y-137777220D01*
X165336480Y-137777220D01*
X165336480Y-138574780D01*
X165380758Y-138810097D01*
X165519830Y-139026221D01*
X165732030Y-139171211D01*
X165983920Y-139222220D01*
X166781480Y-139222220D01*
X167016797Y-139177942D01*
X167120759Y-139111044D01*
X167122822Y-139113107D01*
X167356211Y-139209780D01*
X167595550Y-139209780D01*
X167754300Y-139051030D01*
X167754300Y-138303000D01*
X168008300Y-138303000D01*
X168008300Y-139051030D01*
X168167050Y-139209780D01*
X168406389Y-139209780D01*
X168639778Y-139113107D01*
X168818407Y-138934479D01*
X168915080Y-138701090D01*
X168915080Y-138461750D01*
X168756330Y-138303000D01*
X168008300Y-138303000D01*
X167754300Y-138303000D01*
X167734300Y-138303000D01*
X167734300Y-138049000D01*
X167754300Y-138049000D01*
X167754300Y-137300970D01*
X168008300Y-137300970D01*
X168008300Y-138049000D01*
X168756330Y-138049000D01*
X168915080Y-137890250D01*
X168915080Y-137650910D01*
X168818407Y-137417521D01*
X168639778Y-137238893D01*
X168406389Y-137142220D01*
X168167050Y-137142220D01*
X168008300Y-137300970D01*
X167754300Y-137300970D01*
X167595550Y-137142220D01*
X167356211Y-137142220D01*
X167169816Y-137219427D01*
X167254038Y-137016599D01*
X167254362Y-136644633D01*
X167112317Y-136300857D01*
X166849527Y-136037608D01*
X166505999Y-135894962D01*
X166134033Y-135894638D01*
X165790257Y-136036683D01*
X165527008Y-136299473D01*
X165384362Y-136643001D01*
X165384038Y-137014967D01*
X165516749Y-137336152D01*
X165387489Y-137525330D01*
X165336480Y-137777220D01*
X158834900Y-137777220D01*
X158781117Y-137647057D01*
X158518327Y-137383808D01*
X158174799Y-137241162D01*
X157802833Y-137240838D01*
X157459057Y-137382883D01*
X157425882Y-137416000D01*
X157118226Y-137416000D01*
X157060170Y-137325779D01*
X156847970Y-137180789D01*
X156596080Y-137129780D01*
X155798520Y-137129780D01*
X155563203Y-137174058D01*
X155459241Y-137240956D01*
X155457178Y-137238893D01*
X155223789Y-137142220D01*
X154984450Y-137142220D01*
X154825700Y-137300970D01*
X154571700Y-137300970D01*
X154412950Y-137142220D01*
X154173611Y-137142220D01*
X153940222Y-137238893D01*
X153761593Y-137417521D01*
X153664920Y-137650910D01*
X145332189Y-137650910D01*
X145343592Y-137639527D01*
X145486238Y-137295999D01*
X145486562Y-136924033D01*
X145344517Y-136580257D01*
X145081727Y-136317008D01*
X144738199Y-136174362D01*
X144366233Y-136174038D01*
X144238656Y-136226752D01*
X144147970Y-136164789D01*
X143896080Y-136113780D01*
X143098520Y-136113780D01*
X142863203Y-136158058D01*
X142759241Y-136224956D01*
X142757178Y-136222893D01*
X142523789Y-136126220D01*
X142284450Y-136126220D01*
X142125700Y-136284970D01*
X141871700Y-136284970D01*
X141712950Y-136126220D01*
X141473611Y-136126220D01*
X141240222Y-136222893D01*
X141061593Y-136401521D01*
X140964920Y-136634910D01*
X137373722Y-136634910D01*
X135135695Y-133381750D01*
X153156920Y-133381750D01*
X153156920Y-133621090D01*
X153253593Y-133854479D01*
X153432222Y-134033107D01*
X153665611Y-134129780D01*
X153904950Y-134129780D01*
X154063700Y-133971030D01*
X154063700Y-133223000D01*
X153315670Y-133223000D01*
X153156920Y-133381750D01*
X135135695Y-133381750D01*
X134577874Y-132570910D01*
X153156920Y-132570910D01*
X153156920Y-132810250D01*
X153315670Y-132969000D01*
X154063700Y-132969000D01*
X154063700Y-132220970D01*
X154317700Y-132220970D01*
X154317700Y-132969000D01*
X154337700Y-132969000D01*
X154337700Y-133223000D01*
X154317700Y-133223000D01*
X154317700Y-133971030D01*
X154476450Y-134129780D01*
X154715789Y-134129780D01*
X154949178Y-134033107D01*
X154950970Y-134031315D01*
X155038630Y-134091211D01*
X155290520Y-134142220D01*
X156088080Y-134142220D01*
X156323397Y-134097942D01*
X156539521Y-133958870D01*
X156555514Y-133935463D01*
X156785201Y-134030838D01*
X157157167Y-134031162D01*
X157500943Y-133889117D01*
X157764192Y-133626327D01*
X157906838Y-133282799D01*
X157907162Y-132910833D01*
X157765117Y-132567057D01*
X157502327Y-132303808D01*
X157158799Y-132161162D01*
X156786833Y-132160838D01*
X156558280Y-132255274D01*
X156552170Y-132245779D01*
X156339970Y-132100789D01*
X156088080Y-132049780D01*
X155290520Y-132049780D01*
X155055203Y-132094058D01*
X154951241Y-132160956D01*
X154949178Y-132158893D01*
X154715789Y-132062220D01*
X154476450Y-132062220D01*
X154317700Y-132220970D01*
X154063700Y-132220970D01*
X153904950Y-132062220D01*
X153665611Y-132062220D01*
X153432222Y-132158893D01*
X153253593Y-132337521D01*
X153156920Y-132570910D01*
X134577874Y-132570910D01*
X134112234Y-131894064D01*
X134063890Y-131847012D01*
X134025648Y-131791424D01*
X133181421Y-130969767D01*
X136859838Y-130969767D01*
X137001883Y-131313543D01*
X137264673Y-131576792D01*
X137608201Y-131719438D01*
X137980167Y-131719762D01*
X138323943Y-131577717D01*
X138587192Y-131314927D01*
X138729838Y-130971399D01*
X138730162Y-130599433D01*
X138694700Y-130513608D01*
X138694700Y-130485341D01*
X138908211Y-130573780D01*
X139147550Y-130573780D01*
X139306300Y-130415030D01*
X139306300Y-129667000D01*
X139560300Y-129667000D01*
X139560300Y-130415030D01*
X139719050Y-130573780D01*
X139958389Y-130573780D01*
X140191778Y-130477107D01*
X140257918Y-130410967D01*
X168051038Y-130410967D01*
X168193083Y-130754743D01*
X168422653Y-130984714D01*
X168384480Y-131173220D01*
X168384480Y-131970780D01*
X168428758Y-132206097D01*
X168567830Y-132422221D01*
X168780030Y-132567211D01*
X169031920Y-132618220D01*
X169829480Y-132618220D01*
X170064797Y-132573942D01*
X170168759Y-132507044D01*
X170170822Y-132509107D01*
X170404211Y-132605780D01*
X170643550Y-132605780D01*
X170802300Y-132447030D01*
X170802300Y-131699000D01*
X171056300Y-131699000D01*
X171056300Y-132447030D01*
X171215050Y-132605780D01*
X171454389Y-132605780D01*
X171687778Y-132509107D01*
X171866407Y-132330479D01*
X171963080Y-132097090D01*
X171963080Y-131857750D01*
X171804330Y-131699000D01*
X171056300Y-131699000D01*
X170802300Y-131699000D01*
X170782300Y-131699000D01*
X170782300Y-131445000D01*
X170802300Y-131445000D01*
X170802300Y-130696970D01*
X171056300Y-130696970D01*
X171056300Y-131445000D01*
X171804330Y-131445000D01*
X171963080Y-131286250D01*
X171963080Y-131046910D01*
X171866407Y-130813521D01*
X171687778Y-130634893D01*
X171454389Y-130538220D01*
X171215050Y-130538220D01*
X171056300Y-130696970D01*
X170802300Y-130696970D01*
X170643550Y-130538220D01*
X170404211Y-130538220D01*
X170182680Y-130629981D01*
X170132848Y-130379461D01*
X169968101Y-130132899D01*
X169921322Y-130086120D01*
X169921362Y-130040633D01*
X169779317Y-129696857D01*
X169516527Y-129433608D01*
X169172999Y-129290962D01*
X168801033Y-129290638D01*
X168457257Y-129432683D01*
X168194008Y-129695473D01*
X168051362Y-130039001D01*
X168051038Y-130410967D01*
X140257918Y-130410967D01*
X140370407Y-130298479D01*
X140467080Y-130065090D01*
X140467080Y-129825750D01*
X140308330Y-129667000D01*
X139560300Y-129667000D01*
X139306300Y-129667000D01*
X139286300Y-129667000D01*
X139286300Y-129413000D01*
X139306300Y-129413000D01*
X139306300Y-128664970D01*
X139560300Y-128664970D01*
X139560300Y-129413000D01*
X140308330Y-129413000D01*
X140467080Y-129254250D01*
X140467080Y-129014910D01*
X140370407Y-128781521D01*
X140191778Y-128602893D01*
X139958389Y-128506220D01*
X139719050Y-128506220D01*
X139560300Y-128664970D01*
X139306300Y-128664970D01*
X139147550Y-128506220D01*
X138908211Y-128506220D01*
X138674822Y-128602893D01*
X138673030Y-128604685D01*
X138585370Y-128544789D01*
X138333480Y-128493780D01*
X137535920Y-128493780D01*
X137300603Y-128538058D01*
X137084479Y-128677130D01*
X136939489Y-128889330D01*
X136888480Y-129141220D01*
X136888480Y-129938780D01*
X136932758Y-130174097D01*
X136995569Y-130271707D01*
X136860162Y-130597801D01*
X136859838Y-130969767D01*
X133181421Y-130969767D01*
X130679294Y-128534534D01*
X129611199Y-126981967D01*
X171200638Y-126981967D01*
X171342683Y-127325743D01*
X171605473Y-127588992D01*
X171949001Y-127731638D01*
X172320967Y-127731962D01*
X172664743Y-127589917D01*
X172927992Y-127327127D01*
X173070638Y-126983599D01*
X173070679Y-126936723D01*
X173505178Y-126502224D01*
X173603920Y-126522220D01*
X174401480Y-126522220D01*
X174636797Y-126477942D01*
X174740759Y-126411044D01*
X174742822Y-126413107D01*
X174976211Y-126509780D01*
X175215550Y-126509780D01*
X175374300Y-126351030D01*
X175374300Y-125603000D01*
X175628300Y-125603000D01*
X175628300Y-126351030D01*
X175787050Y-126509780D01*
X176026389Y-126509780D01*
X176259778Y-126413107D01*
X176438407Y-126234479D01*
X176535080Y-126001090D01*
X176535080Y-125761750D01*
X176376330Y-125603000D01*
X175628300Y-125603000D01*
X175374300Y-125603000D01*
X175354300Y-125603000D01*
X175354300Y-125349000D01*
X175374300Y-125349000D01*
X175374300Y-124600970D01*
X175628300Y-124600970D01*
X175628300Y-125349000D01*
X176376330Y-125349000D01*
X176535080Y-125190250D01*
X176535080Y-124950910D01*
X176438407Y-124717521D01*
X176259778Y-124538893D01*
X176026389Y-124442220D01*
X175787050Y-124442220D01*
X175628300Y-124600970D01*
X175374300Y-124600970D01*
X175215550Y-124442220D01*
X174976211Y-124442220D01*
X174742822Y-124538893D01*
X174741030Y-124540685D01*
X174653370Y-124480789D01*
X174401480Y-124429780D01*
X173603920Y-124429780D01*
X173368603Y-124474058D01*
X173152479Y-124613130D01*
X173007489Y-124825330D01*
X172994778Y-124888099D01*
X172919199Y-124938599D01*
X171996120Y-125861678D01*
X171950633Y-125861638D01*
X171606857Y-126003683D01*
X171343608Y-126266473D01*
X171200962Y-126610001D01*
X171200638Y-126981967D01*
X129611199Y-126981967D01*
X128210865Y-124946465D01*
X127410555Y-121189750D01*
X133344920Y-121189750D01*
X133344920Y-121429090D01*
X133441593Y-121662479D01*
X133620222Y-121841107D01*
X133853611Y-121937780D01*
X134092950Y-121937780D01*
X134251700Y-121779030D01*
X134251700Y-121031000D01*
X133503670Y-121031000D01*
X133344920Y-121189750D01*
X127410555Y-121189750D01*
X127317763Y-120754180D01*
X127387137Y-120378910D01*
X133344920Y-120378910D01*
X133344920Y-120618250D01*
X133503670Y-120777000D01*
X134251700Y-120777000D01*
X134251700Y-120028970D01*
X134505700Y-120028970D01*
X134505700Y-120777000D01*
X134525700Y-120777000D01*
X134525700Y-121031000D01*
X134505700Y-121031000D01*
X134505700Y-121779030D01*
X134664450Y-121937780D01*
X134903789Y-121937780D01*
X135095385Y-121858418D01*
X135031362Y-122012601D01*
X135031038Y-122384567D01*
X135173083Y-122728343D01*
X135435873Y-122991592D01*
X135779401Y-123134238D01*
X136151367Y-123134562D01*
X136495143Y-122992517D01*
X136758392Y-122729727D01*
X136901038Y-122386199D01*
X136901195Y-122205750D01*
X154680920Y-122205750D01*
X154680920Y-122445090D01*
X154777593Y-122678479D01*
X154956222Y-122857107D01*
X155189611Y-122953780D01*
X155428950Y-122953780D01*
X155587700Y-122795030D01*
X155587700Y-122047000D01*
X154839670Y-122047000D01*
X154680920Y-122205750D01*
X136901195Y-122205750D01*
X136901362Y-122014233D01*
X136772160Y-121701539D01*
X136872511Y-121554670D01*
X136904863Y-121394910D01*
X154680920Y-121394910D01*
X154680920Y-121634250D01*
X154839670Y-121793000D01*
X155587700Y-121793000D01*
X155587700Y-121044970D01*
X155841700Y-121044970D01*
X155841700Y-121793000D01*
X155861700Y-121793000D01*
X155861700Y-122047000D01*
X155841700Y-122047000D01*
X155841700Y-122795030D01*
X156000450Y-122953780D01*
X156239789Y-122953780D01*
X156473178Y-122857107D01*
X156474970Y-122855315D01*
X156562630Y-122915211D01*
X156814520Y-122966220D01*
X157612080Y-122966220D01*
X157847397Y-122921942D01*
X158063521Y-122782870D01*
X158079514Y-122759463D01*
X158309201Y-122854838D01*
X158681167Y-122855162D01*
X159024943Y-122713117D01*
X159288192Y-122450327D01*
X159430838Y-122106799D01*
X159431162Y-121734833D01*
X159289117Y-121391057D01*
X159026327Y-121127808D01*
X158682799Y-120985162D01*
X158310833Y-120984838D01*
X158082280Y-121079274D01*
X158076170Y-121069779D01*
X157863970Y-120924789D01*
X157612080Y-120873780D01*
X156814520Y-120873780D01*
X156579203Y-120918058D01*
X156475241Y-120984956D01*
X156473178Y-120982893D01*
X156239789Y-120886220D01*
X156000450Y-120886220D01*
X155841700Y-121044970D01*
X155587700Y-121044970D01*
X155428950Y-120886220D01*
X155189611Y-120886220D01*
X154956222Y-120982893D01*
X154777593Y-121161521D01*
X154680920Y-121394910D01*
X136904863Y-121394910D01*
X136923520Y-121302780D01*
X136923520Y-120505220D01*
X136879242Y-120269903D01*
X136740170Y-120053779D01*
X136527970Y-119908789D01*
X136276080Y-119857780D01*
X135478520Y-119857780D01*
X135243203Y-119902058D01*
X135139241Y-119968956D01*
X135137178Y-119966893D01*
X134903789Y-119870220D01*
X134664450Y-119870220D01*
X134505700Y-120028970D01*
X134251700Y-120028970D01*
X134092950Y-119870220D01*
X133853611Y-119870220D01*
X133620222Y-119966893D01*
X133441593Y-120145521D01*
X133344920Y-120378910D01*
X127387137Y-120378910D01*
X128102519Y-116509176D01*
X129238008Y-114374996D01*
X130601133Y-112377220D01*
X151112480Y-112377220D01*
X151112480Y-113174780D01*
X151156758Y-113410097D01*
X151295830Y-113626221D01*
X151508030Y-113771211D01*
X151759920Y-113822220D01*
X152557480Y-113822220D01*
X152792797Y-113777942D01*
X152896759Y-113711044D01*
X152898822Y-113713107D01*
X153132211Y-113809780D01*
X153371550Y-113809780D01*
X153530300Y-113651030D01*
X153530300Y-112903000D01*
X153784300Y-112903000D01*
X153784300Y-113651030D01*
X153943050Y-113809780D01*
X154182389Y-113809780D01*
X154415778Y-113713107D01*
X154594407Y-113534479D01*
X154691080Y-113301090D01*
X154691080Y-113061750D01*
X154532330Y-112903000D01*
X153784300Y-112903000D01*
X153530300Y-112903000D01*
X153510300Y-112903000D01*
X153510300Y-112649000D01*
X153530300Y-112649000D01*
X153530300Y-111900970D01*
X153784300Y-111900970D01*
X153784300Y-112649000D01*
X154532330Y-112649000D01*
X154691080Y-112490250D01*
X154691080Y-112427767D01*
X167111238Y-112427767D01*
X167253283Y-112771543D01*
X167516073Y-113034792D01*
X167859601Y-113177438D01*
X168146863Y-113177688D01*
X168272030Y-113263211D01*
X168523920Y-113314220D01*
X169321480Y-113314220D01*
X169556797Y-113269942D01*
X169660759Y-113203044D01*
X169662822Y-113205107D01*
X169896211Y-113301780D01*
X170135550Y-113301780D01*
X170294300Y-113143030D01*
X170294300Y-112395000D01*
X170548300Y-112395000D01*
X170548300Y-113143030D01*
X170707050Y-113301780D01*
X170946389Y-113301780D01*
X171179778Y-113205107D01*
X171358407Y-113026479D01*
X171455080Y-112793090D01*
X171455080Y-112553750D01*
X171296330Y-112395000D01*
X170548300Y-112395000D01*
X170294300Y-112395000D01*
X170274300Y-112395000D01*
X170274300Y-112141000D01*
X170294300Y-112141000D01*
X170294300Y-111392970D01*
X170135550Y-111234220D01*
X169896211Y-111234220D01*
X169662822Y-111330893D01*
X169661030Y-111332685D01*
X169573370Y-111272789D01*
X169321480Y-111221780D01*
X168523920Y-111221780D01*
X168288603Y-111266058D01*
X168223806Y-111307754D01*
X167861233Y-111307438D01*
X167517457Y-111449483D01*
X167254208Y-111712273D01*
X167111562Y-112055801D01*
X167111238Y-112427767D01*
X154691080Y-112427767D01*
X154691080Y-112250910D01*
X154594407Y-112017521D01*
X154415778Y-111838893D01*
X154182389Y-111742220D01*
X153943050Y-111742220D01*
X153784300Y-111900970D01*
X153530300Y-111900970D01*
X153404574Y-111775244D01*
X153512638Y-111514999D01*
X153512962Y-111143033D01*
X153370917Y-110799257D01*
X153108127Y-110536008D01*
X152764599Y-110393362D01*
X152392633Y-110393038D01*
X152048857Y-110535083D01*
X151785608Y-110797873D01*
X151642962Y-111141401D01*
X151642921Y-111188277D01*
X151621299Y-111209899D01*
X151456552Y-111456461D01*
X151398700Y-111747300D01*
X151398700Y-111855074D01*
X151308479Y-111913130D01*
X151163489Y-112125330D01*
X151112480Y-112377220D01*
X130601133Y-112377220D01*
X130854302Y-112006180D01*
X134954206Y-107985162D01*
X135025721Y-107956350D01*
X142184120Y-107956350D01*
X142184120Y-108195690D01*
X142280793Y-108429079D01*
X142459422Y-108607707D01*
X142692811Y-108704380D01*
X142932150Y-108704380D01*
X143090900Y-108545630D01*
X143090900Y-107797600D01*
X142342870Y-107797600D01*
X142184120Y-107956350D01*
X135025721Y-107956350D01*
X137038336Y-107145510D01*
X142184120Y-107145510D01*
X142184120Y-107384850D01*
X142342870Y-107543600D01*
X143090900Y-107543600D01*
X143090900Y-106795570D01*
X142932150Y-106636820D01*
X142692811Y-106636820D01*
X142459422Y-106733493D01*
X142280793Y-106912121D01*
X142184120Y-107145510D01*
X137038336Y-107145510D01*
X140278663Y-105840051D01*
X140407805Y-105816556D01*
X144426193Y-105113153D01*
X144327762Y-105350201D01*
X144327438Y-105722167D01*
X144451800Y-106023147D01*
X144451800Y-106624380D01*
X144317720Y-106624380D01*
X144082403Y-106668658D01*
X143978441Y-106735556D01*
X143976378Y-106733493D01*
X143742989Y-106636820D01*
X143503650Y-106636820D01*
X143344900Y-106795570D01*
X143344900Y-107543600D01*
X143364900Y-107543600D01*
X143364900Y-107797600D01*
X143344900Y-107797600D01*
X143344900Y-108545630D01*
X143503650Y-108704380D01*
X143742989Y-108704380D01*
X143976378Y-108607707D01*
X143978170Y-108605915D01*
X144065830Y-108665811D01*
X144317720Y-108716820D01*
X145115280Y-108716820D01*
X145350597Y-108672542D01*
X145566721Y-108533470D01*
X145711711Y-108321270D01*
X145732371Y-108219246D01*
X145749201Y-108208001D01*
X145913948Y-107961439D01*
X145971800Y-107670600D01*
X145971800Y-106150174D01*
X146054792Y-106067327D01*
X146197438Y-105723799D01*
X146197762Y-105351833D01*
X146055717Y-105008057D01*
X145792927Y-104744808D01*
X145772149Y-104736180D01*
X145852052Y-104659880D01*
X145858523Y-104645224D01*
X145869586Y-104633639D01*
X145912278Y-104523464D01*
X145959999Y-104415375D01*
X145960368Y-104399360D01*
X145966157Y-104384422D01*
X145963438Y-104266290D01*
X145966162Y-104148172D01*
X145960375Y-104133235D01*
X145960006Y-104117219D01*
X145912283Y-104009112D01*
X145869601Y-103898951D01*
X145858540Y-103887368D01*
X145852069Y-103872709D01*
X140987483Y-96943085D01*
X147306398Y-98157924D01*
X147359684Y-98157582D01*
X147411548Y-98169816D01*
X147492080Y-98156733D01*
X147573667Y-98156210D01*
X147622766Y-98135503D01*
X147675363Y-98126958D01*
X147744759Y-98084052D01*
X147819934Y-98052347D01*
X147857371Y-98014427D01*
X147902695Y-97986404D01*
X147950389Y-97920207D01*
X148007709Y-97862148D01*
X148027785Y-97812788D01*
X148058935Y-97769554D01*
X148077666Y-97690146D01*
X148108405Y-97614569D01*
X148108063Y-97561282D01*
X148120297Y-97509419D01*
X148107214Y-97428887D01*
X148106691Y-97347301D01*
X148085984Y-97298202D01*
X148077439Y-97245604D01*
X145871412Y-91338220D01*
X152958367Y-96632000D01*
X153028962Y-96665685D01*
X153093092Y-96710488D01*
X153148442Y-96722697D01*
X153199587Y-96747101D01*
X153277699Y-96751207D01*
X153354092Y-96768057D01*
X153409896Y-96758156D01*
X153466492Y-96761131D01*
X153540232Y-96735031D01*
X153617256Y-96721365D01*
X153665025Y-96690861D01*
X153718448Y-96671952D01*
X153776586Y-96619620D01*
X153842518Y-96577518D01*
X153874976Y-96531057D01*
X153917099Y-96493142D01*
X153950784Y-96422547D01*
X153995587Y-96358417D01*
X155182421Y-93653299D01*
X155185756Y-93638180D01*
X155194046Y-93625111D01*
X155846236Y-91938276D01*
X155860409Y-91856967D01*
X155886718Y-91778737D01*
X156899318Y-83915195D01*
X156894715Y-83847888D01*
X156903332Y-83780971D01*
X156534289Y-78384762D01*
X159596359Y-78185147D01*
X158490156Y-85364336D01*
X158490156Y-85364336D01*
G37*
X158490156Y-85364336D02*
X156997771Y-93370784D01*
X156354824Y-96305388D01*
X156353121Y-96393503D01*
X156339550Y-96480581D01*
X156350560Y-96525945D01*
X156349658Y-96572612D01*
X156381802Y-96654668D01*
X156402589Y-96740314D01*
X156430119Y-96778008D01*
X156447145Y-96821472D01*
X156508248Y-96884984D01*
X156560225Y-96956152D01*
X156600086Y-96980443D01*
X156632448Y-97014081D01*
X156713203Y-97049375D01*
X156788459Y-97095236D01*
X156834578Y-97102423D01*
X156877352Y-97121118D01*
X156965467Y-97122821D01*
X157052545Y-97136392D01*
X157097909Y-97125382D01*
X157144576Y-97126284D01*
X157226632Y-97094140D01*
X157312278Y-97073353D01*
X168421350Y-91918523D01*
X163536543Y-97162707D01*
X163530824Y-97171960D01*
X163522204Y-97178592D01*
X163460767Y-97285314D01*
X163396027Y-97390063D01*
X163394285Y-97400798D01*
X163388858Y-97410225D01*
X163372936Y-97532348D01*
X163353212Y-97653885D01*
X163355710Y-97664469D01*
X163354304Y-97675256D01*
X163386328Y-97794172D01*
X163414617Y-97914009D01*
X163420977Y-97922833D01*
X163423805Y-97933335D01*
X163498884Y-98030926D01*
X163570892Y-98130834D01*
X163580145Y-98136553D01*
X163586777Y-98145173D01*
X163693499Y-98206610D01*
X163798248Y-98271350D01*
X163808983Y-98273092D01*
X163818410Y-98278519D01*
X163940533Y-98294441D01*
X164062070Y-98314165D01*
X164072654Y-98311667D01*
X164083441Y-98313073D01*
X171371600Y-97826182D01*
X162215971Y-104565253D01*
X162211089Y-104570601D01*
X162204602Y-104573806D01*
X162121174Y-104669089D01*
X162035766Y-104762640D01*
X162033303Y-104769445D01*
X162028535Y-104774891D01*
X161987919Y-104894854D01*
X161944814Y-105013962D01*
X161945143Y-105021194D01*
X161942822Y-105028049D01*
X161951206Y-105154430D01*
X161956963Y-105280959D01*
X161960034Y-105287513D01*
X161960513Y-105294736D01*
X162016614Y-105408271D01*
X162070362Y-105522984D01*
X162075710Y-105527866D01*
X162078915Y-105534353D01*
X162174198Y-105617781D01*
X162267749Y-105703189D01*
X162274554Y-105705652D01*
X162280000Y-105710420D01*
X164089077Y-106752989D01*
X164074822Y-106758893D01*
X164073030Y-106760685D01*
X163985370Y-106700789D01*
X163733480Y-106649780D01*
X162935920Y-106649780D01*
X162700603Y-106694058D01*
X162484479Y-106833130D01*
X162339489Y-107045330D01*
X162288480Y-107297220D01*
X162288480Y-108094780D01*
X162332758Y-108330097D01*
X162431376Y-108483354D01*
X162402808Y-108511873D01*
X162260162Y-108855401D01*
X162259838Y-109227367D01*
X162401883Y-109571143D01*
X162664673Y-109834392D01*
X163008201Y-109977038D01*
X163380167Y-109977362D01*
X163723943Y-109835317D01*
X163987192Y-109572527D01*
X164129838Y-109228999D01*
X164130162Y-108857033D01*
X164094700Y-108771208D01*
X164094700Y-108641341D01*
X164308211Y-108729780D01*
X164547550Y-108729780D01*
X164706300Y-108571030D01*
X164706300Y-107823000D01*
X164686300Y-107823000D01*
X164686300Y-107569000D01*
X164706300Y-107569000D01*
X164706300Y-107549000D01*
X164960300Y-107549000D01*
X164960300Y-107569000D01*
X164980300Y-107569000D01*
X164980300Y-107823000D01*
X164960300Y-107823000D01*
X164960300Y-108571030D01*
X165119050Y-108729780D01*
X165358389Y-108729780D01*
X165591778Y-108633107D01*
X165770407Y-108454479D01*
X165867080Y-108221090D01*
X165867080Y-107981750D01*
X165708332Y-107823002D01*
X165867080Y-107823002D01*
X165867080Y-107777650D01*
X169263806Y-109735179D01*
X171002317Y-111257386D01*
X170946389Y-111234220D01*
X170707050Y-111234220D01*
X170548300Y-111392970D01*
X170548300Y-112141000D01*
X171296330Y-112141000D01*
X171455080Y-111982250D01*
X171455080Y-111742910D01*
X171397176Y-111603117D01*
X174031709Y-113909865D01*
X176808623Y-119529705D01*
X177223536Y-125784436D01*
X175195119Y-131775491D01*
X174621698Y-132694479D01*
X159621713Y-154957220D01*
X156952398Y-157606027D01*
X153536264Y-159005628D01*
X149844567Y-158991391D01*
X146439329Y-157565487D01*
X143824424Y-154930337D01*
X142685976Y-152556445D01*
X141591527Y-149129750D01*
X159760920Y-149129750D01*
X159760920Y-149369090D01*
X159857593Y-149602479D01*
X160036222Y-149781107D01*
X160269611Y-149877780D01*
X160508950Y-149877780D01*
X160667700Y-149719030D01*
X160667700Y-148971000D01*
X159919670Y-148971000D01*
X159760920Y-149129750D01*
X141591527Y-149129750D01*
X141332554Y-148318910D01*
X159760920Y-148318910D01*
X159760920Y-148558250D01*
X159919670Y-148717000D01*
X160667700Y-148717000D01*
X160667700Y-147968970D01*
X160921700Y-147968970D01*
X160921700Y-148717000D01*
X160941700Y-148717000D01*
X160941700Y-148971000D01*
X160921700Y-148971000D01*
X160921700Y-149719030D01*
X161080450Y-149877780D01*
X161319789Y-149877780D01*
X161553178Y-149781107D01*
X161554970Y-149779315D01*
X161642630Y-149839211D01*
X161894520Y-149890220D01*
X162692080Y-149890220D01*
X162927397Y-149845942D01*
X163143521Y-149706870D01*
X163288511Y-149494670D01*
X163339520Y-149242780D01*
X163339520Y-148445220D01*
X163295242Y-148209903D01*
X163156170Y-147993779D01*
X162943970Y-147848789D01*
X162852520Y-147830270D01*
X162986838Y-147506799D01*
X162987162Y-147134833D01*
X162845117Y-146791057D01*
X162582327Y-146527808D01*
X162238799Y-146385162D01*
X161866833Y-146384838D01*
X161523057Y-146526883D01*
X161259808Y-146789673D01*
X161117162Y-147133201D01*
X161116838Y-147505167D01*
X161242883Y-147810220D01*
X161080450Y-147810220D01*
X160921700Y-147968970D01*
X160667700Y-147968970D01*
X160508950Y-147810220D01*
X160269611Y-147810220D01*
X160036222Y-147906893D01*
X159857593Y-148085521D01*
X159760920Y-148318910D01*
X141332554Y-148318910D01*
X140359660Y-145272806D01*
X140583920Y-145318220D01*
X141381480Y-145318220D01*
X141616797Y-145273942D01*
X141720759Y-145207044D01*
X141722822Y-145209107D01*
X141956211Y-145305780D01*
X142195550Y-145305780D01*
X142354300Y-145147030D01*
X142354300Y-144399000D01*
X142608300Y-144399000D01*
X142608300Y-145147030D01*
X142767050Y-145305780D01*
X143006389Y-145305780D01*
X143239778Y-145209107D01*
X143418407Y-145030479D01*
X143515080Y-144797090D01*
X143515080Y-144557750D01*
X143356330Y-144399000D01*
X142608300Y-144399000D01*
X142354300Y-144399000D01*
X142334300Y-144399000D01*
X142334300Y-144145000D01*
X142354300Y-144145000D01*
X142354300Y-143396970D01*
X142608300Y-143396970D01*
X142608300Y-144145000D01*
X143356330Y-144145000D01*
X143515080Y-143986250D01*
X143515080Y-143746910D01*
X143418407Y-143513521D01*
X143270106Y-143365220D01*
X161780480Y-143365220D01*
X161780480Y-144162780D01*
X161824758Y-144398097D01*
X161963830Y-144614221D01*
X162176030Y-144759211D01*
X162427920Y-144810220D01*
X163225480Y-144810220D01*
X163460797Y-144765942D01*
X163564759Y-144699044D01*
X163566822Y-144701107D01*
X163800211Y-144797780D01*
X164039550Y-144797780D01*
X164198300Y-144639030D01*
X164198300Y-143891000D01*
X164452300Y-143891000D01*
X164452300Y-144639030D01*
X164611050Y-144797780D01*
X164850389Y-144797780D01*
X165083778Y-144701107D01*
X165262407Y-144522479D01*
X165359080Y-144289090D01*
X165359080Y-144049750D01*
X165200330Y-143891000D01*
X164452300Y-143891000D01*
X164198300Y-143891000D01*
X164178300Y-143891000D01*
X164178300Y-143637000D01*
X164198300Y-143637000D01*
X164198300Y-142888970D01*
X164452300Y-142888970D01*
X164452300Y-143637000D01*
X165200330Y-143637000D01*
X165359080Y-143478250D01*
X165359080Y-143238910D01*
X165262407Y-143005521D01*
X165083778Y-142826893D01*
X164850389Y-142730220D01*
X164611050Y-142730220D01*
X164452300Y-142888970D01*
X164198300Y-142888970D01*
X164039550Y-142730220D01*
X163800211Y-142730220D01*
X163799683Y-142730439D01*
X163799962Y-142410433D01*
X163657917Y-142066657D01*
X163395127Y-141803408D01*
X163051599Y-141660762D01*
X162679633Y-141660438D01*
X162335857Y-141802483D01*
X162072608Y-142065273D01*
X161929962Y-142408801D01*
X161929638Y-142780767D01*
X161978763Y-142899660D01*
X161976479Y-142901130D01*
X161831489Y-143113330D01*
X161780480Y-143365220D01*
X143270106Y-143365220D01*
X143239778Y-143334893D01*
X143006389Y-143238220D01*
X142767050Y-143238220D01*
X142608300Y-143396970D01*
X142354300Y-143396970D01*
X142195550Y-143238220D01*
X142032846Y-143238220D01*
X142158838Y-142934799D01*
X142159162Y-142562833D01*
X142017117Y-142219057D01*
X141754327Y-141955808D01*
X141410799Y-141813162D01*
X141038833Y-141812838D01*
X140695057Y-141954883D01*
X140431808Y-142217673D01*
X140289162Y-142561201D01*
X140289054Y-142685738D01*
X140280552Y-142698461D01*
X140222700Y-142989300D01*
X140222700Y-143351074D01*
X140132479Y-143409130D01*
X139987489Y-143621330D01*
X139936480Y-143873220D01*
X139936480Y-143947840D01*
X138218201Y-138567951D01*
X138210029Y-138553186D01*
X138207318Y-138536529D01*
X138179368Y-138461750D01*
X153664920Y-138461750D01*
X153664920Y-138701090D01*
X153761593Y-138934479D01*
X153940222Y-139113107D01*
X154173611Y-139209780D01*
X154412950Y-139209780D01*
X154571700Y-139051030D01*
X154571700Y-138303000D01*
X153823670Y-138303000D01*
X153664920Y-138461750D01*
X138179368Y-138461750D01*
X137799610Y-137445750D01*
X140964920Y-137445750D01*
X140964920Y-137685090D01*
X141061593Y-137918479D01*
X141240222Y-138097107D01*
X141473611Y-138193780D01*
X141712950Y-138193780D01*
X141871700Y-138035030D01*
X141871700Y-137287000D01*
X141123670Y-137287000D01*
X140964920Y-137445750D01*
X137799610Y-137445750D01*
X137672164Y-137104783D01*
X137628024Y-137033439D01*
X137594870Y-136956368D01*
X137373722Y-136634910D01*
X140964920Y-136634910D01*
X140964920Y-136874250D01*
X141123670Y-137033000D01*
X141871700Y-137033000D01*
X141871700Y-136284970D01*
X142125700Y-136284970D01*
X142125700Y-137033000D01*
X142145700Y-137033000D01*
X142145700Y-137287000D01*
X142125700Y-137287000D01*
X142125700Y-138035030D01*
X142284450Y-138193780D01*
X142523789Y-138193780D01*
X142757178Y-138097107D01*
X142758970Y-138095315D01*
X142846630Y-138155211D01*
X143098520Y-138206220D01*
X143896080Y-138206220D01*
X144131397Y-138161942D01*
X144334226Y-138031425D01*
X144364601Y-138044038D01*
X144736567Y-138044362D01*
X145080343Y-137902317D01*
X145332189Y-137650910D01*
X153664920Y-137650910D01*
X153664920Y-137890250D01*
X153823670Y-138049000D01*
X154571700Y-138049000D01*
X154571700Y-137300970D01*
X154825700Y-137300970D01*
X154825700Y-138049000D01*
X154845700Y-138049000D01*
X154845700Y-138303000D01*
X154825700Y-138303000D01*
X154825700Y-139051030D01*
X154984450Y-139209780D01*
X155223789Y-139209780D01*
X155457178Y-139113107D01*
X155458970Y-139111315D01*
X155546630Y-139171211D01*
X155798520Y-139222220D01*
X156596080Y-139222220D01*
X156831397Y-139177942D01*
X157047521Y-139038870D01*
X157117809Y-138936000D01*
X157425537Y-138936000D01*
X157457673Y-138968192D01*
X157801201Y-139110838D01*
X158173167Y-139111162D01*
X158516943Y-138969117D01*
X158780192Y-138706327D01*
X158922838Y-138362799D01*
X158923162Y-137990833D01*
X158834900Y-137777220D01*
X165336480Y-137777220D01*
X165336480Y-138574780D01*
X165380758Y-138810097D01*
X165519830Y-139026221D01*
X165732030Y-139171211D01*
X165983920Y-139222220D01*
X166781480Y-139222220D01*
X167016797Y-139177942D01*
X167120759Y-139111044D01*
X167122822Y-139113107D01*
X167356211Y-139209780D01*
X167595550Y-139209780D01*
X167754300Y-139051030D01*
X167754300Y-138303000D01*
X168008300Y-138303000D01*
X168008300Y-139051030D01*
X168167050Y-139209780D01*
X168406389Y-139209780D01*
X168639778Y-139113107D01*
X168818407Y-138934479D01*
X168915080Y-138701090D01*
X168915080Y-138461750D01*
X168756330Y-138303000D01*
X168008300Y-138303000D01*
X167754300Y-138303000D01*
X167734300Y-138303000D01*
X167734300Y-138049000D01*
X167754300Y-138049000D01*
X167754300Y-137300970D01*
X168008300Y-137300970D01*
X168008300Y-138049000D01*
X168756330Y-138049000D01*
X168915080Y-137890250D01*
X168915080Y-137650910D01*
X168818407Y-137417521D01*
X168639778Y-137238893D01*
X168406389Y-137142220D01*
X168167050Y-137142220D01*
X168008300Y-137300970D01*
X167754300Y-137300970D01*
X167595550Y-137142220D01*
X167356211Y-137142220D01*
X167169816Y-137219427D01*
X167254038Y-137016599D01*
X167254362Y-136644633D01*
X167112317Y-136300857D01*
X166849527Y-136037608D01*
X166505999Y-135894962D01*
X166134033Y-135894638D01*
X165790257Y-136036683D01*
X165527008Y-136299473D01*
X165384362Y-136643001D01*
X165384038Y-137014967D01*
X165516749Y-137336152D01*
X165387489Y-137525330D01*
X165336480Y-137777220D01*
X158834900Y-137777220D01*
X158781117Y-137647057D01*
X158518327Y-137383808D01*
X158174799Y-137241162D01*
X157802833Y-137240838D01*
X157459057Y-137382883D01*
X157425882Y-137416000D01*
X157118226Y-137416000D01*
X157060170Y-137325779D01*
X156847970Y-137180789D01*
X156596080Y-137129780D01*
X155798520Y-137129780D01*
X155563203Y-137174058D01*
X155459241Y-137240956D01*
X155457178Y-137238893D01*
X155223789Y-137142220D01*
X154984450Y-137142220D01*
X154825700Y-137300970D01*
X154571700Y-137300970D01*
X154412950Y-137142220D01*
X154173611Y-137142220D01*
X153940222Y-137238893D01*
X153761593Y-137417521D01*
X153664920Y-137650910D01*
X145332189Y-137650910D01*
X145343592Y-137639527D01*
X145486238Y-137295999D01*
X145486562Y-136924033D01*
X145344517Y-136580257D01*
X145081727Y-136317008D01*
X144738199Y-136174362D01*
X144366233Y-136174038D01*
X144238656Y-136226752D01*
X144147970Y-136164789D01*
X143896080Y-136113780D01*
X143098520Y-136113780D01*
X142863203Y-136158058D01*
X142759241Y-136224956D01*
X142757178Y-136222893D01*
X142523789Y-136126220D01*
X142284450Y-136126220D01*
X142125700Y-136284970D01*
X141871700Y-136284970D01*
X141712950Y-136126220D01*
X141473611Y-136126220D01*
X141240222Y-136222893D01*
X141061593Y-136401521D01*
X140964920Y-136634910D01*
X137373722Y-136634910D01*
X135135695Y-133381750D01*
X153156920Y-133381750D01*
X153156920Y-133621090D01*
X153253593Y-133854479D01*
X153432222Y-134033107D01*
X153665611Y-134129780D01*
X153904950Y-134129780D01*
X154063700Y-133971030D01*
X154063700Y-133223000D01*
X153315670Y-133223000D01*
X153156920Y-133381750D01*
X135135695Y-133381750D01*
X134577874Y-132570910D01*
X153156920Y-132570910D01*
X153156920Y-132810250D01*
X153315670Y-132969000D01*
X154063700Y-132969000D01*
X154063700Y-132220970D01*
X154317700Y-132220970D01*
X154317700Y-132969000D01*
X154337700Y-132969000D01*
X154337700Y-133223000D01*
X154317700Y-133223000D01*
X154317700Y-133971030D01*
X154476450Y-134129780D01*
X154715789Y-134129780D01*
X154949178Y-134033107D01*
X154950970Y-134031315D01*
X155038630Y-134091211D01*
X155290520Y-134142220D01*
X156088080Y-134142220D01*
X156323397Y-134097942D01*
X156539521Y-133958870D01*
X156555514Y-133935463D01*
X156785201Y-134030838D01*
X157157167Y-134031162D01*
X157500943Y-133889117D01*
X157764192Y-133626327D01*
X157906838Y-133282799D01*
X157907162Y-132910833D01*
X157765117Y-132567057D01*
X157502327Y-132303808D01*
X157158799Y-132161162D01*
X156786833Y-132160838D01*
X156558280Y-132255274D01*
X156552170Y-132245779D01*
X156339970Y-132100789D01*
X156088080Y-132049780D01*
X155290520Y-132049780D01*
X155055203Y-132094058D01*
X154951241Y-132160956D01*
X154949178Y-132158893D01*
X154715789Y-132062220D01*
X154476450Y-132062220D01*
X154317700Y-132220970D01*
X154063700Y-132220970D01*
X153904950Y-132062220D01*
X153665611Y-132062220D01*
X153432222Y-132158893D01*
X153253593Y-132337521D01*
X153156920Y-132570910D01*
X134577874Y-132570910D01*
X134112234Y-131894064D01*
X134063890Y-131847012D01*
X134025648Y-131791424D01*
X133181421Y-130969767D01*
X136859838Y-130969767D01*
X137001883Y-131313543D01*
X137264673Y-131576792D01*
X137608201Y-131719438D01*
X137980167Y-131719762D01*
X138323943Y-131577717D01*
X138587192Y-131314927D01*
X138729838Y-130971399D01*
X138730162Y-130599433D01*
X138694700Y-130513608D01*
X138694700Y-130485341D01*
X138908211Y-130573780D01*
X139147550Y-130573780D01*
X139306300Y-130415030D01*
X139306300Y-129667000D01*
X139560300Y-129667000D01*
X139560300Y-130415030D01*
X139719050Y-130573780D01*
X139958389Y-130573780D01*
X140191778Y-130477107D01*
X140257918Y-130410967D01*
X168051038Y-130410967D01*
X168193083Y-130754743D01*
X168422653Y-130984714D01*
X168384480Y-131173220D01*
X168384480Y-131970780D01*
X168428758Y-132206097D01*
X168567830Y-132422221D01*
X168780030Y-132567211D01*
X169031920Y-132618220D01*
X169829480Y-132618220D01*
X170064797Y-132573942D01*
X170168759Y-132507044D01*
X170170822Y-132509107D01*
X170404211Y-132605780D01*
X170643550Y-132605780D01*
X170802300Y-132447030D01*
X170802300Y-131699000D01*
X171056300Y-131699000D01*
X171056300Y-132447030D01*
X171215050Y-132605780D01*
X171454389Y-132605780D01*
X171687778Y-132509107D01*
X171866407Y-132330479D01*
X171963080Y-132097090D01*
X171963080Y-131857750D01*
X171804330Y-131699000D01*
X171056300Y-131699000D01*
X170802300Y-131699000D01*
X170782300Y-131699000D01*
X170782300Y-131445000D01*
X170802300Y-131445000D01*
X170802300Y-130696970D01*
X171056300Y-130696970D01*
X171056300Y-131445000D01*
X171804330Y-131445000D01*
X171963080Y-131286250D01*
X171963080Y-131046910D01*
X171866407Y-130813521D01*
X171687778Y-130634893D01*
X171454389Y-130538220D01*
X171215050Y-130538220D01*
X171056300Y-130696970D01*
X170802300Y-130696970D01*
X170643550Y-130538220D01*
X170404211Y-130538220D01*
X170182680Y-130629981D01*
X170132848Y-130379461D01*
X169968101Y-130132899D01*
X169921322Y-130086120D01*
X169921362Y-130040633D01*
X169779317Y-129696857D01*
X169516527Y-129433608D01*
X169172999Y-129290962D01*
X168801033Y-129290638D01*
X168457257Y-129432683D01*
X168194008Y-129695473D01*
X168051362Y-130039001D01*
X168051038Y-130410967D01*
X140257918Y-130410967D01*
X140370407Y-130298479D01*
X140467080Y-130065090D01*
X140467080Y-129825750D01*
X140308330Y-129667000D01*
X139560300Y-129667000D01*
X139306300Y-129667000D01*
X139286300Y-129667000D01*
X139286300Y-129413000D01*
X139306300Y-129413000D01*
X139306300Y-128664970D01*
X139560300Y-128664970D01*
X139560300Y-129413000D01*
X140308330Y-129413000D01*
X140467080Y-129254250D01*
X140467080Y-129014910D01*
X140370407Y-128781521D01*
X140191778Y-128602893D01*
X139958389Y-128506220D01*
X139719050Y-128506220D01*
X139560300Y-128664970D01*
X139306300Y-128664970D01*
X139147550Y-128506220D01*
X138908211Y-128506220D01*
X138674822Y-128602893D01*
X138673030Y-128604685D01*
X138585370Y-128544789D01*
X138333480Y-128493780D01*
X137535920Y-128493780D01*
X137300603Y-128538058D01*
X137084479Y-128677130D01*
X136939489Y-128889330D01*
X136888480Y-129141220D01*
X136888480Y-129938780D01*
X136932758Y-130174097D01*
X136995569Y-130271707D01*
X136860162Y-130597801D01*
X136859838Y-130969767D01*
X133181421Y-130969767D01*
X130679294Y-128534534D01*
X129611199Y-126981967D01*
X171200638Y-126981967D01*
X171342683Y-127325743D01*
X171605473Y-127588992D01*
X171949001Y-127731638D01*
X172320967Y-127731962D01*
X172664743Y-127589917D01*
X172927992Y-127327127D01*
X173070638Y-126983599D01*
X173070679Y-126936723D01*
X173505178Y-126502224D01*
X173603920Y-126522220D01*
X174401480Y-126522220D01*
X174636797Y-126477942D01*
X174740759Y-126411044D01*
X174742822Y-126413107D01*
X174976211Y-126509780D01*
X175215550Y-126509780D01*
X175374300Y-126351030D01*
X175374300Y-125603000D01*
X175628300Y-125603000D01*
X175628300Y-126351030D01*
X175787050Y-126509780D01*
X176026389Y-126509780D01*
X176259778Y-126413107D01*
X176438407Y-126234479D01*
X176535080Y-126001090D01*
X176535080Y-125761750D01*
X176376330Y-125603000D01*
X175628300Y-125603000D01*
X175374300Y-125603000D01*
X175354300Y-125603000D01*
X175354300Y-125349000D01*
X175374300Y-125349000D01*
X175374300Y-124600970D01*
X175628300Y-124600970D01*
X175628300Y-125349000D01*
X176376330Y-125349000D01*
X176535080Y-125190250D01*
X176535080Y-124950910D01*
X176438407Y-124717521D01*
X176259778Y-124538893D01*
X176026389Y-124442220D01*
X175787050Y-124442220D01*
X175628300Y-124600970D01*
X175374300Y-124600970D01*
X175215550Y-124442220D01*
X174976211Y-124442220D01*
X174742822Y-124538893D01*
X174741030Y-124540685D01*
X174653370Y-124480789D01*
X174401480Y-124429780D01*
X173603920Y-124429780D01*
X173368603Y-124474058D01*
X173152479Y-124613130D01*
X173007489Y-124825330D01*
X172994778Y-124888099D01*
X172919199Y-124938599D01*
X171996120Y-125861678D01*
X171950633Y-125861638D01*
X171606857Y-126003683D01*
X171343608Y-126266473D01*
X171200962Y-126610001D01*
X171200638Y-126981967D01*
X129611199Y-126981967D01*
X128210865Y-124946465D01*
X127410555Y-121189750D01*
X133344920Y-121189750D01*
X133344920Y-121429090D01*
X133441593Y-121662479D01*
X133620222Y-121841107D01*
X133853611Y-121937780D01*
X134092950Y-121937780D01*
X134251700Y-121779030D01*
X134251700Y-121031000D01*
X133503670Y-121031000D01*
X133344920Y-121189750D01*
X127410555Y-121189750D01*
X127317763Y-120754180D01*
X127387137Y-120378910D01*
X133344920Y-120378910D01*
X133344920Y-120618250D01*
X133503670Y-120777000D01*
X134251700Y-120777000D01*
X134251700Y-120028970D01*
X134505700Y-120028970D01*
X134505700Y-120777000D01*
X134525700Y-120777000D01*
X134525700Y-121031000D01*
X134505700Y-121031000D01*
X134505700Y-121779030D01*
X134664450Y-121937780D01*
X134903789Y-121937780D01*
X135095385Y-121858418D01*
X135031362Y-122012601D01*
X135031038Y-122384567D01*
X135173083Y-122728343D01*
X135435873Y-122991592D01*
X135779401Y-123134238D01*
X136151367Y-123134562D01*
X136495143Y-122992517D01*
X136758392Y-122729727D01*
X136901038Y-122386199D01*
X136901195Y-122205750D01*
X154680920Y-122205750D01*
X154680920Y-122445090D01*
X154777593Y-122678479D01*
X154956222Y-122857107D01*
X155189611Y-122953780D01*
X155428950Y-122953780D01*
X155587700Y-122795030D01*
X155587700Y-122047000D01*
X154839670Y-122047000D01*
X154680920Y-122205750D01*
X136901195Y-122205750D01*
X136901362Y-122014233D01*
X136772160Y-121701539D01*
X136872511Y-121554670D01*
X136904863Y-121394910D01*
X154680920Y-121394910D01*
X154680920Y-121634250D01*
X154839670Y-121793000D01*
X155587700Y-121793000D01*
X155587700Y-121044970D01*
X155841700Y-121044970D01*
X155841700Y-121793000D01*
X155861700Y-121793000D01*
X155861700Y-122047000D01*
X155841700Y-122047000D01*
X155841700Y-122795030D01*
X156000450Y-122953780D01*
X156239789Y-122953780D01*
X156473178Y-122857107D01*
X156474970Y-122855315D01*
X156562630Y-122915211D01*
X156814520Y-122966220D01*
X157612080Y-122966220D01*
X157847397Y-122921942D01*
X158063521Y-122782870D01*
X158079514Y-122759463D01*
X158309201Y-122854838D01*
X158681167Y-122855162D01*
X159024943Y-122713117D01*
X159288192Y-122450327D01*
X159430838Y-122106799D01*
X159431162Y-121734833D01*
X159289117Y-121391057D01*
X159026327Y-121127808D01*
X158682799Y-120985162D01*
X158310833Y-120984838D01*
X158082280Y-121079274D01*
X158076170Y-121069779D01*
X157863970Y-120924789D01*
X157612080Y-120873780D01*
X156814520Y-120873780D01*
X156579203Y-120918058D01*
X156475241Y-120984956D01*
X156473178Y-120982893D01*
X156239789Y-120886220D01*
X156000450Y-120886220D01*
X155841700Y-121044970D01*
X155587700Y-121044970D01*
X155428950Y-120886220D01*
X155189611Y-120886220D01*
X154956222Y-120982893D01*
X154777593Y-121161521D01*
X154680920Y-121394910D01*
X136904863Y-121394910D01*
X136923520Y-121302780D01*
X136923520Y-120505220D01*
X136879242Y-120269903D01*
X136740170Y-120053779D01*
X136527970Y-119908789D01*
X136276080Y-119857780D01*
X135478520Y-119857780D01*
X135243203Y-119902058D01*
X135139241Y-119968956D01*
X135137178Y-119966893D01*
X134903789Y-119870220D01*
X134664450Y-119870220D01*
X134505700Y-120028970D01*
X134251700Y-120028970D01*
X134092950Y-119870220D01*
X133853611Y-119870220D01*
X133620222Y-119966893D01*
X133441593Y-120145521D01*
X133344920Y-120378910D01*
X127387137Y-120378910D01*
X128102519Y-116509176D01*
X129238008Y-114374996D01*
X130601133Y-112377220D01*
X151112480Y-112377220D01*
X151112480Y-113174780D01*
X151156758Y-113410097D01*
X151295830Y-113626221D01*
X151508030Y-113771211D01*
X151759920Y-113822220D01*
X152557480Y-113822220D01*
X152792797Y-113777942D01*
X152896759Y-113711044D01*
X152898822Y-113713107D01*
X153132211Y-113809780D01*
X153371550Y-113809780D01*
X153530300Y-113651030D01*
X153530300Y-112903000D01*
X153784300Y-112903000D01*
X153784300Y-113651030D01*
X153943050Y-113809780D01*
X154182389Y-113809780D01*
X154415778Y-113713107D01*
X154594407Y-113534479D01*
X154691080Y-113301090D01*
X154691080Y-113061750D01*
X154532330Y-112903000D01*
X153784300Y-112903000D01*
X153530300Y-112903000D01*
X153510300Y-112903000D01*
X153510300Y-112649000D01*
X153530300Y-112649000D01*
X153530300Y-111900970D01*
X153784300Y-111900970D01*
X153784300Y-112649000D01*
X154532330Y-112649000D01*
X154691080Y-112490250D01*
X154691080Y-112427767D01*
X167111238Y-112427767D01*
X167253283Y-112771543D01*
X167516073Y-113034792D01*
X167859601Y-113177438D01*
X168146863Y-113177688D01*
X168272030Y-113263211D01*
X168523920Y-113314220D01*
X169321480Y-113314220D01*
X169556797Y-113269942D01*
X169660759Y-113203044D01*
X169662822Y-113205107D01*
X169896211Y-113301780D01*
X170135550Y-113301780D01*
X170294300Y-113143030D01*
X170294300Y-112395000D01*
X170548300Y-112395000D01*
X170548300Y-113143030D01*
X170707050Y-113301780D01*
X170946389Y-113301780D01*
X171179778Y-113205107D01*
X171358407Y-113026479D01*
X171455080Y-112793090D01*
X171455080Y-112553750D01*
X171296330Y-112395000D01*
X170548300Y-112395000D01*
X170294300Y-112395000D01*
X170274300Y-112395000D01*
X170274300Y-112141000D01*
X170294300Y-112141000D01*
X170294300Y-111392970D01*
X170135550Y-111234220D01*
X169896211Y-111234220D01*
X169662822Y-111330893D01*
X169661030Y-111332685D01*
X169573370Y-111272789D01*
X169321480Y-111221780D01*
X168523920Y-111221780D01*
X168288603Y-111266058D01*
X168223806Y-111307754D01*
X167861233Y-111307438D01*
X167517457Y-111449483D01*
X167254208Y-111712273D01*
X167111562Y-112055801D01*
X167111238Y-112427767D01*
X154691080Y-112427767D01*
X154691080Y-112250910D01*
X154594407Y-112017521D01*
X154415778Y-111838893D01*
X154182389Y-111742220D01*
X153943050Y-111742220D01*
X153784300Y-111900970D01*
X153530300Y-111900970D01*
X153404574Y-111775244D01*
X153512638Y-111514999D01*
X153512962Y-111143033D01*
X153370917Y-110799257D01*
X153108127Y-110536008D01*
X152764599Y-110393362D01*
X152392633Y-110393038D01*
X152048857Y-110535083D01*
X151785608Y-110797873D01*
X151642962Y-111141401D01*
X151642921Y-111188277D01*
X151621299Y-111209899D01*
X151456552Y-111456461D01*
X151398700Y-111747300D01*
X151398700Y-111855074D01*
X151308479Y-111913130D01*
X151163489Y-112125330D01*
X151112480Y-112377220D01*
X130601133Y-112377220D01*
X130854302Y-112006180D01*
X134954206Y-107985162D01*
X135025721Y-107956350D01*
X142184120Y-107956350D01*
X142184120Y-108195690D01*
X142280793Y-108429079D01*
X142459422Y-108607707D01*
X142692811Y-108704380D01*
X142932150Y-108704380D01*
X143090900Y-108545630D01*
X143090900Y-107797600D01*
X142342870Y-107797600D01*
X142184120Y-107956350D01*
X135025721Y-107956350D01*
X137038336Y-107145510D01*
X142184120Y-107145510D01*
X142184120Y-107384850D01*
X142342870Y-107543600D01*
X143090900Y-107543600D01*
X143090900Y-106795570D01*
X142932150Y-106636820D01*
X142692811Y-106636820D01*
X142459422Y-106733493D01*
X142280793Y-106912121D01*
X142184120Y-107145510D01*
X137038336Y-107145510D01*
X140278663Y-105840051D01*
X140407805Y-105816556D01*
X144426193Y-105113153D01*
X144327762Y-105350201D01*
X144327438Y-105722167D01*
X144451800Y-106023147D01*
X144451800Y-106624380D01*
X144317720Y-106624380D01*
X144082403Y-106668658D01*
X143978441Y-106735556D01*
X143976378Y-106733493D01*
X143742989Y-106636820D01*
X143503650Y-106636820D01*
X143344900Y-106795570D01*
X143344900Y-107543600D01*
X143364900Y-107543600D01*
X143364900Y-107797600D01*
X143344900Y-107797600D01*
X143344900Y-108545630D01*
X143503650Y-108704380D01*
X143742989Y-108704380D01*
X143976378Y-108607707D01*
X143978170Y-108605915D01*
X144065830Y-108665811D01*
X144317720Y-108716820D01*
X145115280Y-108716820D01*
X145350597Y-108672542D01*
X145566721Y-108533470D01*
X145711711Y-108321270D01*
X145732371Y-108219246D01*
X145749201Y-108208001D01*
X145913948Y-107961439D01*
X145971800Y-107670600D01*
X145971800Y-106150174D01*
X146054792Y-106067327D01*
X146197438Y-105723799D01*
X146197762Y-105351833D01*
X146055717Y-105008057D01*
X145792927Y-104744808D01*
X145772149Y-104736180D01*
X145852052Y-104659880D01*
X145858523Y-104645224D01*
X145869586Y-104633639D01*
X145912278Y-104523464D01*
X145959999Y-104415375D01*
X145960368Y-104399360D01*
X145966157Y-104384422D01*
X145963438Y-104266290D01*
X145966162Y-104148172D01*
X145960375Y-104133235D01*
X145960006Y-104117219D01*
X145912283Y-104009112D01*
X145869601Y-103898951D01*
X145858540Y-103887368D01*
X145852069Y-103872709D01*
X140987483Y-96943085D01*
X147306398Y-98157924D01*
X147359684Y-98157582D01*
X147411548Y-98169816D01*
X147492080Y-98156733D01*
X147573667Y-98156210D01*
X147622766Y-98135503D01*
X147675363Y-98126958D01*
X147744759Y-98084052D01*
X147819934Y-98052347D01*
X147857371Y-98014427D01*
X147902695Y-97986404D01*
X147950389Y-97920207D01*
X148007709Y-97862148D01*
X148027785Y-97812788D01*
X148058935Y-97769554D01*
X148077666Y-97690146D01*
X148108405Y-97614569D01*
X148108063Y-97561282D01*
X148120297Y-97509419D01*
X148107214Y-97428887D01*
X148106691Y-97347301D01*
X148085984Y-97298202D01*
X148077439Y-97245604D01*
X145871412Y-91338220D01*
X152958367Y-96632000D01*
X153028962Y-96665685D01*
X153093092Y-96710488D01*
X153148442Y-96722697D01*
X153199587Y-96747101D01*
X153277699Y-96751207D01*
X153354092Y-96768057D01*
X153409896Y-96758156D01*
X153466492Y-96761131D01*
X153540232Y-96735031D01*
X153617256Y-96721365D01*
X153665025Y-96690861D01*
X153718448Y-96671952D01*
X153776586Y-96619620D01*
X153842518Y-96577518D01*
X153874976Y-96531057D01*
X153917099Y-96493142D01*
X153950784Y-96422547D01*
X153995587Y-96358417D01*
X155182421Y-93653299D01*
X155185756Y-93638180D01*
X155194046Y-93625111D01*
X155846236Y-91938276D01*
X155860409Y-91856967D01*
X155886718Y-91778737D01*
X156899318Y-83915195D01*
X156894715Y-83847888D01*
X156903332Y-83780971D01*
X156534289Y-78384762D01*
X159596359Y-78185147D01*
X158490156Y-85364336D01*
M02*
