%FSLAX45Y45*%
G04 Gerber Fmt 4.5, Leading zero omitted, Abs format (unit mm)*
G04 Created by KiCad (PCBNEW 4.0.4-snap1-stable) date Wed Apr 17 18:01:36 2019*
%MOMM*%
%LPD*%
G01*
G04 APERTURE LIST*
%ADD10C,0.127000*%
%ADD11C,0.100000*%
%ADD12C,0.200000*%
%ADD13C,0.300000*%
G04 APERTURE END LIST*
D10*
D11*
X13354789Y-13228231D02*
G75*
G02X13756567Y-13877636I-1098364J-1128535D01*
G01*
X13015318Y-12897836D02*
X13354789Y-13228231D01*
X13015318Y-12897836D02*
G75*
G02X12865095Y-11402002I814915J837300D01*
G01*
X13032649Y-11156437D02*
X12865095Y-11402002D01*
X13032649Y-11156437D02*
G75*
G02X14028751Y-10514220I1258876J-858957D01*
G01*
X14529142Y-10426628D02*
X14028751Y-10514220D01*
X13945390Y-9595070D02*
X14529142Y-10426628D01*
X14743572Y-9748524D02*
X13945390Y-9595070D01*
X14441452Y-8939495D02*
X14743572Y-9748524D01*
X15336830Y-9608321D02*
X14441452Y-8939495D01*
X15455514Y-9337809D02*
X15336830Y-9608321D01*
X15621993Y-8382771D02*
G75*
G02X15455514Y-9337809I-2027265J-138643D01*
G01*
X15580400Y-7774591D02*
X15621993Y-8382771D01*
X16040332Y-7744609D02*
X15580400Y-7774591D01*
X15916553Y-8547929D02*
X16040332Y-7744609D01*
X15916553Y-8547928D02*
G75*
G02X15766920Y-9350687I-12853115J1980467D01*
G01*
X15702395Y-9645199D02*
X15766920Y-9350687D01*
X17130898Y-8982345D02*
X15702395Y-9645199D01*
X16403778Y-9762960D02*
X17130898Y-8982345D01*
X17366832Y-9698622D02*
X16403778Y-9762960D01*
X16262203Y-10511692D02*
X17366832Y-9698622D01*
X16966429Y-10917537D02*
X16262203Y-10511692D01*
X16966429Y-10917537D02*
G75*
G02X17519649Y-13306729I-837054J-1452466D01*
G01*
X16015210Y-15539593D02*
X17519649Y-13306729D01*
X16015210Y-15539593D02*
G75*
G02X14204786Y-15280996I-842590J567713D01*
G01*
X13756567Y-13877636D02*
X14204786Y-15280996D01*
D12*
X12934000Y-12070400D02*
X12974000Y-12110400D01*
X12974000Y-12070400D02*
X12934000Y-12110400D01*
X13459780Y-11140760D02*
X13499780Y-11180760D01*
X13499780Y-11140760D02*
X13459780Y-11180760D01*
X13711240Y-12448860D02*
X13751240Y-12488860D01*
X13751240Y-12448860D02*
X13711240Y-12488860D01*
X13746800Y-12680000D02*
X13786800Y-12720000D01*
X13786800Y-12680000D02*
X13746800Y-12720000D01*
X13746800Y-13086400D02*
X13786800Y-13126400D01*
X13786800Y-13086400D02*
X13746800Y-13126400D01*
X14046520Y-12575860D02*
X14086520Y-12615860D01*
X14086520Y-12575860D02*
X14046520Y-12615860D01*
X14102400Y-14254800D02*
X14142400Y-14294800D01*
X14142400Y-14254800D02*
X14102400Y-14294800D01*
X14305600Y-10597200D02*
X14345600Y-10637200D01*
X14345600Y-10597200D02*
X14305600Y-10637200D01*
X14458000Y-13696000D02*
X14498000Y-13736000D01*
X14498000Y-13696000D02*
X14458000Y-13736000D01*
X14712000Y-11257600D02*
X14752000Y-11297600D01*
X14752000Y-11257600D02*
X14712000Y-11297600D01*
X14712000Y-13442000D02*
X14752000Y-13482000D01*
X14752000Y-13442000D02*
X14712000Y-13482000D01*
X14917740Y-12220260D02*
X14957740Y-12260260D01*
X14957740Y-12220260D02*
X14917740Y-12260260D01*
X15169200Y-11156000D02*
X15209200Y-11196000D01*
X15209200Y-11156000D02*
X15169200Y-11196000D01*
X15524800Y-15524800D02*
X15564800Y-15564800D01*
X15564800Y-15524800D02*
X15524800Y-15564800D01*
X15677200Y-13289600D02*
X15717200Y-13329600D01*
X15717200Y-13289600D02*
X15677200Y-13329600D01*
X15778800Y-13797600D02*
X15818800Y-13837600D01*
X15818800Y-13797600D02*
X15778800Y-13837600D01*
X15829600Y-12172000D02*
X15869600Y-12212000D01*
X15869600Y-12172000D02*
X15829600Y-12212000D01*
X16134400Y-10546400D02*
X16174400Y-10586400D01*
X16174400Y-10546400D02*
X16134400Y-10586400D01*
X16185200Y-10698800D02*
X16225200Y-10738800D01*
X16225200Y-10698800D02*
X16185200Y-10738800D01*
X16185200Y-14712000D02*
X16225200Y-14752000D01*
X16225200Y-14712000D02*
X16185200Y-14752000D01*
X16286800Y-14204000D02*
X16326800Y-14244000D01*
X16326800Y-14204000D02*
X16286800Y-14244000D01*
X16642400Y-13594400D02*
X16682400Y-13634400D01*
X16682400Y-13594400D02*
X16642400Y-13634400D01*
X16744000Y-11206800D02*
X16784000Y-11246800D01*
X16784000Y-11206800D02*
X16744000Y-11246800D01*
X16896400Y-12984800D02*
X16936400Y-13024800D01*
X16936400Y-12984800D02*
X16896400Y-13024800D01*
X17252000Y-12527600D02*
X17292000Y-12567600D01*
X17292000Y-12527600D02*
X17252000Y-12567600D01*
X15911340Y-7978140D02*
G75*
G03X15911340Y-7978140I-110000J0D01*
G01*
D13*
X3329866Y-16458594D02*
X3329866Y-16158594D01*
X3401294Y-16158594D01*
X3444152Y-16172880D01*
X3472723Y-16201451D01*
X3487009Y-16230023D01*
X3501294Y-16287166D01*
X3501294Y-16330023D01*
X3487009Y-16387166D01*
X3472723Y-16415737D01*
X3444152Y-16444309D01*
X3401294Y-16458594D01*
X3329866Y-16458594D01*
X3629866Y-16458594D02*
X3629866Y-16258594D01*
X3629866Y-16315737D02*
X3644152Y-16287166D01*
X3658437Y-16272880D01*
X3687009Y-16258594D01*
X3715580Y-16258594D01*
X3815580Y-16458594D02*
X3815580Y-16258594D01*
X3815580Y-16158594D02*
X3801295Y-16172880D01*
X3815580Y-16187166D01*
X3829866Y-16172880D01*
X3815580Y-16158594D01*
X3815580Y-16187166D01*
X4001294Y-16458594D02*
X3972723Y-16444309D01*
X3958437Y-16415737D01*
X3958437Y-16158594D01*
X4158437Y-16458594D02*
X4129866Y-16444309D01*
X4115580Y-16415737D01*
X4115580Y-16158594D01*
X4501295Y-16458594D02*
X4501295Y-16158594D01*
X4601295Y-16372880D01*
X4701295Y-16158594D01*
X4701295Y-16458594D01*
X4972723Y-16458594D02*
X4972723Y-16301451D01*
X4958437Y-16272880D01*
X4929866Y-16258594D01*
X4872723Y-16258594D01*
X4844152Y-16272880D01*
X4972723Y-16444309D02*
X4944152Y-16458594D01*
X4872723Y-16458594D01*
X4844152Y-16444309D01*
X4829866Y-16415737D01*
X4829866Y-16387166D01*
X4844152Y-16358594D01*
X4872723Y-16344309D01*
X4944152Y-16344309D01*
X4972723Y-16330023D01*
X5115580Y-16258594D02*
X5115580Y-16558594D01*
X5115580Y-16272880D02*
X5144152Y-16258594D01*
X5201295Y-16258594D01*
X5229866Y-16272880D01*
X5244152Y-16287166D01*
X5258437Y-16315737D01*
X5258437Y-16401451D01*
X5244152Y-16430023D01*
X5229866Y-16444309D01*
X5201295Y-16458594D01*
X5144152Y-16458594D01*
X5115580Y-16444309D01*
X5387009Y-16430023D02*
X5401295Y-16444309D01*
X5387009Y-16458594D01*
X5372723Y-16444309D01*
X5387009Y-16430023D01*
X5387009Y-16458594D01*
X5387009Y-16272880D02*
X5401295Y-16287166D01*
X5387009Y-16301451D01*
X5372723Y-16287166D01*
X5387009Y-16272880D01*
X5387009Y-16301451D01*
X3018437Y-16932880D02*
X3058437Y-16972880D01*
X3058437Y-16932880D02*
X3018437Y-16972880D01*
X3387009Y-16788594D02*
X3415580Y-16788594D01*
X3444152Y-16802880D01*
X3458437Y-16817166D01*
X3472723Y-16845737D01*
X3487009Y-16902880D01*
X3487009Y-16974309D01*
X3472723Y-17031452D01*
X3458437Y-17060023D01*
X3444152Y-17074309D01*
X3415580Y-17088594D01*
X3387009Y-17088594D01*
X3358437Y-17074309D01*
X3344152Y-17060023D01*
X3329866Y-17031452D01*
X3315580Y-16974309D01*
X3315580Y-16902880D01*
X3329866Y-16845737D01*
X3344152Y-16817166D01*
X3358437Y-16802880D01*
X3387009Y-16788594D01*
X3615580Y-17060023D02*
X3629866Y-17074309D01*
X3615580Y-17088594D01*
X3601295Y-17074309D01*
X3615580Y-17060023D01*
X3615580Y-17088594D01*
X3887009Y-16888594D02*
X3887009Y-17088594D01*
X3815580Y-16774309D02*
X3744152Y-16988594D01*
X3929866Y-16988594D01*
X4101294Y-16788594D02*
X4129866Y-16788594D01*
X4158437Y-16802880D01*
X4172723Y-16817166D01*
X4187009Y-16845737D01*
X4201295Y-16902880D01*
X4201295Y-16974309D01*
X4187009Y-17031452D01*
X4172723Y-17060023D01*
X4158437Y-17074309D01*
X4129866Y-17088594D01*
X4101294Y-17088594D01*
X4072723Y-17074309D01*
X4058437Y-17060023D01*
X4044152Y-17031452D01*
X4029866Y-16974309D01*
X4029866Y-16902880D01*
X4044152Y-16845737D01*
X4058437Y-16817166D01*
X4072723Y-16802880D01*
X4101294Y-16788594D01*
X4329866Y-17088594D02*
X4329866Y-16888594D01*
X4329866Y-16917166D02*
X4344152Y-16902880D01*
X4372723Y-16888594D01*
X4415580Y-16888594D01*
X4444152Y-16902880D01*
X4458437Y-16931452D01*
X4458437Y-17088594D01*
X4458437Y-16931452D02*
X4472723Y-16902880D01*
X4501295Y-16888594D01*
X4544152Y-16888594D01*
X4572723Y-16902880D01*
X4587009Y-16931452D01*
X4587009Y-17088594D01*
X4729866Y-17088594D02*
X4729866Y-16888594D01*
X4729866Y-16917166D02*
X4744152Y-16902880D01*
X4772723Y-16888594D01*
X4815580Y-16888594D01*
X4844152Y-16902880D01*
X4858437Y-16931452D01*
X4858437Y-17088594D01*
X4858437Y-16931452D02*
X4872723Y-16902880D01*
X4901295Y-16888594D01*
X4944152Y-16888594D01*
X4972723Y-16902880D01*
X4987009Y-16931452D01*
X4987009Y-17088594D01*
X5572723Y-16774309D02*
X5315580Y-17160023D01*
X5958437Y-16788594D02*
X5987009Y-16788594D01*
X6015580Y-16802880D01*
X6029866Y-16817166D01*
X6044152Y-16845737D01*
X6058437Y-16902880D01*
X6058437Y-16974309D01*
X6044152Y-17031452D01*
X6029866Y-17060023D01*
X6015580Y-17074309D01*
X5987009Y-17088594D01*
X5958437Y-17088594D01*
X5929866Y-17074309D01*
X5915580Y-17060023D01*
X5901294Y-17031452D01*
X5887009Y-16974309D01*
X5887009Y-16902880D01*
X5901294Y-16845737D01*
X5915580Y-16817166D01*
X5929866Y-16802880D01*
X5958437Y-16788594D01*
X6187009Y-17060023D02*
X6201294Y-17074309D01*
X6187009Y-17088594D01*
X6172723Y-17074309D01*
X6187009Y-17060023D01*
X6187009Y-17088594D01*
X6387009Y-16788594D02*
X6415580Y-16788594D01*
X6444152Y-16802880D01*
X6458437Y-16817166D01*
X6472723Y-16845737D01*
X6487009Y-16902880D01*
X6487009Y-16974309D01*
X6472723Y-17031452D01*
X6458437Y-17060023D01*
X6444152Y-17074309D01*
X6415580Y-17088594D01*
X6387009Y-17088594D01*
X6358437Y-17074309D01*
X6344152Y-17060023D01*
X6329866Y-17031452D01*
X6315580Y-16974309D01*
X6315580Y-16902880D01*
X6329866Y-16845737D01*
X6344152Y-16817166D01*
X6358437Y-16802880D01*
X6387009Y-16788594D01*
X6772723Y-17088594D02*
X6601294Y-17088594D01*
X6687009Y-17088594D02*
X6687009Y-16788594D01*
X6658437Y-16831452D01*
X6629866Y-16860023D01*
X6601294Y-16874309D01*
X7029866Y-16788594D02*
X6972723Y-16788594D01*
X6944152Y-16802880D01*
X6929866Y-16817166D01*
X6901294Y-16860023D01*
X6887009Y-16917166D01*
X6887009Y-17031452D01*
X6901294Y-17060023D01*
X6915580Y-17074309D01*
X6944152Y-17088594D01*
X7001294Y-17088594D01*
X7029866Y-17074309D01*
X7044152Y-17060023D01*
X7058437Y-17031452D01*
X7058437Y-16960023D01*
X7044152Y-16931452D01*
X7029866Y-16917166D01*
X7001294Y-16902880D01*
X6944152Y-16902880D01*
X6915580Y-16917166D01*
X6901294Y-16931452D01*
X6887009Y-16960023D01*
X7172723Y-16788594D02*
X7172723Y-16845737D01*
X7287009Y-16788594D02*
X7287009Y-16845737D01*
X7729866Y-17202880D02*
X7715580Y-17188594D01*
X7687009Y-17145737D01*
X7672723Y-17117166D01*
X7658437Y-17074309D01*
X7644152Y-17002880D01*
X7644152Y-16945737D01*
X7658437Y-16874309D01*
X7672723Y-16831452D01*
X7687009Y-16802880D01*
X7715580Y-16760023D01*
X7729866Y-16745737D01*
X7829866Y-16817166D02*
X7844152Y-16802880D01*
X7872723Y-16788594D01*
X7944152Y-16788594D01*
X7972723Y-16802880D01*
X7987009Y-16817166D01*
X8001294Y-16845737D01*
X8001294Y-16874309D01*
X7987009Y-16917166D01*
X7815580Y-17088594D01*
X8001294Y-17088594D01*
X8272723Y-16788594D02*
X8129866Y-16788594D01*
X8115580Y-16931452D01*
X8129866Y-16917166D01*
X8158437Y-16902880D01*
X8229866Y-16902880D01*
X8258437Y-16917166D01*
X8272723Y-16931452D01*
X8287009Y-16960023D01*
X8287009Y-17031452D01*
X8272723Y-17060023D01*
X8258437Y-17074309D01*
X8229866Y-17088594D01*
X8158437Y-17088594D01*
X8129866Y-17074309D01*
X8115580Y-17060023D01*
X8644152Y-17088594D02*
X8644152Y-16788594D01*
X8772723Y-17088594D02*
X8772723Y-16931452D01*
X8758437Y-16902880D01*
X8729866Y-16888594D01*
X8687009Y-16888594D01*
X8658437Y-16902880D01*
X8644152Y-16917166D01*
X8958437Y-17088594D02*
X8929866Y-17074309D01*
X8915580Y-17060023D01*
X8901295Y-17031452D01*
X8901295Y-16945737D01*
X8915580Y-16917166D01*
X8929866Y-16902880D01*
X8958437Y-16888594D01*
X9001295Y-16888594D01*
X9029866Y-16902880D01*
X9044152Y-16917166D01*
X9058437Y-16945737D01*
X9058437Y-17031452D01*
X9044152Y-17060023D01*
X9029866Y-17074309D01*
X9001295Y-17088594D01*
X8958437Y-17088594D01*
X9229866Y-17088594D02*
X9201295Y-17074309D01*
X9187009Y-17045737D01*
X9187009Y-16788594D01*
X9458437Y-17074309D02*
X9429866Y-17088594D01*
X9372723Y-17088594D01*
X9344152Y-17074309D01*
X9329866Y-17045737D01*
X9329866Y-16931452D01*
X9344152Y-16902880D01*
X9372723Y-16888594D01*
X9429866Y-16888594D01*
X9458437Y-16902880D01*
X9472723Y-16931452D01*
X9472723Y-16960023D01*
X9329866Y-16988594D01*
X9587009Y-17074309D02*
X9615580Y-17088594D01*
X9672723Y-17088594D01*
X9701295Y-17074309D01*
X9715580Y-17045737D01*
X9715580Y-17031452D01*
X9701295Y-17002880D01*
X9672723Y-16988594D01*
X9629866Y-16988594D01*
X9601295Y-16974309D01*
X9587009Y-16945737D01*
X9587009Y-16931452D01*
X9601295Y-16902880D01*
X9629866Y-16888594D01*
X9672723Y-16888594D01*
X9701295Y-16902880D01*
X9815580Y-17202880D02*
X9829866Y-17188594D01*
X9858437Y-17145737D01*
X9872723Y-17117166D01*
X9887009Y-17074309D01*
X9901295Y-17002880D01*
X9901295Y-16945737D01*
X9887009Y-16874309D01*
X9872723Y-16831452D01*
X9858437Y-16802880D01*
X9829866Y-16760023D01*
X9815580Y-16745737D01*
X3058437Y-17348880D02*
G75*
G03X3058437Y-17348880I-110000J0D01*
G01*
X3315580Y-17213166D02*
X3329866Y-17198880D01*
X3358437Y-17184594D01*
X3429866Y-17184594D01*
X3458437Y-17198880D01*
X3472723Y-17213166D01*
X3487009Y-17241737D01*
X3487009Y-17270309D01*
X3472723Y-17313166D01*
X3301294Y-17484594D01*
X3487009Y-17484594D01*
X3615580Y-17456023D02*
X3629866Y-17470309D01*
X3615580Y-17484594D01*
X3601295Y-17470309D01*
X3615580Y-17456023D01*
X3615580Y-17484594D01*
X3744152Y-17213166D02*
X3758437Y-17198880D01*
X3787009Y-17184594D01*
X3858437Y-17184594D01*
X3887009Y-17198880D01*
X3901294Y-17213166D01*
X3915580Y-17241737D01*
X3915580Y-17270309D01*
X3901294Y-17313166D01*
X3729866Y-17484594D01*
X3915580Y-17484594D01*
X4101294Y-17184594D02*
X4129866Y-17184594D01*
X4158437Y-17198880D01*
X4172723Y-17213166D01*
X4187009Y-17241737D01*
X4201295Y-17298880D01*
X4201295Y-17370309D01*
X4187009Y-17427452D01*
X4172723Y-17456023D01*
X4158437Y-17470309D01*
X4129866Y-17484594D01*
X4101294Y-17484594D01*
X4072723Y-17470309D01*
X4058437Y-17456023D01*
X4044152Y-17427452D01*
X4029866Y-17370309D01*
X4029866Y-17298880D01*
X4044152Y-17241737D01*
X4058437Y-17213166D01*
X4072723Y-17198880D01*
X4101294Y-17184594D01*
X4329866Y-17484594D02*
X4329866Y-17284594D01*
X4329866Y-17313166D02*
X4344152Y-17298880D01*
X4372723Y-17284594D01*
X4415580Y-17284594D01*
X4444152Y-17298880D01*
X4458437Y-17327452D01*
X4458437Y-17484594D01*
X4458437Y-17327452D02*
X4472723Y-17298880D01*
X4501295Y-17284594D01*
X4544152Y-17284594D01*
X4572723Y-17298880D01*
X4587009Y-17327452D01*
X4587009Y-17484594D01*
X4729866Y-17484594D02*
X4729866Y-17284594D01*
X4729866Y-17313166D02*
X4744152Y-17298880D01*
X4772723Y-17284594D01*
X4815580Y-17284594D01*
X4844152Y-17298880D01*
X4858437Y-17327452D01*
X4858437Y-17484594D01*
X4858437Y-17327452D02*
X4872723Y-17298880D01*
X4901295Y-17284594D01*
X4944152Y-17284594D01*
X4972723Y-17298880D01*
X4987009Y-17327452D01*
X4987009Y-17484594D01*
X5572723Y-17170309D02*
X5315580Y-17556023D01*
X5958437Y-17184594D02*
X5987009Y-17184594D01*
X6015580Y-17198880D01*
X6029866Y-17213166D01*
X6044152Y-17241737D01*
X6058437Y-17298880D01*
X6058437Y-17370309D01*
X6044152Y-17427452D01*
X6029866Y-17456023D01*
X6015580Y-17470309D01*
X5987009Y-17484594D01*
X5958437Y-17484594D01*
X5929866Y-17470309D01*
X5915580Y-17456023D01*
X5901294Y-17427452D01*
X5887009Y-17370309D01*
X5887009Y-17298880D01*
X5901294Y-17241737D01*
X5915580Y-17213166D01*
X5929866Y-17198880D01*
X5958437Y-17184594D01*
X6187009Y-17456023D02*
X6201294Y-17470309D01*
X6187009Y-17484594D01*
X6172723Y-17470309D01*
X6187009Y-17456023D01*
X6187009Y-17484594D01*
X6387009Y-17184594D02*
X6415580Y-17184594D01*
X6444152Y-17198880D01*
X6458437Y-17213166D01*
X6472723Y-17241737D01*
X6487009Y-17298880D01*
X6487009Y-17370309D01*
X6472723Y-17427452D01*
X6458437Y-17456023D01*
X6444152Y-17470309D01*
X6415580Y-17484594D01*
X6387009Y-17484594D01*
X6358437Y-17470309D01*
X6344152Y-17456023D01*
X6329866Y-17427452D01*
X6315580Y-17370309D01*
X6315580Y-17298880D01*
X6329866Y-17241737D01*
X6344152Y-17213166D01*
X6358437Y-17198880D01*
X6387009Y-17184594D01*
X6658437Y-17313166D02*
X6629866Y-17298880D01*
X6615580Y-17284594D01*
X6601294Y-17256023D01*
X6601294Y-17241737D01*
X6615580Y-17213166D01*
X6629866Y-17198880D01*
X6658437Y-17184594D01*
X6715580Y-17184594D01*
X6744152Y-17198880D01*
X6758437Y-17213166D01*
X6772723Y-17241737D01*
X6772723Y-17256023D01*
X6758437Y-17284594D01*
X6744152Y-17298880D01*
X6715580Y-17313166D01*
X6658437Y-17313166D01*
X6629866Y-17327452D01*
X6615580Y-17341737D01*
X6601294Y-17370309D01*
X6601294Y-17427452D01*
X6615580Y-17456023D01*
X6629866Y-17470309D01*
X6658437Y-17484594D01*
X6715580Y-17484594D01*
X6744152Y-17470309D01*
X6758437Y-17456023D01*
X6772723Y-17427452D01*
X6772723Y-17370309D01*
X6758437Y-17341737D01*
X6744152Y-17327452D01*
X6715580Y-17313166D01*
X6872723Y-17184594D02*
X7072723Y-17184594D01*
X6944152Y-17484594D01*
X7172723Y-17184594D02*
X7172723Y-17241737D01*
X7287009Y-17184594D02*
X7287009Y-17241737D01*
X7729866Y-17598880D02*
X7715580Y-17584594D01*
X7687009Y-17541737D01*
X7672723Y-17513166D01*
X7658437Y-17470309D01*
X7644152Y-17398880D01*
X7644152Y-17341737D01*
X7658437Y-17270309D01*
X7672723Y-17227452D01*
X7687009Y-17198880D01*
X7715580Y-17156023D01*
X7729866Y-17141737D01*
X8001294Y-17484594D02*
X7829866Y-17484594D01*
X7915580Y-17484594D02*
X7915580Y-17184594D01*
X7887009Y-17227452D01*
X7858437Y-17256023D01*
X7829866Y-17270309D01*
X8358437Y-17484594D02*
X8358437Y-17184594D01*
X8487009Y-17484594D02*
X8487009Y-17327452D01*
X8472723Y-17298880D01*
X8444152Y-17284594D01*
X8401294Y-17284594D01*
X8372723Y-17298880D01*
X8358437Y-17313166D01*
X8672723Y-17484594D02*
X8644152Y-17470309D01*
X8629866Y-17456023D01*
X8615580Y-17427452D01*
X8615580Y-17341737D01*
X8629866Y-17313166D01*
X8644152Y-17298880D01*
X8672723Y-17284594D01*
X8715580Y-17284594D01*
X8744152Y-17298880D01*
X8758437Y-17313166D01*
X8772723Y-17341737D01*
X8772723Y-17427452D01*
X8758437Y-17456023D01*
X8744152Y-17470309D01*
X8715580Y-17484594D01*
X8672723Y-17484594D01*
X8944152Y-17484594D02*
X8915580Y-17470309D01*
X8901295Y-17441737D01*
X8901295Y-17184594D01*
X9172723Y-17470309D02*
X9144152Y-17484594D01*
X9087009Y-17484594D01*
X9058437Y-17470309D01*
X9044152Y-17441737D01*
X9044152Y-17327452D01*
X9058437Y-17298880D01*
X9087009Y-17284594D01*
X9144152Y-17284594D01*
X9172723Y-17298880D01*
X9187009Y-17327452D01*
X9187009Y-17356023D01*
X9044152Y-17384594D01*
X9287009Y-17598880D02*
X9301295Y-17584594D01*
X9329866Y-17541737D01*
X9344152Y-17513166D01*
X9358437Y-17470309D01*
X9372723Y-17398880D01*
X9372723Y-17341737D01*
X9358437Y-17270309D01*
X9344152Y-17227452D01*
X9329866Y-17198880D01*
X9301295Y-17156023D01*
X9287009Y-17141737D01*
M02*
