G04 #@! TF.FileFunction,Legend,Top*
%FSLAX46Y46*%
G04 Gerber Fmt 4.6, Leading zero omitted, Abs format (unit mm)*
G04 Created by KiCad (PCBNEW 4.0.4-snap1-stable) date Wed May  1 15:14:01 2019*
%MOMM*%
%LPD*%
G01*
G04 APERTURE LIST*
%ADD10C,0.100000*%
%ADD11C,0.150000*%
G04 APERTURE END LIST*
D10*
D11*
X152495000Y-115221000D02*
X151820000Y-115221000D01*
X152495000Y-125571000D02*
X151820000Y-125571000D01*
X142145000Y-125571000D02*
X142820000Y-125571000D01*
X142145000Y-115221000D02*
X142820000Y-115221000D01*
X152495000Y-115221000D02*
X152495000Y-115896000D01*
X142145000Y-115221000D02*
X142145000Y-115896000D01*
X142145000Y-125571000D02*
X142145000Y-124896000D01*
X152495000Y-125571000D02*
X152495000Y-124896000D01*
X151820000Y-115221000D02*
X151820000Y-113946000D01*
X134427600Y-128719200D02*
X134427600Y-127719200D01*
X135777600Y-127719200D02*
X135777600Y-128719200D01*
X146904000Y-128682000D02*
X146904000Y-129382000D01*
X145704000Y-129382000D02*
X145704000Y-128682000D01*
X144872000Y-128682000D02*
X144872000Y-129382000D01*
X143672000Y-129382000D02*
X143672000Y-128682000D01*
X145806800Y-110050200D02*
X145806800Y-109050200D01*
X147156800Y-109050200D02*
X147156800Y-110050200D01*
X135652600Y-125204400D02*
X135652600Y-123304400D01*
X134552600Y-125204400D02*
X134552600Y-123304400D01*
X135102600Y-124304400D02*
X135102600Y-123854400D01*
X134852600Y-124354400D02*
X135352600Y-124354400D01*
X135102600Y-124354400D02*
X134852600Y-124104400D01*
X134852600Y-124104400D02*
X135352600Y-124104400D01*
X135352600Y-124104400D02*
X135102600Y-124354400D01*
X158664219Y-79781400D02*
G75*
G03X158664219Y-79781400I-803219J0D01*
G01*
D10*
X158382500Y-79781400D02*
G75*
G03X158382500Y-79781400I-521500J0D01*
G01*
D11*
X154222381Y-121157905D02*
X155031905Y-121157905D01*
X155127143Y-121110286D01*
X155174762Y-121062667D01*
X155222381Y-120967429D01*
X155222381Y-120776952D01*
X155174762Y-120681714D01*
X155127143Y-120634095D01*
X155031905Y-120586476D01*
X154222381Y-120586476D01*
X155222381Y-119586476D02*
X155222381Y-120157905D01*
X155222381Y-119872191D02*
X154222381Y-119872191D01*
X154365238Y-119967429D01*
X154460476Y-120062667D01*
X154508095Y-120157905D01*
X164101091Y-146017834D02*
X164148710Y-145874977D01*
X164196330Y-145827358D01*
X164291568Y-145779739D01*
X164434425Y-145779739D01*
X164529663Y-145827358D01*
X164577282Y-145874977D01*
X164624901Y-145970215D01*
X164624901Y-146351168D01*
X163624901Y-146351168D01*
X163624901Y-146017834D01*
X163672520Y-145922596D01*
X163720139Y-145874977D01*
X163815377Y-145827358D01*
X163910615Y-145827358D01*
X164005853Y-145874977D01*
X164053472Y-145922596D01*
X164101091Y-146017834D01*
X164101091Y-146351168D01*
X163624901Y-145494025D02*
X163624901Y-144922596D01*
X164624901Y-145208311D02*
X163624901Y-145208311D01*
X164624901Y-144065453D02*
X164624901Y-144636882D01*
X164624901Y-144351168D02*
X163624901Y-144351168D01*
X163767758Y-144446406D01*
X163862996Y-144541644D01*
X163910615Y-144636882D01*
X129968667Y-129746381D02*
X129968667Y-130460667D01*
X129921047Y-130603524D01*
X129825809Y-130698762D01*
X129682952Y-130746381D01*
X129587714Y-130746381D01*
X130968667Y-130746381D02*
X130397238Y-130746381D01*
X130682952Y-130746381D02*
X130682952Y-129746381D01*
X130587714Y-129889238D01*
X130492476Y-129984476D01*
X130397238Y-130032095D01*
X128651048Y-125769714D02*
X129412953Y-126055429D01*
X128651048Y-126341143D01*
X137454981Y-128862057D02*
X136978790Y-129195391D01*
X137454981Y-129433486D02*
X136454981Y-129433486D01*
X136454981Y-129052533D01*
X136502600Y-128957295D01*
X136550219Y-128909676D01*
X136645457Y-128862057D01*
X136788314Y-128862057D01*
X136883552Y-128909676D01*
X136931171Y-128957295D01*
X136978790Y-129052533D01*
X136978790Y-129433486D01*
X137454981Y-127909676D02*
X137454981Y-128481105D01*
X137454981Y-128195391D02*
X136454981Y-128195391D01*
X136597838Y-128290629D01*
X136693076Y-128385867D01*
X136740695Y-128481105D01*
X136883552Y-127338248D02*
X136835933Y-127433486D01*
X136788314Y-127481105D01*
X136693076Y-127528724D01*
X136645457Y-127528724D01*
X136550219Y-127481105D01*
X136502600Y-127433486D01*
X136454981Y-127338248D01*
X136454981Y-127147771D01*
X136502600Y-127052533D01*
X136550219Y-127004914D01*
X136645457Y-126957295D01*
X136693076Y-126957295D01*
X136788314Y-127004914D01*
X136835933Y-127052533D01*
X136883552Y-127147771D01*
X136883552Y-127338248D01*
X136931171Y-127433486D01*
X136978790Y-127481105D01*
X137074029Y-127528724D01*
X137264505Y-127528724D01*
X137359743Y-127481105D01*
X137407362Y-127433486D01*
X137454981Y-127338248D01*
X137454981Y-127147771D01*
X137407362Y-127052533D01*
X137359743Y-127004914D01*
X137264505Y-126957295D01*
X137074029Y-126957295D01*
X136978790Y-127004914D01*
X136931171Y-127052533D01*
X136883552Y-127147771D01*
X148561143Y-129198666D02*
X148608762Y-129246285D01*
X148656381Y-129389142D01*
X148656381Y-129484380D01*
X148608762Y-129627238D01*
X148513524Y-129722476D01*
X148418286Y-129770095D01*
X148227810Y-129817714D01*
X148084952Y-129817714D01*
X147894476Y-129770095D01*
X147799238Y-129722476D01*
X147704000Y-129627238D01*
X147656381Y-129484380D01*
X147656381Y-129389142D01*
X147704000Y-129246285D01*
X147751619Y-129198666D01*
X148656381Y-128246285D02*
X148656381Y-128817714D01*
X148656381Y-128532000D02*
X147656381Y-128532000D01*
X147799238Y-128627238D01*
X147894476Y-128722476D01*
X147942095Y-128817714D01*
X146529143Y-129198666D02*
X146576762Y-129246285D01*
X146624381Y-129389142D01*
X146624381Y-129484380D01*
X146576762Y-129627238D01*
X146481524Y-129722476D01*
X146386286Y-129770095D01*
X146195810Y-129817714D01*
X146052952Y-129817714D01*
X145862476Y-129770095D01*
X145767238Y-129722476D01*
X145672000Y-129627238D01*
X145624381Y-129484380D01*
X145624381Y-129389142D01*
X145672000Y-129246285D01*
X145719619Y-129198666D01*
X145719619Y-128817714D02*
X145672000Y-128770095D01*
X145624381Y-128674857D01*
X145624381Y-128436761D01*
X145672000Y-128341523D01*
X145719619Y-128293904D01*
X145814857Y-128246285D01*
X145910095Y-128246285D01*
X146052952Y-128293904D01*
X146624381Y-128865333D01*
X146624381Y-128246285D01*
X148834181Y-110193057D02*
X148357990Y-110526391D01*
X148834181Y-110764486D02*
X147834181Y-110764486D01*
X147834181Y-110383533D01*
X147881800Y-110288295D01*
X147929419Y-110240676D01*
X148024657Y-110193057D01*
X148167514Y-110193057D01*
X148262752Y-110240676D01*
X148310371Y-110288295D01*
X148357990Y-110383533D01*
X148357990Y-110764486D01*
X148834181Y-109240676D02*
X148834181Y-109812105D01*
X148834181Y-109526391D02*
X147834181Y-109526391D01*
X147977038Y-109621629D01*
X148072276Y-109716867D01*
X148119895Y-109812105D01*
X147834181Y-108907343D02*
X147834181Y-108240676D01*
X148834181Y-108669248D01*
X134054981Y-125318686D02*
X133054981Y-125318686D01*
X133054981Y-125080591D01*
X133102600Y-124937733D01*
X133197838Y-124842495D01*
X133293076Y-124794876D01*
X133483552Y-124747257D01*
X133626410Y-124747257D01*
X133816886Y-124794876D01*
X133912124Y-124842495D01*
X134007362Y-124937733D01*
X134054981Y-125080591D01*
X134054981Y-125318686D01*
X134054981Y-123794876D02*
X134054981Y-124366305D01*
X134054981Y-124080591D02*
X133054981Y-124080591D01*
X133197838Y-124175829D01*
X133293076Y-124271067D01*
X133340695Y-124366305D01*
X133054981Y-123461543D02*
X133054981Y-122794876D01*
X134054981Y-123223448D01*
X153200267Y-111112181D02*
X152866933Y-110635990D01*
X152628838Y-111112181D02*
X152628838Y-110112181D01*
X153009791Y-110112181D01*
X153105029Y-110159800D01*
X153152648Y-110207419D01*
X153200267Y-110302657D01*
X153200267Y-110445514D01*
X153152648Y-110540752D01*
X153105029Y-110588371D01*
X153009791Y-110635990D01*
X152628838Y-110635990D01*
X153628838Y-110588371D02*
X153962172Y-110588371D01*
X154105029Y-111112181D02*
X153628838Y-111112181D01*
X153628838Y-110112181D01*
X154105029Y-110112181D01*
X154866934Y-110588371D02*
X154533600Y-110588371D01*
X154533600Y-111112181D02*
X154533600Y-110112181D01*
X155009791Y-110112181D01*
X155533600Y-110112181D02*
X155533600Y-110350276D01*
X155295505Y-110255038D02*
X155533600Y-110350276D01*
X155771696Y-110255038D01*
X155390743Y-110540752D02*
X155533600Y-110350276D01*
X155676458Y-110540752D01*
X156295505Y-110112181D02*
X156295505Y-110350276D01*
X156057410Y-110255038D02*
X156295505Y-110350276D01*
X156533601Y-110255038D01*
X156152648Y-110540752D02*
X156295505Y-110350276D01*
X156438363Y-110540752D01*
X156527667Y-78966321D02*
X156194333Y-78490130D01*
X155956238Y-78966321D02*
X155956238Y-77966321D01*
X156337191Y-77966321D01*
X156432429Y-78013940D01*
X156480048Y-78061559D01*
X156527667Y-78156797D01*
X156527667Y-78299654D01*
X156480048Y-78394892D01*
X156432429Y-78442511D01*
X156337191Y-78490130D01*
X155956238Y-78490130D01*
X156956238Y-78442511D02*
X157289572Y-78442511D01*
X157432429Y-78966321D02*
X156956238Y-78966321D01*
X156956238Y-77966321D01*
X157432429Y-77966321D01*
X158194334Y-78442511D02*
X157861000Y-78442511D01*
X157861000Y-78966321D02*
X157861000Y-77966321D01*
X158337191Y-77966321D01*
X158861000Y-77966321D02*
X158861000Y-78204416D01*
X158622905Y-78109178D02*
X158861000Y-78204416D01*
X159099096Y-78109178D01*
X158718143Y-78394892D02*
X158861000Y-78204416D01*
X159003858Y-78394892D01*
X159622905Y-77966321D02*
X159622905Y-78204416D01*
X159384810Y-78109178D02*
X159622905Y-78204416D01*
X159861001Y-78109178D01*
X159480048Y-78394892D02*
X159622905Y-78204416D01*
X159765763Y-78394892D01*
M02*
